G75*
%MOIN*%
%OFA0B0*%
%FSLAX24Y24*%
%IPPOS*%
%LPD*%
%AMOC8*
5,1,8,0,0,1.08239X$1,22.5*
%
%ADD10C,0.0050*%
%ADD11C,0.0000*%
%ADD12C,0.0740*%
%ADD13C,0.0436*%
%ADD14C,0.0240*%
%ADD15C,0.0330*%
%ADD16C,0.0320*%
%ADD17C,0.0397*%
%ADD18C,0.0120*%
%ADD19C,0.0160*%
%ADD20C,0.0730*%
%ADD21C,0.0400*%
D10*
X016260Y007643D02*
X016260Y025643D01*
X016262Y025719D01*
X016268Y025795D01*
X016277Y025870D01*
X016291Y025945D01*
X016308Y026019D01*
X016329Y026092D01*
X016353Y026164D01*
X016382Y026235D01*
X016413Y026304D01*
X016448Y026371D01*
X016487Y026436D01*
X016529Y026500D01*
X016574Y026561D01*
X016622Y026620D01*
X016673Y026676D01*
X016727Y026730D01*
X016783Y026781D01*
X016842Y026829D01*
X016903Y026874D01*
X016967Y026916D01*
X017032Y026955D01*
X017099Y026990D01*
X017168Y027021D01*
X017239Y027050D01*
X017311Y027074D01*
X017384Y027095D01*
X017458Y027112D01*
X017533Y027126D01*
X017608Y027135D01*
X017684Y027141D01*
X017760Y027143D01*
X052760Y027143D01*
X052836Y027141D01*
X052912Y027135D01*
X052987Y027126D01*
X053062Y027112D01*
X053136Y027095D01*
X053209Y027074D01*
X053281Y027050D01*
X053352Y027021D01*
X053421Y026990D01*
X053488Y026955D01*
X053553Y026916D01*
X053617Y026874D01*
X053678Y026829D01*
X053737Y026781D01*
X053793Y026730D01*
X053847Y026676D01*
X053898Y026620D01*
X053946Y026561D01*
X053991Y026500D01*
X054033Y026436D01*
X054072Y026371D01*
X054107Y026304D01*
X054138Y026235D01*
X054167Y026164D01*
X054191Y026092D01*
X054212Y026019D01*
X054229Y025945D01*
X054243Y025870D01*
X054252Y025795D01*
X054258Y025719D01*
X054260Y025643D01*
X054260Y007643D01*
X054258Y007567D01*
X054252Y007491D01*
X054243Y007416D01*
X054229Y007341D01*
X054212Y007267D01*
X054191Y007194D01*
X054167Y007122D01*
X054138Y007051D01*
X054107Y006982D01*
X054072Y006915D01*
X054033Y006850D01*
X053991Y006786D01*
X053946Y006725D01*
X053898Y006666D01*
X053847Y006610D01*
X053793Y006556D01*
X053737Y006505D01*
X053678Y006457D01*
X053617Y006412D01*
X053553Y006370D01*
X053488Y006331D01*
X053421Y006296D01*
X053352Y006265D01*
X053281Y006236D01*
X053209Y006212D01*
X053136Y006191D01*
X053062Y006174D01*
X052987Y006160D01*
X052912Y006151D01*
X052836Y006145D01*
X052760Y006143D01*
X017760Y006143D01*
X017684Y006145D01*
X017608Y006151D01*
X017533Y006160D01*
X017458Y006174D01*
X017384Y006191D01*
X017311Y006212D01*
X017239Y006236D01*
X017168Y006265D01*
X017099Y006296D01*
X017032Y006331D01*
X016967Y006370D01*
X016903Y006412D01*
X016842Y006457D01*
X016783Y006505D01*
X016727Y006556D01*
X016673Y006610D01*
X016622Y006666D01*
X016574Y006725D01*
X016529Y006786D01*
X016487Y006850D01*
X016448Y006915D01*
X016413Y006982D01*
X016382Y007051D01*
X016353Y007122D01*
X016329Y007194D01*
X016308Y007267D01*
X016291Y007341D01*
X016277Y007416D01*
X016268Y007491D01*
X016262Y007567D01*
X016260Y007643D01*
D11*
X017160Y007643D02*
X017162Y007692D01*
X017168Y007740D01*
X017178Y007788D01*
X017192Y007835D01*
X017209Y007881D01*
X017230Y007925D01*
X017255Y007967D01*
X017283Y008007D01*
X017315Y008045D01*
X017349Y008080D01*
X017386Y008112D01*
X017425Y008141D01*
X017467Y008167D01*
X017511Y008189D01*
X017556Y008207D01*
X017603Y008222D01*
X017650Y008233D01*
X017699Y008240D01*
X017748Y008243D01*
X017797Y008242D01*
X017845Y008237D01*
X017894Y008228D01*
X017941Y008215D01*
X017987Y008198D01*
X018031Y008178D01*
X018074Y008154D01*
X018115Y008127D01*
X018153Y008096D01*
X018189Y008063D01*
X018221Y008027D01*
X018251Y007988D01*
X018278Y007947D01*
X018301Y007903D01*
X018320Y007858D01*
X018336Y007812D01*
X018348Y007765D01*
X018356Y007716D01*
X018360Y007667D01*
X018360Y007619D01*
X018356Y007570D01*
X018348Y007521D01*
X018336Y007474D01*
X018320Y007428D01*
X018301Y007383D01*
X018278Y007339D01*
X018251Y007298D01*
X018221Y007259D01*
X018189Y007223D01*
X018153Y007190D01*
X018115Y007159D01*
X018074Y007132D01*
X018031Y007108D01*
X017987Y007088D01*
X017941Y007071D01*
X017894Y007058D01*
X017845Y007049D01*
X017797Y007044D01*
X017748Y007043D01*
X017699Y007046D01*
X017650Y007053D01*
X017603Y007064D01*
X017556Y007079D01*
X017511Y007097D01*
X017467Y007119D01*
X017425Y007145D01*
X017386Y007174D01*
X017349Y007206D01*
X017315Y007241D01*
X017283Y007279D01*
X017255Y007319D01*
X017230Y007361D01*
X017209Y007405D01*
X017192Y007451D01*
X017178Y007498D01*
X017168Y007546D01*
X017162Y007594D01*
X017160Y007643D01*
X021086Y009261D02*
X021088Y009300D01*
X021094Y009339D01*
X021104Y009377D01*
X021117Y009414D01*
X021134Y009449D01*
X021154Y009483D01*
X021178Y009514D01*
X021205Y009543D01*
X021234Y009569D01*
X021266Y009592D01*
X021300Y009612D01*
X021336Y009628D01*
X021373Y009640D01*
X021412Y009649D01*
X021451Y009654D01*
X021490Y009655D01*
X021529Y009652D01*
X021568Y009645D01*
X021605Y009634D01*
X021642Y009620D01*
X021677Y009602D01*
X021710Y009581D01*
X021741Y009556D01*
X021769Y009529D01*
X021794Y009499D01*
X021816Y009466D01*
X021835Y009432D01*
X021850Y009396D01*
X021862Y009358D01*
X021870Y009320D01*
X021874Y009281D01*
X021874Y009241D01*
X021870Y009202D01*
X021862Y009164D01*
X021850Y009126D01*
X021835Y009090D01*
X021816Y009056D01*
X021794Y009023D01*
X021769Y008993D01*
X021741Y008966D01*
X021710Y008941D01*
X021677Y008920D01*
X021642Y008902D01*
X021605Y008888D01*
X021568Y008877D01*
X021529Y008870D01*
X021490Y008867D01*
X021451Y008868D01*
X021412Y008873D01*
X021373Y008882D01*
X021336Y008894D01*
X021300Y008910D01*
X021266Y008930D01*
X021234Y008953D01*
X021205Y008979D01*
X021178Y009008D01*
X021154Y009039D01*
X021134Y009073D01*
X021117Y009108D01*
X021104Y009145D01*
X021094Y009183D01*
X021088Y009222D01*
X021086Y009261D01*
X024161Y006552D02*
X024163Y006578D01*
X024169Y006604D01*
X024178Y006628D01*
X024191Y006651D01*
X024208Y006671D01*
X024227Y006689D01*
X024249Y006704D01*
X024272Y006715D01*
X024297Y006723D01*
X024323Y006727D01*
X024349Y006727D01*
X024375Y006723D01*
X024400Y006715D01*
X024424Y006704D01*
X024445Y006689D01*
X024464Y006671D01*
X024481Y006651D01*
X024494Y006628D01*
X024503Y006604D01*
X024509Y006578D01*
X024511Y006552D01*
X024509Y006526D01*
X024503Y006500D01*
X024494Y006476D01*
X024481Y006453D01*
X024464Y006433D01*
X024445Y006415D01*
X024423Y006400D01*
X024400Y006389D01*
X024375Y006381D01*
X024349Y006377D01*
X024323Y006377D01*
X024297Y006381D01*
X024272Y006389D01*
X024248Y006400D01*
X024227Y006415D01*
X024208Y006433D01*
X024191Y006453D01*
X024178Y006476D01*
X024169Y006500D01*
X024163Y006526D01*
X024161Y006552D01*
X027310Y006552D02*
X027312Y006578D01*
X027318Y006604D01*
X027327Y006628D01*
X027340Y006651D01*
X027357Y006671D01*
X027376Y006689D01*
X027398Y006704D01*
X027421Y006715D01*
X027446Y006723D01*
X027472Y006727D01*
X027498Y006727D01*
X027524Y006723D01*
X027549Y006715D01*
X027573Y006704D01*
X027594Y006689D01*
X027613Y006671D01*
X027630Y006651D01*
X027643Y006628D01*
X027652Y006604D01*
X027658Y006578D01*
X027660Y006552D01*
X027658Y006526D01*
X027652Y006500D01*
X027643Y006476D01*
X027630Y006453D01*
X027613Y006433D01*
X027594Y006415D01*
X027572Y006400D01*
X027549Y006389D01*
X027524Y006381D01*
X027498Y006377D01*
X027472Y006377D01*
X027446Y006381D01*
X027421Y006389D01*
X027397Y006400D01*
X027376Y006415D01*
X027357Y006433D01*
X027340Y006453D01*
X027327Y006476D01*
X027318Y006500D01*
X027312Y006526D01*
X027310Y006552D01*
X048645Y009261D02*
X048647Y009300D01*
X048653Y009339D01*
X048663Y009377D01*
X048676Y009414D01*
X048693Y009449D01*
X048713Y009483D01*
X048737Y009514D01*
X048764Y009543D01*
X048793Y009569D01*
X048825Y009592D01*
X048859Y009612D01*
X048895Y009628D01*
X048932Y009640D01*
X048971Y009649D01*
X049010Y009654D01*
X049049Y009655D01*
X049088Y009652D01*
X049127Y009645D01*
X049164Y009634D01*
X049201Y009620D01*
X049236Y009602D01*
X049269Y009581D01*
X049300Y009556D01*
X049328Y009529D01*
X049353Y009499D01*
X049375Y009466D01*
X049394Y009432D01*
X049409Y009396D01*
X049421Y009358D01*
X049429Y009320D01*
X049433Y009281D01*
X049433Y009241D01*
X049429Y009202D01*
X049421Y009164D01*
X049409Y009126D01*
X049394Y009090D01*
X049375Y009056D01*
X049353Y009023D01*
X049328Y008993D01*
X049300Y008966D01*
X049269Y008941D01*
X049236Y008920D01*
X049201Y008902D01*
X049164Y008888D01*
X049127Y008877D01*
X049088Y008870D01*
X049049Y008867D01*
X049010Y008868D01*
X048971Y008873D01*
X048932Y008882D01*
X048895Y008894D01*
X048859Y008910D01*
X048825Y008930D01*
X048793Y008953D01*
X048764Y008979D01*
X048737Y009008D01*
X048713Y009039D01*
X048693Y009073D01*
X048676Y009108D01*
X048663Y009145D01*
X048653Y009183D01*
X048647Y009222D01*
X048645Y009261D01*
X052160Y007643D02*
X052162Y007692D01*
X052168Y007740D01*
X052178Y007788D01*
X052192Y007835D01*
X052209Y007881D01*
X052230Y007925D01*
X052255Y007967D01*
X052283Y008007D01*
X052315Y008045D01*
X052349Y008080D01*
X052386Y008112D01*
X052425Y008141D01*
X052467Y008167D01*
X052511Y008189D01*
X052556Y008207D01*
X052603Y008222D01*
X052650Y008233D01*
X052699Y008240D01*
X052748Y008243D01*
X052797Y008242D01*
X052845Y008237D01*
X052894Y008228D01*
X052941Y008215D01*
X052987Y008198D01*
X053031Y008178D01*
X053074Y008154D01*
X053115Y008127D01*
X053153Y008096D01*
X053189Y008063D01*
X053221Y008027D01*
X053251Y007988D01*
X053278Y007947D01*
X053301Y007903D01*
X053320Y007858D01*
X053336Y007812D01*
X053348Y007765D01*
X053356Y007716D01*
X053360Y007667D01*
X053360Y007619D01*
X053356Y007570D01*
X053348Y007521D01*
X053336Y007474D01*
X053320Y007428D01*
X053301Y007383D01*
X053278Y007339D01*
X053251Y007298D01*
X053221Y007259D01*
X053189Y007223D01*
X053153Y007190D01*
X053115Y007159D01*
X053074Y007132D01*
X053031Y007108D01*
X052987Y007088D01*
X052941Y007071D01*
X052894Y007058D01*
X052845Y007049D01*
X052797Y007044D01*
X052748Y007043D01*
X052699Y007046D01*
X052650Y007053D01*
X052603Y007064D01*
X052556Y007079D01*
X052511Y007097D01*
X052467Y007119D01*
X052425Y007145D01*
X052386Y007174D01*
X052349Y007206D01*
X052315Y007241D01*
X052283Y007279D01*
X052255Y007319D01*
X052230Y007361D01*
X052209Y007405D01*
X052192Y007451D01*
X052178Y007498D01*
X052168Y007546D01*
X052162Y007594D01*
X052160Y007643D01*
X048645Y024025D02*
X048647Y024064D01*
X048653Y024103D01*
X048663Y024141D01*
X048676Y024178D01*
X048693Y024213D01*
X048713Y024247D01*
X048737Y024278D01*
X048764Y024307D01*
X048793Y024333D01*
X048825Y024356D01*
X048859Y024376D01*
X048895Y024392D01*
X048932Y024404D01*
X048971Y024413D01*
X049010Y024418D01*
X049049Y024419D01*
X049088Y024416D01*
X049127Y024409D01*
X049164Y024398D01*
X049201Y024384D01*
X049236Y024366D01*
X049269Y024345D01*
X049300Y024320D01*
X049328Y024293D01*
X049353Y024263D01*
X049375Y024230D01*
X049394Y024196D01*
X049409Y024160D01*
X049421Y024122D01*
X049429Y024084D01*
X049433Y024045D01*
X049433Y024005D01*
X049429Y023966D01*
X049421Y023928D01*
X049409Y023890D01*
X049394Y023854D01*
X049375Y023820D01*
X049353Y023787D01*
X049328Y023757D01*
X049300Y023730D01*
X049269Y023705D01*
X049236Y023684D01*
X049201Y023666D01*
X049164Y023652D01*
X049127Y023641D01*
X049088Y023634D01*
X049049Y023631D01*
X049010Y023632D01*
X048971Y023637D01*
X048932Y023646D01*
X048895Y023658D01*
X048859Y023674D01*
X048825Y023694D01*
X048793Y023717D01*
X048764Y023743D01*
X048737Y023772D01*
X048713Y023803D01*
X048693Y023837D01*
X048676Y023872D01*
X048663Y023909D01*
X048653Y023947D01*
X048647Y023986D01*
X048645Y024025D01*
X052160Y025643D02*
X052162Y025692D01*
X052168Y025740D01*
X052178Y025788D01*
X052192Y025835D01*
X052209Y025881D01*
X052230Y025925D01*
X052255Y025967D01*
X052283Y026007D01*
X052315Y026045D01*
X052349Y026080D01*
X052386Y026112D01*
X052425Y026141D01*
X052467Y026167D01*
X052511Y026189D01*
X052556Y026207D01*
X052603Y026222D01*
X052650Y026233D01*
X052699Y026240D01*
X052748Y026243D01*
X052797Y026242D01*
X052845Y026237D01*
X052894Y026228D01*
X052941Y026215D01*
X052987Y026198D01*
X053031Y026178D01*
X053074Y026154D01*
X053115Y026127D01*
X053153Y026096D01*
X053189Y026063D01*
X053221Y026027D01*
X053251Y025988D01*
X053278Y025947D01*
X053301Y025903D01*
X053320Y025858D01*
X053336Y025812D01*
X053348Y025765D01*
X053356Y025716D01*
X053360Y025667D01*
X053360Y025619D01*
X053356Y025570D01*
X053348Y025521D01*
X053336Y025474D01*
X053320Y025428D01*
X053301Y025383D01*
X053278Y025339D01*
X053251Y025298D01*
X053221Y025259D01*
X053189Y025223D01*
X053153Y025190D01*
X053115Y025159D01*
X053074Y025132D01*
X053031Y025108D01*
X052987Y025088D01*
X052941Y025071D01*
X052894Y025058D01*
X052845Y025049D01*
X052797Y025044D01*
X052748Y025043D01*
X052699Y025046D01*
X052650Y025053D01*
X052603Y025064D01*
X052556Y025079D01*
X052511Y025097D01*
X052467Y025119D01*
X052425Y025145D01*
X052386Y025174D01*
X052349Y025206D01*
X052315Y025241D01*
X052283Y025279D01*
X052255Y025319D01*
X052230Y025361D01*
X052209Y025405D01*
X052192Y025451D01*
X052178Y025498D01*
X052168Y025546D01*
X052162Y025594D01*
X052160Y025643D01*
X021086Y024025D02*
X021088Y024064D01*
X021094Y024103D01*
X021104Y024141D01*
X021117Y024178D01*
X021134Y024213D01*
X021154Y024247D01*
X021178Y024278D01*
X021205Y024307D01*
X021234Y024333D01*
X021266Y024356D01*
X021300Y024376D01*
X021336Y024392D01*
X021373Y024404D01*
X021412Y024413D01*
X021451Y024418D01*
X021490Y024419D01*
X021529Y024416D01*
X021568Y024409D01*
X021605Y024398D01*
X021642Y024384D01*
X021677Y024366D01*
X021710Y024345D01*
X021741Y024320D01*
X021769Y024293D01*
X021794Y024263D01*
X021816Y024230D01*
X021835Y024196D01*
X021850Y024160D01*
X021862Y024122D01*
X021870Y024084D01*
X021874Y024045D01*
X021874Y024005D01*
X021870Y023966D01*
X021862Y023928D01*
X021850Y023890D01*
X021835Y023854D01*
X021816Y023820D01*
X021794Y023787D01*
X021769Y023757D01*
X021741Y023730D01*
X021710Y023705D01*
X021677Y023684D01*
X021642Y023666D01*
X021605Y023652D01*
X021568Y023641D01*
X021529Y023634D01*
X021490Y023631D01*
X021451Y023632D01*
X021412Y023637D01*
X021373Y023646D01*
X021336Y023658D01*
X021300Y023674D01*
X021266Y023694D01*
X021234Y023717D01*
X021205Y023743D01*
X021178Y023772D01*
X021154Y023803D01*
X021134Y023837D01*
X021117Y023872D01*
X021104Y023909D01*
X021094Y023947D01*
X021088Y023986D01*
X021086Y024025D01*
X017160Y025643D02*
X017162Y025692D01*
X017168Y025740D01*
X017178Y025788D01*
X017192Y025835D01*
X017209Y025881D01*
X017230Y025925D01*
X017255Y025967D01*
X017283Y026007D01*
X017315Y026045D01*
X017349Y026080D01*
X017386Y026112D01*
X017425Y026141D01*
X017467Y026167D01*
X017511Y026189D01*
X017556Y026207D01*
X017603Y026222D01*
X017650Y026233D01*
X017699Y026240D01*
X017748Y026243D01*
X017797Y026242D01*
X017845Y026237D01*
X017894Y026228D01*
X017941Y026215D01*
X017987Y026198D01*
X018031Y026178D01*
X018074Y026154D01*
X018115Y026127D01*
X018153Y026096D01*
X018189Y026063D01*
X018221Y026027D01*
X018251Y025988D01*
X018278Y025947D01*
X018301Y025903D01*
X018320Y025858D01*
X018336Y025812D01*
X018348Y025765D01*
X018356Y025716D01*
X018360Y025667D01*
X018360Y025619D01*
X018356Y025570D01*
X018348Y025521D01*
X018336Y025474D01*
X018320Y025428D01*
X018301Y025383D01*
X018278Y025339D01*
X018251Y025298D01*
X018221Y025259D01*
X018189Y025223D01*
X018153Y025190D01*
X018115Y025159D01*
X018074Y025132D01*
X018031Y025108D01*
X017987Y025088D01*
X017941Y025071D01*
X017894Y025058D01*
X017845Y025049D01*
X017797Y025044D01*
X017748Y025043D01*
X017699Y025046D01*
X017650Y025053D01*
X017603Y025064D01*
X017556Y025079D01*
X017511Y025097D01*
X017467Y025119D01*
X017425Y025145D01*
X017386Y025174D01*
X017349Y025206D01*
X017315Y025241D01*
X017283Y025279D01*
X017255Y025319D01*
X017230Y025361D01*
X017209Y025405D01*
X017192Y025451D01*
X017178Y025498D01*
X017168Y025546D01*
X017162Y025594D01*
X017160Y025643D01*
D12*
X023760Y026143D03*
X024760Y026143D03*
X025760Y026143D03*
X026760Y026143D03*
X027760Y026143D03*
X028760Y026143D03*
X029760Y026143D03*
X030760Y026143D03*
X032760Y026143D03*
X033760Y026143D03*
X034760Y026243D03*
X035760Y026143D03*
X036760Y026243D03*
X037760Y026143D03*
X038760Y026243D03*
X039760Y026143D03*
X040760Y026243D03*
X041760Y026143D03*
X043260Y026243D03*
X044260Y026143D03*
X045260Y026243D03*
X046260Y026143D03*
X047260Y026243D03*
X048260Y026143D03*
X049260Y026243D03*
X050260Y026143D03*
X050260Y007143D03*
X049260Y007043D03*
X048260Y007143D03*
X047260Y007043D03*
X046260Y007143D03*
X045260Y007043D03*
X043260Y007143D03*
X042260Y007043D03*
X041260Y007143D03*
X040260Y007043D03*
X039260Y007143D03*
X038260Y007043D03*
X037260Y007143D03*
X036260Y007043D03*
D13*
X035760Y016643D03*
X038760Y018143D03*
X039860Y018143D03*
X035760Y018843D03*
D14*
X035760Y016643D01*
D15*
X036260Y016043D03*
X035060Y016043D03*
X033860Y015643D03*
X031860Y015143D03*
X030860Y013943D03*
X032860Y013643D03*
X034360Y013743D03*
X036560Y013943D03*
X036960Y013043D03*
X033660Y012043D03*
X032260Y011243D03*
X029060Y011943D03*
X026760Y011543D03*
X026760Y012343D03*
X025760Y013743D03*
X027160Y014243D03*
X025560Y015643D03*
X027360Y015943D03*
X027760Y017743D03*
X025560Y017943D03*
X025560Y019743D03*
X027660Y019743D03*
X028260Y021243D03*
X028660Y022143D03*
X027360Y022143D03*
X025160Y021843D03*
X022160Y021143D03*
X018035Y020418D03*
X017960Y021543D03*
X018260Y024543D03*
X021360Y025543D03*
X023360Y025343D03*
X025260Y025643D03*
X026760Y024743D03*
X027360Y025343D03*
X028560Y025443D03*
X029160Y024743D03*
X031160Y025043D03*
X032260Y024943D03*
X033260Y024943D03*
X034760Y024943D03*
X035960Y024643D03*
X037360Y025043D03*
X038360Y024943D03*
X039360Y024943D03*
X040360Y024843D03*
X041260Y024843D03*
X042560Y024743D03*
X043760Y024743D03*
X044760Y024743D03*
X045760Y024743D03*
X046760Y024743D03*
X047760Y024743D03*
X048860Y024843D03*
X049860Y024943D03*
X051060Y024643D03*
X053360Y024343D03*
X052860Y022443D03*
X050160Y021143D03*
X049060Y019943D03*
X049560Y018843D03*
X053060Y019843D03*
X047260Y021643D03*
X045460Y021243D03*
X043260Y020643D03*
X041760Y020443D03*
X045360Y018243D03*
X042960Y017943D03*
X040360Y016443D03*
X039760Y015543D03*
X037860Y015443D03*
X040360Y013743D03*
X041460Y013543D03*
X042360Y015643D03*
X045060Y014143D03*
X046460Y012943D03*
X049060Y013943D03*
X050860Y012443D03*
X052960Y014743D03*
X050860Y016143D03*
X048560Y016243D03*
X043460Y011043D03*
X039660Y011043D03*
X036260Y010643D03*
X041760Y008843D03*
X044460Y007943D03*
X045860Y008443D03*
X046860Y008343D03*
X047860Y008243D03*
X048860Y008243D03*
X051360Y008943D03*
X053160Y009243D03*
X051960Y006843D03*
X044260Y006743D03*
X034960Y006843D03*
X031060Y006743D03*
X025960Y006843D03*
X026060Y008843D03*
X026360Y009643D03*
X025160Y009943D03*
X022360Y008943D03*
X019360Y007343D03*
X022160Y006743D03*
X017560Y009343D03*
X019460Y010943D03*
X021560Y010943D03*
X023660Y011843D03*
X021860Y013743D03*
X021360Y015143D03*
X021960Y016643D03*
X019260Y016543D03*
X018060Y018043D03*
X018060Y013643D03*
X031360Y016643D03*
X031660Y019243D03*
X032860Y020743D03*
X034660Y022643D03*
X035660Y022943D03*
X036060Y023343D03*
X037560Y021243D03*
X035860Y020143D03*
X031160Y023043D03*
X026760Y023843D03*
X026260Y023843D03*
X024660Y023843D03*
D16*
X033860Y015643D02*
X035660Y015643D01*
D17*
X035660Y015643D03*
X043560Y015843D03*
X043560Y016843D03*
D18*
X043796Y017045D02*
X054075Y017045D01*
X054075Y016927D02*
X043860Y016927D01*
X043870Y016905D02*
X043822Y017019D01*
X043735Y017106D01*
X043621Y017153D01*
X043498Y017153D01*
X043384Y017106D01*
X043297Y017019D01*
X043250Y016905D01*
X043250Y015782D01*
X043297Y015668D01*
X043384Y015581D01*
X043498Y015533D01*
X043621Y015533D01*
X043735Y015581D01*
X043822Y015668D01*
X043870Y015782D01*
X043870Y016905D01*
X043870Y016808D02*
X054075Y016808D01*
X054075Y016690D02*
X043870Y016690D01*
X043870Y016571D02*
X054075Y016571D01*
X054075Y016453D02*
X043870Y016453D01*
X043870Y016334D02*
X054075Y016334D01*
X054075Y016216D02*
X043870Y016216D01*
X043870Y016097D02*
X054075Y016097D01*
X054075Y015979D02*
X043870Y015979D01*
X043870Y015860D02*
X054075Y015860D01*
X054075Y015742D02*
X043853Y015742D01*
X043778Y015623D02*
X054075Y015623D01*
X054075Y015505D02*
X035936Y015505D01*
X035921Y015469D02*
X035968Y015582D01*
X035968Y015705D01*
X035921Y015818D01*
X035834Y015905D01*
X035721Y015952D01*
X035598Y015952D01*
X035505Y015913D01*
X033926Y015913D01*
X033914Y015918D01*
X033805Y015918D01*
X033704Y015876D01*
X033626Y015799D01*
X033585Y015698D01*
X033585Y015589D01*
X033626Y015488D01*
X033704Y015410D01*
X033805Y015368D01*
X033914Y015368D01*
X033926Y015373D01*
X035505Y015373D01*
X035598Y015335D01*
X035721Y015335D01*
X035834Y015382D01*
X035921Y015469D01*
X035839Y015386D02*
X054075Y015386D01*
X054075Y015268D02*
X019250Y015268D01*
X019250Y015386D02*
X033761Y015386D01*
X033619Y015505D02*
X019250Y015505D01*
X019250Y015623D02*
X033585Y015623D01*
X033603Y015742D02*
X019250Y015742D01*
X019250Y015860D02*
X033688Y015860D01*
X035431Y016578D02*
X035431Y016709D01*
X035481Y016829D01*
X035530Y016877D01*
X035530Y018609D01*
X035481Y018657D01*
X035431Y018778D01*
X035431Y018909D01*
X035481Y019029D01*
X035574Y019121D01*
X035694Y019171D01*
X035825Y019171D01*
X035945Y019121D01*
X036038Y019029D01*
X036088Y018909D01*
X036088Y018778D01*
X036038Y018657D01*
X035990Y018609D01*
X035990Y016877D01*
X036038Y016829D01*
X036088Y016709D01*
X036088Y016578D01*
X036038Y016457D01*
X035945Y016365D01*
X035825Y016315D01*
X035694Y016315D01*
X035574Y016365D01*
X035481Y016457D01*
X035431Y016578D01*
X035434Y016571D02*
X019535Y016571D01*
X019535Y016598D02*
X019493Y016699D01*
X019415Y016776D01*
X019314Y016818D01*
X019205Y016818D01*
X019104Y016776D01*
X019026Y016699D01*
X018985Y016598D01*
X018985Y016537D01*
X018870Y016422D01*
X018870Y009502D01*
X018850Y009522D01*
X018850Y019872D01*
X018310Y020412D01*
X018310Y020473D01*
X018268Y020574D01*
X018190Y020651D01*
X018089Y020693D01*
X017980Y020693D01*
X017879Y020651D01*
X017801Y020574D01*
X017760Y020473D01*
X017760Y020364D01*
X017801Y020263D01*
X017879Y020185D01*
X017980Y020143D01*
X018041Y020143D01*
X018470Y019715D01*
X018470Y009365D01*
X018581Y009253D01*
X020181Y007653D01*
X041114Y007653D01*
X041056Y007634D01*
X040982Y007597D01*
X040914Y007548D01*
X040855Y007489D01*
X040806Y007421D01*
X040768Y007347D01*
X040743Y007267D01*
X040730Y007185D01*
X040730Y007183D01*
X041220Y007183D01*
X041220Y007103D01*
X041300Y007103D01*
X041300Y006613D01*
X041301Y006613D01*
X041384Y006626D01*
X041463Y006652D01*
X041537Y006690D01*
X041605Y006739D01*
X041664Y006798D01*
X041713Y006866D01*
X041742Y006923D01*
X041743Y006919D01*
X041768Y006840D01*
X041806Y006766D01*
X041855Y006698D01*
X041914Y006639D01*
X041982Y006590D01*
X042056Y006552D01*
X042135Y006526D01*
X042218Y006513D01*
X042220Y006513D01*
X042220Y007003D01*
X042300Y007003D01*
X042300Y007083D01*
X042780Y007083D01*
X042780Y007048D01*
X042853Y006871D01*
X042988Y006736D01*
X043164Y006663D01*
X043355Y006663D01*
X043531Y006736D01*
X043666Y006871D01*
X043740Y007048D01*
X043740Y007239D01*
X043666Y007415D01*
X043531Y007550D01*
X043355Y007623D01*
X043164Y007623D01*
X042988Y007550D01*
X042853Y007415D01*
X042780Y007239D01*
X042780Y007148D01*
X042776Y007167D01*
X042751Y007247D01*
X042713Y007321D01*
X042664Y007389D01*
X042605Y007448D01*
X042537Y007497D01*
X042463Y007534D01*
X042384Y007560D01*
X042301Y007573D01*
X042300Y007573D01*
X042300Y007083D01*
X042220Y007083D01*
X042220Y007573D01*
X042218Y007573D01*
X042135Y007560D01*
X042056Y007534D01*
X041982Y007497D01*
X041914Y007448D01*
X041855Y007389D01*
X041806Y007321D01*
X041777Y007264D01*
X041776Y007267D01*
X041751Y007347D01*
X041713Y007421D01*
X041664Y007489D01*
X041605Y007548D01*
X041537Y007597D01*
X041463Y007634D01*
X041405Y007653D01*
X042438Y007653D01*
X042550Y007765D01*
X044638Y009853D01*
X045008Y009853D01*
X044990Y009846D01*
X044857Y009712D01*
X044785Y009538D01*
X044785Y009349D01*
X044857Y009174D01*
X044990Y009041D01*
X045165Y008968D01*
X045354Y008968D01*
X045529Y009041D01*
X045662Y009174D01*
X045735Y009349D01*
X045735Y009538D01*
X045662Y009712D01*
X045529Y009846D01*
X045511Y009853D01*
X046008Y009853D01*
X045990Y009846D01*
X045857Y009712D01*
X045785Y009538D01*
X045785Y009349D01*
X045857Y009174D01*
X045990Y009041D01*
X046165Y008968D01*
X046354Y008968D01*
X046529Y009041D01*
X046662Y009174D01*
X046735Y009349D01*
X046735Y009538D01*
X046662Y009712D01*
X046529Y009846D01*
X046511Y009853D01*
X046638Y009853D01*
X046750Y009965D01*
X047353Y010568D01*
X047354Y010568D01*
X047529Y010641D01*
X047662Y010774D01*
X047735Y010949D01*
X047735Y011138D01*
X047662Y011312D01*
X047529Y011446D01*
X047354Y011518D01*
X047165Y011518D01*
X046990Y011446D01*
X046857Y011312D01*
X046785Y011138D01*
X046785Y010949D01*
X046857Y010774D01*
X046939Y010692D01*
X046481Y010233D01*
X044618Y010233D01*
X044638Y010253D01*
X045738Y010253D01*
X045850Y010365D01*
X046086Y010601D01*
X046165Y010568D01*
X046354Y010568D01*
X046529Y010641D01*
X046662Y010774D01*
X046735Y010949D01*
X046735Y011138D01*
X046662Y011312D01*
X046529Y011446D01*
X046354Y011518D01*
X046165Y011518D01*
X045990Y011446D01*
X045857Y011312D01*
X045785Y011138D01*
X045785Y010949D01*
X045817Y010870D01*
X045581Y010633D01*
X045511Y010633D01*
X045529Y010641D01*
X045662Y010774D01*
X045735Y010949D01*
X045735Y011138D01*
X045662Y011312D01*
X045529Y011446D01*
X045354Y011518D01*
X045165Y011518D01*
X044990Y011446D01*
X044857Y011312D01*
X044785Y011138D01*
X044785Y011033D01*
X044481Y011033D01*
X042081Y008633D01*
X020738Y008633D01*
X019650Y009722D01*
X019650Y010744D01*
X019693Y010788D01*
X019735Y010889D01*
X019735Y010998D01*
X019693Y011099D01*
X019615Y011176D01*
X019514Y011218D01*
X019405Y011218D01*
X019304Y011176D01*
X019250Y011122D01*
X019250Y016265D01*
X019253Y016268D01*
X019314Y016268D01*
X019415Y016310D01*
X019493Y016388D01*
X019535Y016489D01*
X019535Y016598D01*
X019496Y016690D02*
X035431Y016690D01*
X035473Y016808D02*
X019338Y016808D01*
X019181Y016808D02*
X018850Y016808D01*
X018850Y016690D02*
X019023Y016690D01*
X018985Y016571D02*
X018850Y016571D01*
X018850Y016453D02*
X018900Y016453D01*
X018870Y016334D02*
X018850Y016334D01*
X018850Y016216D02*
X018870Y016216D01*
X018870Y016097D02*
X018850Y016097D01*
X018850Y015979D02*
X018870Y015979D01*
X018870Y015860D02*
X018850Y015860D01*
X018850Y015742D02*
X018870Y015742D01*
X018870Y015623D02*
X018850Y015623D01*
X018850Y015505D02*
X018870Y015505D01*
X018870Y015386D02*
X018850Y015386D01*
X018850Y015268D02*
X018870Y015268D01*
X018870Y015149D02*
X018850Y015149D01*
X018850Y015031D02*
X018870Y015031D01*
X018870Y014912D02*
X018850Y014912D01*
X018850Y014794D02*
X018870Y014794D01*
X018870Y014675D02*
X018850Y014675D01*
X018850Y014557D02*
X018870Y014557D01*
X018870Y014438D02*
X018850Y014438D01*
X018850Y014320D02*
X018870Y014320D01*
X018870Y014201D02*
X018850Y014201D01*
X018850Y014083D02*
X018870Y014083D01*
X018870Y013964D02*
X018850Y013964D01*
X018850Y013846D02*
X018870Y013846D01*
X018870Y013727D02*
X018850Y013727D01*
X018850Y013609D02*
X018870Y013609D01*
X018870Y013490D02*
X018850Y013490D01*
X018850Y013372D02*
X018870Y013372D01*
X018870Y013253D02*
X018850Y013253D01*
X018850Y013135D02*
X018870Y013135D01*
X018870Y013016D02*
X018850Y013016D01*
X018850Y012898D02*
X018870Y012898D01*
X018870Y012779D02*
X018850Y012779D01*
X018850Y012661D02*
X018870Y012661D01*
X018870Y012542D02*
X018850Y012542D01*
X018850Y012424D02*
X018870Y012424D01*
X018870Y012305D02*
X018850Y012305D01*
X018850Y012187D02*
X018870Y012187D01*
X018870Y012068D02*
X018850Y012068D01*
X018850Y011950D02*
X018870Y011950D01*
X018870Y011831D02*
X018850Y011831D01*
X018850Y011713D02*
X018870Y011713D01*
X018870Y011594D02*
X018850Y011594D01*
X018850Y011476D02*
X018870Y011476D01*
X018870Y011357D02*
X018850Y011357D01*
X018850Y011239D02*
X018870Y011239D01*
X018870Y011120D02*
X018850Y011120D01*
X018850Y011002D02*
X018870Y011002D01*
X018870Y010883D02*
X018850Y010883D01*
X018850Y010765D02*
X018870Y010765D01*
X018870Y010646D02*
X018850Y010646D01*
X018850Y010528D02*
X018870Y010528D01*
X018870Y010409D02*
X018850Y010409D01*
X018850Y010291D02*
X018870Y010291D01*
X018870Y010172D02*
X018850Y010172D01*
X018850Y010054D02*
X018870Y010054D01*
X018870Y009935D02*
X018850Y009935D01*
X018850Y009817D02*
X018870Y009817D01*
X018870Y009698D02*
X018850Y009698D01*
X018850Y009580D02*
X018870Y009580D01*
X018470Y009580D02*
X016445Y009580D01*
X016445Y009698D02*
X018470Y009698D01*
X018470Y009817D02*
X016445Y009817D01*
X016445Y009935D02*
X018470Y009935D01*
X018470Y010054D02*
X016445Y010054D01*
X016445Y010172D02*
X018470Y010172D01*
X018470Y010291D02*
X016445Y010291D01*
X016445Y010409D02*
X018470Y010409D01*
X018470Y010528D02*
X016445Y010528D01*
X016445Y010646D02*
X018470Y010646D01*
X018470Y010765D02*
X016445Y010765D01*
X016445Y010883D02*
X018470Y010883D01*
X018470Y011002D02*
X016445Y011002D01*
X016445Y011120D02*
X018470Y011120D01*
X018470Y011239D02*
X016445Y011239D01*
X016445Y011357D02*
X018470Y011357D01*
X018470Y011476D02*
X016445Y011476D01*
X016445Y011594D02*
X018470Y011594D01*
X018470Y011713D02*
X016445Y011713D01*
X016445Y011831D02*
X018470Y011831D01*
X018470Y011950D02*
X016445Y011950D01*
X016445Y012068D02*
X018470Y012068D01*
X018470Y012187D02*
X016445Y012187D01*
X016445Y012305D02*
X018470Y012305D01*
X018470Y012424D02*
X016445Y012424D01*
X016445Y012542D02*
X018470Y012542D01*
X018470Y012661D02*
X016445Y012661D01*
X016445Y012779D02*
X018470Y012779D01*
X018470Y012898D02*
X016445Y012898D01*
X016445Y013016D02*
X018470Y013016D01*
X018470Y013135D02*
X016445Y013135D01*
X016445Y013253D02*
X018470Y013253D01*
X018470Y013372D02*
X016445Y013372D01*
X016445Y013490D02*
X018470Y013490D01*
X018470Y013609D02*
X016445Y013609D01*
X016445Y013727D02*
X018470Y013727D01*
X018470Y013846D02*
X016445Y013846D01*
X016445Y013964D02*
X018470Y013964D01*
X018470Y014083D02*
X016445Y014083D01*
X016445Y014201D02*
X018470Y014201D01*
X018470Y014320D02*
X016445Y014320D01*
X016445Y014438D02*
X018470Y014438D01*
X018470Y014557D02*
X016445Y014557D01*
X016445Y014675D02*
X018470Y014675D01*
X018470Y014794D02*
X016445Y014794D01*
X016445Y014912D02*
X018470Y014912D01*
X018470Y015031D02*
X016445Y015031D01*
X016445Y015149D02*
X018470Y015149D01*
X018470Y015268D02*
X016445Y015268D01*
X016445Y015386D02*
X018470Y015386D01*
X018470Y015505D02*
X016445Y015505D01*
X016445Y015623D02*
X018470Y015623D01*
X018470Y015742D02*
X016445Y015742D01*
X016445Y015860D02*
X018470Y015860D01*
X018470Y015979D02*
X016445Y015979D01*
X016445Y016097D02*
X018470Y016097D01*
X018470Y016216D02*
X016445Y016216D01*
X016445Y016334D02*
X018470Y016334D01*
X018470Y016453D02*
X016445Y016453D01*
X016445Y016571D02*
X018470Y016571D01*
X018470Y016690D02*
X016445Y016690D01*
X016445Y016808D02*
X018470Y016808D01*
X018470Y016927D02*
X016445Y016927D01*
X016445Y017045D02*
X018470Y017045D01*
X018470Y017164D02*
X016445Y017164D01*
X016445Y017282D02*
X018470Y017282D01*
X018470Y017401D02*
X016445Y017401D01*
X016445Y017519D02*
X018470Y017519D01*
X018470Y017638D02*
X016445Y017638D01*
X016445Y017756D02*
X018470Y017756D01*
X018470Y017875D02*
X016445Y017875D01*
X016445Y017993D02*
X018470Y017993D01*
X018470Y018112D02*
X016445Y018112D01*
X016445Y018230D02*
X018470Y018230D01*
X018470Y018349D02*
X016445Y018349D01*
X016445Y018467D02*
X018470Y018467D01*
X018470Y018586D02*
X016445Y018586D01*
X016445Y018704D02*
X018470Y018704D01*
X018470Y018823D02*
X016445Y018823D01*
X016445Y018941D02*
X018470Y018941D01*
X018470Y019060D02*
X016445Y019060D01*
X016445Y019178D02*
X018470Y019178D01*
X018470Y019297D02*
X016445Y019297D01*
X016445Y019415D02*
X018470Y019415D01*
X018470Y019534D02*
X016445Y019534D01*
X016445Y019652D02*
X018470Y019652D01*
X018413Y019771D02*
X016445Y019771D01*
X016445Y019889D02*
X018295Y019889D01*
X018176Y020008D02*
X016445Y020008D01*
X016445Y020126D02*
X018058Y020126D01*
X017819Y020245D02*
X016445Y020245D01*
X016445Y020363D02*
X017760Y020363D01*
X017763Y020482D02*
X016445Y020482D01*
X016445Y020600D02*
X017828Y020600D01*
X018241Y020600D02*
X022560Y020600D01*
X022560Y020482D02*
X018306Y020482D01*
X018358Y020363D02*
X054075Y020363D01*
X054075Y020245D02*
X018477Y020245D01*
X018595Y020126D02*
X054075Y020126D01*
X054075Y020008D02*
X018714Y020008D01*
X018832Y019889D02*
X054075Y019889D01*
X054075Y019771D02*
X018850Y019771D01*
X018850Y019652D02*
X054075Y019652D01*
X054075Y019534D02*
X018850Y019534D01*
X018850Y019415D02*
X054075Y019415D01*
X054075Y019297D02*
X018850Y019297D01*
X018850Y019178D02*
X054075Y019178D01*
X054075Y019060D02*
X036007Y019060D01*
X036074Y018941D02*
X054075Y018941D01*
X054075Y018823D02*
X036088Y018823D01*
X036057Y018704D02*
X054075Y018704D01*
X054075Y018586D02*
X035990Y018586D01*
X035990Y018467D02*
X038684Y018467D01*
X038694Y018471D02*
X038574Y018421D01*
X038481Y018329D01*
X038431Y018209D01*
X038431Y018078D01*
X038481Y017957D01*
X038574Y017865D01*
X038694Y017815D01*
X038825Y017815D01*
X038869Y017833D01*
X039751Y017833D01*
X039794Y017815D01*
X039925Y017815D01*
X040045Y017865D01*
X040138Y017957D01*
X040188Y018078D01*
X040188Y018209D01*
X040138Y018329D01*
X040045Y018421D01*
X039925Y018471D01*
X039794Y018471D01*
X039751Y018453D01*
X038869Y018453D01*
X038825Y018471D01*
X038694Y018471D01*
X038835Y018467D02*
X039784Y018467D01*
X039935Y018467D02*
X054075Y018467D01*
X054075Y018349D02*
X040118Y018349D01*
X040179Y018230D02*
X054075Y018230D01*
X054075Y018112D02*
X040188Y018112D01*
X040153Y017993D02*
X054075Y017993D01*
X054075Y017875D02*
X040055Y017875D01*
X038564Y017875D02*
X035990Y017875D01*
X035990Y017993D02*
X038466Y017993D01*
X038431Y018112D02*
X035990Y018112D01*
X035990Y018230D02*
X038440Y018230D01*
X038501Y018349D02*
X035990Y018349D01*
X035530Y018349D02*
X018850Y018349D01*
X018850Y018467D02*
X035530Y018467D01*
X035530Y018586D02*
X018850Y018586D01*
X018850Y018704D02*
X035462Y018704D01*
X035431Y018823D02*
X018850Y018823D01*
X018850Y018941D02*
X035445Y018941D01*
X035512Y019060D02*
X018850Y019060D01*
X018850Y018230D02*
X035530Y018230D01*
X035530Y018112D02*
X018850Y018112D01*
X018850Y017993D02*
X035530Y017993D01*
X035530Y017875D02*
X018850Y017875D01*
X018850Y017756D02*
X035530Y017756D01*
X035530Y017638D02*
X018850Y017638D01*
X018850Y017519D02*
X035530Y017519D01*
X035530Y017401D02*
X018850Y017401D01*
X018850Y017282D02*
X035530Y017282D01*
X035530Y017164D02*
X018850Y017164D01*
X018850Y017045D02*
X035530Y017045D01*
X035530Y016927D02*
X018850Y016927D01*
X019520Y016453D02*
X035486Y016453D01*
X035648Y016334D02*
X019439Y016334D01*
X019250Y016216D02*
X043250Y016216D01*
X043250Y016334D02*
X035871Y016334D01*
X036033Y016453D02*
X043250Y016453D01*
X043250Y016571D02*
X036085Y016571D01*
X036088Y016690D02*
X043250Y016690D01*
X043250Y016808D02*
X036046Y016808D01*
X035990Y016927D02*
X043259Y016927D01*
X043323Y017045D02*
X035990Y017045D01*
X035990Y017164D02*
X054075Y017164D01*
X054075Y017282D02*
X035990Y017282D01*
X035990Y017401D02*
X054075Y017401D01*
X054075Y017519D02*
X035990Y017519D01*
X035990Y017638D02*
X054075Y017638D01*
X054075Y017756D02*
X035990Y017756D01*
X035879Y015860D02*
X043250Y015860D01*
X043250Y015979D02*
X019250Y015979D01*
X019250Y016097D02*
X043250Y016097D01*
X043266Y015742D02*
X035953Y015742D01*
X035968Y015623D02*
X043341Y015623D01*
X047857Y012312D02*
X047990Y012446D01*
X048165Y012518D01*
X048354Y012518D01*
X048529Y012446D01*
X048662Y012312D01*
X048735Y012138D01*
X048735Y011949D01*
X048662Y011774D01*
X048529Y011641D01*
X048354Y011568D01*
X048165Y011568D01*
X047990Y011641D01*
X047857Y011774D01*
X047785Y011949D01*
X047785Y012138D01*
X047857Y012312D01*
X047854Y012305D02*
X027035Y012305D01*
X027035Y012289D02*
X027035Y012398D01*
X026993Y012499D01*
X026915Y012576D01*
X026814Y012618D01*
X026705Y012618D01*
X026604Y012576D01*
X026526Y012499D01*
X026485Y012398D01*
X026485Y012289D01*
X026526Y012188D01*
X026570Y012144D01*
X026570Y011742D01*
X026526Y011699D01*
X026485Y011598D01*
X026485Y011489D01*
X026526Y011388D01*
X026604Y011310D01*
X026705Y011268D01*
X026814Y011268D01*
X026915Y011310D01*
X026993Y011388D01*
X027035Y011489D01*
X027035Y011598D01*
X026993Y011699D01*
X026950Y011742D01*
X026950Y012144D01*
X026993Y012188D01*
X027035Y012289D01*
X026992Y012187D02*
X047805Y012187D01*
X047785Y012068D02*
X026950Y012068D01*
X026950Y011950D02*
X047785Y011950D01*
X047833Y011831D02*
X026950Y011831D01*
X026979Y011713D02*
X047918Y011713D01*
X048102Y011594D02*
X027035Y011594D01*
X027029Y011476D02*
X045062Y011476D01*
X044902Y011357D02*
X026962Y011357D01*
X026557Y011357D02*
X019250Y011357D01*
X019250Y011239D02*
X044826Y011239D01*
X044785Y011120D02*
X019671Y011120D01*
X019733Y011002D02*
X044449Y011002D01*
X044331Y010883D02*
X019732Y010883D01*
X019670Y010765D02*
X044212Y010765D01*
X044094Y010646D02*
X019650Y010646D01*
X019650Y010528D02*
X043975Y010528D01*
X043857Y010409D02*
X019650Y010409D01*
X019650Y010291D02*
X043738Y010291D01*
X043620Y010172D02*
X025319Y010172D01*
X025315Y010176D02*
X025214Y010218D01*
X025105Y010218D01*
X025004Y010176D01*
X024926Y010099D01*
X024885Y009998D01*
X024885Y009889D01*
X024926Y009788D01*
X025004Y009710D01*
X025105Y009668D01*
X025166Y009668D01*
X025381Y009453D01*
X026161Y009453D01*
X026204Y009410D01*
X026305Y009368D01*
X026414Y009368D01*
X026515Y009410D01*
X026593Y009488D01*
X026635Y009589D01*
X026635Y009698D01*
X026593Y009799D01*
X026515Y009876D01*
X026414Y009918D01*
X026305Y009918D01*
X026204Y009876D01*
X026161Y009833D01*
X025538Y009833D01*
X025435Y009937D01*
X025435Y009998D01*
X025393Y010099D01*
X025315Y010176D01*
X025411Y010054D02*
X043501Y010054D01*
X043383Y009935D02*
X025436Y009935D01*
X025254Y009580D02*
X021945Y009580D01*
X021949Y009575D02*
X021794Y009731D01*
X021590Y009815D01*
X021370Y009815D01*
X021166Y009731D01*
X021011Y009575D01*
X020926Y009372D01*
X020926Y009151D01*
X021011Y008948D01*
X021166Y008792D01*
X021370Y008708D01*
X021590Y008708D01*
X021794Y008792D01*
X021949Y008948D01*
X022034Y009151D01*
X022034Y009372D01*
X021949Y009575D01*
X021997Y009461D02*
X025373Y009461D01*
X025032Y009698D02*
X021826Y009698D01*
X021134Y009698D02*
X019673Y009698D01*
X019650Y009817D02*
X024914Y009817D01*
X024885Y009935D02*
X019650Y009935D01*
X019650Y010054D02*
X024908Y010054D01*
X025000Y010172D02*
X019650Y010172D01*
X019792Y009580D02*
X021015Y009580D01*
X020963Y009461D02*
X019910Y009461D01*
X020029Y009343D02*
X020926Y009343D01*
X020926Y009224D02*
X020147Y009224D01*
X020266Y009106D02*
X020945Y009106D01*
X020994Y008987D02*
X020384Y008987D01*
X020503Y008869D02*
X021090Y008869D01*
X021267Y008750D02*
X020621Y008750D01*
X021693Y008750D02*
X042198Y008750D01*
X042316Y008869D02*
X021870Y008869D01*
X021966Y008987D02*
X042435Y008987D01*
X042553Y009106D02*
X022015Y009106D01*
X022034Y009224D02*
X042672Y009224D01*
X042790Y009343D02*
X022034Y009343D01*
X019795Y008039D02*
X018418Y008039D01*
X018404Y008074D02*
X018190Y008288D01*
X017911Y008403D01*
X017608Y008403D01*
X017329Y008288D01*
X017115Y008074D01*
X017000Y007794D01*
X017000Y007492D01*
X017115Y007213D01*
X017329Y006999D01*
X017608Y006883D01*
X017911Y006883D01*
X018190Y006999D01*
X018404Y007213D01*
X018520Y007492D01*
X018520Y007794D01*
X018404Y008074D01*
X018320Y008158D02*
X019676Y008158D01*
X019558Y008276D02*
X018201Y008276D01*
X017931Y008395D02*
X019439Y008395D01*
X019321Y008513D02*
X016445Y008513D01*
X016445Y008395D02*
X017588Y008395D01*
X017318Y008276D02*
X016445Y008276D01*
X016445Y008158D02*
X017199Y008158D01*
X017101Y008039D02*
X016445Y008039D01*
X016445Y007921D02*
X017052Y007921D01*
X017003Y007802D02*
X016445Y007802D01*
X016445Y007684D02*
X017000Y007684D01*
X017000Y007565D02*
X016450Y007565D01*
X016445Y007643D02*
X016445Y025643D01*
X016456Y025815D01*
X016545Y026147D01*
X016716Y026444D01*
X016959Y026687D01*
X017256Y026858D01*
X017588Y026947D01*
X017760Y026958D01*
X022560Y026958D01*
X022560Y020443D01*
X031960Y020443D01*
X031960Y026958D01*
X052760Y026958D01*
X052931Y026947D01*
X053263Y026858D01*
X053560Y026687D01*
X053803Y026444D01*
X053974Y026147D01*
X054063Y025815D01*
X054075Y025643D01*
X054075Y007643D01*
X054063Y007472D01*
X053974Y007140D01*
X053803Y006843D01*
X053560Y006600D01*
X053263Y006428D01*
X052931Y006340D01*
X052760Y006328D01*
X027736Y006328D01*
X027769Y006362D01*
X027820Y006485D01*
X027820Y006619D01*
X027769Y006742D01*
X027675Y006836D01*
X027552Y006887D01*
X027419Y006887D01*
X027296Y006836D01*
X027201Y006742D01*
X027150Y006619D01*
X027150Y006485D01*
X027201Y006362D01*
X027235Y006328D01*
X024586Y006328D01*
X024620Y006362D01*
X024671Y006485D01*
X024671Y006619D01*
X024620Y006742D01*
X024526Y006836D01*
X024403Y006887D01*
X024269Y006887D01*
X024146Y006836D01*
X024052Y006742D01*
X024001Y006619D01*
X024001Y006485D01*
X024052Y006362D01*
X024086Y006328D01*
X017760Y006328D01*
X017588Y006340D01*
X017256Y006428D01*
X016959Y006600D01*
X016716Y006843D01*
X016545Y007140D01*
X016456Y007472D01*
X016445Y007643D01*
X016462Y007447D02*
X017018Y007447D01*
X017067Y007328D02*
X016494Y007328D01*
X016526Y007210D02*
X017118Y007210D01*
X017237Y007091D02*
X016573Y007091D01*
X016641Y006973D02*
X017392Y006973D01*
X017134Y006499D02*
X024001Y006499D01*
X024001Y006617D02*
X016942Y006617D01*
X016823Y006736D02*
X024049Y006736D01*
X024190Y006854D02*
X016710Y006854D01*
X017436Y006380D02*
X024044Y006380D01*
X024627Y006380D02*
X027194Y006380D01*
X027150Y006499D02*
X024671Y006499D01*
X024671Y006617D02*
X027150Y006617D01*
X027199Y006736D02*
X024622Y006736D01*
X024481Y006854D02*
X027340Y006854D01*
X027631Y006854D02*
X035818Y006854D01*
X035853Y006771D02*
X035988Y006636D01*
X036164Y006563D01*
X036355Y006563D01*
X036531Y006636D01*
X036666Y006771D01*
X036740Y006948D01*
X036740Y007139D01*
X036666Y007315D01*
X036531Y007450D01*
X036355Y007523D01*
X036164Y007523D01*
X035988Y007450D01*
X035853Y007315D01*
X035780Y007139D01*
X035780Y006948D01*
X035853Y006771D01*
X035888Y006736D02*
X027772Y006736D01*
X027820Y006617D02*
X036034Y006617D01*
X035780Y006973D02*
X018127Y006973D01*
X018282Y007091D02*
X035780Y007091D01*
X035809Y007210D02*
X018401Y007210D01*
X018452Y007328D02*
X035866Y007328D01*
X035984Y007447D02*
X018501Y007447D01*
X018520Y007565D02*
X037024Y007565D01*
X036988Y007550D02*
X037164Y007623D01*
X037355Y007623D01*
X037531Y007550D01*
X037666Y007415D01*
X037740Y007239D01*
X037740Y007048D01*
X037666Y006871D01*
X037531Y006736D01*
X037355Y006663D01*
X037164Y006663D01*
X036988Y006736D01*
X036853Y006871D01*
X036780Y007048D01*
X036780Y007239D01*
X036853Y007415D01*
X036988Y007550D01*
X036884Y007447D02*
X036535Y007447D01*
X036653Y007328D02*
X036817Y007328D01*
X036780Y007210D02*
X036710Y007210D01*
X036740Y007091D02*
X036780Y007091D01*
X036811Y006973D02*
X036740Y006973D01*
X036701Y006854D02*
X036870Y006854D01*
X036989Y006736D02*
X036631Y006736D01*
X036485Y006617D02*
X038034Y006617D01*
X037988Y006636D02*
X038164Y006563D01*
X038355Y006563D01*
X038531Y006636D01*
X038666Y006771D01*
X038740Y006948D01*
X038740Y007139D01*
X038666Y007315D01*
X038531Y007450D01*
X038355Y007523D01*
X038164Y007523D01*
X037988Y007450D01*
X037853Y007315D01*
X037780Y007139D01*
X037780Y006948D01*
X037853Y006771D01*
X037988Y006636D01*
X037888Y006736D02*
X037530Y006736D01*
X037649Y006854D02*
X037818Y006854D01*
X037780Y006973D02*
X037708Y006973D01*
X037740Y007091D02*
X037780Y007091D01*
X037809Y007210D02*
X037740Y007210D01*
X037702Y007328D02*
X037866Y007328D01*
X037984Y007447D02*
X037635Y007447D01*
X037495Y007565D02*
X039024Y007565D01*
X038988Y007550D02*
X038853Y007415D01*
X038780Y007239D01*
X038780Y007048D01*
X038853Y006871D01*
X038988Y006736D01*
X039164Y006663D01*
X039355Y006663D01*
X039531Y006736D01*
X039666Y006871D01*
X039740Y007048D01*
X039740Y007239D01*
X039666Y007415D01*
X039531Y007550D01*
X039355Y007623D01*
X039164Y007623D01*
X038988Y007550D01*
X038884Y007447D02*
X038535Y007447D01*
X038653Y007328D02*
X038817Y007328D01*
X038780Y007210D02*
X038710Y007210D01*
X038740Y007091D02*
X038780Y007091D01*
X038811Y006973D02*
X038740Y006973D01*
X038701Y006854D02*
X038870Y006854D01*
X038989Y006736D02*
X038631Y006736D01*
X038485Y006617D02*
X040034Y006617D01*
X039988Y006636D02*
X040164Y006563D01*
X040355Y006563D01*
X040531Y006636D01*
X040666Y006771D01*
X040740Y006948D01*
X040740Y007038D01*
X040743Y007019D01*
X040768Y006940D01*
X040806Y006866D01*
X040855Y006798D01*
X040914Y006739D01*
X040982Y006690D01*
X041056Y006652D01*
X041135Y006626D01*
X041218Y006613D01*
X041220Y006613D01*
X041220Y007103D01*
X040740Y007103D01*
X040740Y007139D01*
X040666Y007315D01*
X040531Y007450D01*
X040355Y007523D01*
X040164Y007523D01*
X039988Y007450D01*
X039853Y007315D01*
X039780Y007139D01*
X039780Y006948D01*
X039853Y006771D01*
X039988Y006636D01*
X039888Y006736D02*
X039530Y006736D01*
X039649Y006854D02*
X039818Y006854D01*
X039780Y006973D02*
X039708Y006973D01*
X039740Y007091D02*
X039780Y007091D01*
X039809Y007210D02*
X039740Y007210D01*
X039702Y007328D02*
X039866Y007328D01*
X039984Y007447D02*
X039635Y007447D01*
X039495Y007565D02*
X040939Y007565D01*
X040825Y007447D02*
X040535Y007447D01*
X040653Y007328D02*
X040762Y007328D01*
X040733Y007210D02*
X040710Y007210D01*
X040740Y006973D02*
X040758Y006973D01*
X040701Y006854D02*
X040814Y006854D01*
X040919Y006736D02*
X040631Y006736D01*
X040485Y006617D02*
X041193Y006617D01*
X041220Y006617D02*
X041300Y006617D01*
X041326Y006617D02*
X041944Y006617D01*
X041828Y006736D02*
X041600Y006736D01*
X041705Y006854D02*
X041764Y006854D01*
X042220Y006854D02*
X042300Y006854D01*
X042300Y006736D02*
X042220Y006736D01*
X042220Y006617D02*
X042300Y006617D01*
X042300Y006513D02*
X042301Y006513D01*
X042384Y006526D01*
X042463Y006552D01*
X042537Y006590D01*
X042605Y006639D01*
X042664Y006698D01*
X042713Y006766D01*
X042751Y006840D01*
X042776Y006919D01*
X042790Y007002D01*
X042790Y007003D01*
X042300Y007003D01*
X042300Y006513D01*
X042575Y006617D02*
X045034Y006617D01*
X044988Y006636D02*
X045164Y006563D01*
X045355Y006563D01*
X045531Y006636D01*
X045666Y006771D01*
X045740Y006948D01*
X045740Y007139D01*
X045666Y007315D01*
X045531Y007450D01*
X045355Y007523D01*
X045164Y007523D01*
X044988Y007450D01*
X044853Y007315D01*
X044780Y007139D01*
X044780Y006948D01*
X044853Y006771D01*
X044988Y006636D01*
X044888Y006736D02*
X043530Y006736D01*
X043649Y006854D02*
X044818Y006854D01*
X044780Y006973D02*
X043708Y006973D01*
X043740Y007091D02*
X044780Y007091D01*
X044809Y007210D02*
X043740Y007210D01*
X043702Y007328D02*
X044866Y007328D01*
X044984Y007447D02*
X043635Y007447D01*
X043495Y007565D02*
X046024Y007565D01*
X045988Y007550D02*
X045853Y007415D01*
X045780Y007239D01*
X045780Y007048D01*
X045853Y006871D01*
X045988Y006736D01*
X046164Y006663D01*
X046355Y006663D01*
X046531Y006736D01*
X046666Y006871D01*
X046740Y007048D01*
X046740Y007239D01*
X046666Y007415D01*
X046531Y007550D01*
X046355Y007623D01*
X046164Y007623D01*
X045988Y007550D01*
X045884Y007447D02*
X045535Y007447D01*
X045653Y007328D02*
X045817Y007328D01*
X045780Y007210D02*
X045710Y007210D01*
X045740Y007091D02*
X045780Y007091D01*
X045811Y006973D02*
X045740Y006973D01*
X045701Y006854D02*
X045870Y006854D01*
X045989Y006736D02*
X045631Y006736D01*
X045485Y006617D02*
X047034Y006617D01*
X046988Y006636D02*
X047164Y006563D01*
X047355Y006563D01*
X047531Y006636D01*
X047666Y006771D01*
X047740Y006948D01*
X047740Y007139D01*
X047666Y007315D01*
X047531Y007450D01*
X047355Y007523D01*
X047164Y007523D01*
X046988Y007450D01*
X046853Y007315D01*
X046780Y007139D01*
X046780Y006948D01*
X046853Y006771D01*
X046988Y006636D01*
X046888Y006736D02*
X046530Y006736D01*
X046649Y006854D02*
X046818Y006854D01*
X046780Y006973D02*
X046708Y006973D01*
X046740Y007091D02*
X046780Y007091D01*
X046809Y007210D02*
X046740Y007210D01*
X046702Y007328D02*
X046866Y007328D01*
X046984Y007447D02*
X046635Y007447D01*
X046495Y007565D02*
X048024Y007565D01*
X047988Y007550D02*
X047853Y007415D01*
X047780Y007239D01*
X047780Y007048D01*
X047853Y006871D01*
X047988Y006736D01*
X048164Y006663D01*
X048355Y006663D01*
X048531Y006736D01*
X048666Y006871D01*
X048740Y007048D01*
X048740Y007239D01*
X048666Y007415D01*
X048531Y007550D01*
X048355Y007623D01*
X048164Y007623D01*
X047988Y007550D01*
X047884Y007447D02*
X047535Y007447D01*
X047653Y007328D02*
X047817Y007328D01*
X047780Y007210D02*
X047710Y007210D01*
X047740Y007091D02*
X047780Y007091D01*
X047811Y006973D02*
X047740Y006973D01*
X047701Y006854D02*
X047870Y006854D01*
X047989Y006736D02*
X047631Y006736D01*
X047485Y006617D02*
X049034Y006617D01*
X048988Y006636D02*
X049164Y006563D01*
X049355Y006563D01*
X049531Y006636D01*
X049666Y006771D01*
X049740Y006948D01*
X049740Y007139D01*
X049666Y007315D01*
X049531Y007450D01*
X049355Y007523D01*
X049164Y007523D01*
X048988Y007450D01*
X048853Y007315D01*
X048780Y007139D01*
X048780Y006948D01*
X048853Y006771D01*
X048988Y006636D01*
X048888Y006736D02*
X048530Y006736D01*
X048649Y006854D02*
X048818Y006854D01*
X048780Y006973D02*
X048708Y006973D01*
X048740Y007091D02*
X048780Y007091D01*
X048809Y007210D02*
X048740Y007210D01*
X048702Y007328D02*
X048866Y007328D01*
X048984Y007447D02*
X048635Y007447D01*
X048495Y007565D02*
X050024Y007565D01*
X049988Y007550D02*
X049853Y007415D01*
X049780Y007239D01*
X049780Y007048D01*
X049853Y006871D01*
X049988Y006736D01*
X050164Y006663D01*
X050355Y006663D01*
X050531Y006736D01*
X050666Y006871D01*
X050740Y007048D01*
X050740Y007239D01*
X050666Y007415D01*
X050531Y007550D01*
X050355Y007623D01*
X050164Y007623D01*
X049988Y007550D01*
X049884Y007447D02*
X049535Y007447D01*
X049653Y007328D02*
X049817Y007328D01*
X049780Y007210D02*
X049710Y007210D01*
X049740Y007091D02*
X049780Y007091D01*
X049811Y006973D02*
X049740Y006973D01*
X049701Y006854D02*
X049870Y006854D01*
X049989Y006736D02*
X049631Y006736D01*
X049485Y006617D02*
X053577Y006617D01*
X053696Y006736D02*
X050530Y006736D01*
X050649Y006854D02*
X053809Y006854D01*
X053878Y006973D02*
X053127Y006973D01*
X053190Y006999D02*
X053404Y007213D01*
X053520Y007492D01*
X053520Y007794D01*
X053404Y008074D01*
X053190Y008288D01*
X052911Y008403D01*
X052608Y008403D01*
X052329Y008288D01*
X052115Y008074D01*
X052000Y007794D01*
X052000Y007492D01*
X052115Y007213D01*
X052329Y006999D01*
X052608Y006883D01*
X052911Y006883D01*
X053190Y006999D01*
X053282Y007091D02*
X053946Y007091D01*
X053993Y007210D02*
X053401Y007210D01*
X053452Y007328D02*
X054025Y007328D01*
X054057Y007447D02*
X053501Y007447D01*
X053520Y007565D02*
X054069Y007565D01*
X054063Y007472D02*
X054063Y007472D01*
X054075Y007684D02*
X053520Y007684D01*
X053516Y007802D02*
X054075Y007802D01*
X054075Y007921D02*
X053467Y007921D01*
X053418Y008039D02*
X054075Y008039D01*
X054075Y008158D02*
X053320Y008158D01*
X053201Y008276D02*
X054075Y008276D01*
X054075Y008395D02*
X052931Y008395D01*
X052588Y008395D02*
X043180Y008395D01*
X043298Y008513D02*
X054075Y008513D01*
X054075Y008632D02*
X043417Y008632D01*
X043535Y008750D02*
X048826Y008750D01*
X048725Y008792D02*
X048929Y008708D01*
X049149Y008708D01*
X049353Y008792D01*
X049508Y008948D01*
X049593Y009151D01*
X049593Y009372D01*
X049508Y009575D01*
X049353Y009731D01*
X049149Y009815D01*
X048929Y009815D01*
X048725Y009731D01*
X048570Y009575D01*
X048485Y009372D01*
X048485Y009151D01*
X048570Y008948D01*
X048725Y008792D01*
X048649Y008869D02*
X043654Y008869D01*
X043772Y008987D02*
X045119Y008987D01*
X044925Y009106D02*
X043891Y009106D01*
X044009Y009224D02*
X044836Y009224D01*
X044787Y009343D02*
X044128Y009343D01*
X044246Y009461D02*
X044785Y009461D01*
X044802Y009580D02*
X044365Y009580D01*
X044483Y009698D02*
X044851Y009698D01*
X044961Y009817D02*
X044602Y009817D01*
X045558Y009817D02*
X045961Y009817D01*
X045851Y009698D02*
X045668Y009698D01*
X045717Y009580D02*
X045802Y009580D01*
X045785Y009461D02*
X045735Y009461D01*
X045732Y009343D02*
X045787Y009343D01*
X045836Y009224D02*
X045683Y009224D01*
X045594Y009106D02*
X045925Y009106D01*
X046119Y008987D02*
X045400Y008987D01*
X046400Y008987D02*
X047119Y008987D01*
X047165Y008968D02*
X047354Y008968D01*
X047529Y009041D01*
X047662Y009174D01*
X047735Y009349D01*
X047735Y009538D01*
X047662Y009712D01*
X047529Y009846D01*
X047354Y009918D01*
X047165Y009918D01*
X046990Y009846D01*
X046857Y009712D01*
X046785Y009538D01*
X046785Y009349D01*
X046857Y009174D01*
X046990Y009041D01*
X047165Y008968D01*
X047400Y008987D02*
X048553Y008987D01*
X048504Y009106D02*
X047594Y009106D01*
X047683Y009224D02*
X048485Y009224D01*
X048485Y009343D02*
X047732Y009343D01*
X047735Y009461D02*
X048523Y009461D01*
X048574Y009580D02*
X047717Y009580D01*
X047668Y009698D02*
X048693Y009698D01*
X048529Y010041D02*
X048354Y009968D01*
X048165Y009968D01*
X047990Y010041D01*
X047857Y010174D01*
X047785Y010349D01*
X047785Y010538D01*
X047857Y010712D01*
X047990Y010846D01*
X048165Y010918D01*
X048354Y010918D01*
X048529Y010846D01*
X048662Y010712D01*
X048735Y010538D01*
X048735Y010349D01*
X048662Y010174D01*
X048529Y010041D01*
X048542Y010054D02*
X048977Y010054D01*
X048990Y010041D02*
X049165Y009968D01*
X049354Y009968D01*
X049529Y010041D01*
X049662Y010174D01*
X049735Y010349D01*
X049735Y010538D01*
X049662Y010712D01*
X049529Y010846D01*
X049354Y010918D01*
X049165Y010918D01*
X048990Y010846D01*
X048857Y010712D01*
X048785Y010538D01*
X048785Y010349D01*
X048857Y010174D01*
X048990Y010041D01*
X048859Y010172D02*
X048660Y010172D01*
X048710Y010291D02*
X048809Y010291D01*
X048785Y010409D02*
X048735Y010409D01*
X048735Y010528D02*
X048785Y010528D01*
X048829Y010646D02*
X048690Y010646D01*
X048610Y010765D02*
X048909Y010765D01*
X049081Y010883D02*
X048438Y010883D01*
X048081Y010883D02*
X047707Y010883D01*
X047735Y011002D02*
X049785Y011002D01*
X049785Y010949D02*
X049857Y010774D01*
X049990Y010641D01*
X050165Y010568D01*
X050354Y010568D01*
X050529Y010641D01*
X050662Y010774D01*
X050735Y010949D01*
X050735Y011138D01*
X050662Y011312D01*
X050529Y011446D01*
X050354Y011518D01*
X050165Y011518D01*
X049990Y011446D01*
X049857Y011312D01*
X049785Y011138D01*
X049785Y010949D01*
X049812Y010883D02*
X049438Y010883D01*
X049610Y010765D02*
X049866Y010765D01*
X049985Y010646D02*
X049690Y010646D01*
X049735Y010528D02*
X054075Y010528D01*
X054075Y010646D02*
X050534Y010646D01*
X050653Y010765D02*
X054075Y010765D01*
X054075Y010883D02*
X050707Y010883D01*
X050735Y011002D02*
X054075Y011002D01*
X054075Y011120D02*
X050735Y011120D01*
X050693Y011239D02*
X054075Y011239D01*
X054075Y011357D02*
X050617Y011357D01*
X050457Y011476D02*
X054075Y011476D01*
X054075Y011594D02*
X049417Y011594D01*
X049354Y011568D02*
X049529Y011641D01*
X049662Y011774D01*
X049735Y011949D01*
X049735Y012138D01*
X049662Y012312D01*
X049529Y012446D01*
X049354Y012518D01*
X049165Y012518D01*
X048990Y012446D01*
X048857Y012312D01*
X048785Y012138D01*
X048785Y011949D01*
X048857Y011774D01*
X048990Y011641D01*
X049165Y011568D01*
X049354Y011568D01*
X049102Y011594D02*
X048417Y011594D01*
X048601Y011713D02*
X048918Y011713D01*
X048833Y011831D02*
X048686Y011831D01*
X048735Y011950D02*
X048785Y011950D01*
X048785Y012068D02*
X048735Y012068D01*
X048714Y012187D02*
X048805Y012187D01*
X048854Y012305D02*
X048665Y012305D01*
X048551Y012424D02*
X048968Y012424D01*
X049551Y012424D02*
X054075Y012424D01*
X054075Y012542D02*
X026949Y012542D01*
X027024Y012424D02*
X047968Y012424D01*
X047457Y011476D02*
X050062Y011476D01*
X049902Y011357D02*
X047617Y011357D01*
X047693Y011239D02*
X049826Y011239D01*
X049785Y011120D02*
X047735Y011120D01*
X047653Y010765D02*
X047909Y010765D01*
X047829Y010646D02*
X047534Y010646D01*
X047313Y010528D02*
X047785Y010528D01*
X047785Y010409D02*
X047194Y010409D01*
X047076Y010291D02*
X047809Y010291D01*
X047859Y010172D02*
X046957Y010172D01*
X046839Y010054D02*
X047977Y010054D01*
X047558Y009817D02*
X049961Y009817D01*
X049990Y009846D02*
X049857Y009712D01*
X049785Y009538D01*
X049785Y009349D01*
X049857Y009174D01*
X049990Y009041D01*
X050165Y008968D01*
X050354Y008968D01*
X050529Y009041D01*
X050662Y009174D01*
X050735Y009349D01*
X050735Y009538D01*
X050662Y009712D01*
X050529Y009846D01*
X050354Y009918D01*
X050165Y009918D01*
X049990Y009846D01*
X049851Y009698D02*
X049385Y009698D01*
X049504Y009580D02*
X049802Y009580D01*
X049785Y009461D02*
X049556Y009461D01*
X049593Y009343D02*
X049787Y009343D01*
X049836Y009224D02*
X049593Y009224D01*
X049574Y009106D02*
X049925Y009106D01*
X050119Y008987D02*
X049525Y008987D01*
X049429Y008869D02*
X054075Y008869D01*
X054075Y008987D02*
X050400Y008987D01*
X050594Y009106D02*
X054075Y009106D01*
X054075Y009224D02*
X050683Y009224D01*
X050732Y009343D02*
X054075Y009343D01*
X054075Y009461D02*
X050735Y009461D01*
X050717Y009580D02*
X054075Y009580D01*
X054075Y009698D02*
X050668Y009698D01*
X050558Y009817D02*
X054075Y009817D01*
X054075Y009935D02*
X046720Y009935D01*
X046558Y009817D02*
X046961Y009817D01*
X046851Y009698D02*
X046668Y009698D01*
X046717Y009580D02*
X046802Y009580D01*
X046785Y009461D02*
X046735Y009461D01*
X046732Y009343D02*
X046787Y009343D01*
X046836Y009224D02*
X046683Y009224D01*
X046594Y009106D02*
X046925Y009106D01*
X046538Y010291D02*
X045776Y010291D01*
X045894Y010409D02*
X046657Y010409D01*
X046775Y010528D02*
X046013Y010528D01*
X045712Y010765D02*
X045653Y010765D01*
X045707Y010883D02*
X045812Y010883D01*
X045785Y011002D02*
X045735Y011002D01*
X045735Y011120D02*
X045785Y011120D01*
X045826Y011239D02*
X045693Y011239D01*
X045617Y011357D02*
X045902Y011357D01*
X046062Y011476D02*
X045457Y011476D01*
X046457Y011476D02*
X047062Y011476D01*
X046902Y011357D02*
X046617Y011357D01*
X046693Y011239D02*
X046826Y011239D01*
X046785Y011120D02*
X046735Y011120D01*
X046735Y011002D02*
X046785Y011002D01*
X046812Y010883D02*
X046707Y010883D01*
X046653Y010765D02*
X046866Y010765D01*
X046894Y010646D02*
X046534Y010646D01*
X045594Y010646D02*
X045534Y010646D01*
X043264Y009817D02*
X026575Y009817D01*
X026634Y009698D02*
X043146Y009698D01*
X043027Y009580D02*
X026631Y009580D01*
X026566Y009461D02*
X042909Y009461D01*
X043061Y008276D02*
X052318Y008276D01*
X052199Y008158D02*
X042943Y008158D01*
X042824Y008039D02*
X052101Y008039D01*
X052052Y007921D02*
X042706Y007921D01*
X042587Y007802D02*
X052003Y007802D01*
X052000Y007684D02*
X042469Y007684D01*
X042352Y007565D02*
X043024Y007565D01*
X042884Y007447D02*
X042606Y007447D01*
X042708Y007328D02*
X042817Y007328D01*
X042780Y007210D02*
X042763Y007210D01*
X042785Y006973D02*
X042811Y006973D01*
X042755Y006854D02*
X042870Y006854D01*
X042989Y006736D02*
X042691Y006736D01*
X042300Y006973D02*
X042220Y006973D01*
X042220Y007091D02*
X042300Y007091D01*
X042300Y007210D02*
X042220Y007210D01*
X042220Y007328D02*
X042300Y007328D01*
X042300Y007447D02*
X042220Y007447D01*
X042220Y007565D02*
X042300Y007565D01*
X042167Y007565D02*
X041580Y007565D01*
X041694Y007447D02*
X041913Y007447D01*
X041811Y007328D02*
X041757Y007328D01*
X041300Y007091D02*
X041220Y007091D01*
X041220Y006973D02*
X041300Y006973D01*
X041300Y006854D02*
X041220Y006854D01*
X041220Y006736D02*
X041300Y006736D01*
X049252Y008750D02*
X054075Y008750D01*
X054075Y010054D02*
X049542Y010054D01*
X049660Y010172D02*
X054075Y010172D01*
X054075Y010291D02*
X049710Y010291D01*
X049735Y010409D02*
X054075Y010409D01*
X054075Y011713D02*
X049601Y011713D01*
X049686Y011831D02*
X054075Y011831D01*
X054075Y011950D02*
X049735Y011950D01*
X049735Y012068D02*
X054075Y012068D01*
X054075Y012187D02*
X049714Y012187D01*
X049665Y012305D02*
X054075Y012305D01*
X054075Y012661D02*
X019250Y012661D01*
X019250Y012779D02*
X054075Y012779D01*
X054075Y012898D02*
X019250Y012898D01*
X019250Y013016D02*
X054075Y013016D01*
X054075Y013135D02*
X019250Y013135D01*
X019250Y013253D02*
X054075Y013253D01*
X054075Y013372D02*
X019250Y013372D01*
X019250Y013490D02*
X054075Y013490D01*
X054075Y013609D02*
X019250Y013609D01*
X019250Y013727D02*
X054075Y013727D01*
X054075Y013846D02*
X019250Y013846D01*
X019250Y013964D02*
X054075Y013964D01*
X054075Y014083D02*
X019250Y014083D01*
X019250Y014201D02*
X054075Y014201D01*
X054075Y014320D02*
X019250Y014320D01*
X019250Y014438D02*
X054075Y014438D01*
X054075Y014557D02*
X019250Y014557D01*
X019250Y014675D02*
X054075Y014675D01*
X054075Y014794D02*
X019250Y014794D01*
X019250Y014912D02*
X054075Y014912D01*
X054075Y015031D02*
X019250Y015031D01*
X019250Y015149D02*
X054075Y015149D01*
X054075Y020482D02*
X031960Y020482D01*
X031960Y020600D02*
X054075Y020600D01*
X054075Y020719D02*
X031960Y020719D01*
X031960Y020837D02*
X047998Y020837D01*
X047990Y020841D02*
X048165Y020768D01*
X048354Y020768D01*
X048529Y020841D01*
X048662Y020974D01*
X048735Y021149D01*
X048735Y021338D01*
X048662Y021512D01*
X048529Y021646D01*
X048354Y021718D01*
X048165Y021718D01*
X047990Y021646D01*
X047857Y021512D01*
X047785Y021338D01*
X047785Y021149D01*
X047857Y020974D01*
X047990Y020841D01*
X047875Y020956D02*
X031960Y020956D01*
X031960Y021074D02*
X047815Y021074D01*
X047785Y021193D02*
X031960Y021193D01*
X031960Y021311D02*
X047785Y021311D01*
X047823Y021430D02*
X031960Y021430D01*
X031960Y021548D02*
X032483Y021548D01*
X032490Y021541D02*
X032665Y021468D01*
X032854Y021468D01*
X033029Y021541D01*
X033162Y021674D01*
X033235Y021849D01*
X033235Y022038D01*
X033162Y022212D01*
X033029Y022346D01*
X032854Y022418D01*
X032665Y022418D01*
X032490Y022346D01*
X032357Y022212D01*
X032285Y022038D01*
X032285Y021849D01*
X032357Y021674D01*
X032490Y021541D01*
X032364Y021667D02*
X031960Y021667D01*
X031960Y021785D02*
X032311Y021785D01*
X032285Y021904D02*
X031960Y021904D01*
X031960Y022022D02*
X032285Y022022D01*
X032327Y022141D02*
X031960Y022141D01*
X031960Y022259D02*
X032404Y022259D01*
X032567Y022378D02*
X031960Y022378D01*
X031960Y022496D02*
X036285Y022496D01*
X036285Y022538D02*
X036285Y022349D01*
X036357Y022174D01*
X036490Y022041D01*
X036665Y021968D01*
X036854Y021968D01*
X037029Y022041D01*
X037162Y022174D01*
X037235Y022349D01*
X037235Y022538D01*
X037162Y022712D01*
X037121Y022753D01*
X037181Y022753D01*
X037317Y022617D01*
X037285Y022538D01*
X037285Y022349D01*
X037357Y022174D01*
X037490Y022041D01*
X037665Y021968D01*
X037854Y021968D01*
X038029Y022041D01*
X038162Y022174D01*
X038235Y022349D01*
X038235Y022538D01*
X038162Y022712D01*
X038029Y022846D01*
X037854Y022918D01*
X037665Y022918D01*
X037586Y022886D01*
X037450Y023022D01*
X037338Y023133D01*
X036238Y023133D01*
X036258Y023153D01*
X037781Y023153D01*
X038317Y022617D01*
X038285Y022538D01*
X038285Y022349D01*
X038357Y022174D01*
X038490Y022041D01*
X038665Y021968D01*
X038854Y021968D01*
X039029Y022041D01*
X039162Y022174D01*
X039235Y022349D01*
X039235Y022538D01*
X039162Y022712D01*
X039029Y022846D01*
X039011Y022853D01*
X039081Y022853D01*
X039317Y022617D01*
X039285Y022538D01*
X039285Y022349D01*
X039357Y022174D01*
X039490Y022041D01*
X039665Y021968D01*
X039854Y021968D01*
X040029Y022041D01*
X040162Y022174D01*
X040235Y022349D01*
X040235Y022538D01*
X040162Y022712D01*
X040029Y022846D01*
X039854Y022918D01*
X039665Y022918D01*
X039586Y022886D01*
X039350Y023122D01*
X039238Y023233D01*
X038738Y023233D01*
X038450Y023522D01*
X038450Y023682D01*
X038490Y023641D01*
X038665Y023568D01*
X038854Y023568D01*
X039029Y023641D01*
X039162Y023774D01*
X039235Y023949D01*
X039235Y024138D01*
X039162Y024312D01*
X039029Y024446D01*
X038854Y024518D01*
X038665Y024518D01*
X038490Y024446D01*
X038450Y024405D01*
X038450Y024522D01*
X038250Y024722D01*
X038138Y024833D01*
X036158Y024833D01*
X036115Y024876D01*
X036014Y024918D01*
X035905Y024918D01*
X035804Y024876D01*
X035726Y024799D01*
X035685Y024698D01*
X035685Y024589D01*
X035726Y024488D01*
X035804Y024410D01*
X035905Y024368D01*
X036014Y024368D01*
X036115Y024410D01*
X036158Y024453D01*
X036508Y024453D01*
X036490Y024446D01*
X036357Y024312D01*
X036285Y024138D01*
X036285Y023949D01*
X036357Y023774D01*
X036490Y023641D01*
X036665Y023568D01*
X036854Y023568D01*
X037029Y023641D01*
X037162Y023774D01*
X037235Y023949D01*
X037235Y024138D01*
X037162Y024312D01*
X037029Y024446D01*
X037011Y024453D01*
X037508Y024453D01*
X037490Y024446D01*
X037357Y024312D01*
X037285Y024138D01*
X037285Y023949D01*
X037357Y023774D01*
X037490Y023641D01*
X037665Y023568D01*
X037854Y023568D01*
X038029Y023641D01*
X038070Y023682D01*
X038070Y023402D01*
X038050Y023422D01*
X037938Y023533D01*
X036258Y023533D01*
X036215Y023576D01*
X036114Y023618D01*
X036005Y023618D01*
X035904Y023576D01*
X035826Y023499D01*
X035785Y023398D01*
X035785Y023289D01*
X035826Y023188D01*
X035881Y023133D01*
X035858Y023133D01*
X035815Y023176D01*
X035714Y023218D01*
X035605Y023218D01*
X035504Y023176D01*
X035426Y023099D01*
X035385Y022998D01*
X035385Y022889D01*
X035426Y022788D01*
X035504Y022710D01*
X035605Y022668D01*
X035714Y022668D01*
X035815Y022710D01*
X035858Y022753D01*
X036398Y022753D01*
X036357Y022712D01*
X036285Y022538D01*
X036316Y022615D02*
X031960Y022615D01*
X031960Y022733D02*
X035481Y022733D01*
X035400Y022852D02*
X031960Y022852D01*
X031960Y022970D02*
X035385Y022970D01*
X035422Y023089D02*
X033904Y023089D01*
X033854Y023068D02*
X034029Y023141D01*
X034162Y023274D01*
X034235Y023449D01*
X034235Y023638D01*
X034162Y023812D01*
X034029Y023946D01*
X033854Y024018D01*
X033665Y024018D01*
X033490Y023946D01*
X033357Y023812D01*
X033285Y023638D01*
X033285Y023449D01*
X033357Y023274D01*
X033490Y023141D01*
X033665Y023068D01*
X033854Y023068D01*
X033615Y023089D02*
X032904Y023089D01*
X032854Y023068D02*
X033029Y023141D01*
X033162Y023274D01*
X033235Y023449D01*
X033235Y023638D01*
X033162Y023812D01*
X033029Y023946D01*
X032854Y024018D01*
X032665Y024018D01*
X032490Y023946D01*
X032357Y023812D01*
X032285Y023638D01*
X032285Y023449D01*
X032357Y023274D01*
X032490Y023141D01*
X032665Y023068D01*
X032854Y023068D01*
X032615Y023089D02*
X031960Y023089D01*
X031960Y023207D02*
X032424Y023207D01*
X032335Y023326D02*
X031960Y023326D01*
X031960Y023444D02*
X032286Y023444D01*
X032285Y023563D02*
X031960Y023563D01*
X031960Y023681D02*
X032303Y023681D01*
X032352Y023800D02*
X031960Y023800D01*
X031960Y023918D02*
X032463Y023918D01*
X031960Y024037D02*
X036285Y024037D01*
X036292Y024155D02*
X031960Y024155D01*
X031960Y024274D02*
X036341Y024274D01*
X036437Y024392D02*
X036072Y024392D01*
X035847Y024392D02*
X031960Y024392D01*
X031960Y024511D02*
X035717Y024511D01*
X035685Y024629D02*
X031960Y024629D01*
X031960Y024748D02*
X035705Y024748D01*
X035794Y024866D02*
X031960Y024866D01*
X031960Y024985D02*
X052363Y024985D01*
X052329Y024999D02*
X052608Y024883D01*
X052911Y024883D01*
X053190Y024999D01*
X053404Y025213D01*
X053520Y025492D01*
X053520Y025794D01*
X053404Y026074D01*
X053190Y026288D01*
X052911Y026403D01*
X052608Y026403D01*
X052329Y026288D01*
X052115Y026074D01*
X052000Y025794D01*
X052000Y025492D01*
X052115Y025213D01*
X052329Y024999D01*
X052225Y025103D02*
X031960Y025103D01*
X031960Y025222D02*
X052111Y025222D01*
X052062Y025340D02*
X031960Y025340D01*
X031960Y025459D02*
X052013Y025459D01*
X052000Y025577D02*
X031960Y025577D01*
X031960Y025696D02*
X032585Y025696D01*
X032664Y025663D02*
X032855Y025663D01*
X033031Y025736D01*
X033166Y025871D01*
X033240Y026048D01*
X033240Y026239D01*
X033166Y026415D01*
X033031Y026550D01*
X032855Y026623D01*
X032664Y026623D01*
X032488Y026550D01*
X032353Y026415D01*
X032280Y026239D01*
X032280Y026048D01*
X032353Y025871D01*
X032488Y025736D01*
X032664Y025663D01*
X032934Y025696D02*
X033585Y025696D01*
X033664Y025663D02*
X033855Y025663D01*
X034031Y025736D01*
X034166Y025871D01*
X034240Y026048D01*
X034240Y026239D01*
X034166Y026415D01*
X034031Y026550D01*
X033855Y026623D01*
X033664Y026623D01*
X033488Y026550D01*
X033353Y026415D01*
X033280Y026239D01*
X033280Y026048D01*
X033353Y025871D01*
X033488Y025736D01*
X033664Y025663D01*
X033934Y025696D02*
X035474Y025696D01*
X035482Y025690D02*
X035556Y025652D01*
X035635Y025626D01*
X035718Y025613D01*
X035720Y025613D01*
X035720Y026103D01*
X035800Y026103D01*
X035800Y026183D01*
X036280Y026183D01*
X036280Y026148D01*
X036353Y025971D01*
X036488Y025836D01*
X036664Y025763D01*
X036855Y025763D01*
X037031Y025836D01*
X037166Y025971D01*
X037240Y026148D01*
X037240Y026339D01*
X037166Y026515D01*
X037031Y026650D01*
X036855Y026723D01*
X036664Y026723D01*
X036488Y026650D01*
X036353Y026515D01*
X036280Y026339D01*
X036280Y026248D01*
X036276Y026267D01*
X036251Y026347D01*
X036213Y026421D01*
X036164Y026489D01*
X036105Y026548D01*
X036037Y026597D01*
X035963Y026634D01*
X035884Y026660D01*
X035801Y026673D01*
X035800Y026673D01*
X035800Y026183D01*
X035720Y026183D01*
X035720Y026673D01*
X035718Y026673D01*
X035635Y026660D01*
X035556Y026634D01*
X035482Y026597D01*
X035414Y026548D01*
X035355Y026489D01*
X035306Y026421D01*
X035268Y026347D01*
X035243Y026267D01*
X035240Y026248D01*
X035240Y026339D01*
X035166Y026515D01*
X035031Y026650D01*
X034855Y026723D01*
X034664Y026723D01*
X034488Y026650D01*
X034353Y026515D01*
X034280Y026339D01*
X034280Y026148D01*
X034353Y025971D01*
X034488Y025836D01*
X034664Y025763D01*
X034855Y025763D01*
X035031Y025836D01*
X035166Y025971D01*
X035240Y026148D01*
X035240Y026183D01*
X035720Y026183D01*
X035720Y026103D01*
X035230Y026103D01*
X035230Y026102D01*
X035243Y026019D01*
X035268Y025940D01*
X035306Y025866D01*
X035355Y025798D01*
X035414Y025739D01*
X035482Y025690D01*
X035343Y025814D02*
X034978Y025814D01*
X035128Y025933D02*
X035272Y025933D01*
X035237Y026051D02*
X035200Y026051D01*
X035240Y026170D02*
X035720Y026170D01*
X035800Y026170D02*
X036280Y026170D01*
X036290Y026103D02*
X035800Y026103D01*
X035800Y025613D01*
X035801Y025613D01*
X035884Y025626D01*
X035963Y025652D01*
X036037Y025690D01*
X036105Y025739D01*
X036164Y025798D01*
X036213Y025866D01*
X036251Y025940D01*
X036276Y026019D01*
X036290Y026102D01*
X036290Y026103D01*
X036282Y026051D02*
X036319Y026051D01*
X036247Y025933D02*
X036391Y025933D01*
X036541Y025814D02*
X036176Y025814D01*
X036045Y025696D02*
X037585Y025696D01*
X037664Y025663D02*
X037488Y025736D01*
X037353Y025871D01*
X037280Y026048D01*
X037280Y026239D01*
X037353Y026415D01*
X037488Y026550D01*
X037664Y026623D01*
X037855Y026623D01*
X038031Y026550D01*
X038166Y026415D01*
X038240Y026239D01*
X038240Y026048D01*
X038166Y025871D01*
X038031Y025736D01*
X037855Y025663D01*
X037664Y025663D01*
X037934Y025696D02*
X039585Y025696D01*
X039664Y025663D02*
X039855Y025663D01*
X040031Y025736D01*
X040166Y025871D01*
X040240Y026048D01*
X040240Y026239D01*
X040166Y026415D01*
X040031Y026550D01*
X039855Y026623D01*
X039664Y026623D01*
X039488Y026550D01*
X039353Y026415D01*
X039280Y026239D01*
X039280Y026048D01*
X039353Y025871D01*
X039488Y025736D01*
X039664Y025663D01*
X039934Y025696D02*
X041585Y025696D01*
X041664Y025663D02*
X041855Y025663D01*
X042031Y025736D01*
X042166Y025871D01*
X042240Y026048D01*
X042240Y026239D01*
X042166Y026415D01*
X042031Y026550D01*
X041855Y026623D01*
X041664Y026623D01*
X041488Y026550D01*
X041353Y026415D01*
X041280Y026239D01*
X041280Y026048D01*
X041353Y025871D01*
X041488Y025736D01*
X041664Y025663D01*
X041934Y025696D02*
X044085Y025696D01*
X044164Y025663D02*
X044355Y025663D01*
X044531Y025736D01*
X044666Y025871D01*
X044740Y026048D01*
X044740Y026239D01*
X044666Y026415D01*
X044531Y026550D01*
X044355Y026623D01*
X044164Y026623D01*
X043988Y026550D01*
X043853Y026415D01*
X043780Y026239D01*
X043780Y026048D01*
X043853Y025871D01*
X043988Y025736D01*
X044164Y025663D01*
X044434Y025696D02*
X046085Y025696D01*
X046164Y025663D02*
X046355Y025663D01*
X046531Y025736D01*
X046666Y025871D01*
X046740Y026048D01*
X046740Y026239D01*
X046666Y026415D01*
X046531Y026550D01*
X046355Y026623D01*
X046164Y026623D01*
X045988Y026550D01*
X045853Y026415D01*
X045780Y026239D01*
X045780Y026048D01*
X045853Y025871D01*
X045988Y025736D01*
X046164Y025663D01*
X046434Y025696D02*
X048085Y025696D01*
X048164Y025663D02*
X047988Y025736D01*
X047853Y025871D01*
X047780Y026048D01*
X047780Y026239D01*
X047853Y026415D01*
X047988Y026550D01*
X048164Y026623D01*
X048355Y026623D01*
X048531Y026550D01*
X048666Y026415D01*
X048740Y026239D01*
X048740Y026048D01*
X048666Y025871D01*
X048531Y025736D01*
X048355Y025663D01*
X048164Y025663D01*
X048434Y025696D02*
X050085Y025696D01*
X050164Y025663D02*
X050355Y025663D01*
X050531Y025736D01*
X050666Y025871D01*
X050740Y026048D01*
X050740Y026239D01*
X050666Y026415D01*
X050531Y026550D01*
X050355Y026623D01*
X050164Y026623D01*
X049988Y026550D01*
X049853Y026415D01*
X049780Y026239D01*
X049780Y026048D01*
X049853Y025871D01*
X049988Y025736D01*
X050164Y025663D01*
X050434Y025696D02*
X052000Y025696D01*
X052008Y025814D02*
X050609Y025814D01*
X050692Y025933D02*
X052057Y025933D01*
X052106Y026051D02*
X050740Y026051D01*
X050740Y026170D02*
X052211Y026170D01*
X052331Y026288D02*
X050719Y026288D01*
X050670Y026407D02*
X053824Y026407D01*
X053893Y026288D02*
X053188Y026288D01*
X053308Y026170D02*
X053961Y026170D01*
X054000Y026051D02*
X053413Y026051D01*
X053462Y025933D02*
X054032Y025933D01*
X054063Y025814D02*
X053511Y025814D01*
X053520Y025696D02*
X054071Y025696D01*
X054075Y025577D02*
X053520Y025577D01*
X053506Y025459D02*
X054075Y025459D01*
X054075Y025340D02*
X053457Y025340D01*
X053408Y025222D02*
X054075Y025222D01*
X054075Y025103D02*
X053294Y025103D01*
X053156Y024985D02*
X054075Y024985D01*
X054075Y024866D02*
X036125Y024866D01*
X035800Y025696D02*
X035720Y025696D01*
X035720Y025814D02*
X035800Y025814D01*
X035800Y025933D02*
X035720Y025933D01*
X035720Y026051D02*
X035800Y026051D01*
X035800Y026288D02*
X035720Y026288D01*
X035720Y026407D02*
X035800Y026407D01*
X035800Y026525D02*
X035720Y026525D01*
X035720Y026644D02*
X035800Y026644D01*
X035934Y026644D02*
X036481Y026644D01*
X036363Y026525D02*
X036127Y026525D01*
X036220Y026407D02*
X036308Y026407D01*
X036280Y026288D02*
X036270Y026288D01*
X035585Y026644D02*
X035038Y026644D01*
X035156Y026525D02*
X035392Y026525D01*
X035299Y026407D02*
X035211Y026407D01*
X035240Y026288D02*
X035249Y026288D01*
X034541Y025814D02*
X034109Y025814D01*
X034192Y025933D02*
X034391Y025933D01*
X034319Y026051D02*
X034240Y026051D01*
X034240Y026170D02*
X034280Y026170D01*
X034280Y026288D02*
X034219Y026288D01*
X034170Y026407D02*
X034308Y026407D01*
X034363Y026525D02*
X034056Y026525D01*
X034481Y026644D02*
X031960Y026644D01*
X031960Y026762D02*
X053429Y026762D01*
X053603Y026644D02*
X049538Y026644D01*
X049531Y026650D02*
X049355Y026723D01*
X049164Y026723D01*
X048988Y026650D01*
X048853Y026515D01*
X048780Y026339D01*
X048780Y026148D01*
X048853Y025971D01*
X048988Y025836D01*
X049164Y025763D01*
X049355Y025763D01*
X049531Y025836D01*
X049666Y025971D01*
X049740Y026148D01*
X049740Y026339D01*
X049666Y026515D01*
X049531Y026650D01*
X049656Y026525D02*
X049963Y026525D01*
X049849Y026407D02*
X049711Y026407D01*
X049740Y026288D02*
X049800Y026288D01*
X049780Y026170D02*
X049740Y026170D01*
X049700Y026051D02*
X049780Y026051D01*
X049827Y025933D02*
X049628Y025933D01*
X049478Y025814D02*
X049910Y025814D01*
X049041Y025814D02*
X048609Y025814D01*
X048692Y025933D02*
X048891Y025933D01*
X048819Y026051D02*
X048740Y026051D01*
X048740Y026170D02*
X048780Y026170D01*
X048780Y026288D02*
X048719Y026288D01*
X048670Y026407D02*
X048808Y026407D01*
X048863Y026525D02*
X048556Y026525D01*
X048981Y026644D02*
X047538Y026644D01*
X047531Y026650D02*
X047355Y026723D01*
X047164Y026723D01*
X046988Y026650D01*
X046853Y026515D01*
X046780Y026339D01*
X046780Y026148D01*
X046853Y025971D01*
X046988Y025836D01*
X047164Y025763D01*
X047355Y025763D01*
X047531Y025836D01*
X047666Y025971D01*
X047740Y026148D01*
X047740Y026339D01*
X047666Y026515D01*
X047531Y026650D01*
X047656Y026525D02*
X047963Y026525D01*
X047849Y026407D02*
X047711Y026407D01*
X047740Y026288D02*
X047800Y026288D01*
X047780Y026170D02*
X047740Y026170D01*
X047700Y026051D02*
X047780Y026051D01*
X047827Y025933D02*
X047628Y025933D01*
X047478Y025814D02*
X047910Y025814D01*
X047041Y025814D02*
X046609Y025814D01*
X046692Y025933D02*
X046891Y025933D01*
X046819Y026051D02*
X046740Y026051D01*
X046740Y026170D02*
X046780Y026170D01*
X046780Y026288D02*
X046719Y026288D01*
X046670Y026407D02*
X046808Y026407D01*
X046863Y026525D02*
X046556Y026525D01*
X046981Y026644D02*
X045538Y026644D01*
X045531Y026650D02*
X045355Y026723D01*
X045164Y026723D01*
X044988Y026650D01*
X044853Y026515D01*
X044780Y026339D01*
X044780Y026148D01*
X044853Y025971D01*
X044988Y025836D01*
X045164Y025763D01*
X045355Y025763D01*
X045531Y025836D01*
X045666Y025971D01*
X045740Y026148D01*
X045740Y026339D01*
X045666Y026515D01*
X045531Y026650D01*
X045656Y026525D02*
X045963Y026525D01*
X045849Y026407D02*
X045711Y026407D01*
X045740Y026288D02*
X045800Y026288D01*
X045780Y026170D02*
X045740Y026170D01*
X045700Y026051D02*
X045780Y026051D01*
X045827Y025933D02*
X045628Y025933D01*
X045478Y025814D02*
X045910Y025814D01*
X045041Y025814D02*
X044609Y025814D01*
X044692Y025933D02*
X044891Y025933D01*
X044819Y026051D02*
X044740Y026051D01*
X044740Y026170D02*
X044780Y026170D01*
X044780Y026288D02*
X044719Y026288D01*
X044670Y026407D02*
X044808Y026407D01*
X044863Y026525D02*
X044556Y026525D01*
X044981Y026644D02*
X043538Y026644D01*
X043531Y026650D02*
X043355Y026723D01*
X043164Y026723D01*
X042988Y026650D01*
X042853Y026515D01*
X042780Y026339D01*
X042780Y026148D01*
X042853Y025971D01*
X042988Y025836D01*
X043164Y025763D01*
X043355Y025763D01*
X043531Y025836D01*
X043666Y025971D01*
X043740Y026148D01*
X043740Y026339D01*
X043666Y026515D01*
X043531Y026650D01*
X043656Y026525D02*
X043963Y026525D01*
X043849Y026407D02*
X043711Y026407D01*
X043740Y026288D02*
X043800Y026288D01*
X043780Y026170D02*
X043740Y026170D01*
X043700Y026051D02*
X043780Y026051D01*
X043827Y025933D02*
X043628Y025933D01*
X043478Y025814D02*
X043910Y025814D01*
X043041Y025814D02*
X042109Y025814D01*
X042192Y025933D02*
X042891Y025933D01*
X042819Y026051D02*
X042240Y026051D01*
X042240Y026170D02*
X042780Y026170D01*
X042780Y026288D02*
X042219Y026288D01*
X042170Y026407D02*
X042808Y026407D01*
X042863Y026525D02*
X042056Y026525D01*
X041463Y026525D02*
X041156Y026525D01*
X041166Y026515D02*
X041031Y026650D01*
X040855Y026723D01*
X040664Y026723D01*
X040488Y026650D01*
X040353Y026515D01*
X040280Y026339D01*
X040280Y026148D01*
X040353Y025971D01*
X040488Y025836D01*
X040664Y025763D01*
X040855Y025763D01*
X041031Y025836D01*
X041166Y025971D01*
X041240Y026148D01*
X041240Y026339D01*
X041166Y026515D01*
X041211Y026407D02*
X041349Y026407D01*
X041300Y026288D02*
X041240Y026288D01*
X041240Y026170D02*
X041280Y026170D01*
X041280Y026051D02*
X041200Y026051D01*
X041128Y025933D02*
X041327Y025933D01*
X041410Y025814D02*
X040978Y025814D01*
X040541Y025814D02*
X040109Y025814D01*
X040192Y025933D02*
X040391Y025933D01*
X040319Y026051D02*
X040240Y026051D01*
X040240Y026170D02*
X040280Y026170D01*
X040280Y026288D02*
X040219Y026288D01*
X040170Y026407D02*
X040308Y026407D01*
X040363Y026525D02*
X040056Y026525D01*
X040481Y026644D02*
X039038Y026644D01*
X039031Y026650D02*
X038855Y026723D01*
X038664Y026723D01*
X038488Y026650D01*
X038353Y026515D01*
X038280Y026339D01*
X038280Y026148D01*
X038353Y025971D01*
X038488Y025836D01*
X038664Y025763D01*
X038855Y025763D01*
X039031Y025836D01*
X039166Y025971D01*
X039240Y026148D01*
X039240Y026339D01*
X039166Y026515D01*
X039031Y026650D01*
X039156Y026525D02*
X039463Y026525D01*
X039349Y026407D02*
X039211Y026407D01*
X039240Y026288D02*
X039300Y026288D01*
X039280Y026170D02*
X039240Y026170D01*
X039200Y026051D02*
X039280Y026051D01*
X039327Y025933D02*
X039128Y025933D01*
X038978Y025814D02*
X039410Y025814D01*
X038541Y025814D02*
X038109Y025814D01*
X038192Y025933D02*
X038391Y025933D01*
X038319Y026051D02*
X038240Y026051D01*
X038240Y026170D02*
X038280Y026170D01*
X038280Y026288D02*
X038219Y026288D01*
X038170Y026407D02*
X038308Y026407D01*
X038363Y026525D02*
X038056Y026525D01*
X038481Y026644D02*
X037038Y026644D01*
X037156Y026525D02*
X037463Y026525D01*
X037349Y026407D02*
X037211Y026407D01*
X037240Y026288D02*
X037300Y026288D01*
X037280Y026170D02*
X037240Y026170D01*
X037200Y026051D02*
X037280Y026051D01*
X037327Y025933D02*
X037128Y025933D01*
X036978Y025814D02*
X037410Y025814D01*
X038224Y024748D02*
X054075Y024748D01*
X054075Y024629D02*
X038342Y024629D01*
X038450Y024511D02*
X038647Y024511D01*
X038872Y024511D02*
X039647Y024511D01*
X039665Y024518D02*
X039490Y024446D01*
X039357Y024312D01*
X039285Y024138D01*
X039285Y023949D01*
X039357Y023774D01*
X039490Y023641D01*
X039665Y023568D01*
X039854Y023568D01*
X040029Y023641D01*
X040162Y023774D01*
X040235Y023949D01*
X040235Y024138D01*
X040162Y024312D01*
X040029Y024446D01*
X039854Y024518D01*
X039665Y024518D01*
X039872Y024511D02*
X040647Y024511D01*
X040665Y024518D02*
X040490Y024446D01*
X040357Y024312D01*
X040285Y024138D01*
X040285Y023949D01*
X040357Y023774D01*
X040490Y023641D01*
X040665Y023568D01*
X040854Y023568D01*
X041029Y023641D01*
X041162Y023774D01*
X041235Y023949D01*
X041235Y024138D01*
X041162Y024312D01*
X041029Y024446D01*
X040854Y024518D01*
X040665Y024518D01*
X040872Y024511D02*
X041647Y024511D01*
X041665Y024518D02*
X041490Y024446D01*
X041357Y024312D01*
X041285Y024138D01*
X041285Y023949D01*
X041357Y023774D01*
X041490Y023641D01*
X041665Y023568D01*
X041854Y023568D01*
X042029Y023641D01*
X042162Y023774D01*
X042235Y023949D01*
X042235Y024138D01*
X042162Y024312D01*
X042029Y024446D01*
X041854Y024518D01*
X041665Y024518D01*
X041872Y024511D02*
X043147Y024511D01*
X043165Y024518D02*
X042990Y024446D01*
X042857Y024312D01*
X042785Y024138D01*
X042785Y023949D01*
X042857Y023774D01*
X042990Y023641D01*
X043165Y023568D01*
X043354Y023568D01*
X043529Y023641D01*
X043662Y023774D01*
X043735Y023949D01*
X043735Y024138D01*
X043662Y024312D01*
X043529Y024446D01*
X043354Y024518D01*
X043165Y024518D01*
X043372Y024511D02*
X044147Y024511D01*
X044165Y024518D02*
X043990Y024446D01*
X043857Y024312D01*
X043785Y024138D01*
X043785Y023949D01*
X043857Y023774D01*
X043990Y023641D01*
X044165Y023568D01*
X044354Y023568D01*
X044529Y023641D01*
X044662Y023774D01*
X044735Y023949D01*
X044735Y024138D01*
X044662Y024312D01*
X044529Y024446D01*
X044354Y024518D01*
X044165Y024518D01*
X044372Y024511D02*
X045147Y024511D01*
X045165Y024518D02*
X044990Y024446D01*
X044857Y024312D01*
X044785Y024138D01*
X044785Y023949D01*
X044857Y023774D01*
X044990Y023641D01*
X045165Y023568D01*
X045354Y023568D01*
X045529Y023641D01*
X045662Y023774D01*
X045735Y023949D01*
X045735Y024138D01*
X045662Y024312D01*
X045529Y024446D01*
X045354Y024518D01*
X045165Y024518D01*
X045372Y024511D02*
X046147Y024511D01*
X046165Y024518D02*
X045990Y024446D01*
X045857Y024312D01*
X045785Y024138D01*
X045785Y023949D01*
X045857Y023774D01*
X045990Y023641D01*
X046165Y023568D01*
X046354Y023568D01*
X046529Y023641D01*
X046662Y023774D01*
X046735Y023949D01*
X046735Y024138D01*
X046662Y024312D01*
X046529Y024446D01*
X046354Y024518D01*
X046165Y024518D01*
X046372Y024511D02*
X047147Y024511D01*
X047165Y024518D02*
X046990Y024446D01*
X046857Y024312D01*
X046785Y024138D01*
X046785Y023949D01*
X046857Y023774D01*
X046990Y023641D01*
X047165Y023568D01*
X047354Y023568D01*
X047529Y023641D01*
X047662Y023774D01*
X047735Y023949D01*
X047735Y024138D01*
X047662Y024312D01*
X047529Y024446D01*
X047354Y024518D01*
X047165Y024518D01*
X047372Y024511D02*
X048765Y024511D01*
X048725Y024495D02*
X048570Y024339D01*
X048485Y024135D01*
X048485Y023915D01*
X048570Y023712D01*
X048725Y023556D01*
X048929Y023471D01*
X049149Y023471D01*
X049353Y023556D01*
X049508Y023712D01*
X049593Y023915D01*
X049593Y024135D01*
X049508Y024339D01*
X049353Y024495D01*
X049149Y024579D01*
X048929Y024579D01*
X048725Y024495D01*
X048623Y024392D02*
X047582Y024392D01*
X047678Y024274D02*
X048543Y024274D01*
X048494Y024155D02*
X047727Y024155D01*
X047735Y024037D02*
X048485Y024037D01*
X048485Y023918D02*
X047722Y023918D01*
X047673Y023800D02*
X048533Y023800D01*
X048600Y023681D02*
X047569Y023681D01*
X047990Y023246D02*
X047857Y023112D01*
X047785Y022938D01*
X047785Y022749D01*
X047857Y022574D01*
X047990Y022441D01*
X048165Y022368D01*
X048354Y022368D01*
X048529Y022441D01*
X048662Y022574D01*
X048735Y022749D01*
X048735Y022938D01*
X048662Y023112D01*
X048529Y023246D01*
X048354Y023318D01*
X048165Y023318D01*
X047990Y023246D01*
X047952Y023207D02*
X039264Y023207D01*
X039383Y023089D02*
X047847Y023089D01*
X047798Y022970D02*
X039501Y022970D01*
X039201Y022733D02*
X039141Y022733D01*
X039082Y022852D02*
X039014Y022852D01*
X039203Y022615D02*
X039316Y022615D01*
X039285Y022496D02*
X039235Y022496D01*
X039235Y022378D02*
X039285Y022378D01*
X039322Y022259D02*
X039197Y022259D01*
X039129Y022141D02*
X039390Y022141D01*
X039535Y022022D02*
X038984Y022022D01*
X038535Y022022D02*
X037984Y022022D01*
X038129Y022141D02*
X038390Y022141D01*
X038322Y022259D02*
X038197Y022259D01*
X038235Y022378D02*
X038285Y022378D01*
X038285Y022496D02*
X038235Y022496D01*
X038203Y022615D02*
X038316Y022615D01*
X038201Y022733D02*
X038141Y022733D01*
X038082Y022852D02*
X038014Y022852D01*
X037964Y022970D02*
X037501Y022970D01*
X037383Y023089D02*
X037845Y023089D01*
X038027Y023444D02*
X038070Y023444D01*
X038070Y023563D02*
X036229Y023563D01*
X036450Y023681D02*
X034216Y023681D01*
X034235Y023563D02*
X035890Y023563D01*
X035804Y023444D02*
X034233Y023444D01*
X034184Y023326D02*
X035785Y023326D01*
X035818Y023207D02*
X035741Y023207D01*
X035578Y023207D02*
X034095Y023207D01*
X033424Y023207D02*
X033095Y023207D01*
X033184Y023326D02*
X033335Y023326D01*
X033286Y023444D02*
X033233Y023444D01*
X033235Y023563D02*
X033285Y023563D01*
X033303Y023681D02*
X033216Y023681D01*
X033167Y023800D02*
X033352Y023800D01*
X033463Y023918D02*
X033056Y023918D01*
X034056Y023918D02*
X036297Y023918D01*
X036346Y023800D02*
X034167Y023800D01*
X035838Y022733D02*
X036378Y022733D01*
X037141Y022733D02*
X037201Y022733D01*
X037203Y022615D02*
X037316Y022615D01*
X037285Y022496D02*
X037235Y022496D01*
X037235Y022378D02*
X037285Y022378D01*
X037322Y022259D02*
X037197Y022259D01*
X037129Y022141D02*
X037390Y022141D01*
X037535Y022022D02*
X036984Y022022D01*
X036535Y022022D02*
X034235Y022022D01*
X034235Y022038D02*
X034162Y022212D01*
X034029Y022346D01*
X033854Y022418D01*
X033665Y022418D01*
X033490Y022346D01*
X033357Y022212D01*
X033285Y022038D01*
X033285Y021849D01*
X033357Y021674D01*
X033490Y021541D01*
X033665Y021468D01*
X033854Y021468D01*
X034029Y021541D01*
X034162Y021674D01*
X034235Y021849D01*
X034235Y022038D01*
X034192Y022141D02*
X036390Y022141D01*
X036322Y022259D02*
X034115Y022259D01*
X033952Y022378D02*
X036285Y022378D01*
X034235Y021904D02*
X054075Y021904D01*
X054075Y022022D02*
X050484Y022022D01*
X050529Y022041D02*
X050662Y022174D01*
X050735Y022349D01*
X050735Y022538D01*
X050662Y022712D01*
X050529Y022846D01*
X050354Y022918D01*
X050165Y022918D01*
X049990Y022846D01*
X049857Y022712D01*
X049785Y022538D01*
X049785Y022349D01*
X049857Y022174D01*
X049990Y022041D01*
X050165Y021968D01*
X050354Y021968D01*
X050529Y022041D01*
X050629Y022141D02*
X054075Y022141D01*
X054075Y022259D02*
X050697Y022259D01*
X050735Y022378D02*
X054075Y022378D01*
X054075Y022496D02*
X050735Y022496D01*
X050703Y022615D02*
X054075Y022615D01*
X054075Y022733D02*
X050641Y022733D01*
X050514Y022852D02*
X054075Y022852D01*
X054075Y022970D02*
X049721Y022970D01*
X049735Y022938D02*
X049662Y023112D01*
X049529Y023246D01*
X049354Y023318D01*
X049165Y023318D01*
X048990Y023246D01*
X048857Y023112D01*
X048785Y022938D01*
X048785Y022749D01*
X048857Y022574D01*
X048990Y022441D01*
X049165Y022368D01*
X049354Y022368D01*
X049529Y022441D01*
X049662Y022574D01*
X049735Y022749D01*
X049735Y022938D01*
X049735Y022852D02*
X050005Y022852D01*
X049878Y022733D02*
X049728Y022733D01*
X049679Y022615D02*
X049816Y022615D01*
X049785Y022496D02*
X049584Y022496D01*
X049785Y022378D02*
X049377Y022378D01*
X049142Y022378D02*
X048377Y022378D01*
X048142Y022378D02*
X047735Y022378D01*
X047735Y022349D02*
X047662Y022174D01*
X047529Y022041D01*
X047354Y021968D01*
X047165Y021968D01*
X046990Y022041D01*
X046857Y022174D01*
X046785Y022349D01*
X046785Y022538D01*
X046857Y022712D01*
X046990Y022846D01*
X047165Y022918D01*
X047354Y022918D01*
X047529Y022846D01*
X047662Y022712D01*
X047735Y022538D01*
X047735Y022349D01*
X047697Y022259D02*
X049822Y022259D01*
X049890Y022141D02*
X047629Y022141D01*
X047484Y022022D02*
X050035Y022022D01*
X049626Y021548D02*
X054075Y021548D01*
X054075Y021430D02*
X049696Y021430D01*
X049662Y021512D02*
X049529Y021646D01*
X049354Y021718D01*
X049165Y021718D01*
X048990Y021646D01*
X048857Y021512D01*
X048785Y021338D01*
X048785Y021149D01*
X048857Y020974D01*
X048990Y020841D01*
X049165Y020768D01*
X049354Y020768D01*
X049529Y020841D01*
X049662Y020974D01*
X049735Y021149D01*
X049735Y021338D01*
X049662Y021512D01*
X049735Y021311D02*
X054075Y021311D01*
X054075Y021193D02*
X049735Y021193D01*
X049704Y021074D02*
X054075Y021074D01*
X054075Y020956D02*
X049644Y020956D01*
X049521Y020837D02*
X054075Y020837D01*
X054075Y021667D02*
X049478Y021667D01*
X049041Y021667D02*
X048478Y021667D01*
X048626Y021548D02*
X048893Y021548D01*
X048823Y021430D02*
X048696Y021430D01*
X048735Y021311D02*
X048785Y021311D01*
X048785Y021193D02*
X048735Y021193D01*
X048704Y021074D02*
X048815Y021074D01*
X048875Y020956D02*
X048644Y020956D01*
X048521Y020837D02*
X048998Y020837D01*
X048041Y021667D02*
X034155Y021667D01*
X034208Y021785D02*
X054075Y021785D01*
X054075Y023089D02*
X049672Y023089D01*
X049567Y023207D02*
X054075Y023207D01*
X054075Y023326D02*
X038646Y023326D01*
X038527Y023444D02*
X054075Y023444D01*
X054075Y023563D02*
X049360Y023563D01*
X049478Y023681D02*
X049950Y023681D01*
X049990Y023641D02*
X050165Y023568D01*
X050354Y023568D01*
X050529Y023641D01*
X050662Y023774D01*
X050735Y023949D01*
X050735Y024138D01*
X050662Y024312D01*
X050529Y024446D01*
X050354Y024518D01*
X050165Y024518D01*
X049990Y024446D01*
X049857Y024312D01*
X049785Y024138D01*
X049785Y023949D01*
X049857Y023774D01*
X049990Y023641D01*
X049846Y023800D02*
X049545Y023800D01*
X049593Y023918D02*
X049797Y023918D01*
X049785Y024037D02*
X049593Y024037D01*
X049584Y024155D02*
X049792Y024155D01*
X049841Y024274D02*
X049535Y024274D01*
X049455Y024392D02*
X049937Y024392D01*
X050147Y024511D02*
X049313Y024511D01*
X050372Y024511D02*
X054075Y024511D01*
X054075Y024392D02*
X050582Y024392D01*
X050678Y024274D02*
X054075Y024274D01*
X054075Y024155D02*
X050727Y024155D01*
X050735Y024037D02*
X054075Y024037D01*
X054075Y023918D02*
X050722Y023918D01*
X050673Y023800D02*
X054075Y023800D01*
X054075Y023681D02*
X050569Y023681D01*
X048952Y023207D02*
X048567Y023207D01*
X048672Y023089D02*
X048847Y023089D01*
X048798Y022970D02*
X048721Y022970D01*
X048735Y022852D02*
X048785Y022852D01*
X048791Y022733D02*
X048728Y022733D01*
X048679Y022615D02*
X048840Y022615D01*
X048935Y022496D02*
X048584Y022496D01*
X047935Y022496D02*
X047735Y022496D01*
X047703Y022615D02*
X047840Y022615D01*
X047791Y022733D02*
X047641Y022733D01*
X047514Y022852D02*
X047785Y022852D01*
X047005Y022852D02*
X046514Y022852D01*
X046529Y022846D02*
X046354Y022918D01*
X046165Y022918D01*
X045990Y022846D01*
X045857Y022712D01*
X045785Y022538D01*
X045785Y022349D01*
X045857Y022174D01*
X045990Y022041D01*
X046165Y021968D01*
X046354Y021968D01*
X046529Y022041D01*
X046662Y022174D01*
X046735Y022349D01*
X046735Y022538D01*
X046662Y022712D01*
X046529Y022846D01*
X046641Y022733D02*
X046878Y022733D01*
X046816Y022615D02*
X046703Y022615D01*
X046735Y022496D02*
X046785Y022496D01*
X046785Y022378D02*
X046735Y022378D01*
X046697Y022259D02*
X046822Y022259D01*
X046890Y022141D02*
X046629Y022141D01*
X046484Y022022D02*
X047035Y022022D01*
X047893Y021548D02*
X034036Y021548D01*
X033483Y021548D02*
X033036Y021548D01*
X033155Y021667D02*
X033364Y021667D01*
X033311Y021785D02*
X033208Y021785D01*
X033235Y021904D02*
X033285Y021904D01*
X033285Y022022D02*
X033235Y022022D01*
X033192Y022141D02*
X033327Y022141D01*
X033404Y022259D02*
X033115Y022259D01*
X032952Y022378D02*
X033567Y022378D01*
X031560Y022378D02*
X022960Y022378D01*
X022960Y022496D02*
X031560Y022496D01*
X031560Y022615D02*
X022960Y022615D01*
X022960Y022733D02*
X031560Y022733D01*
X031560Y022852D02*
X022960Y022852D01*
X022960Y022970D02*
X031560Y022970D01*
X031560Y023089D02*
X022960Y023089D01*
X022960Y023207D02*
X031560Y023207D01*
X031560Y023326D02*
X022960Y023326D01*
X022960Y023444D02*
X031560Y023444D01*
X031560Y023563D02*
X022960Y023563D01*
X022960Y023681D02*
X026033Y023681D01*
X026026Y023688D02*
X026104Y023610D01*
X026205Y023568D01*
X026314Y023568D01*
X026415Y023610D01*
X026493Y023688D01*
X026510Y023728D01*
X026526Y023688D01*
X026604Y023610D01*
X026705Y023568D01*
X026814Y023568D01*
X026915Y023610D01*
X026993Y023688D01*
X027035Y023789D01*
X027035Y023898D01*
X026993Y023999D01*
X026915Y024076D01*
X026814Y024118D01*
X026753Y024118D01*
X025950Y024922D01*
X025950Y025702D01*
X026031Y025736D01*
X026166Y025871D01*
X026240Y026048D01*
X026240Y026239D01*
X026166Y026415D01*
X026031Y026550D01*
X025855Y026623D01*
X025664Y026623D01*
X025488Y026550D01*
X025353Y026415D01*
X025280Y026239D01*
X025280Y026048D01*
X025353Y025871D01*
X025488Y025736D01*
X025570Y025702D01*
X025570Y024802D01*
X024950Y025422D01*
X024950Y025702D01*
X025031Y025736D01*
X025166Y025871D01*
X025240Y026048D01*
X025240Y026239D01*
X025166Y026415D01*
X025031Y026550D01*
X024855Y026623D01*
X024664Y026623D01*
X024488Y026550D01*
X024353Y026415D01*
X024281Y026241D01*
X024276Y026267D01*
X024251Y026347D01*
X024213Y026421D01*
X024164Y026489D01*
X024105Y026548D01*
X024037Y026597D01*
X023963Y026634D01*
X023884Y026660D01*
X023801Y026673D01*
X023800Y026673D01*
X023800Y026183D01*
X023720Y026183D01*
X023720Y026673D01*
X023718Y026673D01*
X023635Y026660D01*
X023556Y026634D01*
X023482Y026597D01*
X023414Y026548D01*
X023355Y026489D01*
X023306Y026421D01*
X023268Y026347D01*
X023243Y026267D01*
X023230Y026185D01*
X023230Y026183D01*
X023720Y026183D01*
X023720Y026103D01*
X023800Y026103D01*
X023800Y025613D01*
X023801Y025613D01*
X023884Y025626D01*
X023963Y025652D01*
X024037Y025690D01*
X024105Y025739D01*
X024164Y025798D01*
X024213Y025866D01*
X024251Y025940D01*
X024276Y026019D01*
X024281Y026045D01*
X024353Y025871D01*
X024488Y025736D01*
X024570Y025702D01*
X024570Y025265D01*
X025985Y023850D01*
X025985Y023789D01*
X026026Y023688D01*
X025985Y023800D02*
X022960Y023800D01*
X022960Y023918D02*
X025916Y023918D01*
X025797Y024037D02*
X022960Y024037D01*
X022960Y024155D02*
X025679Y024155D01*
X025560Y024274D02*
X022960Y024274D01*
X022960Y024392D02*
X025442Y024392D01*
X025323Y024511D02*
X022960Y024511D01*
X022960Y024629D02*
X025205Y024629D01*
X025086Y024748D02*
X022960Y024748D01*
X022960Y024866D02*
X024968Y024866D01*
X024849Y024985D02*
X022960Y024985D01*
X022960Y025103D02*
X024731Y025103D01*
X024612Y025222D02*
X022960Y025222D01*
X022960Y025340D02*
X024570Y025340D01*
X024570Y025459D02*
X022960Y025459D01*
X022960Y025577D02*
X024570Y025577D01*
X024570Y025696D02*
X024045Y025696D01*
X024176Y025814D02*
X024410Y025814D01*
X024327Y025933D02*
X024247Y025933D01*
X024270Y026288D02*
X024300Y026288D01*
X024349Y026407D02*
X024220Y026407D01*
X024127Y026525D02*
X024463Y026525D01*
X023934Y026644D02*
X031560Y026644D01*
X031560Y026762D02*
X022960Y026762D01*
X022960Y026644D02*
X023585Y026644D01*
X023720Y026644D02*
X023800Y026644D01*
X023800Y026525D02*
X023720Y026525D01*
X023720Y026407D02*
X023800Y026407D01*
X023800Y026288D02*
X023720Y026288D01*
X023720Y026170D02*
X022960Y026170D01*
X022960Y026288D02*
X023249Y026288D01*
X023299Y026407D02*
X022960Y026407D01*
X022960Y026525D02*
X023392Y026525D01*
X023230Y026103D02*
X023230Y026102D01*
X023243Y026019D01*
X023268Y025940D01*
X023306Y025866D01*
X023355Y025798D01*
X023414Y025739D01*
X023482Y025690D01*
X023556Y025652D01*
X023635Y025626D01*
X023718Y025613D01*
X023720Y025613D01*
X023720Y026103D01*
X023230Y026103D01*
X023237Y026051D02*
X022960Y026051D01*
X022960Y025933D02*
X023272Y025933D01*
X023343Y025814D02*
X022960Y025814D01*
X022960Y025696D02*
X023474Y025696D01*
X023720Y025696D02*
X023800Y025696D01*
X023800Y025814D02*
X023720Y025814D01*
X023720Y025933D02*
X023800Y025933D01*
X023800Y026051D02*
X023720Y026051D01*
X022560Y026051D02*
X018413Y026051D01*
X018404Y026074D02*
X018190Y026288D01*
X017911Y026403D01*
X017608Y026403D01*
X017329Y026288D01*
X017115Y026074D01*
X017000Y025794D01*
X017000Y025492D01*
X017115Y025213D01*
X017329Y024999D01*
X017608Y024883D01*
X017911Y024883D01*
X018190Y024999D01*
X018404Y025213D01*
X018520Y025492D01*
X018520Y025794D01*
X018404Y026074D01*
X018308Y026170D02*
X022560Y026170D01*
X022560Y026288D02*
X018188Y026288D01*
X018462Y025933D02*
X022560Y025933D01*
X022560Y025814D02*
X018511Y025814D01*
X018520Y025696D02*
X022560Y025696D01*
X022560Y025577D02*
X018520Y025577D01*
X018506Y025459D02*
X022560Y025459D01*
X022560Y025340D02*
X018457Y025340D01*
X018408Y025222D02*
X022560Y025222D01*
X022560Y025103D02*
X018294Y025103D01*
X018156Y024985D02*
X022560Y024985D01*
X022560Y024866D02*
X016445Y024866D01*
X016445Y024748D02*
X022560Y024748D01*
X022560Y024629D02*
X016445Y024629D01*
X016445Y024511D02*
X021206Y024511D01*
X021166Y024495D02*
X021011Y024339D01*
X020926Y024135D01*
X020926Y023915D01*
X021011Y023712D01*
X021166Y023556D01*
X021370Y023471D01*
X021590Y023471D01*
X021794Y023556D01*
X021949Y023712D01*
X022034Y023915D01*
X022034Y024135D01*
X021949Y024339D01*
X021794Y024495D01*
X021590Y024579D01*
X021370Y024579D01*
X021166Y024495D01*
X021064Y024392D02*
X016445Y024392D01*
X016445Y024274D02*
X020984Y024274D01*
X020935Y024155D02*
X016445Y024155D01*
X016445Y024037D02*
X020926Y024037D01*
X020926Y023918D02*
X016445Y023918D01*
X016445Y023800D02*
X020974Y023800D01*
X021041Y023681D02*
X016445Y023681D01*
X016445Y023563D02*
X021159Y023563D01*
X021801Y023563D02*
X022560Y023563D01*
X022560Y023681D02*
X021919Y023681D01*
X021986Y023800D02*
X022560Y023800D01*
X022560Y023918D02*
X022034Y023918D01*
X022034Y024037D02*
X022560Y024037D01*
X022560Y024155D02*
X022025Y024155D01*
X021976Y024274D02*
X022560Y024274D01*
X022560Y024392D02*
X021896Y024392D01*
X021754Y024511D02*
X022560Y024511D01*
X022560Y023444D02*
X016445Y023444D01*
X016445Y023326D02*
X022560Y023326D01*
X022560Y023207D02*
X016445Y023207D01*
X016445Y023089D02*
X022560Y023089D01*
X022560Y022970D02*
X016445Y022970D01*
X016445Y022852D02*
X022560Y022852D01*
X022560Y022733D02*
X016445Y022733D01*
X016445Y022615D02*
X022560Y022615D01*
X022560Y022496D02*
X016445Y022496D01*
X016445Y022378D02*
X022560Y022378D01*
X022560Y022259D02*
X016445Y022259D01*
X016445Y022141D02*
X022560Y022141D01*
X022560Y022022D02*
X016445Y022022D01*
X016445Y021904D02*
X022560Y021904D01*
X022560Y021785D02*
X016445Y021785D01*
X016445Y021667D02*
X022560Y021667D01*
X022560Y021548D02*
X016445Y021548D01*
X016445Y021430D02*
X022560Y021430D01*
X022560Y021311D02*
X016445Y021311D01*
X016445Y021193D02*
X022560Y021193D01*
X022560Y021074D02*
X016445Y021074D01*
X016445Y020956D02*
X022560Y020956D01*
X022560Y020837D02*
X016445Y020837D01*
X016445Y020719D02*
X022560Y020719D01*
X022960Y020843D02*
X022960Y026958D01*
X031560Y026958D01*
X031560Y020843D01*
X022960Y020843D01*
X022960Y020956D02*
X031560Y020956D01*
X031560Y021074D02*
X022960Y021074D01*
X022960Y021193D02*
X031560Y021193D01*
X031560Y021311D02*
X022960Y021311D01*
X022960Y021430D02*
X031560Y021430D01*
X031560Y021548D02*
X022960Y021548D01*
X022960Y021667D02*
X031560Y021667D01*
X031560Y021785D02*
X022960Y021785D01*
X022960Y021904D02*
X031560Y021904D01*
X031560Y022022D02*
X022960Y022022D01*
X022960Y022141D02*
X031560Y022141D01*
X031560Y022259D02*
X022960Y022259D01*
X026486Y023681D02*
X026533Y023681D01*
X026986Y023681D02*
X031560Y023681D01*
X031560Y023800D02*
X027035Y023800D01*
X027026Y023918D02*
X031560Y023918D01*
X031560Y024037D02*
X026955Y024037D01*
X026716Y024155D02*
X031560Y024155D01*
X031560Y024274D02*
X026598Y024274D01*
X026479Y024392D02*
X031560Y024392D01*
X031560Y024511D02*
X026361Y024511D01*
X026242Y024629D02*
X031560Y024629D01*
X031560Y024748D02*
X026124Y024748D01*
X026005Y024866D02*
X031560Y024866D01*
X031560Y024985D02*
X025950Y024985D01*
X025950Y025103D02*
X031560Y025103D01*
X031560Y025222D02*
X025950Y025222D01*
X025950Y025340D02*
X031560Y025340D01*
X031560Y025459D02*
X025950Y025459D01*
X025950Y025577D02*
X031560Y025577D01*
X031560Y025696D02*
X030934Y025696D01*
X030855Y025663D02*
X031031Y025736D01*
X031166Y025871D01*
X031240Y026048D01*
X031240Y026239D01*
X031166Y026415D01*
X031031Y026550D01*
X030855Y026623D01*
X030664Y026623D01*
X030488Y026550D01*
X030353Y026415D01*
X030280Y026239D01*
X030280Y026048D01*
X030353Y025871D01*
X030488Y025736D01*
X030664Y025663D01*
X030855Y025663D01*
X030585Y025696D02*
X029934Y025696D01*
X029855Y025663D02*
X030031Y025736D01*
X030166Y025871D01*
X030240Y026048D01*
X030240Y026239D01*
X030166Y026415D01*
X030031Y026550D01*
X029855Y026623D01*
X029664Y026623D01*
X029488Y026550D01*
X029353Y026415D01*
X029280Y026239D01*
X029280Y026048D01*
X029353Y025871D01*
X029488Y025736D01*
X029664Y025663D01*
X029855Y025663D01*
X029585Y025696D02*
X028934Y025696D01*
X028855Y025663D02*
X029031Y025736D01*
X029166Y025871D01*
X029240Y026048D01*
X029240Y026239D01*
X029166Y026415D01*
X029031Y026550D01*
X028855Y026623D01*
X028664Y026623D01*
X028488Y026550D01*
X028353Y026415D01*
X028280Y026239D01*
X028280Y026048D01*
X028353Y025871D01*
X028488Y025736D01*
X028664Y025663D01*
X028855Y025663D01*
X028585Y025696D02*
X027934Y025696D01*
X027855Y025663D02*
X028031Y025736D01*
X028166Y025871D01*
X028240Y026048D01*
X028240Y026239D01*
X028166Y026415D01*
X028031Y026550D01*
X027855Y026623D01*
X027664Y026623D01*
X027488Y026550D01*
X027353Y026415D01*
X027280Y026239D01*
X027280Y026048D01*
X027353Y025871D01*
X027488Y025736D01*
X027664Y025663D01*
X027855Y025663D01*
X027585Y025696D02*
X026934Y025696D01*
X026855Y025663D02*
X027031Y025736D01*
X027166Y025871D01*
X027240Y026048D01*
X027240Y026239D01*
X027166Y026415D01*
X027031Y026550D01*
X026855Y026623D01*
X026664Y026623D01*
X026488Y026550D01*
X026353Y026415D01*
X026280Y026239D01*
X026280Y026048D01*
X026353Y025871D01*
X026488Y025736D01*
X026664Y025663D01*
X026855Y025663D01*
X026585Y025696D02*
X025950Y025696D01*
X026109Y025814D02*
X026410Y025814D01*
X026327Y025933D02*
X026192Y025933D01*
X026240Y026051D02*
X026280Y026051D01*
X026280Y026170D02*
X026240Y026170D01*
X026219Y026288D02*
X026300Y026288D01*
X026349Y026407D02*
X026170Y026407D01*
X026056Y026525D02*
X026463Y026525D01*
X027056Y026525D02*
X027463Y026525D01*
X027349Y026407D02*
X027170Y026407D01*
X027219Y026288D02*
X027300Y026288D01*
X027280Y026170D02*
X027240Y026170D01*
X027240Y026051D02*
X027280Y026051D01*
X027327Y025933D02*
X027192Y025933D01*
X027109Y025814D02*
X027410Y025814D01*
X028109Y025814D02*
X028410Y025814D01*
X028327Y025933D02*
X028192Y025933D01*
X028240Y026051D02*
X028280Y026051D01*
X028280Y026170D02*
X028240Y026170D01*
X028219Y026288D02*
X028300Y026288D01*
X028349Y026407D02*
X028170Y026407D01*
X028056Y026525D02*
X028463Y026525D01*
X029056Y026525D02*
X029463Y026525D01*
X029349Y026407D02*
X029170Y026407D01*
X029219Y026288D02*
X029300Y026288D01*
X029280Y026170D02*
X029240Y026170D01*
X029240Y026051D02*
X029280Y026051D01*
X029327Y025933D02*
X029192Y025933D01*
X029109Y025814D02*
X029410Y025814D01*
X030109Y025814D02*
X030410Y025814D01*
X030327Y025933D02*
X030192Y025933D01*
X030240Y026051D02*
X030280Y026051D01*
X030280Y026170D02*
X030240Y026170D01*
X030219Y026288D02*
X030300Y026288D01*
X030349Y026407D02*
X030170Y026407D01*
X030056Y026525D02*
X030463Y026525D01*
X031056Y026525D02*
X031560Y026525D01*
X031560Y026407D02*
X031170Y026407D01*
X031219Y026288D02*
X031560Y026288D01*
X031560Y026170D02*
X031240Y026170D01*
X031240Y026051D02*
X031560Y026051D01*
X031560Y025933D02*
X031192Y025933D01*
X031109Y025814D02*
X031560Y025814D01*
X031960Y025814D02*
X032410Y025814D01*
X032327Y025933D02*
X031960Y025933D01*
X031960Y026051D02*
X032280Y026051D01*
X032280Y026170D02*
X031960Y026170D01*
X031960Y026288D02*
X032300Y026288D01*
X032349Y026407D02*
X031960Y026407D01*
X031960Y026525D02*
X032463Y026525D01*
X033056Y026525D02*
X033463Y026525D01*
X033349Y026407D02*
X033170Y026407D01*
X033219Y026288D02*
X033300Y026288D01*
X033280Y026170D02*
X033240Y026170D01*
X033240Y026051D02*
X033280Y026051D01*
X033327Y025933D02*
X033192Y025933D01*
X033109Y025814D02*
X033410Y025814D01*
X031960Y026881D02*
X053178Y026881D01*
X053721Y026525D02*
X050556Y026525D01*
X046937Y024392D02*
X046582Y024392D01*
X046678Y024274D02*
X046841Y024274D01*
X046792Y024155D02*
X046727Y024155D01*
X046735Y024037D02*
X046785Y024037D01*
X046797Y023918D02*
X046722Y023918D01*
X046673Y023800D02*
X046846Y023800D01*
X046950Y023681D02*
X046569Y023681D01*
X045950Y023681D02*
X045569Y023681D01*
X045673Y023800D02*
X045846Y023800D01*
X045797Y023918D02*
X045722Y023918D01*
X045735Y024037D02*
X045785Y024037D01*
X045792Y024155D02*
X045727Y024155D01*
X045678Y024274D02*
X045841Y024274D01*
X045937Y024392D02*
X045582Y024392D01*
X044937Y024392D02*
X044582Y024392D01*
X044678Y024274D02*
X044841Y024274D01*
X044792Y024155D02*
X044727Y024155D01*
X044735Y024037D02*
X044785Y024037D01*
X044797Y023918D02*
X044722Y023918D01*
X044673Y023800D02*
X044846Y023800D01*
X044950Y023681D02*
X044569Y023681D01*
X043950Y023681D02*
X043569Y023681D01*
X043673Y023800D02*
X043846Y023800D01*
X043797Y023918D02*
X043722Y023918D01*
X043735Y024037D02*
X043785Y024037D01*
X043792Y024155D02*
X043727Y024155D01*
X043678Y024274D02*
X043841Y024274D01*
X043937Y024392D02*
X043582Y024392D01*
X042937Y024392D02*
X042082Y024392D01*
X042178Y024274D02*
X042841Y024274D01*
X042792Y024155D02*
X042227Y024155D01*
X042235Y024037D02*
X042785Y024037D01*
X042797Y023918D02*
X042222Y023918D01*
X042173Y023800D02*
X042846Y023800D01*
X042950Y023681D02*
X042069Y023681D01*
X041450Y023681D02*
X041069Y023681D01*
X041173Y023800D02*
X041346Y023800D01*
X041297Y023918D02*
X041222Y023918D01*
X041235Y024037D02*
X041285Y024037D01*
X041292Y024155D02*
X041227Y024155D01*
X041178Y024274D02*
X041341Y024274D01*
X041437Y024392D02*
X041082Y024392D01*
X040437Y024392D02*
X040082Y024392D01*
X040178Y024274D02*
X040341Y024274D01*
X040292Y024155D02*
X040227Y024155D01*
X040235Y024037D02*
X040285Y024037D01*
X040297Y023918D02*
X040222Y023918D01*
X040173Y023800D02*
X040346Y023800D01*
X040450Y023681D02*
X040069Y023681D01*
X039450Y023681D02*
X039069Y023681D01*
X039173Y023800D02*
X039346Y023800D01*
X039297Y023918D02*
X039222Y023918D01*
X039235Y024037D02*
X039285Y024037D01*
X039292Y024155D02*
X039227Y024155D01*
X039178Y024274D02*
X039341Y024274D01*
X039437Y024392D02*
X039082Y024392D01*
X038450Y023681D02*
X038450Y023681D01*
X038450Y023563D02*
X048718Y023563D01*
X046005Y022852D02*
X045514Y022852D01*
X045529Y022846D02*
X045354Y022918D01*
X045165Y022918D01*
X044990Y022846D01*
X044857Y022712D01*
X044785Y022538D01*
X044785Y022349D01*
X044857Y022174D01*
X044990Y022041D01*
X045165Y021968D01*
X045354Y021968D01*
X045529Y022041D01*
X045662Y022174D01*
X045735Y022349D01*
X045735Y022538D01*
X045662Y022712D01*
X045529Y022846D01*
X045641Y022733D02*
X045878Y022733D01*
X045816Y022615D02*
X045703Y022615D01*
X045735Y022496D02*
X045785Y022496D01*
X045785Y022378D02*
X045735Y022378D01*
X045697Y022259D02*
X045822Y022259D01*
X045890Y022141D02*
X045629Y022141D01*
X045484Y022022D02*
X046035Y022022D01*
X045035Y022022D02*
X044484Y022022D01*
X044529Y022041D02*
X044662Y022174D01*
X044735Y022349D01*
X044735Y022538D01*
X044662Y022712D01*
X044529Y022846D01*
X044354Y022918D01*
X044165Y022918D01*
X043990Y022846D01*
X043857Y022712D01*
X043785Y022538D01*
X043785Y022349D01*
X043857Y022174D01*
X043990Y022041D01*
X044165Y021968D01*
X044354Y021968D01*
X044529Y022041D01*
X044629Y022141D02*
X044890Y022141D01*
X044822Y022259D02*
X044697Y022259D01*
X044735Y022378D02*
X044785Y022378D01*
X044785Y022496D02*
X044735Y022496D01*
X044703Y022615D02*
X044816Y022615D01*
X044878Y022733D02*
X044641Y022733D01*
X044514Y022852D02*
X045005Y022852D01*
X044005Y022852D02*
X043514Y022852D01*
X043529Y022846D02*
X043354Y022918D01*
X043165Y022918D01*
X042990Y022846D01*
X042857Y022712D01*
X042785Y022538D01*
X042785Y022349D01*
X042857Y022174D01*
X042990Y022041D01*
X043165Y021968D01*
X043354Y021968D01*
X043529Y022041D01*
X043662Y022174D01*
X043735Y022349D01*
X043735Y022538D01*
X043662Y022712D01*
X043529Y022846D01*
X043641Y022733D02*
X043878Y022733D01*
X043816Y022615D02*
X043703Y022615D01*
X043735Y022496D02*
X043785Y022496D01*
X043785Y022378D02*
X043735Y022378D01*
X043697Y022259D02*
X043822Y022259D01*
X043890Y022141D02*
X043629Y022141D01*
X043484Y022022D02*
X044035Y022022D01*
X043035Y022022D02*
X041984Y022022D01*
X042029Y022041D02*
X042162Y022174D01*
X042235Y022349D01*
X042235Y022538D01*
X042162Y022712D01*
X042029Y022846D01*
X041854Y022918D01*
X041665Y022918D01*
X041490Y022846D01*
X041357Y022712D01*
X041285Y022538D01*
X041285Y022349D01*
X041357Y022174D01*
X041490Y022041D01*
X041665Y021968D01*
X041854Y021968D01*
X042029Y022041D01*
X042129Y022141D02*
X042890Y022141D01*
X042822Y022259D02*
X042197Y022259D01*
X042235Y022378D02*
X042785Y022378D01*
X042785Y022496D02*
X042235Y022496D01*
X042203Y022615D02*
X042816Y022615D01*
X042878Y022733D02*
X042141Y022733D01*
X042014Y022852D02*
X043005Y022852D01*
X041505Y022852D02*
X041014Y022852D01*
X041029Y022846D02*
X040854Y022918D01*
X040665Y022918D01*
X040490Y022846D01*
X040357Y022712D01*
X040285Y022538D01*
X040285Y022349D01*
X040357Y022174D01*
X040490Y022041D01*
X040665Y021968D01*
X040854Y021968D01*
X041029Y022041D01*
X041162Y022174D01*
X041235Y022349D01*
X041235Y022538D01*
X041162Y022712D01*
X041029Y022846D01*
X041141Y022733D02*
X041378Y022733D01*
X041316Y022615D02*
X041203Y022615D01*
X041235Y022496D02*
X041285Y022496D01*
X041285Y022378D02*
X041235Y022378D01*
X041197Y022259D02*
X041322Y022259D01*
X041390Y022141D02*
X041129Y022141D01*
X040984Y022022D02*
X041535Y022022D01*
X040535Y022022D02*
X039984Y022022D01*
X040129Y022141D02*
X040390Y022141D01*
X040322Y022259D02*
X040197Y022259D01*
X040235Y022378D02*
X040285Y022378D01*
X040285Y022496D02*
X040235Y022496D01*
X040203Y022615D02*
X040316Y022615D01*
X040378Y022733D02*
X040141Y022733D01*
X040014Y022852D02*
X040505Y022852D01*
X038070Y023681D02*
X038069Y023681D01*
X037450Y023681D02*
X037069Y023681D01*
X037173Y023800D02*
X037346Y023800D01*
X037297Y023918D02*
X037222Y023918D01*
X037235Y024037D02*
X037285Y024037D01*
X037292Y024155D02*
X037227Y024155D01*
X037178Y024274D02*
X037341Y024274D01*
X037437Y024392D02*
X037082Y024392D01*
X041038Y026644D02*
X042981Y026644D01*
X031560Y026881D02*
X022960Y026881D01*
X022560Y026881D02*
X017341Y026881D01*
X017090Y026762D02*
X022560Y026762D01*
X022560Y026644D02*
X016916Y026644D01*
X016798Y026525D02*
X022560Y026525D01*
X022560Y026407D02*
X016695Y026407D01*
X016626Y026288D02*
X017331Y026288D01*
X017211Y026170D02*
X016558Y026170D01*
X016519Y026051D02*
X017106Y026051D01*
X017057Y025933D02*
X016487Y025933D01*
X016456Y025814D02*
X017008Y025814D01*
X017000Y025696D02*
X016448Y025696D01*
X016445Y025577D02*
X017000Y025577D01*
X017013Y025459D02*
X016445Y025459D01*
X016445Y025340D02*
X017062Y025340D01*
X017111Y025222D02*
X016445Y025222D01*
X016445Y025103D02*
X017225Y025103D01*
X017363Y024985D02*
X016445Y024985D01*
X024950Y025459D02*
X025570Y025459D01*
X025570Y025577D02*
X024950Y025577D01*
X024950Y025696D02*
X025570Y025696D01*
X025410Y025814D02*
X025109Y025814D01*
X025192Y025933D02*
X025327Y025933D01*
X025280Y026051D02*
X025240Y026051D01*
X025240Y026170D02*
X025280Y026170D01*
X025300Y026288D02*
X025219Y026288D01*
X025170Y026407D02*
X025349Y026407D01*
X025463Y026525D02*
X025056Y026525D01*
X025031Y025340D02*
X025570Y025340D01*
X025570Y025222D02*
X025150Y025222D01*
X025268Y025103D02*
X025570Y025103D01*
X025570Y024985D02*
X025387Y024985D01*
X025505Y024866D02*
X025570Y024866D01*
X026570Y012542D02*
X019250Y012542D01*
X019250Y012424D02*
X026495Y012424D01*
X026485Y012305D02*
X019250Y012305D01*
X019250Y012187D02*
X026527Y012187D01*
X026570Y012068D02*
X019250Y012068D01*
X019250Y011950D02*
X026570Y011950D01*
X026570Y011831D02*
X019250Y011831D01*
X019250Y011713D02*
X026540Y011713D01*
X026485Y011594D02*
X019250Y011594D01*
X019250Y011476D02*
X026490Y011476D01*
X020150Y007684D02*
X018520Y007684D01*
X018516Y007802D02*
X020032Y007802D01*
X019913Y007921D02*
X018467Y007921D01*
X019202Y008632D02*
X016445Y008632D01*
X016445Y008750D02*
X019084Y008750D01*
X018965Y008869D02*
X016445Y008869D01*
X016445Y008987D02*
X018847Y008987D01*
X018728Y009106D02*
X016445Y009106D01*
X016445Y009224D02*
X018610Y009224D01*
X018491Y009343D02*
X016445Y009343D01*
X016445Y009461D02*
X018470Y009461D01*
X027777Y006380D02*
X053083Y006380D01*
X053385Y006499D02*
X027820Y006499D01*
X050495Y007565D02*
X052000Y007565D01*
X052018Y007447D02*
X050635Y007447D01*
X050702Y007328D02*
X052067Y007328D01*
X052118Y007210D02*
X050740Y007210D01*
X050740Y007091D02*
X052237Y007091D01*
X052392Y006973D02*
X050708Y006973D01*
D19*
X047260Y010743D02*
X046560Y010043D01*
X044560Y010043D01*
X042360Y007843D01*
X020260Y007843D01*
X018660Y009443D01*
X018660Y019793D01*
X018035Y020418D01*
X019260Y016543D02*
X019060Y016343D01*
X019060Y009543D01*
X020460Y008143D01*
X042260Y008143D01*
X044560Y010443D01*
X045660Y010443D01*
X046260Y011043D01*
X047260Y011043D02*
X047260Y010743D01*
X045260Y011043D02*
X045060Y010843D01*
X044560Y010843D01*
X042160Y008443D01*
X020660Y008443D01*
X019460Y009643D01*
X019460Y010943D01*
X025160Y009943D02*
X025460Y009643D01*
X026360Y009643D01*
X026760Y011543D02*
X026760Y012343D01*
X037260Y022943D02*
X037760Y022443D01*
X037260Y022943D02*
X035660Y022943D01*
X036060Y023343D02*
X037860Y023343D01*
X038760Y022443D01*
X038660Y023043D02*
X038260Y023443D01*
X038260Y024443D01*
X038060Y024643D01*
X035960Y024643D01*
X038660Y023043D02*
X039160Y023043D01*
X039760Y022443D01*
X026760Y023843D02*
X025760Y024843D01*
X025760Y026143D01*
X024760Y026143D02*
X024760Y025343D01*
X026260Y023843D01*
D20*
X032760Y023543D03*
X033760Y023543D03*
X033760Y021943D03*
X032760Y021943D03*
X036760Y022443D03*
X037760Y022443D03*
X038760Y022443D03*
X039760Y022443D03*
X040760Y022443D03*
X041760Y022443D03*
X043260Y022443D03*
X044260Y022443D03*
X045260Y022443D03*
X046260Y022443D03*
X047260Y022443D03*
X048260Y022843D03*
X049260Y022843D03*
X050260Y022443D03*
X049260Y021243D03*
X048260Y021243D03*
X047260Y024043D03*
X046260Y024043D03*
X045260Y024043D03*
X044260Y024043D03*
X043260Y024043D03*
X041760Y024043D03*
X040760Y024043D03*
X039760Y024043D03*
X038760Y024043D03*
X037760Y024043D03*
X036760Y024043D03*
X050260Y024043D03*
X049260Y012043D03*
X048260Y012043D03*
X047260Y011043D03*
X046260Y011043D03*
X045260Y011043D03*
X045260Y009443D03*
X046260Y009443D03*
X047260Y009443D03*
X048260Y010443D03*
X049260Y010443D03*
X050260Y011043D03*
X050260Y009443D03*
D21*
X043560Y015843D02*
X043560Y016843D01*
X039860Y018143D02*
X038760Y018143D01*
M02*
