%
M48
M72
T01C0.0130
T02C0.0197
T03C0.0236
T04C0.0350
T05C0.0394
T06C0.0400
T07C0.0787
T08C0.1200
%
T01
X51960Y6843
X53360Y24343
X51060Y24643
X49860Y24943
X48860Y24843
X47760Y24743
X46760Y24743
X45760Y24743
X44760Y24743
X43760Y24743
X42560Y24743
X41260Y24843
X40360Y24843
X39360Y24943
X38360Y24943
X37360Y25043
X35960Y24643
X34760Y24943
X33260Y24943
X32260Y24943
X31160Y25043
X29160Y24743
X28560Y25443
X27360Y25343
X26760Y24743
X26760Y23843
X26260Y23843
X24660Y23843
X23360Y25343
X25260Y25643
X21360Y25543
X18260Y24543
X25160Y21843
X27360Y22143
X28660Y22143
X28260Y21243
X27660Y19743
X25560Y19743
X25560Y17943
X27760Y17743
X31360Y16643
X31860Y15143
X33860Y15643
X35060Y16043
X36260Y16043
X37860Y15443
X39760Y15543
X40360Y16443
X42360Y15643
X40360Y13743
X41460Y13543
X45060Y14143
X46460Y12943
X49060Y13943
X50860Y12443
X52960Y14743
X50860Y16143
X48560Y16243
X45360Y18243
X42960Y17943
X43260Y20643
X41760Y20443
X45460Y21243
X47260Y21643
X49060Y19943
X49560Y18843
X53060Y19843
X50160Y21143
X52860Y22443
X37560Y21243
X35860Y20143
X32860Y20743
X31660Y19243
X34660Y22643
X35660Y22943
X36060Y23343
X31160Y23043
X22160Y21143
X18035Y20418
X17960Y21543
X18060Y18043
X19260Y16543
X21360Y15143
X21860Y13743
X23660Y11843
X21560Y10943
X19460Y10943
X17560Y9343
X19360Y7343
X22160Y6743
X25960Y6843
X31060Y6743
X34960Y6843
X36260Y10643
X33660Y12043
X32260Y11243
X29060Y11943
X26760Y11543
X26760Y12343
X25760Y13743
X27160Y14243
X25560Y15643
X27360Y15943
X30860Y13943
X32860Y13643
X34360Y13743
X36560Y13943
X36960Y13043
X39660Y11043
X43460Y11043
X41760Y8843
X44460Y7943
X45860Y8443
X46860Y8343
X47860Y8243
X48860Y8243
X51360Y8943
X53160Y9243
X44260Y6743
X26360Y9643
X26060Y8843
X25160Y9943
X22360Y8943
X18060Y13643
X21960Y16643
T02
X35660Y15643
X43560Y15843
X43560Y16843
T03
X35760Y18843
X38760Y18143
X39860Y18143
X35760Y16643
T04
X24336Y6552
X27485Y6552
T05
X32760Y23543
X33760Y23543
X33760Y21943
X32760Y21943
X36760Y22443
X37760Y22443
X38760Y22443
X39760Y22443
X40760Y22443
X41760Y22443
X43260Y22443
X44260Y22443
X45260Y22443
X46260Y22443
X47260Y22443
X48260Y22843
X49260Y22843
X50260Y22443
X49260Y21243
X48260Y21243
X47260Y24043
X46260Y24043
X45260Y24043
X44260Y24043
X43260Y24043
X41760Y24043
X40760Y24043
X39760Y24043
X38760Y24043
X37760Y24043
X36760Y24043
X50260Y24043
X49260Y12043
X48260Y12043
X47260Y11043
X46260Y11043
X45260Y11043
X45260Y9443
X46260Y9443
X47260Y9443
X48260Y10443
X49260Y10443
X50260Y11043
X50260Y9443
T06
X23760Y26143
X24760Y26143
X25760Y26143
X26760Y26143
X27760Y26143
X28760Y26143
X29760Y26143
X30760Y26143
X32760Y26143
X33760Y26143
X34760Y26243
X35760Y26143
X36760Y26243
X37760Y26143
X38760Y26243
X39760Y26143
X40760Y26243
X41760Y26143
X43260Y26243
X44260Y26143
X45260Y26243
X46260Y26143
X47260Y26243
X48260Y26143
X49260Y26243
X50260Y26143
X48260Y7143
X49260Y7043
X50260Y7143
X47260Y7043
X46260Y7143
X45260Y7043
X43260Y7143
X42260Y7043
X41260Y7143
X40260Y7043
X39260Y7143
X38260Y7043
X37260Y7143
X36260Y7043
T07
X21480Y24025
X21480Y9261
X49039Y9261
X49039Y24025
T08
X17760Y7643
X52760Y7643
X52760Y25643
X17760Y25643
M30
