G75*
%MOIN*%
%OFA0B0*%
%FSLAX24Y24*%
%IPPOS*%
%LPD*%
%AMOC8*
5,1,8,0,0,1.08239X$1,22.5*
%
%ADD10C,0.0020*%
%ADD11C,0.0050*%
%ADD12C,0.0080*%
%ADD13C,0.0040*%
%ADD14C,0.0060*%
%ADD15C,0.0120*%
%ADD16R,0.0010X0.0160*%
%ADD17R,0.0010X0.0360*%
%ADD18R,0.0010X0.0480*%
%ADD19R,0.0010X0.0580*%
%ADD20R,0.0010X0.0660*%
%ADD21R,0.0010X0.0730*%
%ADD22R,0.0010X0.0800*%
%ADD23R,0.0010X0.0860*%
%ADD24R,0.0010X0.0910*%
%ADD25R,0.0010X0.0960*%
%ADD26R,0.0010X0.1010*%
%ADD27R,0.0010X0.1060*%
%ADD28R,0.0010X0.1100*%
%ADD29R,0.0010X0.1140*%
%ADD30R,0.0010X0.1180*%
%ADD31R,0.0010X0.1220*%
%ADD32R,0.0010X0.1260*%
%ADD33R,0.0010X0.1290*%
%ADD34R,0.0010X0.1320*%
%ADD35R,0.0010X0.1360*%
%ADD36R,0.0010X0.1380*%
%ADD37R,0.0010X0.1420*%
%ADD38R,0.0010X0.1440*%
%ADD39R,0.0010X0.1480*%
%ADD40R,0.0010X0.1500*%
%ADD41R,0.0010X0.1530*%
%ADD42R,0.0010X0.1560*%
%ADD43R,0.0010X0.1580*%
%ADD44R,0.0010X0.1610*%
%ADD45R,0.0010X0.1640*%
%ADD46R,0.0010X0.1660*%
%ADD47R,0.0010X0.1680*%
%ADD48R,0.0010X0.1700*%
%ADD49R,0.0010X0.1720*%
%ADD50R,0.0010X0.1750*%
%ADD51R,0.0010X0.1770*%
%ADD52R,0.0010X0.1790*%
%ADD53R,0.0010X0.1810*%
%ADD54R,0.0010X0.1830*%
%ADD55R,0.0010X0.1850*%
%ADD56R,0.0010X0.1870*%
%ADD57R,0.0010X0.1890*%
%ADD58R,0.0010X0.1900*%
%ADD59R,0.0010X0.0490*%
%ADD60R,0.0010X0.0930*%
%ADD61R,0.0010X0.0500*%
%ADD62R,0.0010X0.0940*%
%ADD63R,0.0010X0.0510*%
%ADD64R,0.0010X0.0950*%
%ADD65R,0.0010X0.0520*%
%ADD66R,0.0010X0.0530*%
%ADD67R,0.0010X0.0970*%
%ADD68R,0.0010X0.0980*%
%ADD69R,0.0010X0.0540*%
%ADD70R,0.0010X0.0550*%
%ADD71R,0.0010X0.0990*%
%ADD72R,0.0010X0.0560*%
%ADD73R,0.0010X0.1000*%
%ADD74R,0.0010X0.0570*%
%ADD75R,0.0010X0.1020*%
%ADD76R,0.0010X0.0690*%
%ADD77R,0.0010X0.1130*%
%ADD78R,0.0010X0.0720*%
%ADD79R,0.0010X0.1160*%
%ADD80R,0.0010X0.0740*%
%ADD81R,0.0010X0.0750*%
%ADD82R,0.0010X0.1190*%
%ADD83R,0.0010X0.0770*%
%ADD84R,0.0010X0.1200*%
%ADD85R,0.0010X0.0780*%
%ADD86R,0.0010X0.0790*%
%ADD87R,0.0010X0.1230*%
%ADD88R,0.0010X0.1240*%
%ADD89R,0.0010X0.1250*%
%ADD90R,0.0010X0.0810*%
%ADD91R,0.0010X0.0820*%
%ADD92R,0.0010X0.0830*%
%ADD93R,0.0010X0.1270*%
%ADD94R,0.0010X0.0840*%
%ADD95R,0.0010X0.1280*%
%ADD96R,0.0010X0.0850*%
%ADD97R,0.0010X0.1300*%
%ADD98R,0.0010X0.1310*%
%ADD99R,0.0010X0.0870*%
%ADD100R,0.0010X0.0880*%
%ADD101R,0.0010X0.0890*%
%ADD102R,0.0010X0.1330*%
%ADD103R,0.0010X0.1340*%
%ADD104R,0.0010X0.0900*%
%ADD105R,0.0010X0.1350*%
%ADD106R,0.0010X0.0920*%
%ADD107R,0.0010X0.1370*%
%ADD108R,0.0010X0.0110*%
%ADD109R,0.0010X0.1080*%
%ADD110R,0.0010X0.0060*%
%ADD111R,0.0010X0.1040*%
%ADD112R,0.0010X0.0030*%
%ADD113R,0.0010X0.0070*%
%ADD114R,0.0010X0.0180*%
%ADD115R,0.0010X0.0240*%
%ADD116R,0.0010X0.0280*%
%ADD117R,0.0010X0.0320*%
%ADD118R,0.0010X0.0390*%
%ADD119R,0.0010X0.0410*%
%ADD120R,0.0010X0.0760*%
%ADD121R,0.0010X0.0420*%
%ADD122R,0.0010X0.0430*%
%ADD123R,0.0010X0.0440*%
%ADD124R,0.0010X0.0450*%
%ADD125R,0.0010X0.0460*%
%ADD126R,0.0010X0.0470*%
%ADD127R,0.0010X0.0710*%
%ADD128R,0.0010X0.0700*%
%ADD129R,0.0010X0.0370*%
%ADD130R,0.0010X0.0380*%
%ADD131R,0.0010X0.0680*%
%ADD132R,0.0010X0.1690*%
%ADD133R,0.0010X0.0670*%
%ADD134R,0.0010X0.1670*%
%ADD135R,0.0010X0.1650*%
%ADD136R,0.0010X0.1170*%
%ADD137R,0.0010X0.1150*%
%ADD138R,0.0010X0.1120*%
%ADD139R,0.0010X0.1110*%
%ADD140R,0.0010X0.1090*%
%ADD141R,0.0010X0.1070*%
%ADD142R,0.0010X0.1050*%
%ADD143R,0.0010X0.0400*%
%ADD144R,0.0010X0.0050*%
%ADD145R,0.0010X0.0290*%
%ADD146R,0.0010X0.0270*%
%ADD147R,0.0010X0.0250*%
%ADD148R,0.0010X0.0230*%
%ADD149R,0.0010X0.0220*%
%ADD150R,0.0010X0.0200*%
%ADD151R,0.0010X0.0170*%
%ADD152R,0.0010X0.0150*%
%ADD153R,0.0010X0.0130*%
%ADD154R,0.0010X0.1030*%
%ADD155R,0.0010X0.0080*%
%ADD156R,0.0010X0.0020*%
%ADD157R,0.0010X0.1620*%
%ADD158R,0.0010X0.1600*%
%ADD159R,0.0010X0.1550*%
%ADD160R,0.0010X0.1520*%
%ADD161R,0.0010X0.1470*%
%ADD162R,0.0010X0.1410*%
%ADD163R,0.0010X0.0640*%
%ADD164R,0.0010X0.0310*%
D10*
X019260Y014948D02*
X019236Y014972D01*
X019260Y014948D02*
X019307Y014948D01*
X019330Y014972D01*
X019330Y015065D01*
X019307Y015088D01*
X019260Y015088D01*
X019236Y015065D01*
X019384Y015065D02*
X019407Y015088D01*
X019454Y015088D01*
X019477Y015065D01*
X019477Y014972D01*
X019454Y014948D01*
X019407Y014948D01*
X019384Y014972D01*
X019531Y014995D02*
X019531Y015088D01*
X019531Y014995D02*
X019578Y014948D01*
X019625Y014995D01*
X019625Y015088D01*
X019678Y015065D02*
X019678Y015042D01*
X019702Y015018D01*
X019772Y015018D01*
X019826Y014995D02*
X019826Y014972D01*
X019849Y014948D01*
X019896Y014948D01*
X019919Y014972D01*
X019896Y015018D02*
X019849Y015018D01*
X019826Y014995D01*
X019826Y015065D02*
X019849Y015088D01*
X019896Y015088D01*
X019919Y015065D01*
X019919Y015042D01*
X019896Y015018D01*
X019973Y014972D02*
X019973Y015088D01*
X020066Y015088D02*
X020066Y014972D01*
X020043Y014948D01*
X019996Y014948D01*
X019973Y014972D01*
X019772Y014948D02*
X019702Y014948D01*
X019678Y014972D01*
X019678Y014995D01*
X019702Y015018D01*
X019678Y015065D02*
X019702Y015088D01*
X019772Y015088D01*
X019772Y014948D01*
D11*
X028455Y020914D02*
X028455Y021321D01*
X028556Y021522D02*
X028455Y021624D01*
X028455Y021827D01*
X028556Y021929D01*
X028455Y022130D02*
X028455Y022435D01*
X028556Y022537D01*
X028963Y022537D01*
X029065Y022435D01*
X029065Y022130D01*
X028455Y022130D01*
X028065Y022231D02*
X028065Y022435D01*
X027963Y022537D01*
X028065Y022737D02*
X027455Y022737D01*
X027455Y023043D01*
X027556Y023144D01*
X027963Y023144D01*
X028065Y023043D01*
X028065Y022737D01*
X028353Y022737D02*
X028353Y023144D01*
X028455Y023345D02*
X029065Y023345D01*
X029065Y023650D01*
X028963Y023752D01*
X028760Y023752D01*
X028658Y023650D01*
X028658Y023345D01*
X028658Y023549D02*
X028455Y023752D01*
X028556Y023953D02*
X028455Y024055D01*
X028455Y024258D01*
X028556Y024360D01*
X028658Y024360D01*
X028760Y024258D01*
X028760Y024055D01*
X028862Y023953D01*
X028963Y023953D01*
X029065Y024055D01*
X029065Y024258D01*
X028963Y024360D01*
X029065Y024561D02*
X029065Y024968D01*
X029065Y024764D02*
X028455Y024764D01*
X028065Y024662D02*
X028065Y024866D01*
X027963Y024968D01*
X027556Y024561D01*
X027455Y024662D01*
X027455Y024866D01*
X027556Y024968D01*
X027963Y024968D01*
X028065Y024662D02*
X027963Y024561D01*
X027556Y024561D01*
X027455Y024360D02*
X027862Y024360D01*
X028065Y024156D01*
X027862Y023953D01*
X027455Y023953D01*
X027353Y023752D02*
X027353Y023345D01*
X027065Y023447D02*
X026963Y023345D01*
X026862Y023345D01*
X026760Y023447D01*
X026760Y023650D01*
X026658Y023752D01*
X026556Y023752D01*
X026455Y023650D01*
X026455Y023447D01*
X026556Y023345D01*
X026065Y023347D02*
X025455Y023347D01*
X025556Y023548D02*
X025455Y023649D01*
X025455Y023853D01*
X025556Y023955D01*
X025963Y023955D01*
X026065Y023853D01*
X026065Y023649D01*
X025963Y023548D01*
X025556Y023548D01*
X025862Y023144D02*
X026065Y023347D01*
X025862Y023144D02*
X026065Y022940D01*
X025455Y022940D01*
X025065Y023143D02*
X025065Y023347D01*
X024963Y023448D01*
X024862Y023448D01*
X024760Y023347D01*
X024658Y023448D01*
X024556Y023448D01*
X024455Y023347D01*
X024455Y023143D01*
X024556Y023041D01*
X024760Y023245D02*
X024760Y023347D01*
X024556Y023649D02*
X024556Y023751D01*
X024455Y023751D01*
X024455Y023649D01*
X024556Y023649D01*
X024556Y023953D02*
X024455Y024055D01*
X024455Y024258D01*
X024556Y024360D01*
X024658Y024360D01*
X024760Y024258D01*
X024760Y024156D01*
X024760Y024258D02*
X024862Y024360D01*
X024963Y024360D01*
X025065Y024258D01*
X025065Y024055D01*
X024963Y023953D01*
X025455Y024257D02*
X025556Y024155D01*
X025455Y024257D02*
X025455Y024461D01*
X025556Y024562D01*
X025658Y024562D01*
X025760Y024461D01*
X025760Y024257D01*
X025862Y024155D01*
X025963Y024155D01*
X026065Y024257D01*
X026065Y024461D01*
X025963Y024562D01*
X026065Y024763D02*
X026065Y024967D01*
X026065Y024865D02*
X025455Y024865D01*
X025455Y024763D02*
X025455Y024967D01*
X025065Y024968D02*
X024658Y024968D01*
X024455Y024764D01*
X024658Y024561D01*
X025065Y024561D01*
X024065Y024561D02*
X024065Y024866D01*
X023963Y024968D01*
X023556Y024968D01*
X023455Y024866D01*
X023455Y024561D01*
X024065Y024561D01*
X024065Y024360D02*
X023455Y024360D01*
X024065Y023953D01*
X023455Y023953D01*
X023556Y023752D02*
X023760Y023752D01*
X023760Y023549D01*
X023963Y023752D02*
X024065Y023650D01*
X024065Y023447D01*
X023963Y023345D01*
X023556Y023345D01*
X023455Y023447D01*
X023455Y023650D01*
X023556Y023752D01*
X024963Y023041D02*
X025065Y023143D01*
X026455Y024055D02*
X026455Y024258D01*
X026556Y024360D01*
X026455Y024561D02*
X027065Y024561D01*
X026963Y024360D02*
X027065Y024258D01*
X027065Y024055D01*
X026963Y023953D01*
X026556Y023953D01*
X026455Y024055D01*
X026658Y024561D02*
X027065Y024968D01*
X026760Y024662D02*
X026455Y024968D01*
X026963Y023752D02*
X027065Y023650D01*
X027065Y023447D01*
X027760Y023953D02*
X027760Y024360D01*
X029455Y024258D02*
X029556Y024360D01*
X029455Y024258D02*
X029455Y024055D01*
X029556Y023953D01*
X029963Y023953D01*
X030065Y024055D01*
X030065Y024258D01*
X029963Y024360D01*
X029963Y024561D02*
X029862Y024561D01*
X029760Y024662D01*
X029760Y024866D01*
X029658Y024968D01*
X029556Y024968D01*
X029455Y024866D01*
X029455Y024662D01*
X029556Y024561D01*
X029963Y024561D02*
X030065Y024662D01*
X030065Y024866D01*
X029963Y024968D01*
X030455Y024968D02*
X030455Y024561D01*
X031065Y024561D01*
X030963Y024360D02*
X030862Y024360D01*
X030760Y024258D01*
X030760Y023953D01*
X030455Y023953D02*
X031065Y023953D01*
X031065Y024258D01*
X030963Y024360D01*
X030760Y024258D02*
X030658Y024360D01*
X030556Y024360D01*
X030455Y024258D01*
X030455Y023953D01*
X030353Y023752D02*
X030353Y023345D01*
X030556Y023144D02*
X030963Y023144D01*
X031065Y023043D01*
X031065Y022737D01*
X030455Y022737D01*
X030455Y023043D01*
X030556Y023144D01*
X030065Y023043D02*
X030065Y022737D01*
X029455Y022737D01*
X029455Y023043D01*
X029556Y023144D01*
X029963Y023144D01*
X030065Y023043D01*
X029963Y022537D02*
X030065Y022435D01*
X030065Y022231D01*
X029963Y022130D01*
X029556Y022130D01*
X029455Y022231D01*
X029455Y022435D01*
X029556Y022537D01*
X029455Y021929D02*
X029455Y021522D01*
X030065Y021522D01*
X030455Y021522D02*
X030455Y021929D01*
X030556Y022130D02*
X030455Y022231D01*
X030455Y022435D01*
X030556Y022537D01*
X030963Y022537D02*
X031065Y022435D01*
X031065Y022231D01*
X030963Y022130D01*
X030556Y022130D01*
X030455Y021522D02*
X031065Y021522D01*
X029065Y021624D02*
X028963Y021522D01*
X028556Y021522D01*
X028065Y021522D02*
X027455Y021522D01*
X027455Y021929D01*
X027556Y022130D02*
X027455Y022231D01*
X027455Y022435D01*
X027556Y022537D01*
X027556Y022130D02*
X027963Y022130D01*
X028065Y022231D01*
X028963Y021929D02*
X029065Y021827D01*
X029065Y021624D01*
X029065Y020914D02*
X028455Y020914D01*
X029353Y023345D02*
X029353Y023752D01*
X051885Y021697D02*
X051885Y021494D01*
X051986Y021392D01*
X052190Y021595D02*
X052190Y021697D01*
X052088Y021799D01*
X051986Y021799D01*
X051885Y021697D01*
X052190Y021697D02*
X052292Y021799D01*
X052393Y021799D01*
X052495Y021697D01*
X052495Y021494D01*
X052393Y021392D01*
X052292Y021191D02*
X051885Y020988D01*
X052292Y020784D01*
X052292Y019976D02*
X052292Y019670D01*
X052190Y019569D01*
X051986Y019569D01*
X051885Y019670D01*
X051885Y019976D01*
X052495Y019976D01*
X052495Y019265D02*
X051885Y019265D01*
X051885Y019164D02*
X051885Y019367D01*
X052088Y018963D02*
X052088Y018556D01*
X051986Y018556D02*
X052190Y018556D01*
X052292Y018658D01*
X052292Y018861D01*
X052190Y018963D01*
X052088Y018963D01*
X051885Y018861D02*
X051885Y018658D01*
X051986Y018556D01*
X051885Y018354D02*
X051885Y018151D01*
X051885Y018252D02*
X052292Y018252D01*
X052292Y018151D01*
X052190Y017950D02*
X051885Y017950D01*
X052190Y017950D02*
X052292Y017848D01*
X052292Y017645D01*
X052190Y017543D01*
X052292Y017342D02*
X052292Y017037D01*
X052190Y016935D01*
X052088Y017037D01*
X052088Y017240D01*
X051986Y017342D01*
X051885Y017240D01*
X051885Y016935D01*
X052190Y016734D02*
X052190Y016327D01*
X052190Y016127D02*
X052190Y015720D01*
X052495Y016025D01*
X051885Y016025D01*
X051986Y015519D02*
X052088Y015519D01*
X052190Y015417D01*
X052190Y015112D01*
X051986Y015112D01*
X051885Y015214D01*
X051885Y015417D01*
X051986Y015519D01*
X052393Y015316D02*
X052190Y015112D01*
X052292Y014911D02*
X052393Y014911D01*
X052495Y014810D01*
X052495Y014606D01*
X052393Y014504D01*
X052393Y014304D02*
X052292Y014304D01*
X052190Y014202D01*
X052088Y014304D01*
X051986Y014304D01*
X051885Y014202D01*
X051885Y013998D01*
X051986Y013897D01*
X051885Y013696D02*
X051885Y013289D01*
X051885Y013088D02*
X051885Y012783D01*
X051986Y012681D01*
X052190Y012681D01*
X052292Y012783D01*
X052292Y013088D01*
X052292Y013289D02*
X052495Y013492D01*
X051885Y013492D01*
X051885Y013088D02*
X052495Y013088D01*
X052292Y012480D02*
X052292Y012175D01*
X052190Y012073D01*
X051986Y012073D01*
X051885Y012175D01*
X051885Y012480D01*
X051885Y011872D02*
X051885Y011668D01*
X051885Y011770D02*
X052495Y011770D01*
X052495Y011668D01*
X052393Y013897D02*
X052495Y013998D01*
X052495Y014202D01*
X052393Y014304D01*
X052190Y014202D02*
X052190Y014100D01*
X051885Y014504D02*
X052292Y014911D01*
X051885Y014911D02*
X051885Y014504D01*
X052393Y015316D02*
X052495Y015519D01*
X052495Y017543D02*
X051885Y017543D01*
X052495Y018252D02*
X052597Y018252D01*
X052495Y019164D02*
X052495Y019265D01*
D12*
X016796Y010573D02*
X016796Y010503D01*
X016866Y010433D01*
X017006Y010433D01*
X017076Y010503D01*
X017076Y010643D01*
X016866Y010643D01*
X016796Y010573D01*
X016936Y010784D02*
X017076Y010643D01*
X016936Y010784D02*
X016796Y010854D01*
X017076Y011183D02*
X017076Y011253D01*
X016796Y011534D01*
X016796Y011604D01*
X017076Y011604D01*
X017006Y011933D02*
X017076Y012003D01*
X017076Y012073D01*
X017006Y012143D01*
X016866Y012143D01*
X016796Y012073D01*
X016796Y012003D01*
X016866Y011933D01*
X017006Y011933D01*
X017006Y012143D02*
X017076Y012214D01*
X017076Y012284D01*
X017006Y012354D01*
X016866Y012354D01*
X016796Y012284D01*
X016796Y012214D01*
X016866Y012143D01*
X016866Y012683D02*
X016796Y012753D01*
X016796Y013034D01*
X016866Y013104D01*
X017006Y013104D01*
X017076Y013034D01*
X017076Y012964D01*
X017006Y012893D01*
X016796Y012893D01*
X016866Y012683D02*
X017006Y012683D01*
X017076Y012753D01*
X017006Y013433D02*
X017076Y013503D01*
X017006Y013433D02*
X016866Y013433D01*
X016796Y013503D01*
X016796Y013573D01*
X016866Y013643D01*
X016936Y013643D01*
X016866Y013643D02*
X016796Y013714D01*
X016796Y013784D01*
X016866Y013854D01*
X017006Y013854D01*
X017076Y013784D01*
X017396Y013854D02*
X017396Y013433D01*
X017536Y013433D02*
X017256Y013433D01*
X017536Y013714D02*
X017396Y013854D01*
X017410Y014183D02*
X017690Y014183D01*
X017550Y014183D02*
X017550Y014604D01*
X017690Y014464D01*
X017229Y014534D02*
X017159Y014604D01*
X017019Y014604D01*
X016949Y014534D01*
X016949Y014464D01*
X017229Y014183D01*
X016949Y014183D01*
X016949Y014933D02*
X017229Y014933D01*
X017089Y014933D02*
X017089Y015354D01*
X017229Y015214D01*
X017410Y014933D02*
X017690Y014933D01*
X017550Y014933D02*
X017550Y015354D01*
X017690Y015214D01*
X019698Y015354D02*
X019838Y015354D01*
X019768Y015354D02*
X019768Y014933D01*
X019838Y014933D02*
X019698Y014933D01*
X020018Y015003D02*
X020018Y015073D01*
X020089Y015143D01*
X020229Y015143D01*
X020299Y015214D01*
X020299Y015284D01*
X020229Y015354D01*
X020089Y015354D01*
X020018Y015284D01*
X020018Y015003D02*
X020089Y014933D01*
X020229Y014933D01*
X020299Y015003D01*
X020479Y015003D02*
X020479Y015284D01*
X020549Y015354D01*
X020689Y015354D01*
X020759Y015284D01*
X020759Y015003D01*
X020689Y014933D01*
X020549Y014933D01*
X020479Y015003D01*
X020382Y014604D02*
X020242Y014604D01*
X020172Y014534D01*
X020242Y014393D02*
X020172Y014323D01*
X020172Y014253D01*
X020242Y014183D01*
X020382Y014183D01*
X020452Y014253D01*
X020382Y014393D02*
X020242Y014393D01*
X020382Y014393D02*
X020452Y014464D01*
X020452Y014534D01*
X020382Y014604D01*
X020619Y014604D02*
X020759Y014604D01*
X020689Y014604D02*
X020689Y014183D01*
X020759Y014183D02*
X020619Y014183D01*
X020939Y014183D02*
X020939Y014604D01*
X021079Y014464D01*
X021220Y014604D01*
X021220Y014183D01*
X021149Y013854D02*
X021220Y013784D01*
X021220Y013714D01*
X021149Y013643D01*
X021009Y013643D01*
X020939Y013573D01*
X020939Y013503D01*
X021009Y013433D01*
X021149Y013433D01*
X021220Y013503D01*
X021149Y013854D02*
X021009Y013854D01*
X020939Y013784D01*
X020759Y013784D02*
X020759Y013503D01*
X020689Y013433D01*
X020549Y013433D01*
X020479Y013503D01*
X020299Y013433D02*
X020299Y013854D01*
X020479Y013784D02*
X020549Y013854D01*
X020689Y013854D01*
X020759Y013784D01*
X020299Y013573D02*
X020018Y013854D01*
X020229Y013643D02*
X020018Y013433D01*
X020089Y013104D02*
X020299Y013104D01*
X020299Y012683D01*
X020089Y012683D01*
X020018Y012753D01*
X020018Y013034D01*
X020089Y013104D01*
X020479Y013034D02*
X020549Y013104D01*
X020689Y013104D01*
X020759Y013034D01*
X020759Y012753D01*
X020689Y012683D01*
X020549Y012683D01*
X020479Y012753D01*
X020939Y012683D02*
X021220Y012683D01*
X021220Y013104D01*
X019838Y012613D02*
X019558Y012613D01*
X019378Y012683D02*
X019378Y012964D01*
X019238Y013104D01*
X019098Y012964D01*
X019098Y012683D01*
X018918Y012753D02*
X018847Y012683D01*
X018707Y012683D01*
X018637Y012753D01*
X018637Y013034D01*
X018918Y012753D01*
X018918Y013034D01*
X018847Y013104D01*
X018707Y013104D01*
X018637Y013034D01*
X019098Y012893D02*
X019378Y012893D01*
X019378Y012354D02*
X019168Y012354D01*
X019098Y012284D01*
X019098Y012143D01*
X019168Y012073D01*
X019378Y012073D01*
X019378Y011933D02*
X019378Y012354D01*
X019238Y012073D02*
X019098Y011933D01*
X018918Y012003D02*
X018847Y011933D01*
X018707Y011933D01*
X018637Y012003D01*
X018637Y012073D01*
X018707Y012143D01*
X018847Y012143D01*
X018918Y012214D01*
X018918Y012284D01*
X018847Y012354D01*
X018707Y012354D01*
X018637Y012284D01*
X018457Y012354D02*
X018177Y012354D01*
X018317Y012354D02*
X018317Y011933D01*
X018707Y011604D02*
X018847Y011604D01*
X018918Y011534D01*
X018918Y011464D01*
X018847Y011393D01*
X018707Y011393D01*
X018637Y011323D01*
X018637Y011253D01*
X018707Y011183D01*
X018847Y011183D01*
X018918Y011253D01*
X019098Y011253D02*
X019168Y011183D01*
X019308Y011183D01*
X019378Y011253D01*
X019378Y011534D01*
X019308Y011604D01*
X019168Y011604D01*
X019098Y011534D01*
X018707Y011604D02*
X018637Y011534D01*
X019558Y011863D02*
X019838Y011863D01*
X020018Y012003D02*
X020018Y012284D01*
X020089Y012354D01*
X020299Y012354D01*
X020299Y011933D01*
X020089Y011933D01*
X020018Y012003D01*
X020089Y011604D02*
X020299Y011604D01*
X020299Y011183D01*
X020089Y011183D01*
X020018Y011253D01*
X020018Y011534D01*
X020089Y011604D01*
X020479Y011534D02*
X020549Y011604D01*
X020689Y011604D01*
X020759Y011534D01*
X020759Y011253D01*
X020689Y011183D01*
X020549Y011183D01*
X020479Y011253D01*
X020549Y010854D02*
X020689Y010854D01*
X020759Y010784D01*
X020759Y010503D01*
X020689Y010433D01*
X020549Y010433D01*
X020479Y010503D01*
X020299Y010433D02*
X020299Y010854D01*
X020089Y010854D01*
X020018Y010784D01*
X020018Y010503D01*
X020089Y010433D01*
X020299Y010433D01*
X020479Y010784D02*
X020549Y010854D01*
X020939Y011183D02*
X021220Y011183D01*
X021220Y011604D01*
X021220Y011933D02*
X020939Y011933D01*
X020759Y012003D02*
X020689Y011933D01*
X020549Y011933D01*
X020479Y012003D01*
X020759Y012003D02*
X020759Y012284D01*
X020689Y012354D01*
X020549Y012354D01*
X020479Y012284D01*
X021220Y012354D02*
X021220Y011933D01*
X019838Y011113D02*
X019558Y011113D01*
X019378Y010854D02*
X019168Y010854D01*
X019098Y010784D01*
X019098Y010714D01*
X019168Y010643D01*
X019378Y010643D01*
X019378Y010433D02*
X019168Y010433D01*
X019098Y010503D01*
X019098Y010573D01*
X019168Y010643D01*
X019378Y010433D02*
X019378Y010854D01*
X018918Y010854D02*
X018918Y010433D01*
X018637Y010433D01*
X019558Y010363D02*
X019838Y010363D01*
X020939Y010433D02*
X021220Y010433D01*
X021220Y010854D01*
X019922Y014183D02*
X019782Y014183D01*
X019712Y014253D01*
X019712Y014534D01*
X019782Y014604D01*
X019922Y014604D01*
X019992Y014534D01*
X019992Y014253D01*
X019922Y014183D01*
X020939Y014933D02*
X020939Y015354D01*
X021079Y015214D01*
X021220Y015354D01*
X021220Y014933D01*
X021149Y017933D02*
X021220Y018003D01*
X021149Y017933D02*
X021009Y017933D01*
X020939Y018003D01*
X020939Y018073D01*
X021009Y018143D01*
X021149Y018143D01*
X021220Y018214D01*
X021220Y018284D01*
X021149Y018354D01*
X021009Y018354D01*
X020939Y018284D01*
X020759Y018354D02*
X020759Y017933D01*
X020619Y018073D01*
X020479Y017933D01*
X020479Y018354D01*
X020299Y018613D02*
X020018Y018613D01*
X019838Y018683D02*
X019558Y018683D01*
X019698Y018893D02*
X019838Y018893D01*
X019838Y018683D02*
X019838Y019104D01*
X019558Y019104D01*
X019628Y019433D02*
X019558Y019503D01*
X019558Y019784D01*
X019628Y019854D01*
X019838Y019854D01*
X019838Y019433D01*
X019628Y019433D01*
X020018Y019363D02*
X020299Y019363D01*
X020479Y019433D02*
X020479Y019854D01*
X020759Y019854D02*
X020759Y019433D01*
X020619Y019573D01*
X020479Y019433D01*
X020479Y019104D02*
X020479Y018683D01*
X020619Y018823D01*
X020759Y018683D01*
X020759Y019104D01*
X020939Y019034D02*
X021009Y019104D01*
X021149Y019104D01*
X021220Y019034D01*
X021220Y018964D01*
X021149Y018893D01*
X021009Y018893D01*
X020939Y018823D01*
X020939Y018753D01*
X021009Y018683D01*
X021149Y018683D01*
X021220Y018753D01*
X021149Y019433D02*
X021220Y019503D01*
X021149Y019433D02*
X021009Y019433D01*
X020939Y019503D01*
X020939Y019573D01*
X021009Y019643D01*
X021149Y019643D01*
X021220Y019714D01*
X021220Y019784D01*
X021149Y019854D01*
X021009Y019854D01*
X020939Y019784D01*
X021009Y020183D02*
X020939Y020253D01*
X020939Y020323D01*
X021009Y020393D01*
X021149Y020393D01*
X021220Y020464D01*
X021220Y020534D01*
X021149Y020604D01*
X021009Y020604D01*
X020939Y020534D01*
X020759Y020604D02*
X020759Y020183D01*
X020619Y020323D01*
X020479Y020183D01*
X020479Y020604D01*
X020299Y020863D02*
X020018Y020863D01*
X019838Y020933D02*
X019628Y020933D01*
X019558Y021003D01*
X019558Y021073D01*
X019628Y021143D01*
X019838Y021143D01*
X019838Y020933D02*
X019838Y021354D01*
X019628Y021354D01*
X019558Y021284D01*
X019558Y021214D01*
X019628Y021143D01*
X019558Y021683D02*
X019558Y021964D01*
X019698Y022104D01*
X019838Y021964D01*
X019838Y021683D01*
X020018Y021613D02*
X020299Y021613D01*
X020479Y021683D02*
X020619Y021823D01*
X020759Y021683D01*
X020759Y022104D01*
X020939Y022034D02*
X021009Y022104D01*
X021149Y022104D01*
X021220Y022034D01*
X021220Y021964D01*
X021149Y021893D01*
X021009Y021893D01*
X020939Y021823D01*
X020939Y021753D01*
X021009Y021683D01*
X021149Y021683D01*
X021220Y021753D01*
X020479Y021683D02*
X020479Y022104D01*
X020299Y022363D02*
X020018Y022363D01*
X019838Y022503D02*
X019768Y022433D01*
X019628Y022433D01*
X019558Y022503D01*
X019378Y022503D02*
X019308Y022433D01*
X019168Y022433D01*
X019098Y022503D01*
X019098Y022573D01*
X019168Y022643D01*
X019308Y022643D01*
X019378Y022714D01*
X019378Y022784D01*
X019308Y022854D01*
X019168Y022854D01*
X019098Y022784D01*
X019174Y023183D02*
X019385Y023183D01*
X019455Y023253D01*
X019455Y023393D01*
X019385Y023464D01*
X019174Y023464D01*
X019174Y023604D02*
X019174Y023183D01*
X018994Y023253D02*
X018994Y023464D01*
X018994Y023253D02*
X018924Y023183D01*
X018714Y023183D01*
X018714Y023464D01*
X018534Y023464D02*
X018464Y023464D01*
X018464Y023183D01*
X018534Y023183D02*
X018394Y023183D01*
X018227Y023183D02*
X018227Y023464D01*
X018017Y023464D01*
X017947Y023393D01*
X017947Y023183D01*
X017767Y023253D02*
X017767Y023393D01*
X017697Y023464D01*
X017556Y023464D01*
X017486Y023393D01*
X017486Y023253D01*
X017556Y023183D01*
X017697Y023183D01*
X017767Y023253D01*
X017396Y022854D02*
X017396Y022433D01*
X017536Y022433D02*
X017256Y022433D01*
X017076Y022503D02*
X016796Y022784D01*
X016796Y022503D01*
X016866Y022433D01*
X017006Y022433D01*
X017076Y022503D01*
X017076Y022784D01*
X017006Y022854D01*
X016866Y022854D01*
X016796Y022784D01*
X017396Y022854D02*
X017536Y022714D01*
X016866Y022104D02*
X017076Y021893D01*
X016796Y021893D01*
X016866Y021683D02*
X016866Y022104D01*
X016796Y021354D02*
X017076Y021354D01*
X017076Y021143D01*
X016936Y021214D01*
X016866Y021214D01*
X016796Y021143D01*
X016796Y021003D01*
X016866Y020933D01*
X017006Y020933D01*
X017076Y021003D01*
X017006Y020604D02*
X016866Y020604D01*
X016796Y020534D01*
X016796Y020464D01*
X016866Y020393D01*
X016796Y020323D01*
X016796Y020253D01*
X016866Y020183D01*
X017006Y020183D01*
X017076Y020253D01*
X017256Y020183D02*
X017256Y020464D01*
X017396Y020604D01*
X017536Y020464D01*
X017536Y020183D01*
X017536Y020393D02*
X017256Y020393D01*
X017076Y020534D02*
X017006Y020604D01*
X016936Y020393D02*
X016866Y020393D01*
X016866Y019854D02*
X017006Y019854D01*
X017076Y019784D01*
X017256Y019714D02*
X017256Y019433D01*
X017076Y019433D02*
X016796Y019714D01*
X016796Y019784D01*
X016866Y019854D01*
X017256Y019714D02*
X017396Y019854D01*
X017536Y019714D01*
X017536Y019433D01*
X017536Y019643D02*
X017256Y019643D01*
X017076Y019433D02*
X016796Y019433D01*
X016936Y019104D02*
X016936Y018683D01*
X017076Y018683D02*
X016796Y018683D01*
X016866Y018354D02*
X016796Y018284D01*
X017076Y018003D01*
X017006Y017933D01*
X016866Y017933D01*
X016796Y018003D01*
X016796Y018284D01*
X016866Y018354D02*
X017006Y018354D01*
X017076Y018284D01*
X017076Y018003D01*
X017256Y017933D02*
X017256Y018214D01*
X017396Y018354D01*
X017536Y018214D01*
X017536Y017933D01*
X017536Y018143D02*
X017256Y018143D01*
X017256Y018683D02*
X017256Y018964D01*
X017396Y019104D01*
X017536Y018964D01*
X017536Y018683D01*
X017536Y018893D02*
X017256Y018893D01*
X017076Y018964D02*
X016936Y019104D01*
X019558Y018354D02*
X019838Y018354D01*
X019838Y017933D01*
X020018Y017863D02*
X020299Y017863D01*
X019838Y018143D02*
X019698Y018143D01*
X020018Y020113D02*
X020299Y020113D01*
X019838Y020253D02*
X019768Y020183D01*
X019628Y020183D01*
X019558Y020253D01*
X019838Y020253D02*
X019838Y020534D01*
X019768Y020604D01*
X019628Y020604D01*
X019558Y020534D01*
X020479Y020933D02*
X020479Y021354D01*
X020759Y021354D02*
X020759Y020933D01*
X020619Y021073D01*
X020479Y020933D01*
X020939Y021003D02*
X021009Y020933D01*
X021149Y020933D01*
X021220Y021003D01*
X021149Y021143D02*
X021009Y021143D01*
X020939Y021073D01*
X020939Y021003D01*
X021149Y021143D02*
X021220Y021214D01*
X021220Y021284D01*
X021149Y021354D01*
X021009Y021354D01*
X020939Y021284D01*
X019838Y021893D02*
X019558Y021893D01*
X019838Y022503D02*
X019838Y022784D01*
X019768Y022854D01*
X019628Y022854D01*
X019558Y022784D01*
X019838Y023183D02*
X019838Y023464D01*
X019698Y023464D02*
X019838Y023323D01*
X020018Y023393D02*
X020299Y023393D01*
X020299Y023464D02*
X020159Y023604D01*
X020018Y023464D01*
X020018Y023183D01*
X020299Y023183D02*
X020299Y023464D01*
X019698Y023464D02*
X019628Y023464D01*
X020479Y022784D02*
X020549Y022854D01*
X020759Y022854D01*
X020759Y022433D01*
X020549Y022433D01*
X020479Y022503D01*
X020479Y022784D01*
X020939Y022784D02*
X021009Y022854D01*
X021149Y022854D01*
X021220Y022784D01*
X021220Y022714D01*
X021149Y022643D01*
X021009Y022643D01*
X020939Y022573D01*
X020939Y022503D01*
X021009Y022433D01*
X021149Y022433D01*
X021220Y022503D01*
X018464Y023604D02*
X018464Y023674D01*
X021009Y020183D02*
X021149Y020183D01*
X021220Y020253D01*
X052800Y020124D02*
X053413Y020124D01*
X053413Y020277D01*
X053260Y020431D01*
X053413Y020584D01*
X053260Y020738D01*
X052800Y020738D01*
X052800Y020431D02*
X053260Y020431D01*
X053260Y021045D02*
X052953Y021045D01*
X052800Y021198D01*
X052800Y021505D01*
X053106Y021658D02*
X053106Y021045D01*
X053260Y021045D02*
X053413Y021198D01*
X053413Y021505D01*
X053260Y021658D01*
X053106Y021658D01*
X052800Y021965D02*
X053413Y021965D01*
X053413Y022426D01*
X053260Y022579D01*
X052800Y022579D01*
X052953Y023040D02*
X052800Y023193D01*
X052953Y023040D02*
X053567Y023040D01*
X053413Y022886D02*
X053413Y023193D01*
X053260Y023500D02*
X053413Y023654D01*
X053413Y024114D01*
X053106Y023960D02*
X053106Y023654D01*
X053260Y023500D01*
X052800Y023500D02*
X052800Y023960D01*
X052953Y024114D01*
X053106Y023960D01*
X052800Y019817D02*
X053413Y019817D01*
X052800Y019817D02*
X052800Y019357D01*
X052953Y019203D01*
X053413Y019203D01*
X053413Y018896D02*
X053413Y018743D01*
X053106Y018436D01*
X052800Y018436D02*
X053413Y018436D01*
X053413Y018129D02*
X053413Y017822D01*
X053567Y017975D02*
X052953Y017975D01*
X052800Y018129D01*
X052953Y017515D02*
X053106Y017361D01*
X053106Y017055D01*
X053260Y016901D01*
X053413Y017055D01*
X053413Y017515D01*
X052953Y017515D02*
X052800Y017361D01*
X052800Y016901D01*
X052800Y016594D02*
X053260Y016594D01*
X053413Y016441D01*
X053413Y015980D01*
X052800Y015980D01*
X052800Y015673D02*
X052800Y015366D01*
X052800Y015520D02*
X053720Y015520D01*
X053720Y015673D02*
X053720Y015366D01*
X053413Y014139D02*
X052800Y013525D01*
X052800Y013218D02*
X052800Y012758D01*
X052953Y012604D01*
X053106Y012758D01*
X053106Y013218D01*
X053260Y013218D02*
X052800Y013218D01*
X053260Y013218D02*
X053413Y013064D01*
X053413Y012758D01*
X053260Y012297D02*
X053106Y012144D01*
X053106Y011683D01*
X052800Y011683D02*
X053720Y011683D01*
X053720Y012144D01*
X053567Y012297D01*
X053260Y012297D01*
X053413Y013525D02*
X052800Y014139D01*
D13*
X051463Y014349D02*
X051156Y014349D01*
X051080Y014426D01*
X051080Y014579D02*
X051386Y014579D01*
X051233Y014579D02*
X051386Y014733D01*
X051386Y014809D01*
X051386Y014963D02*
X051156Y014963D01*
X051080Y015040D01*
X051080Y015270D01*
X051386Y015270D01*
X051386Y015423D02*
X051080Y015423D01*
X051080Y015577D02*
X051310Y015577D01*
X051386Y015653D01*
X051310Y015730D01*
X051080Y015730D01*
X051156Y015884D02*
X051310Y015884D01*
X051386Y015960D01*
X051386Y016114D01*
X051310Y016190D01*
X051233Y016190D01*
X051233Y015884D01*
X051156Y015884D02*
X051080Y015960D01*
X051080Y016114D01*
X051080Y016344D02*
X051386Y016344D01*
X051386Y016574D01*
X051310Y016651D01*
X051080Y016651D01*
X051156Y016881D02*
X051080Y016958D01*
X051156Y016881D02*
X051463Y016881D01*
X051386Y016804D02*
X051386Y016958D01*
X051310Y017111D02*
X051386Y017188D01*
X051386Y017418D01*
X051233Y017341D02*
X051233Y017188D01*
X051310Y017111D01*
X051080Y017111D02*
X051080Y017341D01*
X051156Y017418D01*
X051233Y017341D01*
X051156Y017572D02*
X051156Y017648D01*
X051080Y017648D01*
X051080Y017572D01*
X051156Y017572D01*
X051156Y017802D02*
X051080Y017879D01*
X051080Y018109D01*
X051156Y018262D02*
X051080Y018339D01*
X051080Y018492D01*
X051156Y018569D01*
X051310Y018569D01*
X051386Y018492D01*
X051386Y018339D01*
X051310Y018262D01*
X051156Y018262D01*
X051386Y018109D02*
X051386Y017879D01*
X051310Y017802D01*
X051156Y017802D01*
X051080Y018723D02*
X051386Y018723D01*
X051386Y018799D01*
X051310Y018876D01*
X051386Y018953D01*
X051310Y019030D01*
X051080Y019030D01*
X051080Y019183D02*
X051540Y019490D01*
X051386Y019643D02*
X051386Y019874D01*
X051310Y019950D01*
X051156Y019950D01*
X051080Y019874D01*
X051080Y019643D01*
X050926Y019643D02*
X051386Y019643D01*
X051386Y020104D02*
X051080Y020104D01*
X051233Y020104D02*
X051386Y020257D01*
X051386Y020334D01*
X051310Y020487D02*
X051156Y020487D01*
X051080Y020564D01*
X051080Y020718D01*
X051156Y020794D01*
X051310Y020794D01*
X051386Y020718D01*
X051386Y020564D01*
X051310Y020487D01*
X051310Y020948D02*
X051156Y020948D01*
X051080Y021025D01*
X051080Y021255D01*
X051540Y021255D01*
X051386Y021255D02*
X051386Y021025D01*
X051310Y020948D01*
X051386Y021408D02*
X051156Y021408D01*
X051080Y021485D01*
X051080Y021715D01*
X051386Y021715D01*
X051310Y021869D02*
X051156Y021869D01*
X051080Y021945D01*
X051080Y022176D01*
X051156Y022406D02*
X051080Y022483D01*
X051156Y022406D02*
X051463Y022406D01*
X051386Y022329D02*
X051386Y022483D01*
X051310Y022636D02*
X051386Y022713D01*
X051386Y022943D01*
X051233Y022866D02*
X051233Y022713D01*
X051310Y022636D01*
X051080Y022636D02*
X051080Y022866D01*
X051156Y022943D01*
X051233Y022866D01*
X051080Y023096D02*
X051540Y023403D01*
X051310Y023557D02*
X051386Y023634D01*
X051386Y023864D01*
X051233Y023787D02*
X051233Y023634D01*
X051310Y023557D01*
X051080Y023557D02*
X051080Y023787D01*
X051156Y023864D01*
X051233Y023787D01*
X051233Y024017D02*
X051386Y024247D01*
X051386Y024401D02*
X051156Y024401D01*
X051080Y024478D01*
X051080Y024708D01*
X051386Y024708D01*
X051386Y024861D02*
X051540Y025015D01*
X051080Y025015D01*
X051080Y025168D02*
X051080Y024861D01*
X051156Y025322D02*
X051463Y025629D01*
X051156Y025629D01*
X051080Y025552D01*
X051080Y025398D01*
X051156Y025322D01*
X051463Y025322D01*
X051540Y025398D01*
X051540Y025552D01*
X051463Y025629D01*
X051463Y025782D02*
X051156Y025782D01*
X051463Y026089D01*
X051156Y026089D01*
X051080Y026012D01*
X051080Y025859D01*
X051156Y025782D01*
X051463Y025782D02*
X051540Y025859D01*
X051540Y026012D01*
X051463Y026089D01*
X051463Y026242D02*
X051540Y026319D01*
X051540Y026473D01*
X051463Y026549D01*
X051386Y026549D01*
X051310Y026473D01*
X051233Y026549D01*
X051156Y026549D01*
X051080Y026473D01*
X051080Y026319D01*
X051156Y026242D01*
X051310Y026396D02*
X051310Y026473D01*
X051080Y024247D02*
X051233Y024017D01*
X051080Y024017D02*
X051540Y024017D01*
X051386Y022176D02*
X051386Y021945D01*
X051310Y021869D01*
X046490Y021756D02*
X046336Y021603D01*
X046030Y021603D01*
X045953Y021449D02*
X045953Y021143D01*
X046030Y020989D02*
X046490Y020989D01*
X046490Y020682D02*
X046030Y020682D01*
X046183Y020836D01*
X046030Y020989D01*
X046106Y020529D02*
X046030Y020452D01*
X046030Y020298D01*
X046106Y020222D01*
X046260Y020298D02*
X046260Y020452D01*
X046183Y020529D01*
X046106Y020529D01*
X046260Y020298D02*
X046336Y020222D01*
X046413Y020222D01*
X046490Y020298D01*
X046490Y020452D01*
X046413Y020529D01*
X045490Y020452D02*
X045490Y020298D01*
X045413Y020222D01*
X045336Y020222D01*
X045260Y020298D01*
X045260Y020452D01*
X045183Y020529D01*
X045106Y020529D01*
X045030Y020452D01*
X045030Y020298D01*
X045106Y020222D01*
X045413Y020529D02*
X045490Y020452D01*
X045490Y020682D02*
X045030Y020682D01*
X045183Y020836D01*
X045030Y020989D01*
X045490Y020989D01*
X044953Y021143D02*
X044953Y021449D01*
X045030Y021603D02*
X045030Y021833D01*
X045106Y021910D01*
X045183Y021910D01*
X045260Y021833D01*
X045260Y021603D01*
X045490Y021603D02*
X045490Y021833D01*
X045413Y021910D01*
X045336Y021910D01*
X045260Y021833D01*
X045030Y021603D02*
X045490Y021603D01*
X046030Y021910D02*
X046336Y021910D01*
X046490Y021756D01*
X046260Y021603D02*
X046260Y021910D01*
X044465Y021649D02*
X044055Y021649D01*
X044055Y021923D01*
X044123Y021508D02*
X044055Y021440D01*
X044055Y021235D01*
X044465Y021235D01*
X044465Y021440D01*
X044396Y021508D01*
X044328Y021508D01*
X044260Y021440D01*
X044260Y021235D01*
X044260Y021440D02*
X044191Y021508D01*
X044123Y021508D01*
X043986Y021094D02*
X043986Y020820D01*
X044123Y020679D02*
X044396Y020679D01*
X044465Y020611D01*
X044465Y020406D01*
X044055Y020406D01*
X044055Y020611D01*
X044123Y020679D01*
X044123Y020265D02*
X044055Y020197D01*
X044055Y020060D01*
X044123Y019992D01*
X044396Y019992D01*
X044465Y020060D01*
X044465Y020197D01*
X044396Y020265D01*
X044055Y019851D02*
X044055Y019577D01*
X044465Y019577D01*
X043465Y019577D02*
X043055Y019577D01*
X043055Y019851D01*
X043123Y019992D02*
X043055Y020060D01*
X043055Y020197D01*
X043123Y020265D01*
X043055Y020406D02*
X043055Y020611D01*
X043123Y020679D01*
X043396Y020679D01*
X043465Y020611D01*
X043465Y020406D01*
X043055Y020406D01*
X043396Y020265D02*
X043465Y020197D01*
X043465Y020060D01*
X043396Y019992D01*
X043123Y019992D01*
X041965Y019992D02*
X041965Y020197D01*
X041896Y020265D01*
X041623Y020265D01*
X041555Y020197D01*
X041555Y019992D01*
X041965Y019992D01*
X041896Y019851D02*
X041965Y019782D01*
X041965Y019646D01*
X041896Y019577D01*
X041623Y019577D01*
X041555Y019646D01*
X041555Y019782D01*
X041623Y019851D01*
X041555Y019436D02*
X041555Y019163D01*
X041965Y019163D01*
X040965Y019577D02*
X040555Y019577D01*
X040555Y019851D01*
X040623Y019992D02*
X040555Y020060D01*
X040555Y020197D01*
X040623Y020265D01*
X040555Y020406D02*
X040555Y020611D01*
X040623Y020679D01*
X040896Y020679D01*
X040965Y020611D01*
X040965Y020406D01*
X040555Y020406D01*
X040896Y020265D02*
X040965Y020197D01*
X040965Y020060D01*
X040896Y019992D01*
X040623Y019992D01*
X039965Y020060D02*
X039896Y019992D01*
X039828Y019992D01*
X039760Y020060D01*
X039760Y020197D01*
X039691Y020265D01*
X039623Y020265D01*
X039555Y020197D01*
X039555Y020060D01*
X039623Y019992D01*
X039965Y020060D02*
X039965Y020197D01*
X039896Y020265D01*
X039965Y020406D02*
X039965Y020611D01*
X039896Y020679D01*
X039623Y020679D01*
X039555Y020611D01*
X039555Y020406D01*
X039965Y020406D01*
X039486Y020820D02*
X039486Y021094D01*
X039623Y021235D02*
X039555Y021303D01*
X039555Y021440D01*
X039623Y021508D01*
X039623Y021649D02*
X039555Y021717D01*
X039555Y021854D01*
X039623Y021923D01*
X039691Y021923D01*
X039760Y021854D01*
X039760Y021717D01*
X039828Y021649D01*
X039896Y021649D01*
X039965Y021717D01*
X039965Y021854D01*
X039896Y021923D01*
X039896Y021508D02*
X039965Y021440D01*
X039965Y021303D01*
X039896Y021235D01*
X039623Y021235D01*
X038990Y021373D02*
X038990Y021526D01*
X038913Y021603D01*
X038760Y021526D02*
X038760Y021373D01*
X038836Y021296D01*
X038913Y021296D01*
X038990Y021373D01*
X038913Y021143D02*
X038990Y021066D01*
X038990Y020912D01*
X038913Y020836D01*
X038606Y020836D01*
X038530Y020912D01*
X038530Y021066D01*
X038606Y021143D01*
X038913Y021143D01*
X038606Y021296D02*
X038530Y021373D01*
X038530Y021526D01*
X038606Y021603D01*
X038683Y021603D01*
X038760Y021526D01*
X038990Y021756D02*
X038990Y021910D01*
X038990Y021833D02*
X038530Y021833D01*
X038530Y021756D02*
X038530Y021910D01*
X037990Y021833D02*
X037990Y021680D01*
X037913Y021603D01*
X037606Y021603D01*
X037530Y021680D01*
X037530Y021833D01*
X037606Y021910D01*
X037913Y021910D01*
X037990Y021833D01*
X037913Y021449D02*
X037990Y021373D01*
X037990Y021219D01*
X037913Y021143D01*
X037836Y021143D01*
X037760Y021219D01*
X037760Y021373D01*
X037683Y021449D01*
X037606Y021449D01*
X037530Y021373D01*
X037530Y021219D01*
X037606Y021143D01*
X037530Y020989D02*
X037530Y020836D01*
X037530Y020912D02*
X037990Y020912D01*
X037990Y020836D02*
X037990Y020989D01*
X037990Y020682D02*
X037530Y020682D01*
X037530Y020375D02*
X037990Y020375D01*
X037836Y020529D01*
X037990Y020682D01*
X038530Y020682D02*
X038990Y020682D01*
X038836Y020529D01*
X038990Y020375D01*
X038530Y020375D01*
X036990Y020759D02*
X036913Y020682D01*
X036836Y020682D01*
X036760Y020759D01*
X036760Y020912D01*
X036683Y020989D01*
X036606Y020989D01*
X036530Y020912D01*
X036530Y020759D01*
X036606Y020682D01*
X036990Y020759D02*
X036990Y020912D01*
X036913Y020989D01*
X036913Y021143D02*
X036606Y021143D01*
X036530Y021219D01*
X036530Y021373D01*
X036606Y021449D01*
X036530Y021603D02*
X036990Y021603D01*
X036913Y021449D02*
X036990Y021373D01*
X036990Y021219D01*
X036913Y021143D01*
X036683Y021603D02*
X036990Y021910D01*
X036760Y021680D02*
X036530Y021910D01*
X040555Y021854D02*
X040555Y021717D01*
X040623Y021649D01*
X040896Y021923D01*
X040623Y021923D01*
X040555Y021854D01*
X040623Y021649D02*
X040896Y021649D01*
X040965Y021717D01*
X040965Y021854D01*
X040896Y021923D01*
X040828Y021508D02*
X040555Y021508D01*
X040760Y021508D02*
X040760Y021235D01*
X040828Y021235D02*
X040965Y021371D01*
X040828Y021508D01*
X040828Y021235D02*
X040555Y021235D01*
X040486Y021094D02*
X040486Y020820D01*
X041486Y020679D02*
X041486Y020406D01*
X041555Y020820D02*
X041965Y020820D01*
X041965Y021025D01*
X041896Y021094D01*
X041760Y021094D01*
X041691Y021025D01*
X041691Y020820D01*
X041691Y020957D02*
X041555Y021094D01*
X041623Y021235D02*
X041555Y021303D01*
X041555Y021440D01*
X041623Y021508D01*
X041691Y021508D01*
X041760Y021440D01*
X041760Y021303D01*
X041828Y021235D01*
X041896Y021235D01*
X041965Y021303D01*
X041965Y021440D01*
X041896Y021508D01*
X041965Y021649D02*
X041965Y021923D01*
X041965Y021786D02*
X041555Y021786D01*
X043055Y021854D02*
X043055Y021717D01*
X043123Y021649D01*
X043123Y021508D02*
X043055Y021440D01*
X043055Y021303D01*
X043123Y021235D01*
X043396Y021235D01*
X043465Y021303D01*
X043465Y021440D01*
X043396Y021508D01*
X043396Y021649D02*
X043328Y021649D01*
X043260Y021717D01*
X043260Y021854D01*
X043191Y021923D01*
X043123Y021923D01*
X043055Y021854D01*
X043396Y021923D02*
X043465Y021854D01*
X043465Y021717D01*
X043396Y021649D01*
X042986Y021094D02*
X042986Y020820D01*
X051080Y018876D02*
X051310Y018876D01*
X051310Y015577D02*
X051386Y015500D01*
X051386Y015423D01*
X051386Y014426D02*
X051386Y014272D01*
X051386Y014119D02*
X051386Y013889D01*
X051310Y013812D01*
X051233Y013889D01*
X051233Y014042D01*
X051156Y014119D01*
X051080Y014042D01*
X051080Y013812D01*
X051080Y013658D02*
X051310Y013658D01*
X051386Y013582D01*
X051386Y013351D01*
X051080Y013351D01*
X051080Y013198D02*
X051080Y013044D01*
X051080Y013121D02*
X051386Y013121D01*
X051386Y013044D01*
X051386Y012891D02*
X051080Y012584D01*
X051080Y012431D02*
X051080Y012200D01*
X051156Y012124D01*
X051233Y012200D01*
X051233Y012431D01*
X051310Y012431D02*
X051080Y012431D01*
X051310Y012431D02*
X051386Y012354D01*
X051386Y012200D01*
X051310Y011970D02*
X051156Y011970D01*
X051080Y011894D01*
X051080Y011663D01*
X050926Y011663D02*
X051386Y011663D01*
X051386Y011894D01*
X051310Y011970D01*
X051386Y012584D02*
X051080Y012891D01*
X051540Y013121D02*
X051617Y013121D01*
X048490Y013024D02*
X048030Y013024D01*
X048183Y013177D01*
X048030Y013331D01*
X048490Y013331D01*
X048413Y012870D02*
X048490Y012794D01*
X048490Y012640D01*
X048413Y012563D01*
X048336Y012563D01*
X048260Y012640D01*
X048260Y012794D01*
X048183Y012870D01*
X048106Y012870D01*
X048030Y012794D01*
X048030Y012640D01*
X048106Y012563D01*
X047490Y012331D02*
X047030Y012331D01*
X047183Y012177D01*
X047030Y012024D01*
X047490Y012024D01*
X047413Y011870D02*
X047490Y011794D01*
X047490Y011640D01*
X047413Y011563D01*
X047336Y011563D01*
X047260Y011640D01*
X047260Y011794D01*
X047183Y011870D01*
X047106Y011870D01*
X047030Y011794D01*
X047030Y011640D01*
X047106Y011563D01*
X046490Y011640D02*
X046490Y011794D01*
X046413Y011870D01*
X046260Y011794D02*
X046183Y011870D01*
X046106Y011870D01*
X046030Y011794D01*
X046030Y011640D01*
X046106Y011563D01*
X046260Y011640D02*
X046260Y011794D01*
X046260Y011640D02*
X046336Y011563D01*
X046413Y011563D01*
X046490Y011640D01*
X046490Y012024D02*
X046030Y012024D01*
X046183Y012177D01*
X046030Y012331D01*
X046490Y012331D01*
X046953Y012484D02*
X046953Y012791D01*
X047030Y012944D02*
X047030Y013175D01*
X047106Y013251D01*
X047413Y013251D01*
X047490Y013175D01*
X047490Y012944D01*
X047030Y012944D01*
X046490Y012944D02*
X046490Y013251D01*
X046260Y013098D02*
X046260Y012944D01*
X046490Y012944D02*
X046030Y012944D01*
X046030Y013251D01*
X045953Y012791D02*
X045953Y012484D01*
X045490Y012331D02*
X045030Y012331D01*
X045183Y012177D01*
X045030Y012024D01*
X045490Y012024D01*
X045413Y011870D02*
X045490Y011794D01*
X045490Y011640D01*
X045413Y011563D01*
X045336Y011563D01*
X045260Y011640D01*
X045260Y011794D01*
X045183Y011870D01*
X045106Y011870D01*
X045030Y011794D01*
X045030Y011640D01*
X045106Y011563D01*
X044953Y012484D02*
X044953Y012791D01*
X045030Y012944D02*
X045490Y012944D01*
X045490Y013251D01*
X045260Y013098D02*
X045260Y012944D01*
X047953Y013484D02*
X047953Y013791D01*
X048106Y013944D02*
X048030Y014021D01*
X048030Y014175D01*
X048106Y014251D01*
X048106Y013944D02*
X048413Y013944D01*
X048490Y014021D01*
X048490Y014175D01*
X048413Y014251D01*
X034040Y024303D02*
X033953Y024216D01*
X033866Y024216D01*
X033780Y024303D01*
X033780Y024477D01*
X033693Y024563D01*
X033606Y024563D01*
X033520Y024477D01*
X033520Y024303D01*
X033606Y024216D01*
X034040Y024303D02*
X034040Y024477D01*
X033953Y024563D01*
X033953Y024732D02*
X033606Y024732D01*
X033520Y024819D01*
X033520Y024992D01*
X033606Y025079D01*
X033520Y025248D02*
X033520Y025595D01*
X033520Y025248D02*
X034040Y025248D01*
X033953Y025079D02*
X034040Y024992D01*
X034040Y024819D01*
X033953Y024732D01*
X033040Y024732D02*
X033040Y024992D01*
X032953Y025079D01*
X032606Y025079D01*
X032520Y024992D01*
X032520Y024732D01*
X033040Y024732D01*
X032953Y024563D02*
X033040Y024477D01*
X033040Y024303D01*
X032953Y024216D01*
X032866Y024216D01*
X032780Y024303D01*
X032780Y024477D01*
X032693Y024563D01*
X032606Y024563D01*
X032520Y024477D01*
X032520Y024303D01*
X032606Y024216D01*
X032520Y025248D02*
X032866Y025248D01*
X033040Y025421D01*
X032866Y025595D01*
X032520Y025595D01*
X032780Y025595D02*
X032780Y025248D01*
D14*
X034490Y025129D02*
X035130Y025129D01*
X035130Y025556D01*
X035490Y025449D02*
X035490Y025129D01*
X036130Y025129D01*
X036130Y025449D01*
X036023Y025556D01*
X035596Y025556D01*
X035490Y025449D01*
X034810Y025342D02*
X034810Y025129D01*
X035130Y024911D02*
X035130Y024484D01*
X034490Y024484D01*
X034490Y024911D01*
X034810Y024698D02*
X034810Y024484D01*
X034810Y024267D02*
X034703Y024160D01*
X034703Y023840D01*
X034703Y024053D02*
X034490Y024267D01*
X034810Y024267D02*
X035023Y024267D01*
X035130Y024160D01*
X035130Y023840D01*
X034490Y023840D01*
X034490Y023622D02*
X034917Y023622D01*
X035130Y023409D01*
X034917Y023195D01*
X034490Y023195D01*
X034810Y023195D02*
X034810Y023622D01*
X035490Y023946D02*
X035490Y024160D01*
X035596Y024267D01*
X035810Y024267D01*
X035810Y024053D01*
X036023Y023840D02*
X035596Y023840D01*
X035490Y023946D01*
X036023Y023840D02*
X036130Y023946D01*
X036130Y024160D01*
X036023Y024267D01*
X036130Y024484D02*
X035490Y024484D01*
X035490Y024911D02*
X036130Y024911D01*
X036490Y024911D02*
X036490Y024484D01*
X036490Y024698D02*
X037130Y024698D01*
X036917Y024484D01*
X037490Y024484D02*
X037490Y024911D01*
X037490Y024698D02*
X038130Y024698D01*
X037917Y024484D01*
X038490Y024484D02*
X038490Y024911D01*
X038490Y024698D02*
X039130Y024698D01*
X038917Y024484D01*
X039490Y024484D02*
X039490Y024911D01*
X039490Y024698D02*
X040130Y024698D01*
X039917Y024484D01*
X040023Y025129D02*
X040130Y025236D01*
X040130Y025449D01*
X040023Y025556D01*
X039596Y025129D01*
X039490Y025236D01*
X039490Y025449D01*
X039596Y025556D01*
X040023Y025556D01*
X040023Y025129D02*
X039596Y025129D01*
X039130Y025342D02*
X038490Y025342D01*
X038490Y025129D02*
X038490Y025556D01*
X038130Y025449D02*
X038130Y025236D01*
X038023Y025129D01*
X038130Y025449D02*
X038023Y025556D01*
X037917Y025556D01*
X037490Y025129D01*
X037490Y025556D01*
X037130Y025449D02*
X037023Y025556D01*
X036917Y025556D01*
X036810Y025449D01*
X036703Y025556D01*
X036596Y025556D01*
X036490Y025449D01*
X036490Y025236D01*
X036596Y025129D01*
X036810Y025342D02*
X036810Y025449D01*
X037130Y025449D02*
X037130Y025236D01*
X037023Y025129D01*
X036130Y024484D02*
X035490Y024911D01*
X038917Y025129D02*
X039130Y025342D01*
X040490Y025236D02*
X040490Y025449D01*
X040596Y025556D01*
X041023Y025556D01*
X041130Y025449D01*
X041130Y025236D01*
X041023Y025129D01*
X040917Y025129D01*
X040810Y025236D01*
X040810Y025556D01*
X040490Y025236D02*
X040596Y025129D01*
X041490Y025236D02*
X041596Y025129D01*
X041703Y025129D01*
X041810Y025236D01*
X041810Y025449D01*
X041703Y025556D01*
X041596Y025556D01*
X041490Y025449D01*
X041490Y025236D01*
X041810Y025236D02*
X041917Y025129D01*
X042023Y025129D01*
X042130Y025236D01*
X042130Y025449D01*
X042023Y025556D01*
X041917Y025556D01*
X041810Y025449D01*
X042990Y025129D02*
X043096Y025129D01*
X043523Y025556D01*
X043630Y025556D01*
X043630Y025129D01*
X043990Y025236D02*
X043990Y025449D01*
X044096Y025556D01*
X044203Y025556D01*
X044310Y025449D01*
X044310Y025129D01*
X044096Y025129D01*
X043990Y025236D01*
X044310Y025129D02*
X044523Y025342D01*
X044630Y025556D01*
X044990Y025449D02*
X044990Y025236D01*
X045096Y025129D01*
X045310Y025129D02*
X045417Y025342D01*
X045417Y025449D01*
X045310Y025556D01*
X045096Y025556D01*
X044990Y025449D01*
X045310Y025129D02*
X045630Y025129D01*
X045630Y025556D01*
X045990Y025449D02*
X046630Y025449D01*
X046310Y025129D01*
X046310Y025556D01*
X046990Y025449D02*
X046990Y025236D01*
X047096Y025129D01*
X047310Y025342D02*
X047310Y025449D01*
X047203Y025556D01*
X047096Y025556D01*
X046990Y025449D01*
X047310Y025449D02*
X047417Y025556D01*
X047523Y025556D01*
X047630Y025449D01*
X047630Y025236D01*
X047523Y025129D01*
X047990Y025129D02*
X048417Y025556D01*
X048523Y025556D01*
X048630Y025449D01*
X048630Y025236D01*
X048523Y025129D01*
X048990Y025129D02*
X048990Y025556D01*
X048990Y025342D02*
X049630Y025342D01*
X049417Y025129D01*
X049990Y025236D02*
X049990Y025449D01*
X050096Y025556D01*
X050523Y025556D01*
X050096Y025129D01*
X049990Y025236D01*
X050096Y025129D02*
X050523Y025129D01*
X050630Y025236D01*
X050630Y025449D01*
X050523Y025556D01*
X047990Y025556D02*
X047990Y025129D01*
X038630Y010679D02*
X038630Y010252D01*
X038630Y010465D02*
X037990Y010465D01*
X037630Y010464D02*
X037630Y010037D01*
X036990Y010037D01*
X036990Y009819D02*
X036990Y009392D01*
X037630Y009392D01*
X037630Y009819D01*
X037310Y009606D02*
X037310Y009392D01*
X037310Y009175D02*
X037203Y009068D01*
X037203Y008748D01*
X037203Y008961D02*
X036990Y009175D01*
X037310Y009175D02*
X037523Y009175D01*
X037630Y009068D01*
X037630Y008748D01*
X036990Y008748D01*
X037096Y008530D02*
X036990Y008423D01*
X036990Y008210D01*
X037096Y008103D01*
X037523Y008103D01*
X037630Y008210D01*
X037630Y008423D01*
X037523Y008530D01*
X037096Y008530D01*
X037990Y008318D02*
X037990Y008745D01*
X038096Y008962D02*
X037990Y009069D01*
X037990Y009283D01*
X038096Y009389D01*
X038203Y009389D01*
X038310Y009283D01*
X038310Y009069D01*
X038417Y008962D01*
X038523Y008962D01*
X038630Y009069D01*
X038630Y009283D01*
X038523Y009389D01*
X038630Y009607D02*
X037990Y009607D01*
X037990Y010034D01*
X038310Y009820D02*
X038310Y009607D01*
X038630Y009607D02*
X038630Y010034D01*
X038990Y009498D02*
X039203Y009712D01*
X039630Y009712D01*
X039203Y009285D02*
X038990Y009498D01*
X039203Y009285D02*
X039630Y009285D01*
X039523Y009067D02*
X039417Y009067D01*
X039310Y008960D01*
X039203Y009067D01*
X039096Y009067D01*
X038990Y008960D01*
X038990Y008747D01*
X039096Y008640D01*
X039096Y008425D02*
X038990Y008425D01*
X038990Y008318D01*
X039096Y008318D01*
X039096Y008425D01*
X039096Y008100D02*
X038990Y007994D01*
X038990Y007780D01*
X039096Y007673D01*
X039310Y007887D02*
X039310Y007994D01*
X039203Y008100D01*
X039096Y008100D01*
X039310Y007994D02*
X039417Y008100D01*
X039523Y008100D01*
X039630Y007994D01*
X039630Y007780D01*
X039523Y007673D01*
X039990Y007780D02*
X040096Y007673D01*
X039990Y007780D02*
X039990Y007994D01*
X040096Y008100D01*
X040310Y008100D01*
X040417Y007994D01*
X040417Y007887D01*
X040310Y007673D01*
X040630Y007673D01*
X040630Y008100D01*
X040630Y008318D02*
X040203Y008318D01*
X039990Y008531D01*
X040203Y008745D01*
X040630Y008745D01*
X040990Y008745D02*
X041630Y008745D01*
X041630Y008962D02*
X041630Y009283D01*
X041523Y009389D01*
X041096Y009389D01*
X040990Y009283D01*
X040990Y008962D01*
X041630Y008962D01*
X041990Y008962D02*
X041990Y009283D01*
X042096Y009389D01*
X042523Y009389D01*
X042630Y009283D01*
X042630Y008962D01*
X041990Y008962D01*
X041990Y008745D02*
X042630Y008745D01*
X042990Y008748D02*
X043630Y008748D01*
X042990Y009175D01*
X043630Y009175D01*
X043630Y008531D02*
X043630Y008318D01*
X043630Y008425D02*
X042990Y008425D01*
X042990Y008531D02*
X042990Y008318D01*
X043203Y008100D02*
X042990Y007887D01*
X043203Y007673D01*
X043630Y007673D01*
X042630Y007780D02*
X042523Y007673D01*
X042096Y007673D01*
X041990Y007780D01*
X041990Y007994D01*
X042096Y008100D01*
X042310Y008100D01*
X042310Y007887D01*
X042523Y008100D02*
X042630Y007994D01*
X042630Y007780D01*
X042630Y008318D02*
X041990Y008318D01*
X041630Y008318D02*
X040990Y008745D01*
X040990Y008318D02*
X041630Y008318D01*
X041523Y008100D02*
X041630Y007994D01*
X041630Y007780D01*
X041523Y007673D01*
X041096Y007673D01*
X040990Y007780D01*
X040990Y007994D01*
X041096Y008100D01*
X041310Y008100D01*
X041310Y007887D01*
X041990Y008745D02*
X042630Y008318D01*
X043203Y008100D02*
X043630Y008100D01*
X044990Y008100D02*
X045417Y008100D01*
X045630Y007887D01*
X045417Y007673D01*
X044990Y007673D01*
X045310Y007673D02*
X045310Y008100D01*
X045523Y008318D02*
X045630Y008425D01*
X045630Y008638D01*
X045523Y008745D01*
X045096Y008318D01*
X044990Y008425D01*
X044990Y008638D01*
X045096Y008745D01*
X045523Y008745D01*
X045990Y008745D02*
X045990Y008318D01*
X045990Y008531D02*
X046630Y008531D01*
X046417Y008318D01*
X046417Y008100D02*
X045990Y008100D01*
X046310Y008100D02*
X046310Y007673D01*
X046417Y007673D02*
X046630Y007887D01*
X046417Y008100D01*
X046990Y008100D02*
X047417Y008100D01*
X047630Y007887D01*
X047417Y007673D01*
X046990Y007673D01*
X047310Y007673D02*
X047310Y008100D01*
X047523Y008318D02*
X047630Y008425D01*
X047630Y008638D01*
X047523Y008745D01*
X047417Y008745D01*
X046990Y008318D01*
X046990Y008745D01*
X047990Y008638D02*
X047990Y008425D01*
X048096Y008318D01*
X047990Y008100D02*
X048417Y008100D01*
X048630Y007887D01*
X048417Y007673D01*
X047990Y007673D01*
X048310Y007673D02*
X048310Y008100D01*
X048523Y008318D02*
X048630Y008425D01*
X048630Y008638D01*
X048523Y008745D01*
X048417Y008745D01*
X048310Y008638D01*
X048203Y008745D01*
X048096Y008745D01*
X047990Y008638D01*
X048310Y008638D02*
X048310Y008531D01*
X048990Y008638D02*
X049630Y008638D01*
X049310Y008318D01*
X049310Y008745D01*
X049310Y008100D02*
X049310Y007673D01*
X049417Y007673D02*
X048990Y007673D01*
X049417Y007673D02*
X049630Y007887D01*
X049417Y008100D01*
X048990Y008100D01*
X049990Y008100D02*
X050417Y008100D01*
X050630Y007887D01*
X050417Y007673D01*
X049990Y007673D01*
X050310Y007673D02*
X050310Y008100D01*
X050310Y008318D02*
X050417Y008531D01*
X050417Y008638D01*
X050310Y008745D01*
X050096Y008745D01*
X049990Y008638D01*
X049990Y008425D01*
X050096Y008318D01*
X050310Y008318D02*
X050630Y008318D01*
X050630Y008745D01*
X046417Y007673D02*
X045990Y007673D01*
X045523Y008318D02*
X045096Y008318D01*
X039630Y008747D02*
X039523Y008640D01*
X039630Y008747D02*
X039630Y008960D01*
X039523Y009067D01*
X039310Y008960D02*
X039310Y008854D01*
X038630Y008745D02*
X038630Y008318D01*
X037990Y008318D01*
X037990Y008100D02*
X038203Y007887D01*
X038203Y007994D02*
X038203Y007673D01*
X037990Y007673D02*
X038630Y007673D01*
X038630Y007994D01*
X038523Y008100D01*
X038310Y008100D01*
X038203Y007994D01*
X038310Y008318D02*
X038310Y008531D01*
X037630Y007887D02*
X037630Y007673D01*
X037630Y007780D02*
X036990Y007780D01*
X036990Y007673D02*
X036990Y007887D01*
X037310Y010037D02*
X037310Y010250D01*
D15*
X045060Y010343D02*
X045260Y010343D01*
X045460Y010343D01*
X045460Y010143D02*
X045260Y010143D01*
X045260Y009943D01*
X045260Y010143D02*
X045060Y010143D01*
X045260Y010343D02*
X045260Y010543D01*
X046060Y010343D02*
X046260Y010343D01*
X046460Y010343D01*
X046460Y010143D02*
X046260Y010143D01*
X046260Y009943D01*
X046260Y010143D02*
X046060Y010143D01*
X046260Y010343D02*
X046260Y010543D01*
X047060Y010343D02*
X047260Y010343D01*
X047460Y010343D01*
X047460Y010143D02*
X047260Y010143D01*
X047260Y009943D01*
X047260Y010143D02*
X047060Y010143D01*
X047260Y010343D02*
X047260Y010543D01*
X048060Y011143D02*
X048260Y011143D01*
X048260Y010943D01*
X048260Y011143D02*
X048460Y011143D01*
X048460Y011343D02*
X048260Y011343D01*
X048060Y011343D01*
X048260Y011343D02*
X048260Y011543D01*
X049060Y011343D02*
X049260Y011343D01*
X049460Y011343D01*
X049460Y011143D02*
X049260Y011143D01*
X049260Y010943D01*
X049260Y011143D02*
X049060Y011143D01*
X049260Y011343D02*
X049260Y011543D01*
X050260Y010543D02*
X050260Y010343D01*
X050460Y010343D01*
X050460Y010143D02*
X050260Y010143D01*
X050260Y009943D01*
X050260Y010143D02*
X050060Y010143D01*
X050060Y010343D02*
X050260Y010343D01*
X049260Y021743D02*
X049260Y021943D01*
X049460Y021943D01*
X049460Y022143D02*
X049260Y022143D01*
X049060Y022143D01*
X049260Y022143D02*
X049260Y022343D01*
X049260Y021943D02*
X049060Y021943D01*
X048460Y021943D02*
X048260Y021943D01*
X048260Y021743D01*
X048260Y021943D02*
X048060Y021943D01*
X048060Y022143D02*
X048260Y022143D01*
X048460Y022143D01*
X048260Y022143D02*
X048260Y022343D01*
X047260Y022943D02*
X047260Y023143D01*
X047460Y023143D01*
X047460Y023343D02*
X047260Y023343D01*
X047060Y023343D01*
X047260Y023343D02*
X047260Y023543D01*
X047260Y023143D02*
X047060Y023143D01*
X046460Y023143D02*
X046260Y023143D01*
X046260Y022943D01*
X046260Y023143D02*
X046060Y023143D01*
X046060Y023343D02*
X046260Y023343D01*
X046460Y023343D01*
X046260Y023343D02*
X046260Y023543D01*
X045460Y023343D02*
X045260Y023343D01*
X045060Y023343D01*
X045260Y023343D02*
X045260Y023543D01*
X045260Y023143D02*
X045260Y022943D01*
X045260Y023143D02*
X045460Y023143D01*
X045260Y023143D02*
X045060Y023143D01*
X044460Y023143D02*
X044260Y023143D01*
X044260Y022943D01*
X044260Y023143D02*
X044060Y023143D01*
X044060Y023343D02*
X044260Y023343D01*
X044460Y023343D01*
X044260Y023343D02*
X044260Y023543D01*
X043460Y023343D02*
X043260Y023343D01*
X043060Y023343D01*
X043260Y023343D02*
X043260Y023543D01*
X043260Y023143D02*
X043060Y023143D01*
X043260Y023143D02*
X043260Y022943D01*
X043260Y023143D02*
X043460Y023143D01*
X041960Y023143D02*
X041760Y023143D01*
X041760Y022943D01*
X041760Y023143D02*
X041560Y023143D01*
X041560Y023343D02*
X041760Y023343D01*
X041960Y023343D01*
X041760Y023343D02*
X041760Y023543D01*
X040960Y023343D02*
X040760Y023343D01*
X040560Y023343D01*
X040760Y023343D02*
X040760Y023543D01*
X040760Y023143D02*
X040560Y023143D01*
X040760Y023143D02*
X040760Y022943D01*
X040760Y023143D02*
X040960Y023143D01*
X039960Y023143D02*
X039760Y023143D01*
X039760Y022943D01*
X039760Y023143D02*
X039560Y023143D01*
X039560Y023343D02*
X039760Y023343D01*
X039960Y023343D01*
X039760Y023343D02*
X039760Y023543D01*
X038960Y023343D02*
X038760Y023343D01*
X038560Y023343D01*
X038760Y023343D02*
X038760Y023543D01*
X038760Y023143D02*
X038760Y022943D01*
X038760Y023143D02*
X038960Y023143D01*
X038760Y023143D02*
X038560Y023143D01*
X037960Y023143D02*
X037760Y023143D01*
X037760Y022943D01*
X037760Y023143D02*
X037560Y023143D01*
X037560Y023343D02*
X037760Y023343D01*
X037960Y023343D01*
X037760Y023343D02*
X037760Y023543D01*
X036960Y023343D02*
X036760Y023343D01*
X036560Y023343D01*
X036760Y023343D02*
X036760Y023543D01*
X036760Y023143D02*
X036760Y022943D01*
X036760Y023143D02*
X036960Y023143D01*
X036760Y023143D02*
X036560Y023143D01*
X033960Y022843D02*
X033760Y022843D01*
X033560Y022843D01*
X033760Y022843D02*
X033760Y023043D01*
X033760Y022643D02*
X033760Y022443D01*
X033760Y022643D02*
X033960Y022643D01*
X033760Y022643D02*
X033560Y022643D01*
X032960Y022643D02*
X032760Y022643D01*
X032760Y022443D01*
X032760Y022643D02*
X032560Y022643D01*
X032560Y022843D02*
X032760Y022843D01*
X032960Y022843D01*
X032760Y022843D02*
X032760Y023043D01*
X050060Y023143D02*
X050260Y023143D01*
X050260Y022943D01*
X050260Y023143D02*
X050460Y023143D01*
X050460Y023343D02*
X050260Y023343D01*
X050060Y023343D01*
X050260Y023343D02*
X050260Y023543D01*
D16*
X051320Y009988D03*
D17*
X051330Y009988D03*
X052520Y010068D03*
X052670Y010198D03*
X052680Y010198D03*
X052690Y010198D03*
D18*
X051340Y009988D03*
D19*
X051350Y009988D03*
D20*
X051360Y009988D03*
X051850Y009278D03*
X052850Y010918D03*
X052900Y010908D03*
X052910Y010908D03*
X052940Y010898D03*
X052950Y010898D03*
X052970Y010888D03*
X052980Y010888D03*
X053000Y010878D03*
X053030Y010868D03*
D21*
X053190Y010773D03*
X053200Y010763D03*
X053370Y010653D03*
X053510Y010533D03*
X053520Y010523D03*
X052620Y010913D03*
X052610Y010913D03*
X052600Y010913D03*
X051370Y009993D03*
D22*
X051380Y009988D03*
X051970Y009268D03*
X051980Y009268D03*
X053270Y010688D03*
X053320Y010658D03*
X052470Y010868D03*
D23*
X052400Y010828D03*
X051390Y009988D03*
X052090Y009238D03*
X052100Y009238D03*
D24*
X052220Y009213D03*
X052230Y009213D03*
X052240Y009213D03*
X051400Y009993D03*
X052360Y010793D03*
X053550Y009573D03*
X053540Y009563D03*
X053530Y009553D03*
D25*
X053400Y009458D03*
X053390Y009448D03*
X053380Y009448D03*
X053370Y009438D03*
X053340Y009418D03*
X052620Y009178D03*
X052610Y009178D03*
X052600Y009178D03*
X052570Y009188D03*
X052560Y009188D03*
X052550Y009188D03*
X052540Y009188D03*
X052530Y009188D03*
X052520Y009188D03*
X052510Y009188D03*
X052500Y009188D03*
X052490Y009188D03*
X052480Y009188D03*
X052470Y009188D03*
X052460Y009188D03*
X052450Y009188D03*
X051410Y009988D03*
X051780Y010498D03*
D26*
X052310Y010733D03*
X051420Y009993D03*
X053110Y009313D03*
D27*
X053080Y009328D03*
X053060Y009318D03*
X053050Y009308D03*
X053040Y009308D03*
X053020Y009298D03*
X051430Y009988D03*
D28*
X051440Y009988D03*
X051850Y010478D03*
D29*
X051450Y009988D03*
D30*
X051460Y009988D03*
X051890Y010468D03*
D31*
X051930Y010478D03*
X051940Y010478D03*
X051470Y009988D03*
D32*
X051480Y009988D03*
X052000Y010498D03*
X052010Y010498D03*
D33*
X052060Y010513D03*
X052070Y010513D03*
X051490Y009993D03*
D34*
X051500Y009988D03*
X052130Y010528D03*
X052140Y010528D03*
X052150Y010528D03*
X053710Y009988D03*
D35*
X052270Y010548D03*
X052260Y010548D03*
X052250Y010548D03*
X052240Y010548D03*
X051510Y009988D03*
D36*
X051520Y009988D03*
X053690Y009988D03*
D37*
X051530Y009988D03*
D38*
X051540Y009988D03*
X053670Y009988D03*
D39*
X051550Y009988D03*
D40*
X051560Y009988D03*
X053650Y009988D03*
D41*
X051570Y009993D03*
D42*
X051580Y009988D03*
D43*
X051590Y009988D03*
X053620Y009988D03*
D44*
X051600Y009993D03*
D45*
X051610Y009988D03*
D46*
X051620Y009988D03*
X052880Y009558D03*
D47*
X052820Y009558D03*
X052810Y009558D03*
X052800Y009558D03*
X052790Y009558D03*
X052780Y009558D03*
X052770Y009558D03*
X053580Y009988D03*
X051630Y009988D03*
D48*
X051640Y009988D03*
X053570Y009988D03*
D49*
X051650Y009988D03*
D50*
X051660Y009993D03*
D51*
X051670Y009993D03*
D52*
X051680Y009993D03*
D53*
X051690Y009993D03*
D54*
X051700Y009993D03*
D55*
X051710Y009993D03*
D56*
X051720Y009993D03*
D57*
X051730Y009993D03*
D58*
X051740Y009988D03*
D59*
X051750Y009273D03*
D60*
X052290Y009203D03*
X052300Y009203D03*
X052310Y009203D03*
X052320Y009203D03*
X053490Y009523D03*
X053500Y009533D03*
X051750Y010483D03*
X052350Y010783D03*
D61*
X051760Y009268D03*
D62*
X052330Y009198D03*
X052340Y009198D03*
X052350Y009198D03*
X052360Y009198D03*
X052370Y009198D03*
X052640Y009178D03*
X053460Y009498D03*
X053470Y009508D03*
X053480Y009518D03*
X053800Y009988D03*
X051760Y010488D03*
D63*
X051770Y009263D03*
D64*
X052380Y009193D03*
X052390Y009193D03*
X052400Y009193D03*
X052410Y009193D03*
X052420Y009193D03*
X052430Y009193D03*
X052440Y009193D03*
X052630Y009173D03*
X053410Y009463D03*
X053420Y009473D03*
X053430Y009483D03*
X053440Y009483D03*
X053450Y009493D03*
X051770Y010493D03*
X052340Y010773D03*
D65*
X051780Y009258D03*
D66*
X051790Y009253D03*
X051800Y009253D03*
D67*
X052580Y009183D03*
X052590Y009183D03*
X053150Y009313D03*
X053160Y009313D03*
X053170Y009323D03*
X053180Y009323D03*
X053190Y009333D03*
X053200Y009333D03*
X053210Y009343D03*
X053230Y009353D03*
X053250Y009363D03*
X053270Y009373D03*
X053280Y009383D03*
X053300Y009393D03*
X053310Y009403D03*
X053320Y009403D03*
X053330Y009413D03*
X053350Y009423D03*
X053360Y009433D03*
X051790Y010503D03*
X052330Y010763D03*
D68*
X051810Y010508D03*
X051800Y010508D03*
X053240Y009358D03*
X053260Y009368D03*
X053290Y009388D03*
X053220Y009348D03*
X053140Y009308D03*
D69*
X051810Y009248D03*
D70*
X051820Y009243D03*
D71*
X053130Y009313D03*
X051820Y010513D03*
X052320Y010753D03*
D72*
X053860Y009988D03*
X051830Y009238D03*
D73*
X053120Y009308D03*
X053790Y009988D03*
X051830Y010518D03*
D74*
X051840Y009243D03*
D75*
X051840Y010518D03*
D76*
X052690Y010923D03*
X052700Y010923D03*
X052710Y010923D03*
X052720Y010923D03*
X052730Y010923D03*
X052740Y010923D03*
X053100Y010833D03*
X053120Y010823D03*
X053410Y010643D03*
X053420Y010643D03*
X053430Y010633D03*
X053460Y010603D03*
X051860Y009283D03*
D77*
X051860Y010473D03*
D78*
X052630Y010918D03*
X052640Y010918D03*
X053170Y010788D03*
X053180Y010778D03*
X053380Y010658D03*
X053500Y010548D03*
X051880Y009288D03*
X051870Y009288D03*
D79*
X051870Y010468D03*
X051880Y010468D03*
D80*
X052580Y010908D03*
X052590Y010908D03*
X053210Y010758D03*
X053220Y010748D03*
X053360Y010658D03*
X053530Y010508D03*
X051890Y009288D03*
D81*
X051900Y009283D03*
X051910Y009283D03*
X053540Y010493D03*
X053550Y010483D03*
X053230Y010733D03*
X052570Y010903D03*
X052560Y010903D03*
D82*
X051910Y010473D03*
X051900Y010473D03*
D83*
X052510Y010883D03*
X052520Y010883D03*
X052530Y010893D03*
X053250Y010713D03*
X053560Y010463D03*
X051920Y009283D03*
D84*
X053740Y009988D03*
X051920Y010478D03*
D85*
X052500Y010878D03*
X053330Y010658D03*
X053340Y010658D03*
X053830Y009988D03*
X051940Y009278D03*
X051930Y009278D03*
D86*
X051950Y009273D03*
X051960Y009273D03*
X052480Y010873D03*
X052490Y010873D03*
X053260Y010703D03*
D87*
X051950Y010483D03*
D88*
X051960Y010488D03*
X051970Y010488D03*
X053730Y009988D03*
D89*
X051990Y010493D03*
X051980Y010493D03*
D90*
X052460Y010863D03*
X053310Y010663D03*
X052750Y009113D03*
X052740Y009113D03*
X052730Y009113D03*
X052720Y009113D03*
X052710Y009113D03*
X052700Y009113D03*
X052690Y009113D03*
X052680Y009113D03*
X052670Y009113D03*
X052000Y009263D03*
X051990Y009263D03*
D91*
X052010Y009258D03*
X053300Y010658D03*
X053280Y010678D03*
X052450Y010858D03*
D92*
X052440Y010853D03*
X053290Y010663D03*
X052030Y009253D03*
X052020Y009253D03*
D93*
X052020Y010503D03*
X052030Y010503D03*
D94*
X052420Y010838D03*
X052430Y010848D03*
X053820Y009988D03*
X052050Y009248D03*
X052040Y009248D03*
D95*
X053720Y009988D03*
X052050Y010508D03*
X052040Y010508D03*
D96*
X052410Y010833D03*
X052080Y009243D03*
X052070Y009243D03*
X052060Y009243D03*
D97*
X052080Y010518D03*
X052090Y010518D03*
D98*
X052100Y010523D03*
X052110Y010523D03*
X052120Y010523D03*
D99*
X052120Y009233D03*
X052110Y009233D03*
D100*
X052130Y009228D03*
X052140Y009228D03*
X052150Y009228D03*
X052390Y010818D03*
D101*
X052380Y010813D03*
X052180Y009223D03*
X052170Y009223D03*
X052160Y009223D03*
X052660Y009153D03*
D102*
X052170Y010533D03*
X052160Y010533D03*
D103*
X052180Y010538D03*
X052190Y010538D03*
X052200Y010538D03*
X053700Y009988D03*
D104*
X053810Y009988D03*
X052370Y010808D03*
X052210Y009218D03*
X052200Y009218D03*
X052190Y009218D03*
D105*
X052210Y010543D03*
X052220Y010543D03*
X052230Y010543D03*
D106*
X053510Y009538D03*
X053520Y009548D03*
X053560Y009588D03*
X052650Y009168D03*
X052280Y009208D03*
X052270Y009208D03*
X052260Y009208D03*
X052250Y009208D03*
D107*
X052280Y010553D03*
D108*
X052290Y009923D03*
X053090Y010183D03*
D109*
X053770Y009988D03*
X052290Y010698D03*
D110*
X053110Y010168D03*
X052300Y009898D03*
D111*
X052980Y009278D03*
X053090Y009318D03*
X053780Y009988D03*
X052300Y010718D03*
D112*
X052310Y009883D03*
X053000Y009983D03*
D113*
X052470Y010063D03*
D114*
X052480Y010068D03*
X053050Y010198D03*
D115*
X052490Y010068D03*
D116*
X052500Y010068D03*
D117*
X052510Y010068D03*
D118*
X052530Y010063D03*
X052980Y010153D03*
D119*
X052960Y010153D03*
X052540Y010073D03*
D120*
X053350Y010658D03*
X053240Y010728D03*
X052550Y010898D03*
X052540Y010898D03*
D121*
X052550Y010078D03*
D122*
X052560Y010083D03*
X052660Y010153D03*
X052940Y010153D03*
X052950Y010153D03*
D123*
X052580Y010098D03*
X052570Y010088D03*
X053870Y009988D03*
D124*
X052930Y010153D03*
X052920Y010153D03*
X052600Y010103D03*
X052590Y010103D03*
D125*
X052610Y010108D03*
X052630Y010118D03*
X052640Y010128D03*
X052650Y010138D03*
X052910Y010148D03*
D126*
X052620Y010113D03*
D127*
X053390Y010653D03*
X053490Y010563D03*
X053160Y010793D03*
X053150Y010803D03*
X052670Y010923D03*
X052660Y010923D03*
X052650Y010923D03*
X053840Y009993D03*
D128*
X053480Y010578D03*
X053470Y010588D03*
X053400Y010648D03*
X053140Y010808D03*
X053130Y010818D03*
X052680Y010918D03*
D129*
X052700Y010203D03*
X052710Y010203D03*
X052720Y010203D03*
X052730Y010203D03*
D130*
X052740Y010208D03*
X052750Y010208D03*
D131*
X053440Y010628D03*
X053450Y010618D03*
X053110Y010828D03*
X053090Y010838D03*
X053080Y010848D03*
X053070Y010848D03*
X053050Y010858D03*
X052770Y010928D03*
X052760Y010928D03*
X052750Y010928D03*
D132*
X052760Y009553D03*
D133*
X053060Y010853D03*
X053040Y010863D03*
X053020Y010873D03*
X053010Y010873D03*
X052990Y010883D03*
X052960Y010893D03*
X052930Y010903D03*
X052920Y010903D03*
X052890Y010913D03*
X052880Y010913D03*
X052870Y010913D03*
X052860Y010913D03*
X052840Y010923D03*
X052830Y010923D03*
X052820Y010923D03*
X052810Y010923D03*
X052800Y010923D03*
X052790Y010923D03*
X052780Y010923D03*
D134*
X052830Y009563D03*
X052840Y009563D03*
X052850Y009563D03*
X052860Y009563D03*
X052870Y009563D03*
D135*
X052890Y009563D03*
X052900Y009563D03*
X053590Y009993D03*
D136*
X053750Y009993D03*
X052910Y009323D03*
D137*
X052920Y009313D03*
D138*
X052930Y009308D03*
X053760Y009988D03*
D139*
X052940Y009303D03*
D140*
X052950Y009293D03*
D141*
X052960Y009283D03*
X053070Y009323D03*
D142*
X053030Y009303D03*
X053010Y009293D03*
X053000Y009293D03*
X052990Y009283D03*
X052970Y009283D03*
D143*
X052970Y010158D03*
D144*
X052990Y009993D03*
D145*
X052990Y010193D03*
D146*
X053000Y010203D03*
D147*
X053010Y010203D03*
D148*
X053020Y010203D03*
D149*
X053030Y010198D03*
D150*
X053040Y010198D03*
D151*
X053060Y010193D03*
D152*
X053070Y010193D03*
D153*
X053080Y010183D03*
D154*
X053100Y009313D03*
D155*
X053100Y010178D03*
D156*
X053120Y010158D03*
X053890Y009988D03*
D157*
X053600Y009988D03*
D158*
X053610Y009988D03*
D159*
X053630Y009993D03*
D160*
X053640Y009988D03*
D161*
X053660Y009993D03*
D162*
X053680Y009993D03*
D163*
X053850Y009988D03*
D164*
X053880Y009993D03*
M02*
