G75*
%MOIN*%
%OFA0B0*%
%FSLAX24Y24*%
%IPPOS*%
%LPD*%
%AMOC8*
5,1,8,0,0,1.08239X$1,22.5*
%
%ADD10C,0.0110*%
%ADD11C,0.0060*%
%ADD12C,0.0040*%
%ADD13C,0.0030*%
%ADD14R,0.0180X0.0300*%
%ADD15C,0.0080*%
%ADD16C,0.0050*%
%ADD17C,0.0220*%
%ADD18R,0.0160X0.0010*%
%ADD19R,0.0360X0.0010*%
%ADD20R,0.0480X0.0010*%
%ADD21R,0.0580X0.0010*%
%ADD22R,0.0660X0.0010*%
%ADD23R,0.0730X0.0010*%
%ADD24R,0.0800X0.0010*%
%ADD25R,0.0860X0.0010*%
%ADD26R,0.0910X0.0010*%
%ADD27R,0.0960X0.0010*%
%ADD28R,0.1010X0.0010*%
%ADD29R,0.1060X0.0010*%
%ADD30R,0.1100X0.0010*%
%ADD31R,0.1140X0.0010*%
%ADD32R,0.1180X0.0010*%
%ADD33R,0.1220X0.0010*%
%ADD34R,0.1260X0.0010*%
%ADD35R,0.1290X0.0010*%
%ADD36R,0.1320X0.0010*%
%ADD37R,0.1360X0.0010*%
%ADD38R,0.1380X0.0010*%
%ADD39R,0.1420X0.0010*%
%ADD40R,0.1440X0.0010*%
%ADD41R,0.1480X0.0010*%
%ADD42R,0.1500X0.0010*%
%ADD43R,0.1530X0.0010*%
%ADD44R,0.1560X0.0010*%
%ADD45R,0.1580X0.0010*%
%ADD46R,0.1610X0.0010*%
%ADD47R,0.1640X0.0010*%
%ADD48R,0.1660X0.0010*%
%ADD49R,0.1680X0.0010*%
%ADD50R,0.1700X0.0010*%
%ADD51R,0.1720X0.0010*%
%ADD52R,0.1750X0.0010*%
%ADD53R,0.1770X0.0010*%
%ADD54R,0.1790X0.0010*%
%ADD55R,0.1810X0.0010*%
%ADD56R,0.1830X0.0010*%
%ADD57R,0.1850X0.0010*%
%ADD58R,0.1870X0.0010*%
%ADD59R,0.1890X0.0010*%
%ADD60R,0.1900X0.0010*%
%ADD61R,0.0490X0.0010*%
%ADD62R,0.0930X0.0010*%
%ADD63R,0.0500X0.0010*%
%ADD64R,0.0940X0.0010*%
%ADD65R,0.0510X0.0010*%
%ADD66R,0.0950X0.0010*%
%ADD67R,0.0520X0.0010*%
%ADD68R,0.0530X0.0010*%
%ADD69R,0.0970X0.0010*%
%ADD70R,0.0980X0.0010*%
%ADD71R,0.0540X0.0010*%
%ADD72R,0.0550X0.0010*%
%ADD73R,0.0990X0.0010*%
%ADD74R,0.0560X0.0010*%
%ADD75R,0.1000X0.0010*%
%ADD76R,0.0570X0.0010*%
%ADD77R,0.1020X0.0010*%
%ADD78R,0.0690X0.0010*%
%ADD79R,0.1130X0.0010*%
%ADD80R,0.0720X0.0010*%
%ADD81R,0.1160X0.0010*%
%ADD82R,0.0740X0.0010*%
%ADD83R,0.0750X0.0010*%
%ADD84R,0.1190X0.0010*%
%ADD85R,0.0770X0.0010*%
%ADD86R,0.1200X0.0010*%
%ADD87R,0.0780X0.0010*%
%ADD88R,0.0790X0.0010*%
%ADD89R,0.1230X0.0010*%
%ADD90R,0.1240X0.0010*%
%ADD91R,0.1250X0.0010*%
%ADD92R,0.0810X0.0010*%
%ADD93R,0.0820X0.0010*%
%ADD94R,0.0830X0.0010*%
%ADD95R,0.1270X0.0010*%
%ADD96R,0.0840X0.0010*%
%ADD97R,0.1280X0.0010*%
%ADD98R,0.0850X0.0010*%
%ADD99R,0.1300X0.0010*%
%ADD100R,0.1310X0.0010*%
%ADD101R,0.0870X0.0010*%
%ADD102R,0.0880X0.0010*%
%ADD103R,0.0890X0.0010*%
%ADD104R,0.1330X0.0010*%
%ADD105R,0.1340X0.0010*%
%ADD106R,0.0900X0.0010*%
%ADD107R,0.1350X0.0010*%
%ADD108R,0.0920X0.0010*%
%ADD109R,0.1370X0.0010*%
%ADD110R,0.0110X0.0010*%
%ADD111R,0.1080X0.0010*%
%ADD112R,0.0060X0.0010*%
%ADD113R,0.1040X0.0010*%
%ADD114R,0.0030X0.0010*%
%ADD115R,0.0070X0.0010*%
%ADD116R,0.0180X0.0010*%
%ADD117R,0.0240X0.0010*%
%ADD118R,0.0280X0.0010*%
%ADD119R,0.0320X0.0010*%
%ADD120R,0.0390X0.0010*%
%ADD121R,0.0410X0.0010*%
%ADD122R,0.0760X0.0010*%
%ADD123R,0.0420X0.0010*%
%ADD124R,0.0430X0.0010*%
%ADD125R,0.0440X0.0010*%
%ADD126R,0.0450X0.0010*%
%ADD127R,0.0460X0.0010*%
%ADD128R,0.0470X0.0010*%
%ADD129R,0.0710X0.0010*%
%ADD130R,0.0700X0.0010*%
%ADD131R,0.0370X0.0010*%
%ADD132R,0.0380X0.0010*%
%ADD133R,0.0680X0.0010*%
%ADD134R,0.1690X0.0010*%
%ADD135R,0.0670X0.0010*%
%ADD136R,0.1670X0.0010*%
%ADD137R,0.1650X0.0010*%
%ADD138R,0.1170X0.0010*%
%ADD139R,0.1150X0.0010*%
%ADD140R,0.1120X0.0010*%
%ADD141R,0.1110X0.0010*%
%ADD142R,0.1090X0.0010*%
%ADD143R,0.1070X0.0010*%
%ADD144R,0.1050X0.0010*%
%ADD145R,0.0400X0.0010*%
%ADD146R,0.0050X0.0010*%
%ADD147R,0.0290X0.0010*%
%ADD148R,0.0270X0.0010*%
%ADD149R,0.0250X0.0010*%
%ADD150R,0.0230X0.0010*%
%ADD151R,0.0220X0.0010*%
%ADD152R,0.0200X0.0010*%
%ADD153R,0.0170X0.0010*%
%ADD154R,0.0150X0.0010*%
%ADD155R,0.0130X0.0010*%
%ADD156R,0.1030X0.0010*%
%ADD157R,0.0080X0.0010*%
%ADD158R,0.0020X0.0010*%
%ADD159R,0.1620X0.0010*%
%ADD160R,0.1600X0.0010*%
%ADD161R,0.1550X0.0010*%
%ADD162R,0.1520X0.0010*%
%ADD163R,0.1470X0.0010*%
%ADD164R,0.1410X0.0010*%
%ADD165R,0.0640X0.0010*%
%ADD166R,0.0310X0.0010*%
D10*
X018004Y012300D02*
X018397Y012300D01*
X018648Y012398D02*
X018648Y012989D01*
X019042Y012989D01*
X018845Y012694D02*
X018648Y012694D01*
X017753Y012398D02*
X017753Y012989D01*
X017359Y012989D02*
X017359Y012398D01*
X017556Y012595D01*
X017753Y012398D01*
X017108Y012497D02*
X017010Y012398D01*
X016813Y012398D01*
X016715Y012497D01*
X016813Y012694D02*
X017010Y012694D01*
X017108Y012595D01*
X017108Y012497D01*
X016813Y012694D02*
X016715Y012792D01*
X016715Y012890D01*
X016813Y012989D01*
X017010Y012989D01*
X017108Y012890D01*
X018025Y014600D02*
X018419Y014600D01*
X018670Y014698D02*
X019064Y014698D01*
X018867Y014994D02*
X018670Y014994D01*
X018670Y015289D02*
X018670Y014698D01*
X018670Y015289D02*
X019064Y015289D01*
X017775Y015289D02*
X017775Y014698D01*
X017578Y014895D01*
X017381Y014698D01*
X017381Y015289D01*
X017130Y015190D02*
X017032Y015289D01*
X016835Y015289D01*
X016736Y015190D01*
X016736Y015092D01*
X016835Y014994D01*
X017032Y014994D01*
X017130Y014895D01*
X017130Y014797D01*
X017032Y014698D01*
X016835Y014698D01*
X016736Y014797D01*
X018004Y023700D02*
X018397Y023700D01*
X018648Y023798D02*
X018943Y023798D01*
X019042Y023897D01*
X019042Y024290D01*
X018943Y024389D01*
X018648Y024389D01*
X018648Y023798D01*
X017753Y023798D02*
X017753Y024389D01*
X017359Y024389D02*
X017359Y023798D01*
X017556Y023995D01*
X017753Y023798D01*
X017108Y023897D02*
X017010Y023798D01*
X016813Y023798D01*
X016715Y023897D01*
X016813Y024094D02*
X017010Y024094D01*
X017108Y023995D01*
X017108Y023897D01*
X016813Y024094D02*
X016715Y024192D01*
X016715Y024290D01*
X016813Y024389D01*
X017010Y024389D01*
X017108Y024290D01*
X051515Y024290D02*
X051515Y024192D01*
X051613Y024094D01*
X051810Y024094D01*
X051908Y023995D01*
X051908Y023897D01*
X051810Y023798D01*
X051613Y023798D01*
X051515Y023897D01*
X051515Y024290D02*
X051613Y024389D01*
X051810Y024389D01*
X051908Y024290D01*
X052159Y024389D02*
X052159Y023798D01*
X052356Y023995D01*
X052553Y023798D01*
X052553Y024389D01*
X053448Y024192D02*
X053645Y024389D01*
X053842Y024192D01*
X053842Y023798D01*
X053842Y024094D02*
X053448Y024094D01*
X053448Y024192D02*
X053448Y023798D01*
X053197Y023700D02*
X052804Y023700D01*
X052553Y018689D02*
X052553Y018098D01*
X052356Y018295D01*
X052159Y018098D01*
X052159Y018689D01*
X051908Y018590D02*
X051810Y018689D01*
X051613Y018689D01*
X051515Y018590D01*
X051515Y018492D01*
X051613Y018394D01*
X051810Y018394D01*
X051908Y018295D01*
X051908Y018197D01*
X051810Y018098D01*
X051613Y018098D01*
X051515Y018197D01*
X052804Y018000D02*
X053197Y018000D01*
X053448Y018098D02*
X053743Y018098D01*
X053842Y018197D01*
X053842Y018295D01*
X053743Y018394D01*
X053448Y018394D01*
X053448Y018689D02*
X053743Y018689D01*
X053842Y018590D01*
X053842Y018492D01*
X053743Y018394D01*
X053448Y018098D02*
X053448Y018689D01*
X053547Y012989D02*
X053448Y012890D01*
X053448Y012497D01*
X053547Y012398D01*
X053743Y012398D01*
X053842Y012497D01*
X053842Y012890D02*
X053743Y012989D01*
X053547Y012989D01*
X052553Y012989D02*
X052553Y012398D01*
X052356Y012595D01*
X052159Y012398D01*
X052159Y012989D01*
X051908Y012890D02*
X051810Y012989D01*
X051613Y012989D01*
X051515Y012890D01*
X051515Y012792D01*
X051613Y012694D01*
X051810Y012694D01*
X051908Y012595D01*
X051908Y012497D01*
X051810Y012398D01*
X051613Y012398D01*
X051515Y012497D01*
X052804Y012300D02*
X053197Y012300D01*
D11*
X050523Y008745D02*
X050630Y008638D01*
X050630Y008425D01*
X050523Y008318D01*
X050309Y008318D02*
X050202Y008531D01*
X050202Y008638D01*
X050309Y008745D01*
X050523Y008745D01*
X049989Y008745D02*
X049989Y008318D01*
X050309Y008318D01*
X050309Y008100D02*
X050309Y007673D01*
X050202Y007673D02*
X049989Y007887D01*
X050202Y008100D01*
X050630Y008100D01*
X050630Y007673D02*
X050202Y007673D01*
X049630Y007673D02*
X049202Y007673D01*
X048989Y007887D01*
X049202Y008100D01*
X049630Y008100D01*
X049309Y008100D02*
X049309Y007673D01*
X048630Y007673D02*
X048202Y007673D01*
X047989Y007887D01*
X048202Y008100D01*
X048630Y008100D01*
X048523Y008318D02*
X048630Y008425D01*
X048630Y008638D01*
X048523Y008745D01*
X048416Y008745D01*
X048309Y008638D01*
X048309Y008531D01*
X048309Y008638D02*
X048202Y008745D01*
X048096Y008745D01*
X047989Y008638D01*
X047989Y008425D01*
X048096Y008318D01*
X048309Y008100D02*
X048309Y007673D01*
X047630Y007673D02*
X047202Y007673D01*
X046989Y007887D01*
X047202Y008100D01*
X047630Y008100D01*
X047630Y008318D02*
X047202Y008745D01*
X047096Y008745D01*
X046989Y008638D01*
X046989Y008425D01*
X047096Y008318D01*
X047309Y008100D02*
X047309Y007673D01*
X046630Y007673D02*
X046202Y007673D01*
X045989Y007887D01*
X046202Y008100D01*
X046630Y008100D01*
X046630Y008318D02*
X046630Y008745D01*
X046630Y008531D02*
X045989Y008531D01*
X046202Y008318D01*
X046309Y008100D02*
X046309Y007673D01*
X045630Y007673D02*
X045202Y007673D01*
X044989Y007887D01*
X045202Y008100D01*
X045630Y008100D01*
X045523Y008318D02*
X045630Y008425D01*
X045630Y008638D01*
X045523Y008745D01*
X045096Y008745D01*
X045523Y008318D01*
X045096Y008318D01*
X044989Y008425D01*
X044989Y008638D01*
X045096Y008745D01*
X045309Y008100D02*
X045309Y007673D01*
X043630Y007887D02*
X043416Y007673D01*
X042989Y007673D01*
X042630Y007780D02*
X042630Y007994D01*
X042523Y008100D01*
X042309Y008100D01*
X042309Y007887D01*
X042096Y008100D02*
X041989Y007994D01*
X041989Y007780D01*
X042096Y007673D01*
X042523Y007673D01*
X042630Y007780D01*
X042989Y008100D02*
X043416Y008100D01*
X043630Y007887D01*
X043630Y008318D02*
X043630Y008531D01*
X043630Y008425D02*
X042989Y008425D01*
X042989Y008531D02*
X042989Y008318D01*
X042630Y008318D02*
X041989Y008318D01*
X042630Y008745D01*
X041989Y008745D01*
X041989Y008962D02*
X041989Y009283D01*
X042096Y009389D01*
X042523Y009389D01*
X042630Y009283D01*
X042630Y008962D01*
X041989Y008962D01*
X041630Y008962D02*
X041630Y009283D01*
X041523Y009389D01*
X041096Y009389D01*
X040989Y009283D01*
X040989Y008962D01*
X041630Y008962D01*
X041630Y008745D02*
X040989Y008745D01*
X040630Y008531D02*
X040416Y008745D01*
X039989Y008745D01*
X039630Y008747D02*
X039523Y008640D01*
X039630Y008747D02*
X039630Y008960D01*
X039523Y009067D01*
X039416Y009067D01*
X039309Y008960D01*
X039309Y008854D01*
X039309Y008960D02*
X039202Y009067D01*
X039096Y009067D01*
X038989Y008960D01*
X038989Y008747D01*
X039096Y008640D01*
X039523Y008425D02*
X039523Y008318D01*
X039630Y008318D01*
X039630Y008425D01*
X039523Y008425D01*
X039523Y008100D02*
X039416Y008100D01*
X039309Y007994D01*
X039309Y007887D01*
X039309Y007994D02*
X039202Y008100D01*
X039096Y008100D01*
X038989Y007994D01*
X038989Y007780D01*
X039096Y007673D01*
X039523Y007673D02*
X039630Y007780D01*
X039630Y007994D01*
X039523Y008100D01*
X039989Y008100D02*
X039989Y007673D01*
X040309Y007673D01*
X040202Y007887D01*
X040202Y007994D01*
X040309Y008100D01*
X040523Y008100D01*
X040630Y007994D01*
X040630Y007780D01*
X040523Y007673D01*
X040989Y007780D02*
X041096Y007673D01*
X041523Y007673D01*
X041630Y007780D01*
X041630Y007994D01*
X041523Y008100D01*
X041309Y008100D01*
X041309Y007887D01*
X041096Y008100D02*
X040989Y007994D01*
X040989Y007780D01*
X040989Y008318D02*
X041630Y008745D01*
X041630Y008318D02*
X040989Y008318D01*
X040630Y008531D02*
X040416Y008318D01*
X039989Y008318D01*
X038630Y008318D02*
X038630Y008745D01*
X038523Y008962D02*
X038630Y009069D01*
X038630Y009283D01*
X038523Y009389D01*
X038416Y009389D01*
X038309Y009283D01*
X038309Y009069D01*
X038202Y008962D01*
X038096Y008962D01*
X037989Y009069D01*
X037989Y009283D01*
X038096Y009389D01*
X037989Y009607D02*
X038630Y009607D01*
X038630Y010034D01*
X038309Y009820D02*
X038309Y009607D01*
X037989Y009607D02*
X037989Y010034D01*
X037989Y010252D02*
X037989Y010679D01*
X037989Y010465D02*
X038630Y010465D01*
X037630Y010037D02*
X036989Y010037D01*
X036989Y010464D01*
X037309Y010250D02*
X037309Y010037D01*
X036989Y009819D02*
X036989Y009392D01*
X037630Y009392D01*
X037630Y009819D01*
X037309Y009606D02*
X037309Y009392D01*
X037309Y009175D02*
X037416Y009068D01*
X037416Y008748D01*
X037416Y008961D02*
X037630Y009175D01*
X037309Y009175D02*
X037096Y009175D01*
X036989Y009068D01*
X036989Y008748D01*
X037630Y008748D01*
X037523Y008530D02*
X037096Y008530D01*
X036989Y008423D01*
X036989Y008210D01*
X037096Y008103D01*
X037523Y008103D01*
X037630Y008210D01*
X037630Y008423D01*
X037523Y008530D01*
X037989Y008318D02*
X038630Y008318D01*
X038630Y008100D02*
X038416Y007887D01*
X038416Y007994D02*
X038416Y007673D01*
X038630Y007673D02*
X037989Y007673D01*
X037989Y007994D01*
X038096Y008100D01*
X038309Y008100D01*
X038416Y007994D01*
X038309Y008318D02*
X038309Y008531D01*
X037989Y008745D02*
X037989Y008318D01*
X037630Y007887D02*
X037630Y007673D01*
X037630Y007780D02*
X036989Y007780D01*
X036989Y007673D02*
X036989Y007887D01*
X038989Y009285D02*
X039416Y009285D01*
X039630Y009498D01*
X039416Y009712D01*
X038989Y009712D01*
X042989Y009175D02*
X043630Y009175D01*
X042989Y008748D01*
X043630Y008748D01*
X047630Y008745D02*
X047630Y008318D01*
X048989Y008638D02*
X049309Y008318D01*
X049309Y008745D01*
X048989Y008638D02*
X049630Y008638D01*
X035130Y023195D02*
X034702Y023195D01*
X034489Y023409D01*
X034702Y023622D01*
X035130Y023622D01*
X035130Y023840D02*
X034489Y023840D01*
X034489Y024160D01*
X034596Y024267D01*
X034809Y024267D01*
X034916Y024160D01*
X034916Y023840D01*
X034916Y024053D02*
X035130Y024267D01*
X035130Y024484D02*
X034489Y024484D01*
X034489Y024911D01*
X034489Y025129D02*
X034489Y025556D01*
X034809Y025342D02*
X034809Y025129D01*
X034489Y025129D02*
X035130Y025129D01*
X035130Y024911D02*
X035130Y024484D01*
X034809Y024484D02*
X034809Y024698D01*
X035489Y024911D02*
X036130Y024911D01*
X035489Y024484D01*
X036130Y024484D01*
X036023Y024267D02*
X035809Y024267D01*
X035809Y024053D01*
X035596Y023840D02*
X036023Y023840D01*
X036130Y023946D01*
X036130Y024160D01*
X036023Y024267D01*
X035596Y024267D02*
X035489Y024160D01*
X035489Y023946D01*
X035596Y023840D01*
X034809Y023622D02*
X034809Y023195D01*
X036489Y024698D02*
X037130Y024698D01*
X037130Y024911D02*
X037130Y024484D01*
X037489Y024698D02*
X038130Y024698D01*
X038130Y024911D02*
X038130Y024484D01*
X038489Y024698D02*
X039130Y024698D01*
X039130Y024911D02*
X039130Y024484D01*
X039489Y024698D02*
X040130Y024698D01*
X040130Y024911D02*
X040130Y024484D01*
X039702Y024484D02*
X039489Y024698D01*
X039596Y025129D02*
X039489Y025236D01*
X039489Y025449D01*
X039596Y025556D01*
X040023Y025129D01*
X040130Y025236D01*
X040130Y025449D01*
X040023Y025556D01*
X039596Y025556D01*
X039596Y025129D02*
X040023Y025129D01*
X040489Y025236D02*
X040489Y025449D01*
X040596Y025556D01*
X041023Y025556D01*
X041130Y025449D01*
X041130Y025236D01*
X041023Y025129D01*
X040809Y025236D02*
X040809Y025556D01*
X040809Y025236D02*
X040702Y025129D01*
X040596Y025129D01*
X040489Y025236D01*
X041489Y025236D02*
X041489Y025449D01*
X041596Y025556D01*
X041702Y025556D01*
X041809Y025449D01*
X041809Y025236D01*
X041702Y025129D01*
X041596Y025129D01*
X041489Y025236D01*
X041809Y025236D02*
X041916Y025129D01*
X042023Y025129D01*
X042130Y025236D01*
X042130Y025449D01*
X042023Y025556D01*
X041916Y025556D01*
X041809Y025449D01*
X042989Y025556D02*
X042989Y025129D01*
X042989Y025556D02*
X043096Y025556D01*
X043523Y025129D01*
X043630Y025129D01*
X044096Y025342D02*
X043989Y025556D01*
X044096Y025342D02*
X044309Y025129D01*
X044309Y025449D01*
X044416Y025556D01*
X044523Y025556D01*
X044630Y025449D01*
X044630Y025236D01*
X044523Y025129D01*
X044309Y025129D01*
X044989Y025129D02*
X044989Y025556D01*
X045202Y025449D02*
X045202Y025342D01*
X045309Y025129D01*
X044989Y025129D01*
X045202Y025449D02*
X045309Y025556D01*
X045523Y025556D01*
X045630Y025449D01*
X045630Y025236D01*
X045523Y025129D01*
X045989Y025449D02*
X046309Y025129D01*
X046309Y025556D01*
X045989Y025449D02*
X046630Y025449D01*
X046989Y025449D02*
X046989Y025236D01*
X047096Y025129D01*
X047309Y025342D02*
X047309Y025449D01*
X047416Y025556D01*
X047523Y025556D01*
X047630Y025449D01*
X047630Y025236D01*
X047523Y025129D01*
X047309Y025449D02*
X047202Y025556D01*
X047096Y025556D01*
X046989Y025449D01*
X047989Y025449D02*
X047989Y025236D01*
X048096Y025129D01*
X047989Y025449D02*
X048096Y025556D01*
X048202Y025556D01*
X048630Y025129D01*
X048630Y025556D01*
X048989Y025342D02*
X049630Y025342D01*
X049630Y025129D02*
X049630Y025556D01*
X049989Y025449D02*
X049989Y025236D01*
X050096Y025129D01*
X050523Y025129D01*
X050096Y025556D01*
X050523Y025556D01*
X050630Y025449D01*
X050630Y025236D01*
X050523Y025129D01*
X050096Y025556D02*
X049989Y025449D01*
X049202Y025129D02*
X048989Y025342D01*
X039130Y025342D02*
X038489Y025342D01*
X038702Y025129D01*
X039130Y025129D02*
X039130Y025556D01*
X038130Y025556D02*
X038130Y025129D01*
X037702Y025556D01*
X037596Y025556D01*
X037489Y025449D01*
X037489Y025236D01*
X037596Y025129D01*
X037130Y025236D02*
X037023Y025129D01*
X037130Y025236D02*
X037130Y025449D01*
X037023Y025556D01*
X036916Y025556D01*
X036809Y025449D01*
X036809Y025342D01*
X036809Y025449D02*
X036702Y025556D01*
X036596Y025556D01*
X036489Y025449D01*
X036489Y025236D01*
X036596Y025129D01*
X036130Y025129D02*
X036130Y025449D01*
X036023Y025556D01*
X035596Y025556D01*
X035489Y025449D01*
X035489Y025129D01*
X036130Y025129D01*
X036489Y024698D02*
X036702Y024484D01*
X037489Y024698D02*
X037702Y024484D01*
X038489Y024698D02*
X038702Y024484D01*
D12*
X034000Y024477D02*
X034000Y024303D01*
X033913Y024216D01*
X033739Y024303D02*
X033739Y024477D01*
X033826Y024563D01*
X033913Y024563D01*
X034000Y024477D01*
X033913Y024732D02*
X033566Y024732D01*
X033479Y024819D01*
X033479Y024992D01*
X033566Y025079D01*
X033479Y025248D02*
X034000Y025248D01*
X034000Y025595D01*
X033913Y025079D02*
X034000Y024992D01*
X034000Y024819D01*
X033913Y024732D01*
X033566Y024563D02*
X033479Y024477D01*
X033479Y024303D01*
X033566Y024216D01*
X033653Y024216D01*
X033739Y024303D01*
X033000Y024303D02*
X033000Y024477D01*
X032913Y024563D01*
X032826Y024563D01*
X032739Y024477D01*
X032739Y024303D01*
X032653Y024216D01*
X032566Y024216D01*
X032479Y024303D01*
X032479Y024477D01*
X032566Y024563D01*
X032479Y024732D02*
X032479Y024992D01*
X032566Y025079D01*
X032913Y025079D01*
X033000Y024992D01*
X033000Y024732D01*
X032479Y024732D01*
X032653Y025248D02*
X032479Y025421D01*
X032653Y025595D01*
X033000Y025595D01*
X032739Y025595D02*
X032739Y025248D01*
X032653Y025248D02*
X033000Y025248D01*
X033000Y024303D02*
X032913Y024216D01*
X036529Y021910D02*
X036836Y021603D01*
X036759Y021680D02*
X036990Y021910D01*
X036990Y021603D02*
X036529Y021603D01*
X036606Y021449D02*
X036529Y021373D01*
X036529Y021219D01*
X036606Y021143D01*
X036913Y021143D01*
X036990Y021219D01*
X036990Y021373D01*
X036913Y021449D01*
X037529Y021373D02*
X037529Y021219D01*
X037606Y021143D01*
X037683Y021143D01*
X037759Y021219D01*
X037759Y021373D01*
X037836Y021449D01*
X037913Y021449D01*
X037990Y021373D01*
X037990Y021219D01*
X037913Y021143D01*
X037990Y020989D02*
X037990Y020836D01*
X037990Y020912D02*
X037529Y020912D01*
X037529Y020836D02*
X037529Y020989D01*
X037529Y020682D02*
X037990Y020682D01*
X037990Y020375D02*
X037529Y020375D01*
X037683Y020529D01*
X037529Y020682D01*
X036990Y020759D02*
X036913Y020682D01*
X036990Y020759D02*
X036990Y020912D01*
X036913Y020989D01*
X036836Y020989D01*
X036759Y020912D01*
X036759Y020759D01*
X036683Y020682D01*
X036606Y020682D01*
X036529Y020759D01*
X036529Y020912D01*
X036606Y020989D01*
X037529Y021373D02*
X037606Y021449D01*
X037606Y021603D02*
X037913Y021603D01*
X037990Y021680D01*
X037990Y021833D01*
X037913Y021910D01*
X037606Y021910D01*
X037529Y021833D01*
X037529Y021680D01*
X037606Y021603D01*
X038529Y021526D02*
X038529Y021373D01*
X038606Y021296D01*
X038683Y021296D01*
X038759Y021373D01*
X038759Y021526D01*
X038836Y021603D01*
X038913Y021603D01*
X038990Y021526D01*
X038990Y021373D01*
X038913Y021296D01*
X038913Y021143D02*
X038606Y021143D01*
X038529Y021066D01*
X038529Y020912D01*
X038606Y020836D01*
X038913Y020836D01*
X038990Y020912D01*
X038990Y021066D01*
X038913Y021143D01*
X038529Y021526D02*
X038606Y021603D01*
X038529Y021756D02*
X038529Y021910D01*
X038529Y021833D02*
X038990Y021833D01*
X038990Y021756D02*
X038990Y021910D01*
X039554Y021854D02*
X039554Y021717D01*
X039623Y021649D01*
X039691Y021649D01*
X039759Y021717D01*
X039759Y021854D01*
X039828Y021923D01*
X039896Y021923D01*
X039965Y021854D01*
X039965Y021717D01*
X039896Y021649D01*
X039896Y021508D02*
X039965Y021440D01*
X039965Y021303D01*
X039896Y021235D01*
X039623Y021235D01*
X039554Y021303D01*
X039554Y021440D01*
X039623Y021508D01*
X039554Y021854D02*
X039623Y021923D01*
X040554Y021854D02*
X040623Y021923D01*
X040896Y021649D01*
X040965Y021717D01*
X040965Y021854D01*
X040896Y021923D01*
X040623Y021923D01*
X040554Y021854D02*
X040554Y021717D01*
X040623Y021649D01*
X040896Y021649D01*
X040965Y021508D02*
X040691Y021508D01*
X040554Y021371D01*
X040691Y021235D01*
X040965Y021235D01*
X041033Y021094D02*
X041033Y020820D01*
X040896Y020679D02*
X040623Y020679D01*
X040554Y020611D01*
X040554Y020406D01*
X040965Y020406D01*
X040965Y020611D01*
X040896Y020679D01*
X040896Y020265D02*
X040965Y020197D01*
X040965Y020060D01*
X040896Y019992D01*
X040623Y019992D01*
X040554Y020060D01*
X040554Y020197D01*
X040623Y020265D01*
X040965Y019851D02*
X040965Y019577D01*
X040554Y019577D01*
X039965Y020060D02*
X039896Y019992D01*
X039965Y020060D02*
X039965Y020197D01*
X039896Y020265D01*
X039828Y020265D01*
X039759Y020197D01*
X039759Y020060D01*
X039691Y019992D01*
X039623Y019992D01*
X039554Y020060D01*
X039554Y020197D01*
X039623Y020265D01*
X039554Y020406D02*
X039554Y020611D01*
X039623Y020679D01*
X039896Y020679D01*
X039965Y020611D01*
X039965Y020406D01*
X039554Y020406D01*
X038990Y020375D02*
X038529Y020375D01*
X038683Y020529D01*
X038529Y020682D01*
X038990Y020682D01*
X040033Y020820D02*
X040033Y021094D01*
X040759Y021235D02*
X040759Y021508D01*
X041554Y021440D02*
X041554Y021303D01*
X041623Y021235D01*
X041691Y021235D01*
X041759Y021303D01*
X041759Y021440D01*
X041828Y021508D01*
X041896Y021508D01*
X041965Y021440D01*
X041965Y021303D01*
X041896Y021235D01*
X041965Y021094D02*
X041828Y020957D01*
X041828Y021025D02*
X041828Y020820D01*
X041965Y020820D02*
X041554Y020820D01*
X041554Y021025D01*
X041623Y021094D01*
X041759Y021094D01*
X041828Y021025D01*
X042033Y020679D02*
X042033Y020406D01*
X041896Y020265D02*
X041623Y020265D01*
X041554Y020197D01*
X041554Y019992D01*
X041965Y019992D01*
X041965Y020197D01*
X041896Y020265D01*
X041896Y019851D02*
X041965Y019782D01*
X041965Y019646D01*
X041896Y019577D01*
X041623Y019577D01*
X041554Y019646D01*
X041554Y019782D01*
X041623Y019851D01*
X041965Y019436D02*
X041965Y019163D01*
X041554Y019163D01*
X043054Y019577D02*
X043465Y019577D01*
X043465Y019851D01*
X043396Y019992D02*
X043465Y020060D01*
X043465Y020197D01*
X043396Y020265D01*
X043465Y020406D02*
X043054Y020406D01*
X043054Y020611D01*
X043123Y020679D01*
X043396Y020679D01*
X043465Y020611D01*
X043465Y020406D01*
X043123Y020265D02*
X043054Y020197D01*
X043054Y020060D01*
X043123Y019992D01*
X043396Y019992D01*
X044054Y020060D02*
X044123Y019992D01*
X044396Y019992D01*
X044465Y020060D01*
X044465Y020197D01*
X044396Y020265D01*
X044465Y020406D02*
X044054Y020406D01*
X044054Y020611D01*
X044123Y020679D01*
X044396Y020679D01*
X044465Y020611D01*
X044465Y020406D01*
X044123Y020265D02*
X044054Y020197D01*
X044054Y020060D01*
X044465Y019851D02*
X044465Y019577D01*
X044054Y019577D01*
X045029Y020298D02*
X045106Y020222D01*
X045183Y020222D01*
X045259Y020298D01*
X045259Y020452D01*
X045336Y020529D01*
X045413Y020529D01*
X045490Y020452D01*
X045490Y020298D01*
X045413Y020222D01*
X045029Y020298D02*
X045029Y020452D01*
X045106Y020529D01*
X045029Y020682D02*
X045490Y020682D01*
X045336Y020836D01*
X045490Y020989D01*
X045029Y020989D01*
X044533Y021094D02*
X044533Y020820D01*
X044465Y021235D02*
X044054Y021235D01*
X044054Y021440D01*
X044123Y021508D01*
X044191Y021508D01*
X044259Y021440D01*
X044259Y021235D01*
X044259Y021440D02*
X044328Y021508D01*
X044396Y021508D01*
X044465Y021440D01*
X044465Y021235D01*
X044465Y021649D02*
X044054Y021649D01*
X044465Y021649D02*
X044465Y021923D01*
X045029Y021833D02*
X045029Y021603D01*
X045490Y021603D01*
X045490Y021833D01*
X045413Y021910D01*
X045336Y021910D01*
X045259Y021833D01*
X045259Y021603D01*
X045259Y021833D02*
X045183Y021910D01*
X045106Y021910D01*
X045029Y021833D01*
X045566Y021449D02*
X045566Y021143D01*
X046029Y020989D02*
X046490Y020989D01*
X046336Y020836D01*
X046490Y020682D01*
X046029Y020682D01*
X046106Y020529D02*
X046029Y020452D01*
X046029Y020298D01*
X046106Y020222D01*
X046183Y020222D01*
X046259Y020298D01*
X046259Y020452D01*
X046336Y020529D01*
X046413Y020529D01*
X046490Y020452D01*
X046490Y020298D01*
X046413Y020222D01*
X046566Y021143D02*
X046566Y021449D01*
X046490Y021603D02*
X046183Y021603D01*
X046029Y021756D01*
X046183Y021910D01*
X046490Y021910D01*
X046259Y021910D02*
X046259Y021603D01*
X043533Y021094D02*
X043533Y020820D01*
X043396Y021235D02*
X043123Y021235D01*
X043054Y021303D01*
X043054Y021440D01*
X043123Y021508D01*
X043123Y021649D02*
X043191Y021649D01*
X043259Y021717D01*
X043259Y021854D01*
X043328Y021923D01*
X043396Y021923D01*
X043465Y021854D01*
X043465Y021717D01*
X043396Y021649D01*
X043396Y021508D02*
X043465Y021440D01*
X043465Y021303D01*
X043396Y021235D01*
X043123Y021649D02*
X043054Y021717D01*
X043054Y021854D01*
X043123Y021923D01*
X041965Y021786D02*
X041554Y021786D01*
X041554Y021649D02*
X041554Y021923D01*
X041623Y021508D02*
X041554Y021440D01*
X048106Y014251D02*
X048029Y014175D01*
X048029Y014021D01*
X048106Y013944D01*
X048413Y013944D01*
X048490Y014021D01*
X048490Y014175D01*
X048413Y014251D01*
X048566Y013791D02*
X048566Y013484D01*
X048490Y013331D02*
X048029Y013331D01*
X048029Y013024D02*
X048490Y013024D01*
X048336Y013177D01*
X048490Y013331D01*
X048413Y012870D02*
X048490Y012794D01*
X048490Y012640D01*
X048413Y012563D01*
X048259Y012640D02*
X048259Y012794D01*
X048336Y012870D01*
X048413Y012870D01*
X048259Y012640D02*
X048183Y012563D01*
X048106Y012563D01*
X048029Y012640D01*
X048029Y012794D01*
X048106Y012870D01*
X047566Y012791D02*
X047566Y012484D01*
X047490Y012331D02*
X047029Y012331D01*
X047029Y012024D02*
X047490Y012024D01*
X047336Y012177D01*
X047490Y012331D01*
X047413Y011870D02*
X047490Y011794D01*
X047490Y011640D01*
X047413Y011563D01*
X047259Y011640D02*
X047259Y011794D01*
X047336Y011870D01*
X047413Y011870D01*
X047259Y011640D02*
X047183Y011563D01*
X047106Y011563D01*
X047029Y011640D01*
X047029Y011794D01*
X047106Y011870D01*
X046490Y011794D02*
X046490Y011640D01*
X046413Y011563D01*
X046259Y011640D02*
X046259Y011794D01*
X046336Y011870D01*
X046413Y011870D01*
X046490Y011794D01*
X046490Y012024D02*
X046336Y012177D01*
X046490Y012331D01*
X046029Y012331D01*
X046029Y012024D02*
X046490Y012024D01*
X046106Y011870D02*
X046029Y011794D01*
X046029Y011640D01*
X046106Y011563D01*
X046183Y011563D01*
X046259Y011640D01*
X045490Y011640D02*
X045413Y011563D01*
X045490Y011640D02*
X045490Y011794D01*
X045413Y011870D01*
X045336Y011870D01*
X045259Y011794D01*
X045259Y011640D01*
X045183Y011563D01*
X045106Y011563D01*
X045029Y011640D01*
X045029Y011794D01*
X045106Y011870D01*
X045029Y012024D02*
X045490Y012024D01*
X045336Y012177D01*
X045490Y012331D01*
X045029Y012331D01*
X045566Y012484D02*
X045566Y012791D01*
X045490Y012944D02*
X045029Y012944D01*
X045029Y013251D01*
X045259Y013098D02*
X045259Y012944D01*
X046029Y012944D02*
X046029Y013251D01*
X046259Y013098D02*
X046259Y012944D01*
X046029Y012944D02*
X046490Y012944D01*
X046490Y013251D01*
X046566Y012791D02*
X046566Y012484D01*
X047029Y012944D02*
X047029Y013175D01*
X047106Y013251D01*
X047413Y013251D01*
X047490Y013175D01*
X047490Y012944D01*
X047029Y012944D01*
D13*
X044482Y014458D02*
X044482Y014705D01*
X044482Y014582D02*
X044606Y014705D01*
X044668Y014705D01*
X044361Y014643D02*
X044299Y014705D01*
X044176Y014705D01*
X044114Y014643D01*
X044114Y014520D01*
X044176Y014458D01*
X044299Y014458D01*
X044361Y014520D01*
X044361Y014643D01*
X043992Y014705D02*
X043869Y014705D01*
X043930Y014767D02*
X043930Y014520D01*
X043992Y014458D01*
X043747Y014520D02*
X043685Y014582D01*
X043562Y014582D01*
X043500Y014643D01*
X043562Y014705D01*
X043747Y014705D01*
X043747Y014520D02*
X043685Y014458D01*
X043500Y014458D01*
X043378Y014458D02*
X043255Y014458D01*
X043316Y014458D02*
X043316Y014705D01*
X043255Y014705D01*
X043133Y014705D02*
X042948Y014705D01*
X042886Y014643D01*
X042948Y014582D01*
X043072Y014582D01*
X043133Y014520D01*
X043072Y014458D01*
X042886Y014458D01*
X042765Y014458D02*
X042765Y014643D01*
X042703Y014705D01*
X042518Y014705D01*
X042518Y014458D01*
X042397Y014458D02*
X042211Y014458D01*
X042150Y014520D01*
X042211Y014582D01*
X042397Y014582D01*
X042397Y014643D02*
X042397Y014458D01*
X042397Y014643D02*
X042335Y014705D01*
X042211Y014705D01*
X042028Y014705D02*
X041966Y014705D01*
X041843Y014582D01*
X041843Y014705D02*
X041843Y014458D01*
X041598Y014458D02*
X041598Y014829D01*
X041475Y014829D02*
X041721Y014829D01*
X043316Y014829D02*
X043316Y014890D01*
X041258Y013367D02*
X041258Y013305D01*
X041196Y013243D01*
X041258Y013182D01*
X041258Y013120D01*
X041196Y013058D01*
X041073Y013058D01*
X041011Y013120D01*
X040890Y013058D02*
X040766Y013182D01*
X040828Y013182D02*
X040643Y013182D01*
X040521Y013182D02*
X040521Y013120D01*
X040460Y013058D01*
X040336Y013058D01*
X040275Y013120D01*
X040398Y013243D02*
X040460Y013243D01*
X040521Y013182D01*
X040460Y013243D02*
X040521Y013305D01*
X040521Y013367D01*
X040460Y013429D01*
X040336Y013429D01*
X040275Y013367D01*
X040643Y013429D02*
X040828Y013429D01*
X040890Y013367D01*
X040890Y013243D01*
X040828Y013182D01*
X040643Y013058D02*
X040643Y013429D01*
X041011Y013367D02*
X041073Y013429D01*
X041196Y013429D01*
X041258Y013367D01*
X041196Y013243D02*
X041135Y013243D01*
X047275Y015558D02*
X047521Y015558D01*
X047398Y015558D02*
X047398Y015929D01*
X047275Y015805D01*
X047643Y015867D02*
X047643Y015620D01*
X047890Y015867D01*
X047890Y015620D01*
X047828Y015558D01*
X047705Y015558D01*
X047643Y015620D01*
X047643Y015867D02*
X047705Y015929D01*
X047828Y015929D01*
X047890Y015867D01*
X048011Y015929D02*
X048011Y015558D01*
X048011Y015682D02*
X048196Y015805D01*
X048011Y015682D02*
X048196Y015558D01*
X048196Y017558D02*
X048011Y017682D01*
X048196Y017805D01*
X048011Y017929D02*
X048011Y017558D01*
X047890Y017620D02*
X047828Y017558D01*
X047705Y017558D01*
X047643Y017620D01*
X047890Y017867D01*
X047890Y017620D01*
X047890Y017867D02*
X047828Y017929D01*
X047705Y017929D01*
X047643Y017867D01*
X047643Y017620D01*
X047521Y017558D02*
X047275Y017558D01*
X047398Y017558D02*
X047398Y017929D01*
X047275Y017805D01*
X047275Y019558D02*
X047521Y019558D01*
X047398Y019558D02*
X047398Y019929D01*
X047275Y019805D01*
X047643Y019867D02*
X047643Y019620D01*
X047890Y019867D01*
X047890Y019620D01*
X047828Y019558D01*
X047705Y019558D01*
X047643Y019620D01*
X047643Y019867D02*
X047705Y019929D01*
X047828Y019929D01*
X047890Y019867D01*
X048011Y019929D02*
X048011Y019558D01*
X048011Y019682D02*
X048196Y019805D01*
X048011Y019682D02*
X048196Y019558D01*
X044195Y018829D02*
X043948Y018829D01*
X043948Y018458D01*
X043826Y018458D02*
X043826Y018643D01*
X043765Y018705D01*
X043579Y018705D01*
X043579Y018458D01*
X043458Y018520D02*
X043396Y018458D01*
X043273Y018458D01*
X043211Y018520D01*
X043458Y018767D01*
X043458Y018520D01*
X043211Y018520D02*
X043211Y018767D01*
X043273Y018829D01*
X043396Y018829D01*
X043458Y018767D01*
X043090Y018767D02*
X042843Y018520D01*
X042905Y018458D01*
X043028Y018458D01*
X043090Y018520D01*
X043090Y018767D01*
X043028Y018829D01*
X042905Y018829D01*
X042843Y018767D01*
X042843Y018520D01*
X042721Y018458D02*
X042475Y018458D01*
X042598Y018458D02*
X042598Y018829D01*
X042475Y018705D01*
X042548Y017929D02*
X042795Y017929D01*
X042671Y017743D02*
X042548Y017743D01*
X042426Y017743D02*
X042426Y017558D01*
X042548Y017558D02*
X042548Y017929D01*
X042365Y017805D02*
X042426Y017743D01*
X042365Y017805D02*
X042179Y017805D01*
X042179Y017558D01*
X042058Y017620D02*
X041996Y017558D01*
X041873Y017558D01*
X041811Y017620D01*
X042058Y017867D01*
X042058Y017620D01*
X041811Y017620D02*
X041811Y017867D01*
X041873Y017929D01*
X041996Y017929D01*
X042058Y017867D01*
X041690Y017867D02*
X041443Y017620D01*
X041505Y017558D01*
X041628Y017558D01*
X041690Y017620D01*
X041690Y017867D01*
X041628Y017929D01*
X041505Y017929D01*
X041443Y017867D01*
X041443Y017620D01*
X041321Y017558D02*
X041075Y017558D01*
X041198Y017558D02*
X041198Y017929D01*
X041075Y017805D01*
X039468Y019258D02*
X039344Y019382D01*
X039406Y019382D02*
X039221Y019382D01*
X039221Y019258D02*
X039221Y019629D01*
X039406Y019629D01*
X039468Y019567D01*
X039468Y019443D01*
X039406Y019382D01*
X039100Y019320D02*
X039100Y019567D01*
X039038Y019629D01*
X038853Y019629D01*
X038853Y019258D01*
X039038Y019258D01*
X039100Y019320D01*
X038731Y019443D02*
X038484Y019443D01*
X038670Y019629D01*
X038670Y019258D01*
X038363Y019320D02*
X038301Y019258D01*
X038178Y019258D01*
X038116Y019320D01*
X038363Y019567D01*
X038363Y019320D01*
X038363Y019567D02*
X038301Y019629D01*
X038178Y019629D01*
X038116Y019567D01*
X038116Y019320D01*
X037995Y019258D02*
X037748Y019258D01*
X037871Y019258D02*
X037871Y019629D01*
X037748Y019505D01*
X037626Y019567D02*
X037379Y019320D01*
X037441Y019258D01*
X037565Y019258D01*
X037626Y019320D01*
X037626Y019567D01*
X037565Y019629D01*
X037441Y019629D01*
X037379Y019567D01*
X037379Y019320D01*
X037258Y019320D02*
X037196Y019258D01*
X037011Y019258D01*
X037011Y019629D01*
X037196Y019629D01*
X037258Y019567D01*
X037258Y019505D01*
X037196Y019443D01*
X037011Y019443D01*
X037196Y019443D02*
X037258Y019382D01*
X037258Y019320D01*
X036890Y019258D02*
X036643Y019629D01*
X036521Y019629D02*
X036275Y019629D01*
X036398Y019629D02*
X036398Y019258D01*
X036643Y019258D02*
X036890Y019629D01*
X035468Y019567D02*
X035468Y019443D01*
X035406Y019382D01*
X035221Y019382D01*
X035344Y019382D02*
X035468Y019258D01*
X035221Y019258D02*
X035221Y019629D01*
X035406Y019629D01*
X035468Y019567D01*
X035100Y019567D02*
X035100Y019320D01*
X035038Y019258D01*
X034853Y019258D01*
X034853Y019629D01*
X035038Y019629D01*
X035100Y019567D01*
X034731Y019443D02*
X034484Y019443D01*
X034670Y019629D01*
X034670Y019258D01*
X034363Y019320D02*
X034363Y019567D01*
X034116Y019320D01*
X034178Y019258D01*
X034301Y019258D01*
X034363Y019320D01*
X034363Y019567D02*
X034301Y019629D01*
X034178Y019629D01*
X034116Y019567D01*
X034116Y019320D01*
X033995Y019258D02*
X033748Y019258D01*
X033871Y019258D02*
X033871Y019629D01*
X033748Y019505D01*
X033626Y019567D02*
X033379Y019320D01*
X033441Y019258D01*
X033565Y019258D01*
X033626Y019320D01*
X033626Y019567D01*
X033565Y019629D01*
X033441Y019629D01*
X033379Y019567D01*
X033379Y019320D01*
X033258Y019320D02*
X033258Y019382D01*
X033196Y019443D01*
X033011Y019443D01*
X033011Y019258D02*
X033011Y019629D01*
X033196Y019629D01*
X033258Y019567D01*
X033258Y019505D01*
X033196Y019443D01*
X033258Y019320D02*
X033196Y019258D01*
X033011Y019258D01*
X032890Y019258D02*
X032643Y019629D01*
X032521Y019629D02*
X032275Y019629D01*
X032398Y019629D02*
X032398Y019258D01*
X032643Y019258D02*
X032890Y019629D01*
X030695Y019929D02*
X030448Y019929D01*
X030448Y019558D01*
X030326Y019558D02*
X030326Y019743D01*
X030265Y019805D01*
X030079Y019805D01*
X030079Y019558D01*
X029958Y019620D02*
X029896Y019558D01*
X029773Y019558D01*
X029711Y019620D01*
X029958Y019867D01*
X029958Y019620D01*
X029711Y019620D02*
X029711Y019867D01*
X029773Y019929D01*
X029896Y019929D01*
X029958Y019867D01*
X029590Y019867D02*
X029343Y019620D01*
X029405Y019558D01*
X029528Y019558D01*
X029590Y019620D01*
X029590Y019867D01*
X029528Y019929D01*
X029405Y019929D01*
X029343Y019867D01*
X029343Y019620D01*
X029221Y019558D02*
X028975Y019558D01*
X029098Y019558D02*
X029098Y019929D01*
X028975Y019805D01*
X030448Y019743D02*
X030571Y019743D01*
X030448Y018429D02*
X030695Y018429D01*
X030571Y018243D02*
X030448Y018243D01*
X030326Y018243D02*
X030326Y018058D01*
X030448Y018058D02*
X030448Y018429D01*
X030265Y018305D02*
X030079Y018305D01*
X030079Y018058D01*
X029958Y018120D02*
X029896Y018058D01*
X029773Y018058D01*
X029711Y018120D01*
X029958Y018367D01*
X029958Y018120D01*
X029711Y018120D02*
X029711Y018367D01*
X029773Y018429D01*
X029896Y018429D01*
X029958Y018367D01*
X030265Y018305D02*
X030326Y018243D01*
X029590Y018120D02*
X029528Y018058D01*
X029405Y018058D01*
X029343Y018120D01*
X029590Y018367D01*
X029590Y018120D01*
X029590Y018367D02*
X029528Y018429D01*
X029405Y018429D01*
X029343Y018367D01*
X029343Y018120D01*
X029221Y018058D02*
X028975Y018058D01*
X029098Y018058D02*
X029098Y018429D01*
X028975Y018305D01*
X029498Y015429D02*
X029498Y015058D01*
X029375Y015058D02*
X029621Y015058D01*
X029743Y015120D02*
X029805Y015058D01*
X029990Y015058D01*
X029990Y015305D01*
X030111Y015243D02*
X030235Y015243D01*
X030111Y015058D02*
X030111Y015429D01*
X030358Y015429D01*
X029743Y015305D02*
X029743Y015120D01*
X029498Y015429D02*
X029375Y015305D01*
X029498Y013929D02*
X029498Y013558D01*
X029375Y013558D02*
X029621Y013558D01*
X029743Y013620D02*
X029805Y013558D01*
X029990Y013558D01*
X029990Y013805D01*
X030111Y013743D02*
X030235Y013743D01*
X030111Y013558D02*
X030111Y013929D01*
X030358Y013929D01*
X029743Y013805D02*
X029743Y013620D01*
X029498Y013929D02*
X029375Y013805D01*
X024695Y013929D02*
X024448Y013929D01*
X024448Y013558D01*
X024326Y013558D02*
X024326Y013743D01*
X024265Y013805D01*
X024079Y013805D01*
X024079Y013558D01*
X023958Y013620D02*
X023958Y013867D01*
X023711Y013620D01*
X023773Y013558D01*
X023896Y013558D01*
X023958Y013620D01*
X023711Y013620D02*
X023711Y013867D01*
X023773Y013929D01*
X023896Y013929D01*
X023958Y013867D01*
X023590Y013867D02*
X023343Y013620D01*
X023405Y013558D01*
X023528Y013558D01*
X023590Y013620D01*
X023590Y013867D01*
X023528Y013929D01*
X023405Y013929D01*
X023343Y013867D01*
X023343Y013620D01*
X023221Y013558D02*
X022975Y013558D01*
X023098Y013558D02*
X023098Y013929D01*
X022975Y013805D01*
X024448Y013743D02*
X024571Y013743D01*
X023796Y015558D02*
X023611Y015682D01*
X023796Y015805D01*
X023611Y015929D02*
X023611Y015558D01*
X023490Y015620D02*
X023428Y015558D01*
X023305Y015558D01*
X023243Y015620D01*
X023490Y015867D01*
X023490Y015620D01*
X023490Y015867D02*
X023428Y015929D01*
X023305Y015929D01*
X023243Y015867D01*
X023243Y015620D01*
X023121Y015558D02*
X022875Y015558D01*
X022998Y015558D02*
X022998Y015929D01*
X022875Y015805D01*
X022875Y017558D02*
X023121Y017558D01*
X022998Y017558D02*
X022998Y017929D01*
X022875Y017805D01*
X023243Y017867D02*
X023305Y017929D01*
X023428Y017929D01*
X023490Y017867D01*
X023243Y017620D01*
X023305Y017558D01*
X023428Y017558D01*
X023490Y017620D01*
X023490Y017867D01*
X023611Y017929D02*
X023611Y017558D01*
X023611Y017682D02*
X023796Y017805D01*
X023611Y017682D02*
X023796Y017558D01*
X023243Y017620D02*
X023243Y017867D01*
X023305Y019558D02*
X023243Y019620D01*
X023490Y019867D01*
X023490Y019620D01*
X023428Y019558D01*
X023305Y019558D01*
X023243Y019620D02*
X023243Y019867D01*
X023305Y019929D01*
X023428Y019929D01*
X023490Y019867D01*
X023611Y019929D02*
X023611Y019558D01*
X023611Y019682D02*
X023796Y019805D01*
X023611Y019682D02*
X023796Y019558D01*
X023121Y019558D02*
X022875Y019558D01*
X022998Y019558D02*
X022998Y019929D01*
X022875Y019805D01*
X023675Y025058D02*
X023921Y025058D01*
X023798Y025058D02*
X023798Y025429D01*
X023675Y025305D01*
X024043Y025305D02*
X024043Y025120D01*
X024105Y025058D01*
X024290Y025058D01*
X024290Y025305D01*
X024411Y025243D02*
X024535Y025243D01*
X024411Y025058D02*
X024411Y025429D01*
X024658Y025429D01*
X025375Y025305D02*
X025498Y025429D01*
X025498Y025058D01*
X025375Y025058D02*
X025621Y025058D01*
X025743Y025120D02*
X025805Y025058D01*
X025990Y025058D01*
X025990Y025305D01*
X026111Y025243D02*
X026235Y025243D01*
X026111Y025058D02*
X026111Y025429D01*
X026358Y025429D01*
X025743Y025305D02*
X025743Y025120D01*
X029675Y025120D02*
X029736Y025058D01*
X029860Y025058D01*
X029921Y025120D01*
X029921Y025182D01*
X029860Y025243D01*
X029798Y025243D01*
X029860Y025243D02*
X029921Y025305D01*
X029921Y025367D01*
X029860Y025429D01*
X029736Y025429D01*
X029675Y025367D01*
X030043Y025429D02*
X030043Y025058D01*
X030043Y025182D02*
X030228Y025182D01*
X030290Y025243D01*
X030290Y025367D01*
X030228Y025429D01*
X030043Y025429D01*
X030166Y025182D02*
X030290Y025058D01*
X030411Y025120D02*
X030473Y025058D01*
X030596Y025058D01*
X030658Y025120D01*
X030658Y025182D01*
X030596Y025243D01*
X030535Y025243D01*
X030596Y025243D02*
X030658Y025305D01*
X030658Y025367D01*
X030596Y025429D01*
X030473Y025429D01*
X030411Y025367D01*
X043948Y018643D02*
X044071Y018643D01*
D14*
X047760Y019143D03*
X047760Y017143D03*
X047760Y015143D03*
X040760Y012643D03*
X023260Y015143D03*
X023260Y017143D03*
X023260Y019143D03*
X030160Y024643D03*
D15*
X018466Y009943D02*
X017253Y009943D01*
X016860Y010455D02*
X016860Y011431D01*
X017253Y011943D02*
X018466Y011943D01*
X018860Y011431D02*
X018860Y010443D01*
X017360Y010943D02*
X017362Y010987D01*
X017368Y011031D01*
X017378Y011074D01*
X017391Y011116D01*
X017408Y011157D01*
X017429Y011196D01*
X017453Y011233D01*
X017480Y011268D01*
X017510Y011300D01*
X017543Y011330D01*
X017579Y011356D01*
X017616Y011380D01*
X017656Y011399D01*
X017697Y011416D01*
X017740Y011428D01*
X017783Y011437D01*
X017827Y011442D01*
X017871Y011443D01*
X017915Y011440D01*
X017959Y011433D01*
X018002Y011422D01*
X018044Y011408D01*
X018084Y011390D01*
X018123Y011368D01*
X018159Y011344D01*
X018193Y011316D01*
X018225Y011285D01*
X018254Y011251D01*
X018280Y011215D01*
X018302Y011177D01*
X018321Y011137D01*
X018336Y011095D01*
X018348Y011053D01*
X018356Y011009D01*
X018360Y010965D01*
X018360Y010921D01*
X018356Y010877D01*
X018348Y010833D01*
X018336Y010791D01*
X018321Y010749D01*
X018302Y010709D01*
X018280Y010671D01*
X018254Y010635D01*
X018225Y010601D01*
X018193Y010570D01*
X018159Y010542D01*
X018123Y010518D01*
X018084Y010496D01*
X018044Y010478D01*
X018002Y010464D01*
X017959Y010453D01*
X017915Y010446D01*
X017871Y010443D01*
X017827Y010444D01*
X017783Y010449D01*
X017740Y010458D01*
X017697Y010470D01*
X017656Y010487D01*
X017616Y010506D01*
X017579Y010530D01*
X017543Y010556D01*
X017510Y010586D01*
X017480Y010618D01*
X017453Y010653D01*
X017429Y010690D01*
X017408Y010729D01*
X017391Y010770D01*
X017378Y010812D01*
X017368Y010855D01*
X017362Y010899D01*
X017360Y010943D01*
X017253Y015643D02*
X018466Y015643D01*
X018860Y016143D02*
X018860Y017131D01*
X018466Y017643D02*
X017253Y017643D01*
X016860Y017131D02*
X016860Y016155D01*
X017360Y016643D02*
X017362Y016687D01*
X017368Y016731D01*
X017378Y016774D01*
X017391Y016816D01*
X017408Y016857D01*
X017429Y016896D01*
X017453Y016933D01*
X017480Y016968D01*
X017510Y017000D01*
X017543Y017030D01*
X017579Y017056D01*
X017616Y017080D01*
X017656Y017099D01*
X017697Y017116D01*
X017740Y017128D01*
X017783Y017137D01*
X017827Y017142D01*
X017871Y017143D01*
X017915Y017140D01*
X017959Y017133D01*
X018002Y017122D01*
X018044Y017108D01*
X018084Y017090D01*
X018123Y017068D01*
X018159Y017044D01*
X018193Y017016D01*
X018225Y016985D01*
X018254Y016951D01*
X018280Y016915D01*
X018302Y016877D01*
X018321Y016837D01*
X018336Y016795D01*
X018348Y016753D01*
X018356Y016709D01*
X018360Y016665D01*
X018360Y016621D01*
X018356Y016577D01*
X018348Y016533D01*
X018336Y016491D01*
X018321Y016449D01*
X018302Y016409D01*
X018280Y016371D01*
X018254Y016335D01*
X018225Y016301D01*
X018193Y016270D01*
X018159Y016242D01*
X018123Y016218D01*
X018084Y016196D01*
X018044Y016178D01*
X018002Y016164D01*
X017959Y016153D01*
X017915Y016146D01*
X017871Y016143D01*
X017827Y016144D01*
X017783Y016149D01*
X017740Y016158D01*
X017697Y016170D01*
X017656Y016187D01*
X017616Y016206D01*
X017579Y016230D01*
X017543Y016256D01*
X017510Y016286D01*
X017480Y016318D01*
X017453Y016353D01*
X017429Y016390D01*
X017408Y016429D01*
X017391Y016470D01*
X017378Y016512D01*
X017368Y016555D01*
X017362Y016599D01*
X017360Y016643D01*
X024189Y020423D02*
X030330Y020423D01*
X030330Y020777D01*
X030212Y020777D01*
X030212Y020895D01*
X024307Y020895D01*
X024307Y020777D01*
X024189Y020777D01*
X024189Y020423D01*
X024189Y020895D02*
X024189Y021553D01*
X024189Y020895D02*
X024307Y020895D01*
X025015Y020777D02*
X025094Y020620D01*
X025173Y020777D01*
X025015Y020777D01*
X025032Y020744D02*
X025156Y020744D01*
X025117Y020666D02*
X025071Y020666D01*
X024858Y022628D02*
X024189Y022628D01*
X024010Y025643D02*
X024260Y025893D01*
X024510Y025643D01*
X025010Y025643D01*
X025260Y025893D01*
X025510Y025643D01*
X026010Y025643D01*
X026260Y025893D01*
X026510Y025643D01*
X027010Y025643D01*
X027260Y025893D01*
X027510Y025643D01*
X028010Y025643D01*
X028260Y025893D01*
X028510Y025643D01*
X029010Y025643D01*
X029260Y025893D01*
X029510Y025643D01*
X030010Y025643D01*
X030260Y025893D01*
X030510Y025643D01*
X031010Y025643D01*
X031260Y025893D01*
X031260Y026393D01*
X031010Y026643D01*
X030510Y026643D01*
X030260Y026393D01*
X030010Y026643D01*
X029510Y026643D01*
X029260Y026393D01*
X029010Y026643D01*
X028510Y026643D01*
X028260Y026393D01*
X028010Y026643D01*
X027510Y026643D01*
X027260Y026393D01*
X027010Y026643D01*
X026510Y026643D01*
X026260Y026393D01*
X026010Y026643D01*
X025510Y026643D01*
X025260Y026393D01*
X025010Y026643D01*
X024510Y026643D01*
X024260Y026393D01*
X024010Y026643D01*
X023510Y026643D01*
X023260Y026393D01*
X023260Y025893D01*
X023510Y025643D01*
X024010Y025643D01*
X018860Y022831D02*
X018860Y021855D01*
X018466Y021343D02*
X017253Y021343D01*
X016860Y021855D02*
X016860Y022843D01*
X017253Y023343D02*
X018466Y023343D01*
X017360Y022343D02*
X017362Y022387D01*
X017368Y022431D01*
X017378Y022474D01*
X017391Y022516D01*
X017408Y022557D01*
X017429Y022596D01*
X017453Y022633D01*
X017480Y022668D01*
X017510Y022700D01*
X017543Y022730D01*
X017579Y022756D01*
X017616Y022780D01*
X017656Y022799D01*
X017697Y022816D01*
X017740Y022828D01*
X017783Y022837D01*
X017827Y022842D01*
X017871Y022843D01*
X017915Y022840D01*
X017959Y022833D01*
X018002Y022822D01*
X018044Y022808D01*
X018084Y022790D01*
X018123Y022768D01*
X018159Y022744D01*
X018193Y022716D01*
X018225Y022685D01*
X018254Y022651D01*
X018280Y022615D01*
X018302Y022577D01*
X018321Y022537D01*
X018336Y022495D01*
X018348Y022453D01*
X018356Y022409D01*
X018360Y022365D01*
X018360Y022321D01*
X018356Y022277D01*
X018348Y022233D01*
X018336Y022191D01*
X018321Y022149D01*
X018302Y022109D01*
X018280Y022071D01*
X018254Y022035D01*
X018225Y022001D01*
X018193Y021970D01*
X018159Y021942D01*
X018123Y021918D01*
X018084Y021896D01*
X018044Y021878D01*
X018002Y021864D01*
X017959Y021853D01*
X017915Y021846D01*
X017871Y021843D01*
X017827Y021844D01*
X017783Y021849D01*
X017740Y021858D01*
X017697Y021870D01*
X017656Y021887D01*
X017616Y021906D01*
X017579Y021930D01*
X017543Y021956D01*
X017510Y021986D01*
X017480Y022018D01*
X017453Y022053D01*
X017429Y022090D01*
X017408Y022129D01*
X017391Y022170D01*
X017378Y022212D01*
X017368Y022255D01*
X017362Y022299D01*
X017360Y022343D01*
X029661Y022628D02*
X030330Y022628D01*
X030330Y021553D02*
X030330Y020895D01*
X030212Y020895D01*
X032366Y022428D02*
X032366Y023058D01*
X032366Y023059D02*
X032371Y023075D01*
X032379Y023091D01*
X032389Y023105D01*
X032401Y023117D01*
X032416Y023127D01*
X032432Y023134D01*
X032449Y023138D01*
X032466Y023139D01*
X032484Y023137D01*
X033035Y023137D02*
X033053Y023139D01*
X033070Y023138D01*
X033087Y023134D01*
X033103Y023127D01*
X033118Y023117D01*
X033130Y023105D01*
X033140Y023091D01*
X033148Y023075D01*
X033153Y023059D01*
X033153Y023058D02*
X033153Y022428D01*
X033148Y022412D01*
X033140Y022396D01*
X033130Y022382D01*
X033118Y022370D01*
X033103Y022360D01*
X033087Y022353D01*
X033070Y022349D01*
X033053Y022348D01*
X033035Y022350D01*
X033366Y022428D02*
X033366Y023058D01*
X033366Y023059D02*
X033371Y023075D01*
X033379Y023091D01*
X033389Y023105D01*
X033401Y023117D01*
X033416Y023127D01*
X033432Y023134D01*
X033449Y023138D01*
X033466Y023139D01*
X033484Y023137D01*
X034035Y023137D02*
X034053Y023139D01*
X034070Y023138D01*
X034087Y023134D01*
X034103Y023127D01*
X034118Y023117D01*
X034130Y023105D01*
X034140Y023091D01*
X034148Y023075D01*
X034153Y023059D01*
X034153Y023058D02*
X034153Y022428D01*
X034148Y022412D01*
X034140Y022396D01*
X034130Y022382D01*
X034118Y022370D01*
X034103Y022360D01*
X034087Y022353D01*
X034070Y022349D01*
X034053Y022348D01*
X034035Y022350D01*
X033484Y022350D02*
X033466Y022348D01*
X033449Y022349D01*
X033432Y022353D01*
X033416Y022360D01*
X033401Y022370D01*
X033389Y022382D01*
X033379Y022396D01*
X033371Y022412D01*
X033366Y022428D01*
X032484Y022350D02*
X032466Y022348D01*
X032449Y022349D01*
X032432Y022353D01*
X032416Y022360D01*
X032401Y022370D01*
X032389Y022382D01*
X032379Y022396D01*
X032371Y022412D01*
X032366Y022428D01*
X036366Y022928D02*
X036366Y023558D01*
X036366Y023559D02*
X036371Y023575D01*
X036379Y023591D01*
X036389Y023605D01*
X036401Y023617D01*
X036416Y023627D01*
X036432Y023634D01*
X036449Y023638D01*
X036466Y023639D01*
X036484Y023637D01*
X037035Y023637D02*
X037053Y023639D01*
X037070Y023638D01*
X037087Y023634D01*
X037103Y023627D01*
X037118Y023617D01*
X037130Y023605D01*
X037140Y023591D01*
X037148Y023575D01*
X037153Y023559D01*
X037153Y023558D02*
X037153Y022928D01*
X037148Y022912D01*
X037140Y022896D01*
X037130Y022882D01*
X037118Y022870D01*
X037103Y022860D01*
X037087Y022853D01*
X037070Y022849D01*
X037053Y022848D01*
X037035Y022850D01*
X037366Y022928D02*
X037366Y023558D01*
X037366Y023559D02*
X037371Y023575D01*
X037379Y023591D01*
X037389Y023605D01*
X037401Y023617D01*
X037416Y023627D01*
X037432Y023634D01*
X037449Y023638D01*
X037466Y023639D01*
X037484Y023637D01*
X038035Y023637D02*
X038053Y023639D01*
X038070Y023638D01*
X038087Y023634D01*
X038103Y023627D01*
X038118Y023617D01*
X038130Y023605D01*
X038140Y023591D01*
X038148Y023575D01*
X038153Y023559D01*
X038153Y023558D02*
X038153Y022928D01*
X038148Y022912D01*
X038140Y022896D01*
X038130Y022882D01*
X038118Y022870D01*
X038103Y022860D01*
X038087Y022853D01*
X038070Y022849D01*
X038053Y022848D01*
X038035Y022850D01*
X038366Y022928D02*
X038366Y023558D01*
X038366Y023559D02*
X038371Y023575D01*
X038379Y023591D01*
X038389Y023605D01*
X038401Y023617D01*
X038416Y023627D01*
X038432Y023634D01*
X038449Y023638D01*
X038466Y023639D01*
X038484Y023637D01*
X039035Y023637D02*
X039053Y023639D01*
X039070Y023638D01*
X039087Y023634D01*
X039103Y023627D01*
X039118Y023617D01*
X039130Y023605D01*
X039140Y023591D01*
X039148Y023575D01*
X039153Y023559D01*
X039153Y023558D02*
X039153Y022928D01*
X039148Y022912D01*
X039140Y022896D01*
X039130Y022882D01*
X039118Y022870D01*
X039103Y022860D01*
X039087Y022853D01*
X039070Y022849D01*
X039053Y022848D01*
X039035Y022850D01*
X039366Y022928D02*
X039366Y023558D01*
X039366Y023559D02*
X039371Y023575D01*
X039379Y023591D01*
X039389Y023605D01*
X039401Y023617D01*
X039416Y023627D01*
X039432Y023634D01*
X039449Y023638D01*
X039466Y023639D01*
X039484Y023637D01*
X040035Y023637D02*
X040053Y023639D01*
X040070Y023638D01*
X040087Y023634D01*
X040103Y023627D01*
X040118Y023617D01*
X040130Y023605D01*
X040140Y023591D01*
X040148Y023575D01*
X040153Y023559D01*
X040153Y023558D02*
X040153Y022928D01*
X040148Y022912D01*
X040140Y022896D01*
X040130Y022882D01*
X040118Y022870D01*
X040103Y022860D01*
X040087Y022853D01*
X040070Y022849D01*
X040053Y022848D01*
X040035Y022850D01*
X040366Y022928D02*
X040366Y023558D01*
X040366Y023559D02*
X040371Y023575D01*
X040379Y023591D01*
X040389Y023605D01*
X040401Y023617D01*
X040416Y023627D01*
X040432Y023634D01*
X040449Y023638D01*
X040466Y023639D01*
X040484Y023637D01*
X041035Y023637D02*
X041053Y023639D01*
X041070Y023638D01*
X041087Y023634D01*
X041103Y023627D01*
X041118Y023617D01*
X041130Y023605D01*
X041140Y023591D01*
X041148Y023575D01*
X041153Y023559D01*
X041153Y023558D02*
X041153Y022928D01*
X041148Y022912D01*
X041140Y022896D01*
X041130Y022882D01*
X041118Y022870D01*
X041103Y022860D01*
X041087Y022853D01*
X041070Y022849D01*
X041053Y022848D01*
X041035Y022850D01*
X041366Y022928D02*
X041366Y023558D01*
X041366Y023559D02*
X041371Y023575D01*
X041379Y023591D01*
X041389Y023605D01*
X041401Y023617D01*
X041416Y023627D01*
X041432Y023634D01*
X041449Y023638D01*
X041466Y023639D01*
X041484Y023637D01*
X042035Y023637D02*
X042053Y023639D01*
X042070Y023638D01*
X042087Y023634D01*
X042103Y023627D01*
X042118Y023617D01*
X042130Y023605D01*
X042140Y023591D01*
X042148Y023575D01*
X042153Y023559D01*
X042153Y023558D02*
X042153Y022928D01*
X042148Y022912D01*
X042140Y022896D01*
X042130Y022882D01*
X042118Y022870D01*
X042103Y022860D01*
X042087Y022853D01*
X042070Y022849D01*
X042053Y022848D01*
X042035Y022850D01*
X041484Y022850D02*
X041466Y022848D01*
X041449Y022849D01*
X041432Y022853D01*
X041416Y022860D01*
X041401Y022870D01*
X041389Y022882D01*
X041379Y022896D01*
X041371Y022912D01*
X041366Y022928D01*
X040484Y022850D02*
X040466Y022848D01*
X040449Y022849D01*
X040432Y022853D01*
X040416Y022860D01*
X040401Y022870D01*
X040389Y022882D01*
X040379Y022896D01*
X040371Y022912D01*
X040366Y022928D01*
X039484Y022850D02*
X039466Y022848D01*
X039449Y022849D01*
X039432Y022853D01*
X039416Y022860D01*
X039401Y022870D01*
X039389Y022882D01*
X039379Y022896D01*
X039371Y022912D01*
X039366Y022928D01*
X038484Y022850D02*
X038466Y022848D01*
X038449Y022849D01*
X038432Y022853D01*
X038416Y022860D01*
X038401Y022870D01*
X038389Y022882D01*
X038379Y022896D01*
X038371Y022912D01*
X038366Y022928D01*
X037484Y022850D02*
X037466Y022848D01*
X037449Y022849D01*
X037432Y022853D01*
X037416Y022860D01*
X037401Y022870D01*
X037389Y022882D01*
X037379Y022896D01*
X037371Y022912D01*
X037366Y022928D01*
X036484Y022850D02*
X036466Y022848D01*
X036449Y022849D01*
X036432Y022853D01*
X036416Y022860D01*
X036401Y022870D01*
X036389Y022882D01*
X036379Y022896D01*
X036371Y022912D01*
X036366Y022928D01*
X042866Y022928D02*
X042866Y023558D01*
X042866Y023559D02*
X042871Y023575D01*
X042879Y023591D01*
X042889Y023605D01*
X042901Y023617D01*
X042916Y023627D01*
X042932Y023634D01*
X042949Y023638D01*
X042966Y023639D01*
X042984Y023637D01*
X043535Y023637D02*
X043553Y023639D01*
X043570Y023638D01*
X043587Y023634D01*
X043603Y023627D01*
X043618Y023617D01*
X043630Y023605D01*
X043640Y023591D01*
X043648Y023575D01*
X043653Y023559D01*
X043653Y023558D02*
X043653Y022928D01*
X043648Y022912D01*
X043640Y022896D01*
X043630Y022882D01*
X043618Y022870D01*
X043603Y022860D01*
X043587Y022853D01*
X043570Y022849D01*
X043553Y022848D01*
X043535Y022850D01*
X043866Y022928D02*
X043866Y023558D01*
X043866Y023559D02*
X043871Y023575D01*
X043879Y023591D01*
X043889Y023605D01*
X043901Y023617D01*
X043916Y023627D01*
X043932Y023634D01*
X043949Y023638D01*
X043966Y023639D01*
X043984Y023637D01*
X044535Y023637D02*
X044553Y023639D01*
X044570Y023638D01*
X044587Y023634D01*
X044603Y023627D01*
X044618Y023617D01*
X044630Y023605D01*
X044640Y023591D01*
X044648Y023575D01*
X044653Y023559D01*
X044653Y023558D02*
X044653Y022928D01*
X044648Y022912D01*
X044640Y022896D01*
X044630Y022882D01*
X044618Y022870D01*
X044603Y022860D01*
X044587Y022853D01*
X044570Y022849D01*
X044553Y022848D01*
X044535Y022850D01*
X044866Y022928D02*
X044866Y023558D01*
X044866Y023559D02*
X044871Y023575D01*
X044879Y023591D01*
X044889Y023605D01*
X044901Y023617D01*
X044916Y023627D01*
X044932Y023634D01*
X044949Y023638D01*
X044966Y023639D01*
X044984Y023637D01*
X045535Y023637D02*
X045553Y023639D01*
X045570Y023638D01*
X045587Y023634D01*
X045603Y023627D01*
X045618Y023617D01*
X045630Y023605D01*
X045640Y023591D01*
X045648Y023575D01*
X045653Y023559D01*
X045653Y023558D02*
X045653Y022928D01*
X045648Y022912D01*
X045640Y022896D01*
X045630Y022882D01*
X045618Y022870D01*
X045603Y022860D01*
X045587Y022853D01*
X045570Y022849D01*
X045553Y022848D01*
X045535Y022850D01*
X045866Y022928D02*
X045866Y023558D01*
X045866Y023559D02*
X045871Y023575D01*
X045879Y023591D01*
X045889Y023605D01*
X045901Y023617D01*
X045916Y023627D01*
X045932Y023634D01*
X045949Y023638D01*
X045966Y023639D01*
X045984Y023637D01*
X046535Y023637D02*
X046553Y023639D01*
X046570Y023638D01*
X046587Y023634D01*
X046603Y023627D01*
X046618Y023617D01*
X046630Y023605D01*
X046640Y023591D01*
X046648Y023575D01*
X046653Y023559D01*
X046653Y023558D02*
X046653Y022928D01*
X046648Y022912D01*
X046640Y022896D01*
X046630Y022882D01*
X046618Y022870D01*
X046603Y022860D01*
X046587Y022853D01*
X046570Y022849D01*
X046553Y022848D01*
X046535Y022850D01*
X046866Y022928D02*
X046866Y023558D01*
X046866Y023559D02*
X046871Y023575D01*
X046879Y023591D01*
X046889Y023605D01*
X046901Y023617D01*
X046916Y023627D01*
X046932Y023634D01*
X046949Y023638D01*
X046966Y023639D01*
X046984Y023637D01*
X047535Y023637D02*
X047553Y023639D01*
X047570Y023638D01*
X047587Y023634D01*
X047603Y023627D01*
X047618Y023617D01*
X047630Y023605D01*
X047640Y023591D01*
X047648Y023575D01*
X047653Y023559D01*
X047653Y023558D02*
X047653Y022928D01*
X047648Y022912D01*
X047640Y022896D01*
X047630Y022882D01*
X047618Y022870D01*
X047603Y022860D01*
X047587Y022853D01*
X047570Y022849D01*
X047553Y022848D01*
X047535Y022850D01*
X046984Y022850D02*
X046966Y022848D01*
X046949Y022849D01*
X046932Y022853D01*
X046916Y022860D01*
X046901Y022870D01*
X046889Y022882D01*
X046879Y022896D01*
X046871Y022912D01*
X046866Y022928D01*
X045984Y022850D02*
X045966Y022848D01*
X045949Y022849D01*
X045932Y022853D01*
X045916Y022860D01*
X045901Y022870D01*
X045889Y022882D01*
X045879Y022896D01*
X045871Y022912D01*
X045866Y022928D01*
X044984Y022850D02*
X044966Y022848D01*
X044949Y022849D01*
X044932Y022853D01*
X044916Y022860D01*
X044901Y022870D01*
X044889Y022882D01*
X044879Y022896D01*
X044871Y022912D01*
X044866Y022928D01*
X043984Y022850D02*
X043966Y022848D01*
X043949Y022849D01*
X043932Y022853D01*
X043916Y022860D01*
X043901Y022870D01*
X043889Y022882D01*
X043879Y022896D01*
X043871Y022912D01*
X043866Y022928D01*
X042984Y022850D02*
X042966Y022848D01*
X042949Y022849D01*
X042932Y022853D01*
X042916Y022860D01*
X042901Y022870D01*
X042889Y022882D01*
X042879Y022896D01*
X042871Y022912D01*
X042866Y022928D01*
X047866Y022358D02*
X047866Y021728D01*
X047871Y021712D01*
X047879Y021696D01*
X047889Y021682D01*
X047901Y021670D01*
X047916Y021660D01*
X047932Y021653D01*
X047949Y021649D01*
X047966Y021648D01*
X047984Y021650D01*
X048535Y021650D02*
X048553Y021648D01*
X048570Y021649D01*
X048587Y021653D01*
X048603Y021660D01*
X048618Y021670D01*
X048630Y021682D01*
X048640Y021696D01*
X048648Y021712D01*
X048653Y021728D01*
X048653Y022358D01*
X048653Y022359D02*
X048648Y022375D01*
X048640Y022391D01*
X048630Y022405D01*
X048618Y022417D01*
X048603Y022427D01*
X048587Y022434D01*
X048570Y022438D01*
X048553Y022439D01*
X048535Y022437D01*
X048866Y022358D02*
X048866Y021728D01*
X048871Y021712D01*
X048879Y021696D01*
X048889Y021682D01*
X048901Y021670D01*
X048916Y021660D01*
X048932Y021653D01*
X048949Y021649D01*
X048966Y021648D01*
X048984Y021650D01*
X049535Y021650D02*
X049553Y021648D01*
X049570Y021649D01*
X049587Y021653D01*
X049603Y021660D01*
X049618Y021670D01*
X049630Y021682D01*
X049640Y021696D01*
X049648Y021712D01*
X049653Y021728D01*
X049653Y022358D01*
X049653Y022359D02*
X049648Y022375D01*
X049640Y022391D01*
X049630Y022405D01*
X049618Y022417D01*
X049603Y022427D01*
X049587Y022434D01*
X049570Y022438D01*
X049553Y022439D01*
X049535Y022437D01*
X048984Y022437D02*
X048966Y022439D01*
X048949Y022438D01*
X048932Y022434D01*
X048916Y022427D01*
X048901Y022417D01*
X048889Y022405D01*
X048879Y022391D01*
X048871Y022375D01*
X048866Y022359D01*
X047984Y022437D02*
X047966Y022439D01*
X047949Y022438D01*
X047932Y022434D01*
X047916Y022427D01*
X047901Y022417D01*
X047889Y022405D01*
X047879Y022391D01*
X047871Y022375D01*
X047866Y022359D01*
X049866Y022928D02*
X049866Y023558D01*
X049866Y023559D02*
X049871Y023575D01*
X049879Y023591D01*
X049889Y023605D01*
X049901Y023617D01*
X049916Y023627D01*
X049932Y023634D01*
X049949Y023638D01*
X049966Y023639D01*
X049984Y023637D01*
X050535Y023637D02*
X050553Y023639D01*
X050570Y023638D01*
X050587Y023634D01*
X050603Y023627D01*
X050618Y023617D01*
X050630Y023605D01*
X050640Y023591D01*
X050648Y023575D01*
X050653Y023559D01*
X050653Y023558D02*
X050653Y022928D01*
X050648Y022912D01*
X050640Y022896D01*
X050630Y022882D01*
X050618Y022870D01*
X050603Y022860D01*
X050587Y022853D01*
X050570Y022849D01*
X050553Y022848D01*
X050535Y022850D01*
X049984Y022850D02*
X049966Y022848D01*
X049949Y022849D01*
X049932Y022853D01*
X049916Y022860D01*
X049901Y022870D01*
X049889Y022882D01*
X049879Y022896D01*
X049871Y022912D01*
X049866Y022928D01*
X051660Y022843D02*
X051660Y021855D01*
X052053Y021343D02*
X053266Y021343D01*
X053660Y021855D02*
X053660Y022831D01*
X053266Y023343D02*
X052053Y023343D01*
X052160Y022343D02*
X052162Y022387D01*
X052168Y022431D01*
X052178Y022474D01*
X052191Y022516D01*
X052208Y022557D01*
X052229Y022596D01*
X052253Y022633D01*
X052280Y022668D01*
X052310Y022700D01*
X052343Y022730D01*
X052379Y022756D01*
X052416Y022780D01*
X052456Y022799D01*
X052497Y022816D01*
X052540Y022828D01*
X052583Y022837D01*
X052627Y022842D01*
X052671Y022843D01*
X052715Y022840D01*
X052759Y022833D01*
X052802Y022822D01*
X052844Y022808D01*
X052884Y022790D01*
X052923Y022768D01*
X052959Y022744D01*
X052993Y022716D01*
X053025Y022685D01*
X053054Y022651D01*
X053080Y022615D01*
X053102Y022577D01*
X053121Y022537D01*
X053136Y022495D01*
X053148Y022453D01*
X053156Y022409D01*
X053160Y022365D01*
X053160Y022321D01*
X053156Y022277D01*
X053148Y022233D01*
X053136Y022191D01*
X053121Y022149D01*
X053102Y022109D01*
X053080Y022071D01*
X053054Y022035D01*
X053025Y022001D01*
X052993Y021970D01*
X052959Y021942D01*
X052923Y021918D01*
X052884Y021896D01*
X052844Y021878D01*
X052802Y021864D01*
X052759Y021853D01*
X052715Y021846D01*
X052671Y021843D01*
X052627Y021844D01*
X052583Y021849D01*
X052540Y021858D01*
X052497Y021870D01*
X052456Y021887D01*
X052416Y021906D01*
X052379Y021930D01*
X052343Y021956D01*
X052310Y021986D01*
X052280Y022018D01*
X052253Y022053D01*
X052229Y022090D01*
X052208Y022129D01*
X052191Y022170D01*
X052178Y022212D01*
X052168Y022255D01*
X052162Y022299D01*
X052160Y022343D01*
X052053Y017643D02*
X053266Y017643D01*
X053660Y017131D02*
X053660Y016155D01*
X053266Y015643D02*
X052053Y015643D01*
X051660Y016155D02*
X051660Y017143D01*
X052160Y016643D02*
X052162Y016687D01*
X052168Y016731D01*
X052178Y016774D01*
X052191Y016816D01*
X052208Y016857D01*
X052229Y016896D01*
X052253Y016933D01*
X052280Y016968D01*
X052310Y017000D01*
X052343Y017030D01*
X052379Y017056D01*
X052416Y017080D01*
X052456Y017099D01*
X052497Y017116D01*
X052540Y017128D01*
X052583Y017137D01*
X052627Y017142D01*
X052671Y017143D01*
X052715Y017140D01*
X052759Y017133D01*
X052802Y017122D01*
X052844Y017108D01*
X052884Y017090D01*
X052923Y017068D01*
X052959Y017044D01*
X052993Y017016D01*
X053025Y016985D01*
X053054Y016951D01*
X053080Y016915D01*
X053102Y016877D01*
X053121Y016837D01*
X053136Y016795D01*
X053148Y016753D01*
X053156Y016709D01*
X053160Y016665D01*
X053160Y016621D01*
X053156Y016577D01*
X053148Y016533D01*
X053136Y016491D01*
X053121Y016449D01*
X053102Y016409D01*
X053080Y016371D01*
X053054Y016335D01*
X053025Y016301D01*
X052993Y016270D01*
X052959Y016242D01*
X052923Y016218D01*
X052884Y016196D01*
X052844Y016178D01*
X052802Y016164D01*
X052759Y016153D01*
X052715Y016146D01*
X052671Y016143D01*
X052627Y016144D01*
X052583Y016149D01*
X052540Y016158D01*
X052497Y016170D01*
X052456Y016187D01*
X052416Y016206D01*
X052379Y016230D01*
X052343Y016256D01*
X052310Y016286D01*
X052280Y016318D01*
X052253Y016353D01*
X052229Y016390D01*
X052208Y016429D01*
X052191Y016470D01*
X052178Y016512D01*
X052168Y016555D01*
X052162Y016599D01*
X052160Y016643D01*
X052053Y011943D02*
X053266Y011943D01*
X053660Y011431D02*
X053660Y010455D01*
X053266Y009943D02*
X052053Y009943D01*
X051660Y010455D02*
X051660Y011443D01*
X052160Y010943D02*
X052162Y010987D01*
X052168Y011031D01*
X052178Y011074D01*
X052191Y011116D01*
X052208Y011157D01*
X052229Y011196D01*
X052253Y011233D01*
X052280Y011268D01*
X052310Y011300D01*
X052343Y011330D01*
X052379Y011356D01*
X052416Y011380D01*
X052456Y011399D01*
X052497Y011416D01*
X052540Y011428D01*
X052583Y011437D01*
X052627Y011442D01*
X052671Y011443D01*
X052715Y011440D01*
X052759Y011433D01*
X052802Y011422D01*
X052844Y011408D01*
X052884Y011390D01*
X052923Y011368D01*
X052959Y011344D01*
X052993Y011316D01*
X053025Y011285D01*
X053054Y011251D01*
X053080Y011215D01*
X053102Y011177D01*
X053121Y011137D01*
X053136Y011095D01*
X053148Y011053D01*
X053156Y011009D01*
X053160Y010965D01*
X053160Y010921D01*
X053156Y010877D01*
X053148Y010833D01*
X053136Y010791D01*
X053121Y010749D01*
X053102Y010709D01*
X053080Y010671D01*
X053054Y010635D01*
X053025Y010601D01*
X052993Y010570D01*
X052959Y010542D01*
X052923Y010518D01*
X052884Y010496D01*
X052844Y010478D01*
X052802Y010464D01*
X052759Y010453D01*
X052715Y010446D01*
X052671Y010443D01*
X052627Y010444D01*
X052583Y010449D01*
X052540Y010458D01*
X052497Y010470D01*
X052456Y010487D01*
X052416Y010506D01*
X052379Y010530D01*
X052343Y010556D01*
X052310Y010586D01*
X052280Y010618D01*
X052253Y010653D01*
X052229Y010690D01*
X052208Y010729D01*
X052191Y010770D01*
X052178Y010812D01*
X052168Y010855D01*
X052162Y010899D01*
X052160Y010943D01*
X050653Y010558D02*
X050653Y009928D01*
X050648Y009912D01*
X050640Y009896D01*
X050630Y009882D01*
X050618Y009870D01*
X050603Y009860D01*
X050587Y009853D01*
X050570Y009849D01*
X050553Y009848D01*
X050535Y009850D01*
X049984Y009850D02*
X049966Y009848D01*
X049949Y009849D01*
X049932Y009853D01*
X049916Y009860D01*
X049901Y009870D01*
X049889Y009882D01*
X049879Y009896D01*
X049871Y009912D01*
X049866Y009928D01*
X049866Y010558D01*
X049866Y010559D02*
X049871Y010575D01*
X049879Y010591D01*
X049889Y010605D01*
X049901Y010617D01*
X049916Y010627D01*
X049932Y010634D01*
X049949Y010638D01*
X049966Y010639D01*
X049984Y010637D01*
X049653Y010928D02*
X049653Y011558D01*
X049653Y011559D02*
X049648Y011575D01*
X049640Y011591D01*
X049630Y011605D01*
X049618Y011617D01*
X049603Y011627D01*
X049587Y011634D01*
X049570Y011638D01*
X049553Y011639D01*
X049535Y011637D01*
X048984Y011637D02*
X048966Y011639D01*
X048949Y011638D01*
X048932Y011634D01*
X048916Y011627D01*
X048901Y011617D01*
X048889Y011605D01*
X048879Y011591D01*
X048871Y011575D01*
X048866Y011559D01*
X048866Y011558D02*
X048866Y010928D01*
X048871Y010912D01*
X048879Y010896D01*
X048889Y010882D01*
X048901Y010870D01*
X048916Y010860D01*
X048932Y010853D01*
X048949Y010849D01*
X048966Y010848D01*
X048984Y010850D01*
X048653Y010928D02*
X048653Y011558D01*
X048653Y011559D02*
X048648Y011575D01*
X048640Y011591D01*
X048630Y011605D01*
X048618Y011617D01*
X048603Y011627D01*
X048587Y011634D01*
X048570Y011638D01*
X048553Y011639D01*
X048535Y011637D01*
X047984Y011637D02*
X047966Y011639D01*
X047949Y011638D01*
X047932Y011634D01*
X047916Y011627D01*
X047901Y011617D01*
X047889Y011605D01*
X047879Y011591D01*
X047871Y011575D01*
X047866Y011559D01*
X047866Y011558D02*
X047866Y010928D01*
X047871Y010912D01*
X047879Y010896D01*
X047889Y010882D01*
X047901Y010870D01*
X047916Y010860D01*
X047932Y010853D01*
X047949Y010849D01*
X047966Y010848D01*
X047984Y010850D01*
X047653Y010558D02*
X047653Y009928D01*
X047648Y009912D01*
X047640Y009896D01*
X047630Y009882D01*
X047618Y009870D01*
X047603Y009860D01*
X047587Y009853D01*
X047570Y009849D01*
X047553Y009848D01*
X047535Y009850D01*
X046984Y009850D02*
X046966Y009848D01*
X046949Y009849D01*
X046932Y009853D01*
X046916Y009860D01*
X046901Y009870D01*
X046889Y009882D01*
X046879Y009896D01*
X046871Y009912D01*
X046866Y009928D01*
X046866Y010558D01*
X046866Y010559D02*
X046871Y010575D01*
X046879Y010591D01*
X046889Y010605D01*
X046901Y010617D01*
X046916Y010627D01*
X046932Y010634D01*
X046949Y010638D01*
X046966Y010639D01*
X046984Y010637D01*
X046653Y010558D02*
X046653Y009928D01*
X046648Y009912D01*
X046640Y009896D01*
X046630Y009882D01*
X046618Y009870D01*
X046603Y009860D01*
X046587Y009853D01*
X046570Y009849D01*
X046553Y009848D01*
X046535Y009850D01*
X045984Y009850D02*
X045966Y009848D01*
X045949Y009849D01*
X045932Y009853D01*
X045916Y009860D01*
X045901Y009870D01*
X045889Y009882D01*
X045879Y009896D01*
X045871Y009912D01*
X045866Y009928D01*
X045866Y010558D01*
X045866Y010559D02*
X045871Y010575D01*
X045879Y010591D01*
X045889Y010605D01*
X045901Y010617D01*
X045916Y010627D01*
X045932Y010634D01*
X045949Y010638D01*
X045966Y010639D01*
X045984Y010637D01*
X045653Y010558D02*
X045653Y009928D01*
X045648Y009912D01*
X045640Y009896D01*
X045630Y009882D01*
X045618Y009870D01*
X045603Y009860D01*
X045587Y009853D01*
X045570Y009849D01*
X045553Y009848D01*
X045535Y009850D01*
X044984Y009850D02*
X044966Y009848D01*
X044949Y009849D01*
X044932Y009853D01*
X044916Y009860D01*
X044901Y009870D01*
X044889Y009882D01*
X044879Y009896D01*
X044871Y009912D01*
X044866Y009928D01*
X044866Y010558D01*
X044866Y010559D02*
X044871Y010575D01*
X044879Y010591D01*
X044889Y010605D01*
X044901Y010617D01*
X044916Y010627D01*
X044932Y010634D01*
X044949Y010638D01*
X044966Y010639D01*
X044984Y010637D01*
X045535Y010637D02*
X045553Y010639D01*
X045570Y010638D01*
X045587Y010634D01*
X045603Y010627D01*
X045618Y010617D01*
X045630Y010605D01*
X045640Y010591D01*
X045648Y010575D01*
X045653Y010559D01*
X046535Y010637D02*
X046553Y010639D01*
X046570Y010638D01*
X046587Y010634D01*
X046603Y010627D01*
X046618Y010617D01*
X046630Y010605D01*
X046640Y010591D01*
X046648Y010575D01*
X046653Y010559D01*
X047535Y010637D02*
X047553Y010639D01*
X047570Y010638D01*
X047587Y010634D01*
X047603Y010627D01*
X047618Y010617D01*
X047630Y010605D01*
X047640Y010591D01*
X047648Y010575D01*
X047653Y010559D01*
X048535Y010850D02*
X048553Y010848D01*
X048570Y010849D01*
X048587Y010853D01*
X048603Y010860D01*
X048618Y010870D01*
X048630Y010882D01*
X048640Y010896D01*
X048648Y010912D01*
X048653Y010928D01*
X049535Y010850D02*
X049553Y010848D01*
X049570Y010849D01*
X049587Y010853D01*
X049603Y010860D01*
X049618Y010870D01*
X049630Y010882D01*
X049640Y010896D01*
X049648Y010912D01*
X049653Y010928D01*
X050535Y010637D02*
X050553Y010639D01*
X050570Y010638D01*
X050587Y010634D01*
X050603Y010627D01*
X050618Y010617D01*
X050630Y010605D01*
X050640Y010591D01*
X050648Y010575D01*
X050653Y010559D01*
X041311Y014604D02*
X041311Y014919D01*
X041074Y014919D01*
X040445Y014919D02*
X040208Y014919D01*
X040208Y014604D01*
X038330Y014315D02*
X037661Y014315D01*
X038330Y013240D02*
X038330Y012582D01*
X038212Y012582D01*
X032307Y012582D01*
X032307Y012464D01*
X032189Y012464D01*
X032189Y012110D01*
X038330Y012110D01*
X038330Y012464D01*
X038212Y012464D01*
X038212Y012582D01*
X033173Y012464D02*
X033094Y012307D01*
X033015Y012464D01*
X033173Y012464D01*
X033152Y012423D02*
X033036Y012423D01*
X033075Y012345D02*
X033113Y012345D01*
X032307Y012582D02*
X032189Y012582D01*
X032189Y013240D01*
X032189Y014315D02*
X032858Y014315D01*
X032090Y016977D02*
X035469Y016977D01*
X035469Y016976D02*
X035489Y016981D01*
X035508Y016989D01*
X035526Y017000D01*
X035542Y017013D01*
X035555Y017029D01*
X035566Y017046D01*
X035574Y017065D01*
X035579Y017085D01*
X035581Y017106D01*
X035580Y017127D01*
X035580Y018360D01*
X035578Y018383D01*
X035573Y018406D01*
X035564Y018428D01*
X035551Y018448D01*
X035536Y018466D01*
X035518Y018481D01*
X035498Y018494D01*
X035476Y018503D01*
X035453Y018508D01*
X035430Y018510D01*
X032090Y018510D01*
X032089Y018510D02*
X032065Y018505D01*
X032042Y018497D01*
X032021Y018486D01*
X032001Y018472D01*
X031983Y018455D01*
X031968Y018436D01*
X031955Y018415D01*
X031946Y018393D01*
X031940Y018369D01*
X031938Y018345D01*
X031939Y018320D01*
X031940Y018315D02*
X031940Y017983D01*
X031960Y017983D02*
X031990Y017981D01*
X032020Y017976D01*
X032049Y017967D01*
X032076Y017954D01*
X032102Y017939D01*
X032126Y017920D01*
X032147Y017899D01*
X032166Y017875D01*
X032181Y017849D01*
X032194Y017822D01*
X032203Y017793D01*
X032208Y017763D01*
X032210Y017733D01*
X032208Y017703D01*
X032203Y017673D01*
X032194Y017644D01*
X032181Y017617D01*
X032166Y017591D01*
X032147Y017567D01*
X032126Y017546D01*
X032102Y017527D01*
X032076Y017512D01*
X032049Y017499D01*
X032020Y017490D01*
X031990Y017485D01*
X031960Y017483D01*
X031940Y017483D02*
X031940Y017088D01*
X031939Y017087D02*
X031944Y017067D01*
X031952Y017048D01*
X031963Y017030D01*
X031976Y017014D01*
X031992Y017001D01*
X032009Y016990D01*
X032028Y016982D01*
X032048Y016977D01*
X032069Y016975D01*
X032090Y016976D01*
X035940Y017088D02*
X035940Y017483D01*
X035960Y017483D02*
X035990Y017485D01*
X036020Y017490D01*
X036049Y017499D01*
X036076Y017512D01*
X036102Y017527D01*
X036126Y017546D01*
X036147Y017567D01*
X036166Y017591D01*
X036181Y017617D01*
X036194Y017644D01*
X036203Y017673D01*
X036208Y017703D01*
X036210Y017733D01*
X036208Y017763D01*
X036203Y017793D01*
X036194Y017822D01*
X036181Y017849D01*
X036166Y017875D01*
X036147Y017899D01*
X036126Y017920D01*
X036102Y017939D01*
X036076Y017954D01*
X036049Y017967D01*
X036020Y017976D01*
X035990Y017981D01*
X035960Y017983D01*
X035940Y017983D02*
X035940Y018315D01*
X035939Y018320D02*
X035938Y018345D01*
X035940Y018369D01*
X035946Y018393D01*
X035955Y018415D01*
X035968Y018436D01*
X035983Y018455D01*
X036001Y018472D01*
X036021Y018486D01*
X036042Y018497D01*
X036065Y018505D01*
X036089Y018510D01*
X036090Y018510D02*
X039430Y018510D01*
X039453Y018508D01*
X039476Y018503D01*
X039498Y018494D01*
X039518Y018481D01*
X039536Y018466D01*
X039551Y018448D01*
X039564Y018428D01*
X039573Y018406D01*
X039578Y018383D01*
X039580Y018360D01*
X039580Y017127D01*
X039581Y017106D01*
X039579Y017085D01*
X039574Y017065D01*
X039566Y017046D01*
X039555Y017029D01*
X039542Y017013D01*
X039526Y017000D01*
X039508Y016989D01*
X039489Y016981D01*
X039469Y016976D01*
X039469Y016977D02*
X036090Y016977D01*
X036090Y016976D02*
X036069Y016975D01*
X036048Y016977D01*
X036028Y016982D01*
X036009Y016990D01*
X035992Y017001D01*
X035976Y017014D01*
X035963Y017030D01*
X035952Y017048D01*
X035944Y017067D01*
X035939Y017087D01*
D16*
X028660Y010843D02*
X028660Y010393D01*
X029210Y010393D01*
X029210Y004943D01*
X028213Y004943D01*
X026039Y005343D02*
X023310Y005343D01*
X023310Y010843D01*
X028660Y010843D01*
X027819Y005015D02*
X027874Y004996D01*
X027929Y004980D01*
X027985Y004967D01*
X028041Y004956D01*
X028098Y004949D01*
X028156Y004944D01*
X028213Y004943D01*
X027819Y005015D02*
X027687Y005063D01*
X027555Y005108D01*
X027421Y005148D01*
X027286Y005185D01*
X027150Y005218D01*
X027013Y005247D01*
X026875Y005273D01*
X026737Y005294D01*
X026598Y005312D01*
X026458Y005325D01*
X026319Y005335D01*
X026179Y005341D01*
X026039Y005343D01*
X020043Y007234D02*
X020043Y026053D01*
X050476Y026053D01*
X050476Y007234D01*
X020043Y007234D01*
D17*
X023760Y013131D02*
X023760Y013155D01*
X029760Y013155D02*
X029760Y013131D01*
X029760Y014631D02*
X029760Y014655D01*
X029760Y017631D02*
X029760Y017655D01*
X029760Y019131D02*
X029760Y019155D01*
X025760Y024631D02*
X025760Y024655D01*
X024060Y024655D02*
X024060Y024631D01*
X041760Y018655D02*
X041760Y018631D01*
X041760Y017155D02*
X041760Y017131D01*
D18*
X017905Y018203D03*
D19*
X017905Y018213D03*
X017985Y019403D03*
X018115Y019553D03*
X018115Y019563D03*
X018115Y019573D03*
D20*
X017905Y018223D03*
D21*
X017905Y018233D03*
D22*
X017905Y018243D03*
X017195Y018733D03*
X018835Y019733D03*
X018825Y019783D03*
X018825Y019793D03*
X018815Y019823D03*
X018815Y019833D03*
X018805Y019853D03*
X018805Y019863D03*
X018795Y019883D03*
X018785Y019913D03*
D23*
X018690Y020073D03*
X018680Y020083D03*
X018570Y020253D03*
X018450Y020393D03*
X018440Y020403D03*
X018830Y019503D03*
X018830Y019493D03*
X018830Y019483D03*
X017910Y018253D03*
D24*
X017905Y018263D03*
X017185Y018853D03*
X017185Y018863D03*
X018785Y019353D03*
X018605Y020153D03*
X018575Y020203D03*
D25*
X018745Y019283D03*
X017905Y018273D03*
X017155Y018973D03*
X017155Y018983D03*
D26*
X017130Y019103D03*
X017130Y019113D03*
X017130Y019123D03*
X017910Y018283D03*
X018710Y019243D03*
X017490Y020433D03*
X017480Y020423D03*
X017470Y020413D03*
D27*
X017375Y020283D03*
X017365Y020273D03*
X017365Y020263D03*
X017355Y020253D03*
X017335Y020223D03*
X017095Y019503D03*
X017095Y019493D03*
X017095Y019483D03*
X017105Y019453D03*
X017105Y019443D03*
X017105Y019433D03*
X017105Y019423D03*
X017105Y019413D03*
X017105Y019403D03*
X017105Y019393D03*
X017105Y019383D03*
X017105Y019373D03*
X017105Y019363D03*
X017105Y019353D03*
X017105Y019343D03*
X017105Y019333D03*
X018415Y018663D03*
X017905Y018293D03*
D28*
X017910Y018303D03*
X018650Y019193D03*
X017230Y019993D03*
D29*
X017245Y019963D03*
X017235Y019943D03*
X017225Y019933D03*
X017225Y019923D03*
X017215Y019903D03*
X017905Y018313D03*
D30*
X017905Y018323D03*
X018395Y018733D03*
D31*
X017905Y018333D03*
D32*
X017905Y018343D03*
X018385Y018773D03*
D33*
X018395Y018813D03*
X018395Y018823D03*
X017905Y018353D03*
D34*
X017905Y018363D03*
X018415Y018883D03*
X018415Y018893D03*
D35*
X018430Y018943D03*
X018430Y018953D03*
X017910Y018373D03*
D36*
X017905Y018383D03*
X018445Y019013D03*
X018445Y019023D03*
X018445Y019033D03*
X017905Y020593D03*
D37*
X018465Y019153D03*
X018465Y019143D03*
X018465Y019133D03*
X018465Y019123D03*
X017905Y018393D03*
D38*
X017905Y018403D03*
X017905Y020573D03*
D39*
X017905Y018413D03*
D40*
X017905Y018423D03*
X017905Y020553D03*
D41*
X017905Y018433D03*
D42*
X017905Y018443D03*
X017905Y020533D03*
D43*
X017910Y018453D03*
D44*
X017905Y018463D03*
D45*
X017905Y018473D03*
X017905Y020503D03*
D46*
X017910Y018483D03*
D47*
X017905Y018493D03*
D48*
X017905Y018503D03*
X017475Y019763D03*
D49*
X017475Y019703D03*
X017475Y019693D03*
X017475Y019683D03*
X017475Y019673D03*
X017475Y019663D03*
X017475Y019653D03*
X017905Y020463D03*
X017905Y018513D03*
D50*
X017905Y018523D03*
X017905Y020453D03*
D51*
X017905Y018533D03*
D52*
X017910Y018543D03*
D53*
X017910Y018553D03*
D54*
X017910Y018563D03*
D55*
X017910Y018573D03*
D56*
X017910Y018583D03*
D57*
X017910Y018593D03*
D58*
X017910Y018603D03*
D59*
X017910Y018613D03*
D60*
X017905Y018623D03*
D61*
X017190Y018633D03*
D62*
X017120Y019173D03*
X017120Y019183D03*
X017120Y019193D03*
X017120Y019203D03*
X018400Y018633D03*
X018700Y019233D03*
X017440Y020373D03*
X017450Y020383D03*
D63*
X017185Y018643D03*
D64*
X017115Y019213D03*
X017115Y019223D03*
X017115Y019233D03*
X017115Y019243D03*
X017115Y019253D03*
X017095Y019523D03*
X017415Y020343D03*
X017425Y020353D03*
X017435Y020363D03*
X017905Y020683D03*
X018405Y018643D03*
D65*
X017180Y018653D03*
D66*
X017110Y019263D03*
X017110Y019273D03*
X017110Y019283D03*
X017110Y019293D03*
X017110Y019303D03*
X017110Y019313D03*
X017110Y019323D03*
X017090Y019513D03*
X017380Y020293D03*
X017390Y020303D03*
X017400Y020313D03*
X017400Y020323D03*
X017410Y020333D03*
X018690Y019223D03*
X018410Y018653D03*
D67*
X017175Y018663D03*
D68*
X017170Y018673D03*
X017170Y018683D03*
D69*
X018420Y018673D03*
X018680Y019213D03*
X017100Y019463D03*
X017100Y019473D03*
X017230Y020033D03*
X017230Y020043D03*
X017240Y020053D03*
X017240Y020063D03*
X017250Y020073D03*
X017250Y020083D03*
X017260Y020093D03*
X017270Y020113D03*
X017280Y020133D03*
X017290Y020153D03*
X017300Y020163D03*
X017310Y020183D03*
X017320Y020193D03*
X017320Y020203D03*
X017330Y020213D03*
X017340Y020233D03*
X017350Y020243D03*
D70*
X017305Y020173D03*
X017285Y020143D03*
X017275Y020123D03*
X017265Y020103D03*
X017225Y020023D03*
X018425Y018693D03*
X018425Y018683D03*
D71*
X017165Y018693D03*
D72*
X017160Y018703D03*
D73*
X018430Y018703D03*
X018670Y019203D03*
X017230Y020013D03*
D74*
X017905Y020743D03*
X017155Y018713D03*
D75*
X018435Y018713D03*
X017225Y020003D03*
X017905Y020673D03*
D76*
X017160Y018723D03*
D77*
X018435Y018723D03*
D78*
X018840Y019573D03*
X018840Y019583D03*
X018840Y019593D03*
X018840Y019603D03*
X018840Y019613D03*
X018840Y019623D03*
X018750Y019983D03*
X018740Y020003D03*
X018560Y020293D03*
X018560Y020303D03*
X018550Y020313D03*
X018520Y020343D03*
X017200Y018743D03*
D79*
X018390Y018743D03*
D80*
X018835Y019513D03*
X018835Y019523D03*
X018705Y020053D03*
X018695Y020063D03*
X018575Y020263D03*
X018465Y020383D03*
X017205Y018763D03*
X017205Y018753D03*
D81*
X018385Y018753D03*
X018385Y018763D03*
D82*
X018825Y019463D03*
X018825Y019473D03*
X018675Y020093D03*
X018665Y020103D03*
X018575Y020243D03*
X018425Y020413D03*
X017205Y018773D03*
D83*
X017200Y018783D03*
X017200Y018793D03*
X018820Y019443D03*
X018820Y019453D03*
X018650Y020113D03*
X018410Y020423D03*
X018400Y020433D03*
D84*
X018390Y018793D03*
X018390Y018783D03*
D85*
X018800Y019393D03*
X018800Y019403D03*
X018810Y019413D03*
X018630Y020133D03*
X018380Y020443D03*
X017200Y018803D03*
D86*
X018395Y018803D03*
X017905Y020623D03*
D87*
X017905Y020713D03*
X018575Y020223D03*
X018575Y020213D03*
X018795Y019383D03*
X017195Y018823D03*
X017195Y018813D03*
D88*
X017190Y018833D03*
X017190Y018843D03*
X018790Y019363D03*
X018790Y019373D03*
X018620Y020143D03*
D89*
X018400Y018833D03*
D90*
X018405Y018843D03*
X018405Y018853D03*
X017905Y020613D03*
D91*
X018410Y018873D03*
X018410Y018863D03*
D92*
X018780Y019343D03*
X018580Y020193D03*
X017030Y019633D03*
X017030Y019623D03*
X017030Y019613D03*
X017030Y019603D03*
X017030Y019593D03*
X017030Y019583D03*
X017030Y019573D03*
X017030Y019563D03*
X017030Y019553D03*
X017180Y018883D03*
X017180Y018873D03*
D93*
X017175Y018893D03*
X018775Y019333D03*
X018595Y020163D03*
X018575Y020183D03*
D94*
X018580Y020173D03*
X018770Y019323D03*
X017170Y018913D03*
X017170Y018903D03*
D95*
X018420Y018903D03*
X018420Y018913D03*
D96*
X018755Y019303D03*
X018765Y019313D03*
X017165Y018933D03*
X017165Y018923D03*
X017905Y020703D03*
D97*
X017905Y020603D03*
X018425Y018933D03*
X018425Y018923D03*
D98*
X018750Y019293D03*
X017160Y018963D03*
X017160Y018953D03*
X017160Y018943D03*
D99*
X018435Y018963D03*
X018435Y018973D03*
D100*
X018440Y018983D03*
X018440Y018993D03*
X018440Y019003D03*
D101*
X017150Y019003D03*
X017150Y018993D03*
D102*
X017145Y019013D03*
X017145Y019023D03*
X017145Y019033D03*
X018735Y019273D03*
D103*
X018730Y019263D03*
X017140Y019063D03*
X017140Y019053D03*
X017140Y019043D03*
X017070Y019543D03*
D104*
X018450Y019053D03*
X018450Y019043D03*
D105*
X018455Y019063D03*
X018455Y019073D03*
X018455Y019083D03*
X017905Y020583D03*
D106*
X017905Y020693D03*
X018725Y019253D03*
X017135Y019093D03*
X017135Y019083D03*
X017135Y019073D03*
D107*
X018460Y019093D03*
X018460Y019103D03*
X018460Y019113D03*
D108*
X017125Y019133D03*
X017125Y019143D03*
X017125Y019153D03*
X017125Y019163D03*
X017085Y019533D03*
X017455Y020393D03*
X017465Y020403D03*
X017505Y020443D03*
D109*
X018470Y019163D03*
D110*
X017840Y019173D03*
X018100Y019973D03*
D111*
X017905Y020653D03*
X018615Y019173D03*
D112*
X017815Y019183D03*
X018085Y019993D03*
D113*
X017905Y020663D03*
X017235Y019973D03*
X017195Y019863D03*
X018635Y019183D03*
D114*
X017800Y019193D03*
X017900Y019883D03*
D115*
X017980Y019353D03*
D116*
X017985Y019363D03*
X018115Y019933D03*
D117*
X017985Y019373D03*
D118*
X017985Y019383D03*
D119*
X017985Y019393D03*
D120*
X017980Y019413D03*
X018070Y019863D03*
D121*
X018070Y019843D03*
X017990Y019423D03*
D122*
X018815Y019423D03*
X018815Y019433D03*
X018645Y020123D03*
X018575Y020233D03*
D123*
X017995Y019433D03*
D124*
X018000Y019443D03*
X018070Y019543D03*
X018070Y019823D03*
X018070Y019833D03*
D125*
X018015Y019463D03*
X018005Y019453D03*
X017905Y020753D03*
D126*
X018070Y019813D03*
X018070Y019803D03*
X018020Y019483D03*
X018020Y019473D03*
D127*
X018025Y019493D03*
X018035Y019513D03*
X018045Y019523D03*
X018055Y019533D03*
X018065Y019793D03*
D128*
X018030Y019503D03*
D129*
X018840Y019533D03*
X018840Y019543D03*
X018840Y019553D03*
X018720Y020033D03*
X018710Y020043D03*
X018570Y020273D03*
X018480Y020373D03*
X017910Y020723D03*
D130*
X018495Y020363D03*
X018505Y020353D03*
X018565Y020283D03*
X018725Y020023D03*
X018735Y020013D03*
X018835Y019563D03*
D131*
X018120Y019583D03*
X018120Y019593D03*
X018120Y019603D03*
X018120Y019613D03*
D132*
X018125Y019623D03*
X018125Y019633D03*
D133*
X018765Y019953D03*
X018765Y019963D03*
X018755Y019973D03*
X018745Y019993D03*
X018775Y019933D03*
X018845Y019653D03*
X018845Y019643D03*
X018845Y019633D03*
X018545Y020323D03*
X018535Y020333D03*
D134*
X017470Y019643D03*
D135*
X018770Y019943D03*
X018780Y019923D03*
X018790Y019903D03*
X018790Y019893D03*
X018800Y019873D03*
X018810Y019843D03*
X018820Y019813D03*
X018820Y019803D03*
X018830Y019773D03*
X018830Y019763D03*
X018830Y019753D03*
X018830Y019743D03*
X018840Y019723D03*
X018840Y019713D03*
X018840Y019703D03*
X018840Y019693D03*
X018840Y019683D03*
X018840Y019673D03*
X018840Y019663D03*
D136*
X017480Y019713D03*
X017480Y019723D03*
X017480Y019733D03*
X017480Y019743D03*
X017480Y019753D03*
D137*
X017480Y019773D03*
X017480Y019783D03*
X017910Y020473D03*
D138*
X017910Y020633D03*
X017240Y019793D03*
D139*
X017230Y019803D03*
D140*
X017225Y019813D03*
X017905Y020643D03*
D141*
X017220Y019823D03*
D142*
X017210Y019833D03*
D143*
X017200Y019843D03*
X017240Y019953D03*
D144*
X017220Y019913D03*
X017210Y019893D03*
X017210Y019883D03*
X017200Y019873D03*
X017200Y019853D03*
D145*
X018075Y019853D03*
D146*
X017910Y019873D03*
D147*
X018110Y019873D03*
D148*
X018120Y019883D03*
D149*
X018120Y019893D03*
D150*
X018120Y019903D03*
D151*
X018115Y019913D03*
D152*
X018115Y019923D03*
D153*
X018110Y019943D03*
D154*
X018110Y019953D03*
D155*
X018100Y019963D03*
D156*
X017230Y019983D03*
D157*
X018095Y019983D03*
D158*
X018075Y020003D03*
X017905Y020773D03*
D159*
X017905Y020483D03*
D160*
X017905Y020493D03*
D161*
X017910Y020513D03*
D162*
X017905Y020523D03*
D163*
X017910Y020543D03*
D164*
X017910Y020563D03*
D165*
X017905Y020733D03*
D166*
X017910Y020763D03*
M02*
