G75*
%MOIN*%
%OFA0B0*%
%FSLAX24Y24*%
%IPPOS*%
%LPD*%
%AMOC8*
5,1,8,0,0,1.08239X$1,22.5*
%
%ADD10C,0.0050*%
%ADD11C,0.0000*%
%ADD12C,0.1280*%
%ADD13R,0.0400X0.6700*%
%ADD14R,0.9000X0.0400*%
%ADD15R,0.0400X0.6300*%
%ADD16C,0.0867*%
%ADD17C,0.0430*%
%ADD18C,0.0820*%
%ADD19C,0.0810*%
D10*
X016260Y007643D02*
X016260Y025643D01*
X016262Y025719D01*
X016268Y025795D01*
X016277Y025870D01*
X016291Y025945D01*
X016308Y026019D01*
X016329Y026092D01*
X016353Y026164D01*
X016382Y026235D01*
X016413Y026304D01*
X016448Y026371D01*
X016487Y026436D01*
X016529Y026500D01*
X016574Y026561D01*
X016622Y026620D01*
X016673Y026676D01*
X016727Y026730D01*
X016783Y026781D01*
X016842Y026829D01*
X016903Y026874D01*
X016967Y026916D01*
X017032Y026955D01*
X017099Y026990D01*
X017168Y027021D01*
X017239Y027050D01*
X017311Y027074D01*
X017384Y027095D01*
X017458Y027112D01*
X017533Y027126D01*
X017608Y027135D01*
X017684Y027141D01*
X017760Y027143D01*
X052760Y027143D01*
X052836Y027141D01*
X052912Y027135D01*
X052987Y027126D01*
X053062Y027112D01*
X053136Y027095D01*
X053209Y027074D01*
X053281Y027050D01*
X053352Y027021D01*
X053421Y026990D01*
X053488Y026955D01*
X053553Y026916D01*
X053617Y026874D01*
X053678Y026829D01*
X053737Y026781D01*
X053793Y026730D01*
X053847Y026676D01*
X053898Y026620D01*
X053946Y026561D01*
X053991Y026500D01*
X054033Y026436D01*
X054072Y026371D01*
X054107Y026304D01*
X054138Y026235D01*
X054167Y026164D01*
X054191Y026092D01*
X054212Y026019D01*
X054229Y025945D01*
X054243Y025870D01*
X054252Y025795D01*
X054258Y025719D01*
X054260Y025643D01*
X054260Y007643D01*
X054258Y007567D01*
X054252Y007491D01*
X054243Y007416D01*
X054229Y007341D01*
X054212Y007267D01*
X054191Y007194D01*
X054167Y007122D01*
X054138Y007051D01*
X054107Y006982D01*
X054072Y006915D01*
X054033Y006850D01*
X053991Y006786D01*
X053946Y006725D01*
X053898Y006666D01*
X053847Y006610D01*
X053793Y006556D01*
X053737Y006505D01*
X053678Y006457D01*
X053617Y006412D01*
X053553Y006370D01*
X053488Y006331D01*
X053421Y006296D01*
X053352Y006265D01*
X053281Y006236D01*
X053209Y006212D01*
X053136Y006191D01*
X053062Y006174D01*
X052987Y006160D01*
X052912Y006151D01*
X052836Y006145D01*
X052760Y006143D01*
X017760Y006143D01*
X017684Y006145D01*
X017608Y006151D01*
X017533Y006160D01*
X017458Y006174D01*
X017384Y006191D01*
X017311Y006212D01*
X017239Y006236D01*
X017168Y006265D01*
X017099Y006296D01*
X017032Y006331D01*
X016967Y006370D01*
X016903Y006412D01*
X016842Y006457D01*
X016783Y006505D01*
X016727Y006556D01*
X016673Y006610D01*
X016622Y006666D01*
X016574Y006725D01*
X016529Y006786D01*
X016487Y006850D01*
X016448Y006915D01*
X016413Y006982D01*
X016382Y007051D01*
X016353Y007122D01*
X016329Y007194D01*
X016308Y007267D01*
X016291Y007341D01*
X016277Y007416D01*
X016268Y007491D01*
X016262Y007567D01*
X016260Y007643D01*
D11*
X017160Y007643D02*
X017162Y007692D01*
X017168Y007740D01*
X017178Y007788D01*
X017192Y007835D01*
X017209Y007881D01*
X017230Y007925D01*
X017255Y007967D01*
X017283Y008007D01*
X017315Y008045D01*
X017349Y008080D01*
X017386Y008112D01*
X017425Y008141D01*
X017467Y008167D01*
X017511Y008189D01*
X017556Y008207D01*
X017603Y008222D01*
X017650Y008233D01*
X017699Y008240D01*
X017748Y008243D01*
X017797Y008242D01*
X017845Y008237D01*
X017894Y008228D01*
X017941Y008215D01*
X017987Y008198D01*
X018031Y008178D01*
X018074Y008154D01*
X018115Y008127D01*
X018153Y008096D01*
X018189Y008063D01*
X018221Y008027D01*
X018251Y007988D01*
X018278Y007947D01*
X018301Y007903D01*
X018320Y007858D01*
X018336Y007812D01*
X018348Y007765D01*
X018356Y007716D01*
X018360Y007667D01*
X018360Y007619D01*
X018356Y007570D01*
X018348Y007521D01*
X018336Y007474D01*
X018320Y007428D01*
X018301Y007383D01*
X018278Y007339D01*
X018251Y007298D01*
X018221Y007259D01*
X018189Y007223D01*
X018153Y007190D01*
X018115Y007159D01*
X018074Y007132D01*
X018031Y007108D01*
X017987Y007088D01*
X017941Y007071D01*
X017894Y007058D01*
X017845Y007049D01*
X017797Y007044D01*
X017748Y007043D01*
X017699Y007046D01*
X017650Y007053D01*
X017603Y007064D01*
X017556Y007079D01*
X017511Y007097D01*
X017467Y007119D01*
X017425Y007145D01*
X017386Y007174D01*
X017349Y007206D01*
X017315Y007241D01*
X017283Y007279D01*
X017255Y007319D01*
X017230Y007361D01*
X017209Y007405D01*
X017192Y007451D01*
X017178Y007498D01*
X017168Y007546D01*
X017162Y007594D01*
X017160Y007643D01*
X021086Y009261D02*
X021088Y009300D01*
X021094Y009339D01*
X021104Y009377D01*
X021117Y009414D01*
X021134Y009449D01*
X021154Y009483D01*
X021178Y009514D01*
X021205Y009543D01*
X021234Y009569D01*
X021266Y009592D01*
X021300Y009612D01*
X021336Y009628D01*
X021373Y009640D01*
X021412Y009649D01*
X021451Y009654D01*
X021490Y009655D01*
X021529Y009652D01*
X021568Y009645D01*
X021605Y009634D01*
X021642Y009620D01*
X021677Y009602D01*
X021710Y009581D01*
X021741Y009556D01*
X021769Y009529D01*
X021794Y009499D01*
X021816Y009466D01*
X021835Y009432D01*
X021850Y009396D01*
X021862Y009358D01*
X021870Y009320D01*
X021874Y009281D01*
X021874Y009241D01*
X021870Y009202D01*
X021862Y009164D01*
X021850Y009126D01*
X021835Y009090D01*
X021816Y009056D01*
X021794Y009023D01*
X021769Y008993D01*
X021741Y008966D01*
X021710Y008941D01*
X021677Y008920D01*
X021642Y008902D01*
X021605Y008888D01*
X021568Y008877D01*
X021529Y008870D01*
X021490Y008867D01*
X021451Y008868D01*
X021412Y008873D01*
X021373Y008882D01*
X021336Y008894D01*
X021300Y008910D01*
X021266Y008930D01*
X021234Y008953D01*
X021205Y008979D01*
X021178Y009008D01*
X021154Y009039D01*
X021134Y009073D01*
X021117Y009108D01*
X021104Y009145D01*
X021094Y009183D01*
X021088Y009222D01*
X021086Y009261D01*
X024161Y006552D02*
X024163Y006578D01*
X024169Y006604D01*
X024178Y006628D01*
X024191Y006651D01*
X024208Y006671D01*
X024227Y006689D01*
X024249Y006704D01*
X024272Y006715D01*
X024297Y006723D01*
X024323Y006727D01*
X024349Y006727D01*
X024375Y006723D01*
X024400Y006715D01*
X024424Y006704D01*
X024445Y006689D01*
X024464Y006671D01*
X024481Y006651D01*
X024494Y006628D01*
X024503Y006604D01*
X024509Y006578D01*
X024511Y006552D01*
X024509Y006526D01*
X024503Y006500D01*
X024494Y006476D01*
X024481Y006453D01*
X024464Y006433D01*
X024445Y006415D01*
X024423Y006400D01*
X024400Y006389D01*
X024375Y006381D01*
X024349Y006377D01*
X024323Y006377D01*
X024297Y006381D01*
X024272Y006389D01*
X024248Y006400D01*
X024227Y006415D01*
X024208Y006433D01*
X024191Y006453D01*
X024178Y006476D01*
X024169Y006500D01*
X024163Y006526D01*
X024161Y006552D01*
X027310Y006552D02*
X027312Y006578D01*
X027318Y006604D01*
X027327Y006628D01*
X027340Y006651D01*
X027357Y006671D01*
X027376Y006689D01*
X027398Y006704D01*
X027421Y006715D01*
X027446Y006723D01*
X027472Y006727D01*
X027498Y006727D01*
X027524Y006723D01*
X027549Y006715D01*
X027573Y006704D01*
X027594Y006689D01*
X027613Y006671D01*
X027630Y006651D01*
X027643Y006628D01*
X027652Y006604D01*
X027658Y006578D01*
X027660Y006552D01*
X027658Y006526D01*
X027652Y006500D01*
X027643Y006476D01*
X027630Y006453D01*
X027613Y006433D01*
X027594Y006415D01*
X027572Y006400D01*
X027549Y006389D01*
X027524Y006381D01*
X027498Y006377D01*
X027472Y006377D01*
X027446Y006381D01*
X027421Y006389D01*
X027397Y006400D01*
X027376Y006415D01*
X027357Y006433D01*
X027340Y006453D01*
X027327Y006476D01*
X027318Y006500D01*
X027312Y006526D01*
X027310Y006552D01*
X048645Y009261D02*
X048647Y009300D01*
X048653Y009339D01*
X048663Y009377D01*
X048676Y009414D01*
X048693Y009449D01*
X048713Y009483D01*
X048737Y009514D01*
X048764Y009543D01*
X048793Y009569D01*
X048825Y009592D01*
X048859Y009612D01*
X048895Y009628D01*
X048932Y009640D01*
X048971Y009649D01*
X049010Y009654D01*
X049049Y009655D01*
X049088Y009652D01*
X049127Y009645D01*
X049164Y009634D01*
X049201Y009620D01*
X049236Y009602D01*
X049269Y009581D01*
X049300Y009556D01*
X049328Y009529D01*
X049353Y009499D01*
X049375Y009466D01*
X049394Y009432D01*
X049409Y009396D01*
X049421Y009358D01*
X049429Y009320D01*
X049433Y009281D01*
X049433Y009241D01*
X049429Y009202D01*
X049421Y009164D01*
X049409Y009126D01*
X049394Y009090D01*
X049375Y009056D01*
X049353Y009023D01*
X049328Y008993D01*
X049300Y008966D01*
X049269Y008941D01*
X049236Y008920D01*
X049201Y008902D01*
X049164Y008888D01*
X049127Y008877D01*
X049088Y008870D01*
X049049Y008867D01*
X049010Y008868D01*
X048971Y008873D01*
X048932Y008882D01*
X048895Y008894D01*
X048859Y008910D01*
X048825Y008930D01*
X048793Y008953D01*
X048764Y008979D01*
X048737Y009008D01*
X048713Y009039D01*
X048693Y009073D01*
X048676Y009108D01*
X048663Y009145D01*
X048653Y009183D01*
X048647Y009222D01*
X048645Y009261D01*
X052160Y007643D02*
X052162Y007692D01*
X052168Y007740D01*
X052178Y007788D01*
X052192Y007835D01*
X052209Y007881D01*
X052230Y007925D01*
X052255Y007967D01*
X052283Y008007D01*
X052315Y008045D01*
X052349Y008080D01*
X052386Y008112D01*
X052425Y008141D01*
X052467Y008167D01*
X052511Y008189D01*
X052556Y008207D01*
X052603Y008222D01*
X052650Y008233D01*
X052699Y008240D01*
X052748Y008243D01*
X052797Y008242D01*
X052845Y008237D01*
X052894Y008228D01*
X052941Y008215D01*
X052987Y008198D01*
X053031Y008178D01*
X053074Y008154D01*
X053115Y008127D01*
X053153Y008096D01*
X053189Y008063D01*
X053221Y008027D01*
X053251Y007988D01*
X053278Y007947D01*
X053301Y007903D01*
X053320Y007858D01*
X053336Y007812D01*
X053348Y007765D01*
X053356Y007716D01*
X053360Y007667D01*
X053360Y007619D01*
X053356Y007570D01*
X053348Y007521D01*
X053336Y007474D01*
X053320Y007428D01*
X053301Y007383D01*
X053278Y007339D01*
X053251Y007298D01*
X053221Y007259D01*
X053189Y007223D01*
X053153Y007190D01*
X053115Y007159D01*
X053074Y007132D01*
X053031Y007108D01*
X052987Y007088D01*
X052941Y007071D01*
X052894Y007058D01*
X052845Y007049D01*
X052797Y007044D01*
X052748Y007043D01*
X052699Y007046D01*
X052650Y007053D01*
X052603Y007064D01*
X052556Y007079D01*
X052511Y007097D01*
X052467Y007119D01*
X052425Y007145D01*
X052386Y007174D01*
X052349Y007206D01*
X052315Y007241D01*
X052283Y007279D01*
X052255Y007319D01*
X052230Y007361D01*
X052209Y007405D01*
X052192Y007451D01*
X052178Y007498D01*
X052168Y007546D01*
X052162Y007594D01*
X052160Y007643D01*
X048645Y024025D02*
X048647Y024064D01*
X048653Y024103D01*
X048663Y024141D01*
X048676Y024178D01*
X048693Y024213D01*
X048713Y024247D01*
X048737Y024278D01*
X048764Y024307D01*
X048793Y024333D01*
X048825Y024356D01*
X048859Y024376D01*
X048895Y024392D01*
X048932Y024404D01*
X048971Y024413D01*
X049010Y024418D01*
X049049Y024419D01*
X049088Y024416D01*
X049127Y024409D01*
X049164Y024398D01*
X049201Y024384D01*
X049236Y024366D01*
X049269Y024345D01*
X049300Y024320D01*
X049328Y024293D01*
X049353Y024263D01*
X049375Y024230D01*
X049394Y024196D01*
X049409Y024160D01*
X049421Y024122D01*
X049429Y024084D01*
X049433Y024045D01*
X049433Y024005D01*
X049429Y023966D01*
X049421Y023928D01*
X049409Y023890D01*
X049394Y023854D01*
X049375Y023820D01*
X049353Y023787D01*
X049328Y023757D01*
X049300Y023730D01*
X049269Y023705D01*
X049236Y023684D01*
X049201Y023666D01*
X049164Y023652D01*
X049127Y023641D01*
X049088Y023634D01*
X049049Y023631D01*
X049010Y023632D01*
X048971Y023637D01*
X048932Y023646D01*
X048895Y023658D01*
X048859Y023674D01*
X048825Y023694D01*
X048793Y023717D01*
X048764Y023743D01*
X048737Y023772D01*
X048713Y023803D01*
X048693Y023837D01*
X048676Y023872D01*
X048663Y023909D01*
X048653Y023947D01*
X048647Y023986D01*
X048645Y024025D01*
X052160Y025643D02*
X052162Y025692D01*
X052168Y025740D01*
X052178Y025788D01*
X052192Y025835D01*
X052209Y025881D01*
X052230Y025925D01*
X052255Y025967D01*
X052283Y026007D01*
X052315Y026045D01*
X052349Y026080D01*
X052386Y026112D01*
X052425Y026141D01*
X052467Y026167D01*
X052511Y026189D01*
X052556Y026207D01*
X052603Y026222D01*
X052650Y026233D01*
X052699Y026240D01*
X052748Y026243D01*
X052797Y026242D01*
X052845Y026237D01*
X052894Y026228D01*
X052941Y026215D01*
X052987Y026198D01*
X053031Y026178D01*
X053074Y026154D01*
X053115Y026127D01*
X053153Y026096D01*
X053189Y026063D01*
X053221Y026027D01*
X053251Y025988D01*
X053278Y025947D01*
X053301Y025903D01*
X053320Y025858D01*
X053336Y025812D01*
X053348Y025765D01*
X053356Y025716D01*
X053360Y025667D01*
X053360Y025619D01*
X053356Y025570D01*
X053348Y025521D01*
X053336Y025474D01*
X053320Y025428D01*
X053301Y025383D01*
X053278Y025339D01*
X053251Y025298D01*
X053221Y025259D01*
X053189Y025223D01*
X053153Y025190D01*
X053115Y025159D01*
X053074Y025132D01*
X053031Y025108D01*
X052987Y025088D01*
X052941Y025071D01*
X052894Y025058D01*
X052845Y025049D01*
X052797Y025044D01*
X052748Y025043D01*
X052699Y025046D01*
X052650Y025053D01*
X052603Y025064D01*
X052556Y025079D01*
X052511Y025097D01*
X052467Y025119D01*
X052425Y025145D01*
X052386Y025174D01*
X052349Y025206D01*
X052315Y025241D01*
X052283Y025279D01*
X052255Y025319D01*
X052230Y025361D01*
X052209Y025405D01*
X052192Y025451D01*
X052178Y025498D01*
X052168Y025546D01*
X052162Y025594D01*
X052160Y025643D01*
X021086Y024025D02*
X021088Y024064D01*
X021094Y024103D01*
X021104Y024141D01*
X021117Y024178D01*
X021134Y024213D01*
X021154Y024247D01*
X021178Y024278D01*
X021205Y024307D01*
X021234Y024333D01*
X021266Y024356D01*
X021300Y024376D01*
X021336Y024392D01*
X021373Y024404D01*
X021412Y024413D01*
X021451Y024418D01*
X021490Y024419D01*
X021529Y024416D01*
X021568Y024409D01*
X021605Y024398D01*
X021642Y024384D01*
X021677Y024366D01*
X021710Y024345D01*
X021741Y024320D01*
X021769Y024293D01*
X021794Y024263D01*
X021816Y024230D01*
X021835Y024196D01*
X021850Y024160D01*
X021862Y024122D01*
X021870Y024084D01*
X021874Y024045D01*
X021874Y024005D01*
X021870Y023966D01*
X021862Y023928D01*
X021850Y023890D01*
X021835Y023854D01*
X021816Y023820D01*
X021794Y023787D01*
X021769Y023757D01*
X021741Y023730D01*
X021710Y023705D01*
X021677Y023684D01*
X021642Y023666D01*
X021605Y023652D01*
X021568Y023641D01*
X021529Y023634D01*
X021490Y023631D01*
X021451Y023632D01*
X021412Y023637D01*
X021373Y023646D01*
X021336Y023658D01*
X021300Y023674D01*
X021266Y023694D01*
X021234Y023717D01*
X021205Y023743D01*
X021178Y023772D01*
X021154Y023803D01*
X021134Y023837D01*
X021117Y023872D01*
X021104Y023909D01*
X021094Y023947D01*
X021088Y023986D01*
X021086Y024025D01*
X017160Y025643D02*
X017162Y025692D01*
X017168Y025740D01*
X017178Y025788D01*
X017192Y025835D01*
X017209Y025881D01*
X017230Y025925D01*
X017255Y025967D01*
X017283Y026007D01*
X017315Y026045D01*
X017349Y026080D01*
X017386Y026112D01*
X017425Y026141D01*
X017467Y026167D01*
X017511Y026189D01*
X017556Y026207D01*
X017603Y026222D01*
X017650Y026233D01*
X017699Y026240D01*
X017748Y026243D01*
X017797Y026242D01*
X017845Y026237D01*
X017894Y026228D01*
X017941Y026215D01*
X017987Y026198D01*
X018031Y026178D01*
X018074Y026154D01*
X018115Y026127D01*
X018153Y026096D01*
X018189Y026063D01*
X018221Y026027D01*
X018251Y025988D01*
X018278Y025947D01*
X018301Y025903D01*
X018320Y025858D01*
X018336Y025812D01*
X018348Y025765D01*
X018356Y025716D01*
X018360Y025667D01*
X018360Y025619D01*
X018356Y025570D01*
X018348Y025521D01*
X018336Y025474D01*
X018320Y025428D01*
X018301Y025383D01*
X018278Y025339D01*
X018251Y025298D01*
X018221Y025259D01*
X018189Y025223D01*
X018153Y025190D01*
X018115Y025159D01*
X018074Y025132D01*
X018031Y025108D01*
X017987Y025088D01*
X017941Y025071D01*
X017894Y025058D01*
X017845Y025049D01*
X017797Y025044D01*
X017748Y025043D01*
X017699Y025046D01*
X017650Y025053D01*
X017603Y025064D01*
X017556Y025079D01*
X017511Y025097D01*
X017467Y025119D01*
X017425Y025145D01*
X017386Y025174D01*
X017349Y025206D01*
X017315Y025241D01*
X017283Y025279D01*
X017255Y025319D01*
X017230Y025361D01*
X017209Y025405D01*
X017192Y025451D01*
X017178Y025498D01*
X017168Y025546D01*
X017162Y025594D01*
X017160Y025643D01*
D12*
X017760Y025643D03*
X017760Y007643D03*
X052760Y007643D03*
X052760Y025643D03*
D13*
X022760Y023793D03*
D14*
X027460Y020643D03*
D15*
X031760Y023993D03*
D16*
X021480Y024025D03*
X021480Y009261D03*
X049039Y009261D03*
X049039Y024025D03*
D17*
X027485Y006552D03*
X024336Y006552D03*
D18*
X036260Y007043D03*
X037260Y007143D03*
X038260Y007043D03*
X039260Y007143D03*
X040260Y007043D03*
X041260Y007143D03*
X042260Y007043D03*
X043260Y007143D03*
X045260Y007043D03*
X046260Y007143D03*
X047260Y007043D03*
X048260Y007143D03*
X049260Y007043D03*
X050260Y007143D03*
X050260Y026143D03*
X049260Y026243D03*
X048260Y026143D03*
X047260Y026243D03*
X046260Y026143D03*
X045260Y026243D03*
X044260Y026143D03*
X043260Y026243D03*
X041760Y026143D03*
X040760Y026243D03*
X039760Y026143D03*
X038760Y026243D03*
X037760Y026143D03*
X036760Y026243D03*
X035760Y026143D03*
X034760Y026243D03*
X033760Y026143D03*
X032760Y026143D03*
X030760Y026143D03*
X029760Y026143D03*
X028760Y026143D03*
X027760Y026143D03*
X026760Y026143D03*
X025760Y026143D03*
X024760Y026143D03*
X023760Y026143D03*
D19*
X032760Y023543D03*
X033760Y023543D03*
X033760Y021943D03*
X032760Y021943D03*
X036760Y022443D03*
X037760Y022443D03*
X038760Y022443D03*
X039760Y022443D03*
X040760Y022443D03*
X041760Y022443D03*
X043260Y022443D03*
X044260Y022443D03*
X045260Y022443D03*
X046260Y022443D03*
X047260Y022443D03*
X048260Y022843D03*
X049260Y022843D03*
X050260Y022443D03*
X049260Y021243D03*
X048260Y021243D03*
X047260Y024043D03*
X046260Y024043D03*
X045260Y024043D03*
X044260Y024043D03*
X043260Y024043D03*
X041760Y024043D03*
X040760Y024043D03*
X039760Y024043D03*
X038760Y024043D03*
X037760Y024043D03*
X036760Y024043D03*
X050260Y024043D03*
X049260Y012043D03*
X048260Y012043D03*
X047260Y011043D03*
X046260Y011043D03*
X045260Y011043D03*
X045260Y009443D03*
X046260Y009443D03*
X047260Y009443D03*
X048260Y010443D03*
X049260Y010443D03*
X050260Y011043D03*
X050260Y009443D03*
M02*
