G75*
%MOIN*%
%OFA0B0*%
%FSLAX24Y24*%
%IPPOS*%
%LPD*%
%AMOC8*
5,1,8,0,0,1.08239X$1,22.5*
%
%ADD10C,0.0050*%
%ADD11R,0.0370X0.0400*%
%ADD12R,0.0600X0.0300*%
%ADD13C,0.0000*%
%ADD14R,0.0400X0.0370*%
%ADD15R,0.0300X0.0600*%
%ADD16R,0.0400X0.0600*%
%ADD17R,0.0600X0.0800*%
%ADD18R,0.0600X0.0600*%
%ADD19R,0.0197X0.0591*%
%ADD20R,0.0866X0.0866*%
%ADD21C,0.0740*%
%ADD22R,0.0236X0.0472*%
%ADD23R,0.0315X0.0354*%
%ADD24C,0.0160*%
%ADD25C,0.0330*%
%ADD26C,0.0436*%
%ADD27C,0.0120*%
D10*
X016260Y007643D02*
X016260Y025143D01*
X016250Y025224D01*
X016244Y025306D01*
X016242Y025387D01*
X016244Y025469D01*
X016249Y025550D01*
X016258Y025631D01*
X016271Y025712D01*
X016288Y025792D01*
X016308Y025871D01*
X016332Y025949D01*
X016359Y026026D01*
X016390Y026102D01*
X016425Y026176D01*
X016463Y026248D01*
X016504Y026319D01*
X016548Y026387D01*
X016596Y026454D01*
X016646Y026518D01*
X016700Y026580D01*
X016756Y026639D01*
X016815Y026696D01*
X016876Y026749D01*
X016940Y026800D01*
X017006Y026848D01*
X017074Y026893D01*
X017145Y026935D01*
X017217Y026973D01*
X017291Y027008D01*
X017366Y027039D01*
X017443Y027067D01*
X017521Y027092D01*
X017600Y027113D01*
X017679Y027130D01*
X017760Y027143D01*
X052760Y027143D01*
X052841Y027130D01*
X052920Y027113D01*
X052999Y027092D01*
X053077Y027067D01*
X053154Y027039D01*
X053229Y027008D01*
X053303Y026973D01*
X053375Y026935D01*
X053446Y026893D01*
X053514Y026848D01*
X053580Y026800D01*
X053644Y026749D01*
X053705Y026696D01*
X053764Y026639D01*
X053820Y026580D01*
X053874Y026518D01*
X053924Y026454D01*
X053972Y026387D01*
X054016Y026319D01*
X054057Y026248D01*
X054095Y026176D01*
X054130Y026102D01*
X054161Y026026D01*
X054188Y025949D01*
X054212Y025871D01*
X054232Y025792D01*
X054249Y025712D01*
X054262Y025631D01*
X054271Y025550D01*
X054276Y025469D01*
X054278Y025387D01*
X054276Y025306D01*
X054270Y025224D01*
X054260Y025143D01*
X054260Y007643D01*
X054258Y007567D01*
X054252Y007491D01*
X054243Y007416D01*
X054229Y007341D01*
X054212Y007267D01*
X054191Y007194D01*
X054167Y007122D01*
X054138Y007051D01*
X054107Y006982D01*
X054072Y006915D01*
X054033Y006850D01*
X053991Y006786D01*
X053946Y006725D01*
X053898Y006666D01*
X053847Y006610D01*
X053793Y006556D01*
X053737Y006505D01*
X053678Y006457D01*
X053617Y006412D01*
X053553Y006370D01*
X053488Y006331D01*
X053421Y006296D01*
X053352Y006265D01*
X053281Y006236D01*
X053209Y006212D01*
X053136Y006191D01*
X053062Y006174D01*
X052987Y006160D01*
X052912Y006151D01*
X052836Y006145D01*
X052760Y006143D01*
X017760Y006143D01*
X017684Y006145D01*
X017608Y006151D01*
X017533Y006160D01*
X017458Y006174D01*
X017384Y006191D01*
X017311Y006212D01*
X017239Y006236D01*
X017168Y006265D01*
X017099Y006296D01*
X017032Y006331D01*
X016967Y006370D01*
X016903Y006412D01*
X016842Y006457D01*
X016783Y006505D01*
X016727Y006556D01*
X016673Y006610D01*
X016622Y006666D01*
X016574Y006725D01*
X016529Y006786D01*
X016487Y006850D01*
X016448Y006915D01*
X016413Y006982D01*
X016382Y007051D01*
X016353Y007122D01*
X016329Y007194D01*
X016308Y007267D01*
X016291Y007341D01*
X016277Y007416D01*
X016268Y007491D01*
X016262Y007567D01*
X016260Y007643D01*
D11*
X017925Y008393D03*
X018594Y008393D03*
X018194Y018143D03*
X017525Y018143D03*
X017525Y020843D03*
X018194Y020843D03*
X038425Y015143D03*
X039094Y015143D03*
X052325Y015143D03*
X052994Y015143D03*
X052994Y012393D03*
X052325Y012393D03*
X052325Y020893D03*
X052994Y020893D03*
D12*
X053660Y021593D03*
X053660Y023093D03*
X051660Y023093D03*
X051660Y021593D03*
X051660Y017393D03*
X051660Y015893D03*
X053660Y015893D03*
X053660Y017393D03*
X053660Y011693D03*
X053660Y010193D03*
X051660Y010193D03*
X051660Y011693D03*
X018860Y011693D03*
X016860Y011693D03*
X016860Y010193D03*
X018860Y010193D03*
X018860Y015893D03*
X016860Y015893D03*
X016860Y017393D03*
X018860Y017393D03*
X018860Y021593D03*
X016860Y021593D03*
X016860Y023093D03*
X018860Y023093D03*
D13*
X021086Y024025D02*
X021088Y024064D01*
X021094Y024103D01*
X021104Y024141D01*
X021117Y024178D01*
X021134Y024213D01*
X021154Y024247D01*
X021178Y024278D01*
X021205Y024307D01*
X021234Y024333D01*
X021266Y024356D01*
X021300Y024376D01*
X021336Y024392D01*
X021373Y024404D01*
X021412Y024413D01*
X021451Y024418D01*
X021490Y024419D01*
X021529Y024416D01*
X021568Y024409D01*
X021605Y024398D01*
X021642Y024384D01*
X021677Y024366D01*
X021710Y024345D01*
X021741Y024320D01*
X021769Y024293D01*
X021794Y024263D01*
X021816Y024230D01*
X021835Y024196D01*
X021850Y024160D01*
X021862Y024122D01*
X021870Y024084D01*
X021874Y024045D01*
X021874Y024005D01*
X021870Y023966D01*
X021862Y023928D01*
X021850Y023890D01*
X021835Y023854D01*
X021816Y023820D01*
X021794Y023787D01*
X021769Y023757D01*
X021741Y023730D01*
X021710Y023705D01*
X021677Y023684D01*
X021642Y023666D01*
X021605Y023652D01*
X021568Y023641D01*
X021529Y023634D01*
X021490Y023631D01*
X021451Y023632D01*
X021412Y023637D01*
X021373Y023646D01*
X021336Y023658D01*
X021300Y023674D01*
X021266Y023694D01*
X021234Y023717D01*
X021205Y023743D01*
X021178Y023772D01*
X021154Y023803D01*
X021134Y023837D01*
X021117Y023872D01*
X021104Y023909D01*
X021094Y023947D01*
X021088Y023986D01*
X021086Y024025D01*
X021086Y009261D02*
X021088Y009300D01*
X021094Y009339D01*
X021104Y009377D01*
X021117Y009414D01*
X021134Y009449D01*
X021154Y009483D01*
X021178Y009514D01*
X021205Y009543D01*
X021234Y009569D01*
X021266Y009592D01*
X021300Y009612D01*
X021336Y009628D01*
X021373Y009640D01*
X021412Y009649D01*
X021451Y009654D01*
X021490Y009655D01*
X021529Y009652D01*
X021568Y009645D01*
X021605Y009634D01*
X021642Y009620D01*
X021677Y009602D01*
X021710Y009581D01*
X021741Y009556D01*
X021769Y009529D01*
X021794Y009499D01*
X021816Y009466D01*
X021835Y009432D01*
X021850Y009396D01*
X021862Y009358D01*
X021870Y009320D01*
X021874Y009281D01*
X021874Y009241D01*
X021870Y009202D01*
X021862Y009164D01*
X021850Y009126D01*
X021835Y009090D01*
X021816Y009056D01*
X021794Y009023D01*
X021769Y008993D01*
X021741Y008966D01*
X021710Y008941D01*
X021677Y008920D01*
X021642Y008902D01*
X021605Y008888D01*
X021568Y008877D01*
X021529Y008870D01*
X021490Y008867D01*
X021451Y008868D01*
X021412Y008873D01*
X021373Y008882D01*
X021336Y008894D01*
X021300Y008910D01*
X021266Y008930D01*
X021234Y008953D01*
X021205Y008979D01*
X021178Y009008D01*
X021154Y009039D01*
X021134Y009073D01*
X021117Y009108D01*
X021104Y009145D01*
X021094Y009183D01*
X021088Y009222D01*
X021086Y009261D01*
X024161Y006552D02*
X024163Y006578D01*
X024169Y006604D01*
X024178Y006628D01*
X024191Y006651D01*
X024208Y006671D01*
X024227Y006689D01*
X024249Y006704D01*
X024272Y006715D01*
X024297Y006723D01*
X024323Y006727D01*
X024349Y006727D01*
X024375Y006723D01*
X024400Y006715D01*
X024424Y006704D01*
X024445Y006689D01*
X024464Y006671D01*
X024481Y006651D01*
X024494Y006628D01*
X024503Y006604D01*
X024509Y006578D01*
X024511Y006552D01*
X024509Y006526D01*
X024503Y006500D01*
X024494Y006476D01*
X024481Y006453D01*
X024464Y006433D01*
X024445Y006415D01*
X024423Y006400D01*
X024400Y006389D01*
X024375Y006381D01*
X024349Y006377D01*
X024323Y006377D01*
X024297Y006381D01*
X024272Y006389D01*
X024248Y006400D01*
X024227Y006415D01*
X024208Y006433D01*
X024191Y006453D01*
X024178Y006476D01*
X024169Y006500D01*
X024163Y006526D01*
X024161Y006552D01*
X027310Y006552D02*
X027312Y006578D01*
X027318Y006604D01*
X027327Y006628D01*
X027340Y006651D01*
X027357Y006671D01*
X027376Y006689D01*
X027398Y006704D01*
X027421Y006715D01*
X027446Y006723D01*
X027472Y006727D01*
X027498Y006727D01*
X027524Y006723D01*
X027549Y006715D01*
X027573Y006704D01*
X027594Y006689D01*
X027613Y006671D01*
X027630Y006651D01*
X027643Y006628D01*
X027652Y006604D01*
X027658Y006578D01*
X027660Y006552D01*
X027658Y006526D01*
X027652Y006500D01*
X027643Y006476D01*
X027630Y006453D01*
X027613Y006433D01*
X027594Y006415D01*
X027572Y006400D01*
X027549Y006389D01*
X027524Y006381D01*
X027498Y006377D01*
X027472Y006377D01*
X027446Y006381D01*
X027421Y006389D01*
X027397Y006400D01*
X027376Y006415D01*
X027357Y006433D01*
X027340Y006453D01*
X027327Y006476D01*
X027318Y006500D01*
X027312Y006526D01*
X027310Y006552D01*
X048645Y009261D02*
X048647Y009300D01*
X048653Y009339D01*
X048663Y009377D01*
X048676Y009414D01*
X048693Y009449D01*
X048713Y009483D01*
X048737Y009514D01*
X048764Y009543D01*
X048793Y009569D01*
X048825Y009592D01*
X048859Y009612D01*
X048895Y009628D01*
X048932Y009640D01*
X048971Y009649D01*
X049010Y009654D01*
X049049Y009655D01*
X049088Y009652D01*
X049127Y009645D01*
X049164Y009634D01*
X049201Y009620D01*
X049236Y009602D01*
X049269Y009581D01*
X049300Y009556D01*
X049328Y009529D01*
X049353Y009499D01*
X049375Y009466D01*
X049394Y009432D01*
X049409Y009396D01*
X049421Y009358D01*
X049429Y009320D01*
X049433Y009281D01*
X049433Y009241D01*
X049429Y009202D01*
X049421Y009164D01*
X049409Y009126D01*
X049394Y009090D01*
X049375Y009056D01*
X049353Y009023D01*
X049328Y008993D01*
X049300Y008966D01*
X049269Y008941D01*
X049236Y008920D01*
X049201Y008902D01*
X049164Y008888D01*
X049127Y008877D01*
X049088Y008870D01*
X049049Y008867D01*
X049010Y008868D01*
X048971Y008873D01*
X048932Y008882D01*
X048895Y008894D01*
X048859Y008910D01*
X048825Y008930D01*
X048793Y008953D01*
X048764Y008979D01*
X048737Y009008D01*
X048713Y009039D01*
X048693Y009073D01*
X048676Y009108D01*
X048663Y009145D01*
X048653Y009183D01*
X048647Y009222D01*
X048645Y009261D01*
X048645Y024025D02*
X048647Y024064D01*
X048653Y024103D01*
X048663Y024141D01*
X048676Y024178D01*
X048693Y024213D01*
X048713Y024247D01*
X048737Y024278D01*
X048764Y024307D01*
X048793Y024333D01*
X048825Y024356D01*
X048859Y024376D01*
X048895Y024392D01*
X048932Y024404D01*
X048971Y024413D01*
X049010Y024418D01*
X049049Y024419D01*
X049088Y024416D01*
X049127Y024409D01*
X049164Y024398D01*
X049201Y024384D01*
X049236Y024366D01*
X049269Y024345D01*
X049300Y024320D01*
X049328Y024293D01*
X049353Y024263D01*
X049375Y024230D01*
X049394Y024196D01*
X049409Y024160D01*
X049421Y024122D01*
X049429Y024084D01*
X049433Y024045D01*
X049433Y024005D01*
X049429Y023966D01*
X049421Y023928D01*
X049409Y023890D01*
X049394Y023854D01*
X049375Y023820D01*
X049353Y023787D01*
X049328Y023757D01*
X049300Y023730D01*
X049269Y023705D01*
X049236Y023684D01*
X049201Y023666D01*
X049164Y023652D01*
X049127Y023641D01*
X049088Y023634D01*
X049049Y023631D01*
X049010Y023632D01*
X048971Y023637D01*
X048932Y023646D01*
X048895Y023658D01*
X048859Y023674D01*
X048825Y023694D01*
X048793Y023717D01*
X048764Y023743D01*
X048737Y023772D01*
X048713Y023803D01*
X048693Y023837D01*
X048676Y023872D01*
X048663Y023909D01*
X048653Y023947D01*
X048647Y023986D01*
X048645Y024025D01*
D14*
X033882Y016353D03*
X033094Y016353D03*
X033094Y015684D03*
X033882Y015684D03*
X023960Y012578D03*
X023960Y011909D03*
X023760Y023309D03*
X023760Y023978D03*
X030260Y023978D03*
X031260Y023978D03*
X031260Y023309D03*
X030260Y023309D03*
D15*
X027210Y010843D03*
X026777Y010843D03*
X026344Y010843D03*
X025911Y010843D03*
X025478Y010843D03*
X025045Y010843D03*
X024611Y010843D03*
X024178Y010843D03*
X023745Y010843D03*
D16*
X023097Y010607D03*
D17*
X023234Y006759D03*
X029297Y006759D03*
D18*
X028974Y010689D03*
D19*
X033094Y014735D03*
X033488Y014735D03*
X033882Y014735D03*
X034275Y014735D03*
X034669Y014735D03*
X035063Y014735D03*
X035456Y014735D03*
X035850Y014735D03*
X036244Y014735D03*
X036637Y014735D03*
X037031Y014735D03*
X037425Y014735D03*
X029425Y024139D03*
X029031Y024139D03*
X028637Y024139D03*
X028244Y024139D03*
X027850Y024139D03*
X027456Y024139D03*
X027063Y024139D03*
X026669Y024139D03*
X026275Y024139D03*
X025882Y024139D03*
X025488Y024139D03*
X025094Y024139D03*
D20*
X024031Y025043D03*
X030488Y025043D03*
X032031Y013830D03*
X038488Y013830D03*
D21*
X039260Y007143D03*
X038260Y007043D03*
X040260Y007043D03*
X041260Y007143D03*
X042260Y007043D03*
X043260Y007143D03*
X044260Y007043D03*
X045260Y007143D03*
X047260Y007043D03*
X048260Y007143D03*
X049260Y007043D03*
X050260Y007143D03*
X051260Y007043D03*
X052260Y007143D03*
X030760Y022143D03*
X029760Y022143D03*
X028760Y022143D03*
X027760Y022143D03*
X026760Y022143D03*
X025760Y022143D03*
X024760Y022143D03*
X023760Y022143D03*
X034760Y026143D03*
X035760Y026143D03*
X036760Y026243D03*
X037760Y026143D03*
X038760Y026243D03*
X039760Y026143D03*
X040760Y026243D03*
X041760Y026143D03*
X042760Y026243D03*
X043760Y026143D03*
X045260Y026243D03*
X046260Y026143D03*
X047260Y026243D03*
X048260Y026143D03*
X049260Y026243D03*
X050260Y026143D03*
X051260Y026243D03*
X052260Y026143D03*
D22*
X046260Y022746D03*
X045760Y022746D03*
X045260Y022746D03*
X044760Y022746D03*
X044260Y022746D03*
X043760Y022746D03*
X043260Y022746D03*
X042260Y022746D03*
X041760Y022746D03*
X041260Y022746D03*
X040760Y022746D03*
X040260Y022746D03*
X039760Y022746D03*
X039260Y022746D03*
X039260Y020541D03*
X039760Y020541D03*
X040260Y020541D03*
X040760Y020541D03*
X041260Y020541D03*
X041760Y020541D03*
X042260Y020541D03*
X043260Y020541D03*
X043760Y020541D03*
X044260Y020541D03*
X044760Y020541D03*
X045260Y020541D03*
X045760Y020541D03*
X046260Y020541D03*
D23*
X040634Y016537D03*
X039885Y016537D03*
X040260Y015710D03*
D24*
X039661Y015710D01*
X039094Y015143D01*
X038425Y015143D02*
X037833Y015143D01*
X037425Y014735D01*
X036660Y014757D02*
X036637Y014735D01*
X036660Y014757D02*
X036660Y015343D01*
X038460Y017143D01*
X042560Y017143D01*
X044760Y019343D01*
X044760Y020541D01*
X045260Y020541D02*
X045260Y019443D01*
X042660Y016843D01*
X040940Y016843D01*
X040634Y016537D01*
X039885Y016537D02*
X039360Y016537D01*
X039360Y016543D01*
X038360Y017443D02*
X036260Y015343D01*
X036260Y014751D01*
X036244Y014735D01*
X035860Y014744D02*
X035850Y014735D01*
X035860Y014744D02*
X035860Y015343D01*
X038260Y017743D01*
X042360Y017743D01*
X043760Y019143D01*
X043760Y020541D01*
X044260Y020541D02*
X044260Y019243D01*
X042460Y017443D01*
X038360Y017443D01*
X038160Y018043D02*
X039660Y018043D01*
X040260Y018643D01*
X040260Y020541D01*
X040760Y020541D02*
X040760Y018643D01*
X040260Y018143D01*
X039660Y018643D02*
X039360Y018343D01*
X038060Y018343D01*
X035063Y015346D01*
X035063Y014735D01*
X035063Y011746D01*
X033360Y010043D01*
X026860Y010043D01*
X026360Y010543D01*
X026360Y010828D01*
X026344Y010843D01*
X026777Y010843D02*
X026777Y011261D01*
X027160Y011643D01*
X033560Y011643D01*
X033960Y012243D02*
X025660Y012243D01*
X024611Y011195D01*
X024611Y010843D01*
X025478Y010843D02*
X025478Y010425D01*
X026160Y009743D01*
X033560Y009743D01*
X035456Y011640D01*
X035456Y014735D01*
X035456Y015340D01*
X038160Y018043D01*
X037960Y018643D02*
X039060Y018643D01*
X039260Y018843D01*
X039260Y020541D01*
X039260Y020843D01*
X039560Y021143D01*
X043260Y021143D01*
X044460Y021143D01*
X044960Y021143D01*
X046460Y021143D01*
X046260Y021343D01*
X046260Y022746D01*
X045260Y022746D02*
X045260Y025143D01*
X046260Y026143D01*
X047260Y026243D02*
X047260Y017443D01*
X049360Y015343D01*
X051110Y015343D01*
X051660Y015893D01*
X051660Y015809D01*
X052325Y015143D01*
X052994Y015143D02*
X052994Y012393D01*
X052325Y012393D02*
X052325Y010859D01*
X051660Y010193D01*
X050260Y008793D01*
X050260Y007143D01*
X049260Y007043D02*
X049260Y007643D01*
X047460Y009443D01*
X023260Y009443D01*
X022460Y010243D01*
X022460Y011243D01*
X019460Y014243D01*
X019460Y017643D01*
X018160Y018943D01*
X018160Y020809D01*
X018194Y020843D01*
X018160Y020878D01*
X018160Y021243D01*
X017810Y021593D01*
X016860Y021593D01*
X017525Y020843D02*
X017525Y018143D01*
X017525Y012543D01*
X017525Y008793D01*
X017925Y008393D01*
X018594Y008393D02*
X018644Y008343D01*
X046560Y008343D01*
X047260Y007643D01*
X047260Y007043D01*
X048260Y007143D02*
X048260Y007643D01*
X046760Y009143D01*
X023160Y009143D01*
X022160Y010143D01*
X022160Y011143D01*
X017960Y015343D01*
X017960Y016493D01*
X018860Y017393D01*
X018194Y018059D01*
X018194Y018143D01*
X023760Y022143D02*
X023760Y023309D01*
X024160Y023943D02*
X024660Y023443D01*
X025360Y023443D01*
X025488Y023572D01*
X025488Y024139D01*
X025882Y024139D02*
X025882Y023265D01*
X024760Y022143D01*
X025760Y022143D02*
X026275Y022659D01*
X026275Y024139D01*
X026669Y024139D02*
X026669Y022234D01*
X026760Y022143D01*
X027063Y022840D02*
X027760Y022143D01*
X028760Y022143D02*
X027456Y023446D01*
X027456Y024139D01*
X027063Y024139D02*
X027063Y022840D01*
X027850Y023553D02*
X027850Y024139D01*
X027860Y024139D01*
X027860Y024843D01*
X025094Y024843D01*
X025094Y024139D01*
X024160Y023943D02*
X023794Y023943D01*
X023760Y023978D01*
X027850Y023553D02*
X028660Y022743D01*
X029160Y022743D01*
X029760Y022143D01*
X030160Y022743D02*
X030760Y022143D01*
X030694Y022743D02*
X030160Y022743D01*
X029660Y022743D01*
X029360Y023043D01*
X028860Y023043D01*
X028244Y023659D01*
X028244Y024139D01*
X030694Y022743D02*
X031260Y023309D01*
X039260Y022746D02*
X039260Y022243D01*
X039560Y021943D01*
X042260Y021943D01*
X042960Y021943D01*
X043260Y022243D01*
X043260Y022746D01*
X043760Y022746D02*
X043760Y025243D01*
X042760Y026243D01*
X043760Y026143D02*
X044260Y025643D01*
X044260Y022746D01*
X044760Y022746D02*
X044760Y025743D01*
X045260Y026243D01*
X048260Y026143D02*
X048260Y023743D01*
X050360Y021643D01*
X051610Y021643D01*
X051660Y021593D01*
X051660Y021559D01*
X052325Y020893D01*
X052960Y020859D02*
X052960Y020543D01*
X052660Y020243D01*
X052994Y019909D01*
X052994Y015143D01*
X052660Y020243D02*
X051860Y020243D01*
X050960Y021143D01*
X047660Y021143D01*
X043260Y021143D02*
X043260Y020541D01*
X041260Y020541D02*
X041260Y018143D01*
X039760Y019143D02*
X039760Y020541D01*
X039760Y022746D02*
X039760Y026143D01*
X040260Y025543D02*
X040260Y022746D01*
X040760Y022746D02*
X040760Y026243D01*
X041260Y025643D02*
X041760Y026143D01*
X041260Y025643D02*
X041260Y022746D01*
X042260Y022746D02*
X042260Y022843D01*
X042660Y023243D01*
X037960Y018643D02*
X034760Y015443D01*
X034669Y015353D01*
X034669Y014735D01*
X034660Y014735D01*
X034660Y011743D01*
X033260Y010343D01*
X030760Y010343D01*
X030410Y010693D01*
X025911Y010843D02*
X025860Y010894D01*
X025860Y011643D01*
X024960Y012543D02*
X023994Y012543D01*
X023960Y012578D01*
X023925Y012543D01*
X018860Y011693D02*
X018260Y011093D01*
X018260Y009843D01*
X018594Y009509D01*
X018594Y008393D01*
X033094Y014735D02*
X033094Y015684D01*
X033882Y015684D02*
X033882Y014735D01*
X033488Y014735D02*
X033488Y016172D01*
X033660Y016343D01*
X033872Y016343D01*
X033882Y016353D01*
X034760Y016543D02*
X034760Y015443D01*
X052960Y020859D02*
X052994Y020893D01*
D25*
X053660Y020043D03*
X052260Y019543D03*
X048160Y017543D03*
X043760Y017043D03*
X041560Y016143D03*
X039360Y016543D03*
X038660Y015943D03*
X037560Y015543D03*
X036560Y013743D03*
X033960Y012243D03*
X033560Y011643D03*
X032060Y011043D03*
X030410Y010693D03*
X028060Y011143D03*
X025860Y011643D03*
X024960Y012543D03*
X022760Y011643D03*
X020260Y011643D03*
X017525Y012543D03*
X018760Y013143D03*
X016860Y013943D03*
X018760Y015143D03*
X018960Y016643D03*
X018060Y017343D03*
X019260Y019343D03*
X016860Y019543D03*
X017860Y023843D03*
X023160Y024443D03*
X024460Y022943D03*
X024260Y021543D03*
X027560Y022843D03*
X030760Y023643D03*
X028960Y025343D03*
X031260Y025943D03*
X025760Y025543D03*
X038460Y024443D03*
X040260Y025543D03*
X042360Y024843D03*
X042560Y023743D03*
X042660Y023243D03*
X042260Y021943D03*
X044460Y021143D03*
X045260Y021843D03*
X046460Y021143D03*
X047660Y021143D03*
X048760Y021943D03*
X051360Y024443D03*
X047660Y024743D03*
X046160Y024743D03*
X038260Y019843D03*
X039760Y019143D03*
X039660Y018643D03*
X040260Y018143D03*
X041260Y018143D03*
X041760Y019243D03*
X042960Y019543D03*
X051560Y013843D03*
X053760Y013843D03*
X049860Y011143D03*
X046860Y010243D03*
X047560Y008843D03*
X046160Y007543D03*
X044160Y008743D03*
X043260Y010243D03*
X041660Y011143D03*
X039860Y009943D03*
X039760Y008743D03*
X041760Y008743D03*
X036060Y009843D03*
X036160Y011043D03*
X033160Y008743D03*
X033660Y013543D03*
X024160Y008743D03*
X019760Y009643D03*
X018760Y007143D03*
X021560Y013143D03*
X052760Y008743D03*
D26*
X034760Y016543D03*
D27*
X035054Y016690D02*
X035737Y016690D01*
X035619Y016571D02*
X035088Y016571D01*
X035088Y016609D02*
X035038Y016729D01*
X034945Y016821D01*
X034825Y016871D01*
X034694Y016871D01*
X034574Y016821D01*
X034481Y016729D01*
X034431Y016609D01*
X034431Y016478D01*
X034481Y016357D01*
X034570Y016269D01*
X034570Y015522D01*
X034479Y015431D01*
X034479Y015151D01*
X034472Y015158D01*
X034435Y015179D01*
X034395Y015190D01*
X034275Y015190D01*
X034156Y015190D01*
X034115Y015179D01*
X034079Y015158D01*
X034072Y015151D01*
X034072Y015389D01*
X034127Y015389D01*
X034192Y015453D01*
X034192Y015914D01*
X034127Y015979D01*
X033678Y015979D01*
X034570Y015979D01*
X034570Y016097D02*
X034166Y016097D01*
X034192Y016122D02*
X034127Y016058D01*
X033678Y016058D01*
X033678Y015979D01*
X033298Y015979D02*
X019650Y015979D01*
X019650Y016097D02*
X032750Y016097D01*
X032745Y016106D02*
X032766Y016070D01*
X032796Y016040D01*
X032832Y016019D01*
X032873Y016008D01*
X033062Y016008D01*
X033062Y016320D01*
X033127Y016320D01*
X033127Y016008D01*
X033298Y016008D01*
X033298Y015979D01*
X032849Y015979D01*
X032784Y015914D01*
X032784Y015453D01*
X032849Y015389D01*
X032904Y015389D01*
X032904Y015094D01*
X032886Y015076D01*
X032886Y014394D01*
X032950Y014330D01*
X033238Y014330D01*
X033291Y014382D01*
X033344Y014330D01*
X033632Y014330D01*
X033685Y014382D01*
X033738Y014330D01*
X034026Y014330D01*
X034045Y014349D01*
X034049Y014341D01*
X034079Y014312D01*
X034115Y014290D01*
X034156Y014280D01*
X034275Y014280D01*
X034275Y014735D01*
X034275Y015190D01*
X034275Y014735D01*
X034275Y014735D01*
X034275Y014735D01*
X034275Y014280D01*
X034395Y014280D01*
X034435Y014290D01*
X034470Y014310D01*
X034470Y011822D01*
X033181Y010533D01*
X030838Y010533D01*
X030685Y010687D01*
X030685Y010748D01*
X030643Y010849D01*
X030565Y010926D01*
X030464Y010968D01*
X030355Y010968D01*
X030254Y010926D01*
X030176Y010849D01*
X030135Y010748D01*
X030135Y010639D01*
X030176Y010538D01*
X030254Y010460D01*
X030355Y010418D01*
X030416Y010418D01*
X030601Y010233D01*
X029311Y010233D01*
X029336Y010240D01*
X029372Y010261D01*
X029402Y010291D01*
X030543Y010291D01*
X030425Y010409D02*
X029434Y010409D01*
X029434Y010368D02*
X029434Y010629D01*
X029034Y010629D01*
X029034Y010749D01*
X028914Y010749D01*
X028914Y010629D01*
X028514Y010629D01*
X028514Y010368D01*
X028525Y010327D01*
X028546Y010291D01*
X026881Y010291D01*
X026938Y010233D02*
X026738Y010433D01*
X026972Y010433D01*
X026993Y010454D01*
X027014Y010433D01*
X027405Y010433D01*
X027470Y010498D01*
X027470Y011189D01*
X027405Y011253D01*
X027038Y011253D01*
X027238Y011453D01*
X033361Y011453D01*
X033404Y011410D01*
X033505Y011368D01*
X033614Y011368D01*
X033715Y011410D01*
X033793Y011488D01*
X033835Y011589D01*
X033835Y011698D01*
X033793Y011799D01*
X033715Y011876D01*
X033614Y011918D01*
X033505Y011918D01*
X033404Y011876D01*
X033361Y011833D01*
X027081Y011833D01*
X026587Y011339D01*
X026587Y011253D01*
X026581Y011253D01*
X026560Y011232D01*
X026539Y011253D01*
X026148Y011253D01*
X026127Y011232D01*
X026106Y011253D01*
X026050Y011253D01*
X026050Y011444D01*
X026093Y011488D01*
X026135Y011589D01*
X026135Y011698D01*
X026093Y011799D01*
X026015Y011876D01*
X025914Y011918D01*
X025805Y011918D01*
X025704Y011876D01*
X025626Y011799D01*
X025585Y011698D01*
X025585Y011589D01*
X025626Y011488D01*
X025670Y011444D01*
X025670Y011253D01*
X025311Y011253D01*
X025293Y011271D01*
X025256Y011292D01*
X025216Y011303D01*
X025060Y011303D01*
X025060Y010858D01*
X025030Y010858D01*
X025030Y011303D01*
X024988Y011303D01*
X025738Y012053D01*
X033761Y012053D01*
X033804Y012010D01*
X033905Y011968D01*
X034014Y011968D01*
X034115Y012010D01*
X034193Y012088D01*
X034235Y012189D01*
X034235Y012298D01*
X034193Y012399D01*
X034115Y012476D01*
X034014Y012518D01*
X033905Y012518D01*
X033804Y012476D01*
X033761Y012433D01*
X025581Y012433D01*
X025470Y012322D01*
X024421Y011274D01*
X024421Y011253D01*
X024416Y011253D01*
X024395Y011232D01*
X024374Y011253D01*
X023983Y011253D01*
X023962Y011232D01*
X023941Y011253D01*
X023550Y011253D01*
X023485Y011189D01*
X023485Y010498D01*
X023550Y010433D01*
X023941Y010433D01*
X023962Y010454D01*
X023983Y010433D01*
X024374Y010433D01*
X024395Y010454D01*
X024416Y010433D01*
X024778Y010433D01*
X024796Y010415D01*
X024833Y010394D01*
X024873Y010383D01*
X025030Y010383D01*
X025030Y010828D01*
X025060Y010828D01*
X025060Y010383D01*
X025216Y010383D01*
X025256Y010394D01*
X025288Y010412D01*
X025288Y010346D01*
X025970Y009665D01*
X025970Y009665D01*
X026001Y009633D01*
X023338Y009633D01*
X022650Y010322D01*
X022650Y011322D01*
X022538Y011433D01*
X019650Y014322D01*
X019650Y017722D01*
X019538Y017833D01*
X018350Y019022D01*
X018350Y020533D01*
X018425Y020533D01*
X018489Y020598D01*
X018489Y021089D01*
X018425Y021153D01*
X018350Y021153D01*
X018350Y021322D01*
X018238Y021433D01*
X017888Y021783D01*
X017270Y021783D01*
X017270Y021789D01*
X017205Y021853D01*
X016514Y021853D01*
X016450Y021789D01*
X016450Y021398D01*
X016514Y021333D01*
X017205Y021333D01*
X017270Y021398D01*
X017270Y021403D01*
X017731Y021403D01*
X017970Y021165D01*
X017970Y021153D01*
X017964Y021153D01*
X017899Y021089D01*
X017899Y020598D01*
X017964Y020533D01*
X017970Y020533D01*
X017970Y018865D01*
X018381Y018453D01*
X017964Y018453D01*
X017899Y018389D01*
X017899Y017898D01*
X017964Y017833D01*
X018151Y017833D01*
X018450Y017535D01*
X018450Y017252D01*
X017881Y016683D01*
X017770Y016572D01*
X017770Y015265D01*
X021970Y011065D01*
X021970Y010065D01*
X022970Y009065D01*
X023081Y008953D01*
X046681Y008953D01*
X048056Y007578D01*
X047988Y007550D01*
X047853Y007415D01*
X047780Y007239D01*
X047780Y007048D01*
X047853Y006871D01*
X047988Y006736D01*
X048164Y006663D01*
X048355Y006663D01*
X048531Y006736D01*
X048666Y006871D01*
X048740Y007048D01*
X048740Y007239D01*
X048666Y007415D01*
X048531Y007550D01*
X048450Y007584D01*
X048450Y007722D01*
X048338Y007833D01*
X046918Y009253D01*
X047381Y009253D01*
X049070Y007565D01*
X049070Y007484D01*
X048988Y007450D01*
X048853Y007315D01*
X048780Y007139D01*
X048780Y006948D01*
X048853Y006771D01*
X048988Y006636D01*
X049164Y006563D01*
X049355Y006563D01*
X049531Y006636D01*
X049666Y006771D01*
X049740Y006948D01*
X049740Y007139D01*
X049666Y007315D01*
X049531Y007450D01*
X049450Y007484D01*
X049450Y007722D01*
X049338Y007833D01*
X047538Y009633D01*
X033718Y009633D01*
X035646Y011561D01*
X035646Y014376D01*
X035653Y014382D01*
X035706Y014330D01*
X035994Y014330D01*
X036047Y014382D01*
X036100Y014330D01*
X036388Y014330D01*
X036441Y014382D01*
X036493Y014330D01*
X036781Y014330D01*
X036801Y014349D01*
X036805Y014341D01*
X036834Y014312D01*
X036871Y014290D01*
X036912Y014280D01*
X037031Y014280D01*
X037031Y014735D01*
X037031Y015190D01*
X036912Y015190D01*
X036871Y015179D01*
X036850Y015167D01*
X036850Y015265D01*
X038538Y016953D01*
X040781Y016953D01*
X040652Y016824D01*
X040430Y016824D01*
X040366Y016760D01*
X040366Y016314D01*
X040430Y016250D01*
X040837Y016250D01*
X040901Y016314D01*
X040901Y016536D01*
X041019Y016653D01*
X042738Y016653D01*
X042850Y016765D01*
X045450Y019365D01*
X045450Y020221D01*
X045488Y020259D01*
X045488Y020823D01*
X045423Y020887D01*
X045096Y020887D01*
X045031Y020823D01*
X045031Y020259D01*
X045070Y020221D01*
X045070Y019522D01*
X044950Y019402D01*
X044950Y020221D01*
X044988Y020259D01*
X044988Y020823D01*
X044923Y020887D01*
X044596Y020887D01*
X044531Y020823D01*
X044531Y020259D01*
X044570Y020221D01*
X044570Y019422D01*
X044450Y019302D01*
X044450Y020221D01*
X044488Y020259D01*
X044488Y020823D01*
X044442Y020868D01*
X044514Y020868D01*
X044615Y020910D01*
X044658Y020953D01*
X046261Y020953D01*
X046277Y020937D01*
X046260Y020937D01*
X046260Y020541D01*
X046538Y020541D01*
X046538Y020798D01*
X046527Y020839D01*
X046510Y020868D01*
X046514Y020868D01*
X046615Y020910D01*
X046693Y020988D01*
X046735Y021089D01*
X046735Y021198D01*
X046693Y021299D01*
X046615Y021376D01*
X046514Y021418D01*
X046453Y021418D01*
X046450Y021422D01*
X046450Y022426D01*
X046488Y022464D01*
X046488Y023027D01*
X046423Y023092D01*
X046096Y023092D01*
X046031Y023027D01*
X046031Y022464D01*
X046070Y022426D01*
X046070Y021333D01*
X044658Y021333D01*
X044615Y021376D01*
X044514Y021418D01*
X044405Y021418D01*
X044304Y021376D01*
X044261Y021333D01*
X039481Y021333D01*
X039370Y021222D01*
X039070Y020922D01*
X039070Y020861D01*
X039031Y020823D01*
X039031Y020259D01*
X039070Y020221D01*
X039070Y018922D01*
X038981Y018833D01*
X037881Y018833D01*
X037770Y018722D01*
X034950Y015902D01*
X034950Y016269D01*
X035038Y016357D01*
X035088Y016478D01*
X035088Y016609D01*
X035077Y016453D02*
X035500Y016453D01*
X035382Y016334D02*
X035015Y016334D01*
X034950Y016216D02*
X035263Y016216D01*
X035145Y016097D02*
X034950Y016097D01*
X034950Y015979D02*
X035026Y015979D01*
X034570Y015860D02*
X034192Y015860D01*
X034192Y015742D02*
X034570Y015742D01*
X034570Y015623D02*
X034192Y015623D01*
X034192Y015505D02*
X034552Y015505D01*
X034479Y015386D02*
X034072Y015386D01*
X034072Y015268D02*
X034479Y015268D01*
X034275Y015149D02*
X034275Y015149D01*
X034275Y015031D02*
X034275Y015031D01*
X034275Y014912D02*
X034275Y014912D01*
X034275Y014794D02*
X034275Y014794D01*
X034275Y014675D02*
X034275Y014675D01*
X034275Y014557D02*
X034275Y014557D01*
X034275Y014438D02*
X034275Y014438D01*
X034275Y014320D02*
X034275Y014320D01*
X034070Y014320D02*
X032563Y014320D01*
X032574Y014309D02*
X032510Y014373D01*
X031553Y014373D01*
X031488Y014309D01*
X031488Y013352D01*
X031553Y013287D01*
X032510Y013287D01*
X032574Y013352D01*
X032574Y014309D01*
X032574Y014201D02*
X034470Y014201D01*
X034470Y014083D02*
X032574Y014083D01*
X032574Y013964D02*
X034470Y013964D01*
X034470Y013846D02*
X032574Y013846D01*
X032574Y013727D02*
X034470Y013727D01*
X034470Y013609D02*
X032574Y013609D01*
X032574Y013490D02*
X034470Y013490D01*
X034470Y013372D02*
X032574Y013372D01*
X031488Y013372D02*
X020600Y013372D01*
X020718Y013253D02*
X034470Y013253D01*
X034470Y013135D02*
X020837Y013135D01*
X020955Y013016D02*
X034470Y013016D01*
X034470Y012898D02*
X021074Y012898D01*
X021192Y012779D02*
X023650Y012779D01*
X023650Y012809D02*
X023650Y012347D01*
X023714Y012283D01*
X024205Y012283D01*
X024270Y012347D01*
X024270Y012353D01*
X024761Y012353D01*
X024804Y012310D01*
X024905Y012268D01*
X025014Y012268D01*
X025115Y012310D01*
X025193Y012388D01*
X025235Y012489D01*
X025235Y012598D01*
X025193Y012699D01*
X025115Y012776D01*
X025014Y012818D01*
X024905Y012818D01*
X024804Y012776D01*
X024761Y012733D01*
X024270Y012733D01*
X024270Y012809D01*
X024205Y012873D01*
X023714Y012873D01*
X023650Y012809D01*
X023650Y012661D02*
X021311Y012661D01*
X021429Y012542D02*
X023650Y012542D01*
X023650Y012424D02*
X021548Y012424D01*
X021666Y012305D02*
X023692Y012305D01*
X023698Y012243D02*
X023661Y012222D01*
X023631Y012192D01*
X023610Y012155D01*
X023600Y012115D01*
X023600Y011941D01*
X023927Y011941D01*
X023927Y011876D01*
X023992Y011876D01*
X023992Y011564D01*
X024181Y011564D01*
X024221Y011575D01*
X024258Y011596D01*
X024288Y011625D01*
X024309Y011662D01*
X024320Y011703D01*
X024320Y011876D01*
X023992Y011876D01*
X023992Y011941D01*
X024320Y011941D01*
X024320Y012115D01*
X024309Y012155D01*
X024288Y012192D01*
X024258Y012222D01*
X024221Y012243D01*
X024181Y012254D01*
X023992Y012254D01*
X023992Y011941D01*
X023927Y011941D01*
X023927Y012254D01*
X023738Y012254D01*
X023698Y012243D01*
X023629Y012187D02*
X021785Y012187D01*
X021903Y012068D02*
X023600Y012068D01*
X023600Y011950D02*
X022022Y011950D01*
X022140Y011831D02*
X023600Y011831D01*
X023600Y011876D02*
X023600Y011703D01*
X023610Y011662D01*
X023631Y011625D01*
X023661Y011596D01*
X023698Y011575D01*
X023738Y011564D01*
X023927Y011564D01*
X023927Y011876D01*
X023600Y011876D01*
X023600Y011713D02*
X022259Y011713D01*
X022377Y011594D02*
X023664Y011594D01*
X023927Y011594D02*
X023992Y011594D01*
X023992Y011713D02*
X023927Y011713D01*
X023927Y011831D02*
X023992Y011831D01*
X023992Y011950D02*
X023927Y011950D01*
X023927Y012068D02*
X023992Y012068D01*
X023992Y012187D02*
X023927Y012187D01*
X024227Y012305D02*
X024815Y012305D01*
X025104Y012305D02*
X025453Y012305D01*
X025334Y012187D02*
X024290Y012187D01*
X024320Y012068D02*
X025216Y012068D01*
X025097Y011950D02*
X024320Y011950D01*
X024320Y011831D02*
X024979Y011831D01*
X024860Y011713D02*
X024320Y011713D01*
X024255Y011594D02*
X024742Y011594D01*
X024623Y011476D02*
X022496Y011476D01*
X022614Y011357D02*
X024505Y011357D01*
X024401Y011239D02*
X024388Y011239D01*
X023968Y011239D02*
X023955Y011239D01*
X023535Y011239D02*
X022650Y011239D01*
X022650Y011120D02*
X023485Y011120D01*
X023485Y011002D02*
X023427Y011002D01*
X023425Y011005D02*
X023396Y011035D01*
X023359Y011056D01*
X023318Y011067D01*
X023137Y011067D01*
X023137Y010647D01*
X023057Y010647D01*
X023057Y010567D01*
X022737Y010567D01*
X022737Y010286D01*
X022748Y010245D01*
X022769Y010209D01*
X022799Y010179D01*
X022836Y010158D01*
X022876Y010147D01*
X023057Y010147D01*
X023057Y010567D01*
X023137Y010567D01*
X023137Y010147D01*
X023318Y010147D01*
X023359Y010158D01*
X023396Y010179D01*
X023425Y010209D01*
X023446Y010245D01*
X023457Y010286D01*
X023457Y010567D01*
X023137Y010567D01*
X023137Y010647D01*
X023457Y010647D01*
X023457Y010928D01*
X023446Y010969D01*
X023425Y011005D01*
X023457Y010883D02*
X023485Y010883D01*
X023485Y010765D02*
X023457Y010765D01*
X023485Y010646D02*
X023137Y010646D01*
X023057Y010646D02*
X022650Y010646D01*
X022737Y010647D02*
X023057Y010647D01*
X023057Y011067D01*
X022876Y011067D01*
X022836Y011056D01*
X022799Y011035D01*
X022769Y011005D01*
X022748Y010969D01*
X022737Y010928D01*
X022737Y010647D01*
X022737Y010765D02*
X022650Y010765D01*
X022650Y010883D02*
X022737Y010883D01*
X022767Y011002D02*
X022650Y011002D01*
X023057Y011002D02*
X023137Y011002D01*
X023137Y010883D02*
X023057Y010883D01*
X023057Y010765D02*
X023137Y010765D01*
X023137Y010528D02*
X023057Y010528D01*
X023057Y010409D02*
X023137Y010409D01*
X023137Y010291D02*
X023057Y010291D01*
X023057Y010172D02*
X023137Y010172D01*
X023384Y010172D02*
X025462Y010172D01*
X025580Y010054D02*
X022918Y010054D01*
X022811Y010172D02*
X022799Y010172D01*
X022737Y010291D02*
X022681Y010291D01*
X022650Y010409D02*
X022737Y010409D01*
X022737Y010528D02*
X022650Y010528D01*
X021970Y010528D02*
X018450Y010528D01*
X018461Y010471D02*
X018450Y010460D01*
X018450Y011015D01*
X018868Y011433D01*
X019205Y011433D01*
X019270Y011498D01*
X019270Y011889D01*
X019205Y011953D01*
X018514Y011953D01*
X018450Y011889D01*
X018450Y011552D01*
X018070Y011172D01*
X018070Y009765D01*
X018181Y009653D01*
X018404Y009430D01*
X018404Y008703D01*
X018364Y008703D01*
X018299Y008639D01*
X018299Y008148D01*
X018364Y008083D01*
X018825Y008083D01*
X018889Y008148D01*
X018889Y008153D01*
X046481Y008153D01*
X047070Y007565D01*
X047070Y007484D01*
X046988Y007450D01*
X046853Y007315D01*
X046780Y007139D01*
X046780Y006948D01*
X046853Y006771D01*
X046988Y006636D01*
X047164Y006563D01*
X047355Y006563D01*
X047531Y006636D01*
X047666Y006771D01*
X047740Y006948D01*
X047740Y007139D01*
X047666Y007315D01*
X047531Y007450D01*
X047450Y007484D01*
X047450Y007722D01*
X047338Y007833D01*
X046638Y008533D01*
X018889Y008533D01*
X018889Y008639D01*
X018825Y008703D01*
X018784Y008703D01*
X018784Y009587D01*
X018450Y009922D01*
X018450Y009927D01*
X018461Y009915D01*
X018498Y009894D01*
X018538Y009883D01*
X018845Y009883D01*
X018845Y010178D01*
X018875Y010178D01*
X018875Y010208D01*
X019320Y010208D01*
X019320Y010364D01*
X019309Y010405D01*
X019288Y010442D01*
X019258Y010471D01*
X019221Y010492D01*
X019181Y010503D01*
X018875Y010503D01*
X018875Y010208D01*
X018845Y010208D01*
X018845Y010503D01*
X018538Y010503D01*
X018498Y010492D01*
X018461Y010471D01*
X018450Y010646D02*
X021970Y010646D01*
X021970Y010765D02*
X018450Y010765D01*
X018450Y010883D02*
X021970Y010883D01*
X021970Y011002D02*
X018450Y011002D01*
X018555Y011120D02*
X021914Y011120D01*
X021795Y011239D02*
X018674Y011239D01*
X018792Y011357D02*
X021677Y011357D01*
X021558Y011476D02*
X019248Y011476D01*
X019270Y011594D02*
X021440Y011594D01*
X021321Y011713D02*
X019270Y011713D01*
X019270Y011831D02*
X021203Y011831D01*
X021084Y011950D02*
X019209Y011950D01*
X018510Y011950D02*
X017715Y011950D01*
X017715Y012068D02*
X020966Y012068D01*
X020847Y012187D02*
X017715Y012187D01*
X017715Y012305D02*
X020729Y012305D01*
X020610Y012424D02*
X017773Y012424D01*
X017758Y012388D02*
X017800Y012489D01*
X017800Y012598D01*
X017758Y012699D01*
X017715Y012742D01*
X017715Y017833D01*
X017755Y017833D01*
X017820Y017898D01*
X017820Y018389D01*
X017755Y018453D01*
X017715Y018453D01*
X017715Y020533D01*
X017755Y020533D01*
X017820Y020598D01*
X017820Y021089D01*
X017755Y021153D01*
X017294Y021153D01*
X017230Y021089D01*
X017230Y020598D01*
X017294Y020533D01*
X017335Y020533D01*
X017335Y018453D01*
X017294Y018453D01*
X017230Y018389D01*
X017230Y017898D01*
X017294Y017833D01*
X017335Y017833D01*
X017335Y012742D01*
X017292Y012699D01*
X017250Y012598D01*
X017250Y012489D01*
X017292Y012388D01*
X017335Y012344D01*
X017335Y008715D01*
X017630Y008420D01*
X017630Y008148D01*
X017694Y008083D01*
X018155Y008083D01*
X018220Y008148D01*
X018220Y008639D01*
X018155Y008703D01*
X017884Y008703D01*
X017715Y008872D01*
X017715Y012344D01*
X017758Y012388D01*
X017800Y012542D02*
X020492Y012542D01*
X020373Y012661D02*
X017774Y012661D01*
X017715Y012779D02*
X020255Y012779D01*
X020136Y012898D02*
X017715Y012898D01*
X017715Y013016D02*
X020018Y013016D01*
X019899Y013135D02*
X017715Y013135D01*
X017715Y013253D02*
X019781Y013253D01*
X019662Y013372D02*
X017715Y013372D01*
X017715Y013490D02*
X019544Y013490D01*
X019425Y013609D02*
X017715Y013609D01*
X017715Y013727D02*
X019307Y013727D01*
X019188Y013846D02*
X017715Y013846D01*
X017715Y013964D02*
X019070Y013964D01*
X018951Y014083D02*
X017715Y014083D01*
X017715Y014201D02*
X018833Y014201D01*
X018714Y014320D02*
X017715Y014320D01*
X017715Y014438D02*
X018596Y014438D01*
X018477Y014557D02*
X017715Y014557D01*
X017715Y014675D02*
X018359Y014675D01*
X018240Y014794D02*
X017715Y014794D01*
X017715Y014912D02*
X018122Y014912D01*
X018003Y015031D02*
X017715Y015031D01*
X017715Y015149D02*
X017885Y015149D01*
X017770Y015268D02*
X017715Y015268D01*
X017715Y015386D02*
X017770Y015386D01*
X017770Y015505D02*
X017715Y015505D01*
X017715Y015623D02*
X017770Y015623D01*
X017770Y015742D02*
X017715Y015742D01*
X017715Y015860D02*
X017770Y015860D01*
X017770Y015979D02*
X017715Y015979D01*
X017715Y016097D02*
X017770Y016097D01*
X017770Y016216D02*
X017715Y016216D01*
X017715Y016334D02*
X017770Y016334D01*
X017770Y016453D02*
X017715Y016453D01*
X017715Y016571D02*
X017770Y016571D01*
X017715Y016690D02*
X017887Y016690D01*
X018006Y016808D02*
X017715Y016808D01*
X017715Y016927D02*
X018124Y016927D01*
X018243Y017045D02*
X017715Y017045D01*
X017715Y017164D02*
X018361Y017164D01*
X018450Y017282D02*
X017715Y017282D01*
X017715Y017401D02*
X018450Y017401D01*
X018450Y017519D02*
X017715Y017519D01*
X017715Y017638D02*
X018346Y017638D01*
X018228Y017756D02*
X017715Y017756D01*
X017797Y017875D02*
X017922Y017875D01*
X017899Y017993D02*
X017820Y017993D01*
X017820Y018112D02*
X017899Y018112D01*
X017899Y018230D02*
X017820Y018230D01*
X017820Y018349D02*
X017899Y018349D01*
X017715Y018467D02*
X018367Y018467D01*
X018248Y018586D02*
X017715Y018586D01*
X017715Y018704D02*
X018130Y018704D01*
X018011Y018823D02*
X017715Y018823D01*
X017715Y018941D02*
X017970Y018941D01*
X017970Y019060D02*
X017715Y019060D01*
X017715Y019178D02*
X017970Y019178D01*
X017970Y019297D02*
X017715Y019297D01*
X017715Y019415D02*
X017970Y019415D01*
X017970Y019534D02*
X017715Y019534D01*
X017715Y019652D02*
X017970Y019652D01*
X017970Y019771D02*
X017715Y019771D01*
X017715Y019889D02*
X017970Y019889D01*
X017970Y020008D02*
X017715Y020008D01*
X017715Y020126D02*
X017970Y020126D01*
X017970Y020245D02*
X017715Y020245D01*
X017715Y020363D02*
X017970Y020363D01*
X017970Y020482D02*
X017715Y020482D01*
X017820Y020600D02*
X017899Y020600D01*
X017899Y020719D02*
X017820Y020719D01*
X017820Y020837D02*
X017899Y020837D01*
X017899Y020956D02*
X017820Y020956D01*
X017820Y021074D02*
X017899Y021074D01*
X017941Y021193D02*
X016445Y021193D01*
X016445Y021311D02*
X017823Y021311D01*
X018123Y021548D02*
X018450Y021548D01*
X018450Y021430D02*
X018242Y021430D01*
X018350Y021311D02*
X022560Y021311D01*
X022560Y021193D02*
X018350Y021193D01*
X018489Y021074D02*
X022560Y021074D01*
X022560Y020956D02*
X018489Y020956D01*
X018489Y020837D02*
X039046Y020837D01*
X039031Y020719D02*
X018489Y020719D01*
X018489Y020600D02*
X039031Y020600D01*
X039031Y020482D02*
X018350Y020482D01*
X018350Y020363D02*
X039031Y020363D01*
X039046Y020245D02*
X018350Y020245D01*
X018350Y020126D02*
X039070Y020126D01*
X039070Y020008D02*
X018350Y020008D01*
X018350Y019889D02*
X039070Y019889D01*
X039070Y019771D02*
X018350Y019771D01*
X018350Y019652D02*
X039070Y019652D01*
X039070Y019534D02*
X018350Y019534D01*
X018350Y019415D02*
X039070Y019415D01*
X039070Y019297D02*
X018350Y019297D01*
X018350Y019178D02*
X039070Y019178D01*
X039070Y019060D02*
X018350Y019060D01*
X018430Y018941D02*
X039070Y018941D01*
X039450Y018941D02*
X039573Y018941D01*
X039598Y018916D02*
X039504Y018876D01*
X039450Y018822D01*
X039450Y020221D01*
X039488Y020259D01*
X039488Y020803D01*
X039638Y020953D01*
X043070Y020953D01*
X043070Y020861D01*
X043031Y020823D01*
X043031Y020259D01*
X043096Y020195D01*
X043423Y020195D01*
X043488Y020259D01*
X043488Y020823D01*
X043450Y020861D01*
X043450Y020953D01*
X044261Y020953D01*
X044304Y020910D01*
X044359Y020887D01*
X044096Y020887D01*
X044031Y020823D01*
X044031Y020259D01*
X044070Y020221D01*
X044070Y019322D01*
X043950Y019202D01*
X043950Y019222D01*
X043950Y020221D01*
X043988Y020259D01*
X043988Y020823D01*
X043923Y020887D01*
X043596Y020887D01*
X043531Y020823D01*
X043531Y020259D01*
X043570Y020221D01*
X043570Y019222D01*
X042281Y017933D01*
X041438Y017933D01*
X041493Y017988D01*
X041535Y018089D01*
X041535Y018198D01*
X041493Y018299D01*
X041450Y018342D01*
X041450Y020221D01*
X041488Y020259D01*
X041488Y020823D01*
X041423Y020887D01*
X041096Y020887D01*
X041031Y020823D01*
X041031Y020259D01*
X041070Y020221D01*
X041070Y018342D01*
X041026Y018299D01*
X040985Y018198D01*
X040985Y018089D01*
X041026Y017988D01*
X041081Y017933D01*
X040438Y017933D01*
X040493Y017988D01*
X040535Y018089D01*
X040535Y018150D01*
X040838Y018453D01*
X040950Y018565D01*
X040950Y020221D01*
X040988Y020259D01*
X040988Y020823D01*
X040923Y020887D01*
X040596Y020887D01*
X040531Y020823D01*
X040531Y020259D01*
X040570Y020221D01*
X040570Y018722D01*
X040450Y018602D01*
X040450Y020221D01*
X040488Y020259D01*
X040488Y020823D01*
X040423Y020887D01*
X040096Y020887D01*
X040031Y020823D01*
X040031Y020259D01*
X040070Y020221D01*
X040070Y018722D01*
X039933Y018586D01*
X039935Y018589D01*
X039935Y018698D01*
X039893Y018799D01*
X039821Y018871D01*
X039915Y018910D01*
X039993Y018988D01*
X040035Y019089D01*
X040035Y019198D01*
X039993Y019299D01*
X039950Y019342D01*
X039950Y020221D01*
X039988Y020259D01*
X039988Y020823D01*
X039923Y020887D01*
X039596Y020887D01*
X039531Y020823D01*
X039531Y020259D01*
X039570Y020221D01*
X039570Y019342D01*
X039526Y019299D01*
X039485Y019198D01*
X039485Y019089D01*
X039526Y018988D01*
X039598Y018916D01*
X039450Y018823D02*
X039450Y018823D01*
X039450Y019060D02*
X039496Y019060D01*
X039485Y019178D02*
X039450Y019178D01*
X039450Y019297D02*
X039525Y019297D01*
X039570Y019415D02*
X039450Y019415D01*
X039450Y019534D02*
X039570Y019534D01*
X039570Y019652D02*
X039450Y019652D01*
X039450Y019771D02*
X039570Y019771D01*
X039570Y019889D02*
X039450Y019889D01*
X039450Y020008D02*
X039570Y020008D01*
X039570Y020126D02*
X039450Y020126D01*
X039473Y020245D02*
X039546Y020245D01*
X039531Y020363D02*
X039488Y020363D01*
X039488Y020482D02*
X039531Y020482D01*
X039531Y020600D02*
X039488Y020600D01*
X039488Y020719D02*
X039531Y020719D01*
X039522Y020837D02*
X039546Y020837D01*
X039222Y021074D02*
X031960Y021074D01*
X031960Y020956D02*
X039103Y020956D01*
X039340Y021193D02*
X031960Y021193D01*
X031960Y021311D02*
X039459Y021311D01*
X039481Y021753D02*
X042061Y021753D01*
X042104Y021710D01*
X042205Y021668D01*
X042314Y021668D01*
X042415Y021710D01*
X042458Y021753D01*
X043038Y021753D01*
X043338Y022053D01*
X043450Y022165D01*
X043450Y022426D01*
X043488Y022464D01*
X043488Y023027D01*
X043423Y023092D01*
X043096Y023092D01*
X043031Y023027D01*
X043031Y022464D01*
X043070Y022426D01*
X043070Y022322D01*
X042881Y022133D01*
X042458Y022133D01*
X042415Y022176D01*
X042314Y022218D01*
X042205Y022218D01*
X042104Y022176D01*
X042061Y022133D01*
X039638Y022133D01*
X039450Y022322D01*
X039450Y022426D01*
X039488Y022464D01*
X039488Y023027D01*
X039423Y023092D01*
X039096Y023092D01*
X039031Y023027D01*
X039031Y022464D01*
X039070Y022426D01*
X039070Y022165D01*
X039181Y022053D01*
X039481Y021753D01*
X039449Y021785D02*
X031960Y021785D01*
X031960Y021667D02*
X046070Y021667D01*
X046070Y021785D02*
X043070Y021785D01*
X043189Y021904D02*
X046070Y021904D01*
X046070Y022022D02*
X043307Y022022D01*
X043426Y022141D02*
X046070Y022141D01*
X046070Y022259D02*
X043450Y022259D01*
X043450Y022378D02*
X046070Y022378D01*
X045988Y022464D02*
X045923Y022399D01*
X045596Y022399D01*
X045531Y022464D01*
X045531Y023027D01*
X045596Y023092D01*
X045923Y023092D01*
X045988Y023027D01*
X045988Y022464D01*
X045988Y022496D02*
X046031Y022496D01*
X046031Y022615D02*
X045988Y022615D01*
X045988Y022733D02*
X046031Y022733D01*
X046031Y022852D02*
X045988Y022852D01*
X045988Y022970D02*
X046031Y022970D01*
X046093Y023089D02*
X045926Y023089D01*
X045593Y023089D02*
X045450Y023089D01*
X045450Y023066D02*
X045450Y025065D01*
X046082Y025697D01*
X046164Y025663D01*
X046355Y025663D01*
X046531Y025736D01*
X046666Y025871D01*
X046740Y026048D01*
X046740Y026239D01*
X046666Y026415D01*
X046531Y026550D01*
X046355Y026623D01*
X046164Y026623D01*
X045988Y026550D01*
X045853Y026415D01*
X045780Y026239D01*
X045780Y026048D01*
X045813Y025966D01*
X045070Y025222D01*
X045070Y023066D01*
X045031Y023027D01*
X045031Y022464D01*
X045096Y022399D01*
X045423Y022399D01*
X045488Y022464D01*
X045488Y023027D01*
X045450Y023066D01*
X045488Y022970D02*
X045531Y022970D01*
X045531Y022852D02*
X045488Y022852D01*
X045488Y022733D02*
X045531Y022733D01*
X045531Y022615D02*
X045488Y022615D01*
X045488Y022496D02*
X045531Y022496D01*
X045031Y022496D02*
X044988Y022496D01*
X044988Y022464D02*
X044988Y023027D01*
X044950Y023066D01*
X044950Y025665D01*
X045082Y025797D01*
X045164Y025763D01*
X045355Y025763D01*
X045531Y025836D01*
X045666Y025971D01*
X045740Y026148D01*
X045740Y026339D01*
X045666Y026515D01*
X045531Y026650D01*
X045355Y026723D01*
X045164Y026723D01*
X044988Y026650D01*
X044853Y026515D01*
X044780Y026339D01*
X044780Y026148D01*
X044813Y026066D01*
X044570Y025822D01*
X044570Y023066D01*
X044531Y023027D01*
X044531Y022464D01*
X044596Y022399D01*
X044923Y022399D01*
X044988Y022464D01*
X044988Y022615D02*
X045031Y022615D01*
X045031Y022733D02*
X044988Y022733D01*
X044988Y022852D02*
X045031Y022852D01*
X045031Y022970D02*
X044988Y022970D01*
X044950Y023089D02*
X045070Y023089D01*
X045070Y023207D02*
X044950Y023207D01*
X044950Y023326D02*
X045070Y023326D01*
X045070Y023444D02*
X044950Y023444D01*
X044950Y023563D02*
X045070Y023563D01*
X045070Y023681D02*
X044950Y023681D01*
X044950Y023800D02*
X045070Y023800D01*
X045070Y023918D02*
X044950Y023918D01*
X044950Y024037D02*
X045070Y024037D01*
X045070Y024155D02*
X044950Y024155D01*
X044950Y024274D02*
X045070Y024274D01*
X045070Y024392D02*
X044950Y024392D01*
X044950Y024511D02*
X045070Y024511D01*
X045070Y024629D02*
X044950Y024629D01*
X044950Y024748D02*
X045070Y024748D01*
X045070Y024866D02*
X044950Y024866D01*
X044950Y024985D02*
X045070Y024985D01*
X045070Y025103D02*
X044950Y025103D01*
X044950Y025222D02*
X045070Y025222D01*
X045188Y025340D02*
X044950Y025340D01*
X044950Y025459D02*
X045306Y025459D01*
X045425Y025577D02*
X044950Y025577D01*
X044981Y025696D02*
X045543Y025696D01*
X045478Y025814D02*
X045662Y025814D01*
X045628Y025933D02*
X045780Y025933D01*
X045780Y026051D02*
X045700Y026051D01*
X045740Y026170D02*
X045780Y026170D01*
X045800Y026288D02*
X045740Y026288D01*
X045711Y026407D02*
X045849Y026407D01*
X045963Y026525D02*
X045656Y026525D01*
X045538Y026644D02*
X046981Y026644D01*
X046988Y026650D02*
X046853Y026515D01*
X046780Y026339D01*
X046780Y026148D01*
X046853Y025971D01*
X046988Y025836D01*
X047070Y025802D01*
X047070Y017365D01*
X049170Y015265D01*
X049281Y015153D01*
X051188Y015153D01*
X051617Y015582D01*
X052030Y015170D01*
X052030Y014898D01*
X052094Y014833D01*
X052555Y014833D01*
X052620Y014898D01*
X052620Y015389D01*
X052555Y015453D01*
X052284Y015453D01*
X052054Y015683D01*
X052070Y015698D01*
X052070Y016089D01*
X052005Y016153D01*
X051314Y016153D01*
X051250Y016089D01*
X051250Y015752D01*
X051031Y015533D01*
X049438Y015533D01*
X047450Y017522D01*
X047450Y020964D01*
X047504Y020910D01*
X047605Y020868D01*
X047714Y020868D01*
X047815Y020910D01*
X047858Y020953D01*
X050881Y020953D01*
X051670Y020165D01*
X051781Y020053D01*
X052581Y020053D01*
X052804Y019830D01*
X052804Y015453D01*
X052764Y015453D01*
X052699Y015389D01*
X052699Y014898D01*
X052764Y014833D01*
X052804Y014833D01*
X052804Y012703D01*
X052764Y012703D01*
X052699Y012639D01*
X052699Y012148D01*
X052764Y012083D01*
X053225Y012083D01*
X053289Y012148D01*
X053289Y012639D01*
X053225Y012703D01*
X053184Y012703D01*
X053184Y014833D01*
X053225Y014833D01*
X053289Y014898D01*
X053289Y015389D01*
X053225Y015453D01*
X053184Y015453D01*
X053184Y019987D01*
X052928Y020243D01*
X053038Y020353D01*
X053150Y020465D01*
X053150Y020583D01*
X053225Y020583D01*
X053289Y020648D01*
X053289Y021139D01*
X053225Y021203D01*
X052764Y021203D01*
X052699Y021139D01*
X052699Y020648D01*
X052747Y020600D01*
X052581Y020433D01*
X051938Y020433D01*
X051038Y021333D01*
X047858Y021333D01*
X047815Y021376D01*
X047714Y021418D01*
X047605Y021418D01*
X047504Y021376D01*
X047450Y021322D01*
X047450Y025802D01*
X047531Y025836D01*
X047666Y025971D01*
X047740Y026148D01*
X047740Y026339D01*
X047666Y026515D01*
X047531Y026650D01*
X047355Y026723D01*
X047164Y026723D01*
X046988Y026650D01*
X046863Y026525D02*
X046556Y026525D01*
X046670Y026407D02*
X046808Y026407D01*
X046780Y026288D02*
X046719Y026288D01*
X046740Y026170D02*
X046780Y026170D01*
X046740Y026051D02*
X046819Y026051D01*
X046891Y025933D02*
X046692Y025933D01*
X046609Y025814D02*
X047041Y025814D01*
X047070Y025696D02*
X046434Y025696D01*
X046085Y025696D02*
X046081Y025696D01*
X045962Y025577D02*
X047070Y025577D01*
X047070Y025459D02*
X045844Y025459D01*
X045725Y025340D02*
X047070Y025340D01*
X047070Y025222D02*
X045607Y025222D01*
X045488Y025103D02*
X047070Y025103D01*
X047070Y024985D02*
X045450Y024985D01*
X045450Y024866D02*
X047070Y024866D01*
X047070Y024748D02*
X045450Y024748D01*
X045450Y024629D02*
X047070Y024629D01*
X047070Y024511D02*
X045450Y024511D01*
X045450Y024392D02*
X047070Y024392D01*
X047070Y024274D02*
X045450Y024274D01*
X045450Y024155D02*
X047070Y024155D01*
X047070Y024037D02*
X045450Y024037D01*
X045450Y023918D02*
X047070Y023918D01*
X047070Y023800D02*
X045450Y023800D01*
X045450Y023681D02*
X047070Y023681D01*
X047070Y023563D02*
X045450Y023563D01*
X045450Y023444D02*
X047070Y023444D01*
X047070Y023326D02*
X045450Y023326D01*
X045450Y023207D02*
X047070Y023207D01*
X047070Y023089D02*
X046426Y023089D01*
X046488Y022970D02*
X047070Y022970D01*
X047070Y022852D02*
X046488Y022852D01*
X046488Y022733D02*
X047070Y022733D01*
X047070Y022615D02*
X046488Y022615D01*
X046488Y022496D02*
X047070Y022496D01*
X047070Y022378D02*
X046450Y022378D01*
X046450Y022259D02*
X047070Y022259D01*
X047070Y022141D02*
X046450Y022141D01*
X046450Y022022D02*
X047070Y022022D01*
X047070Y021904D02*
X046450Y021904D01*
X046450Y021785D02*
X047070Y021785D01*
X047070Y021667D02*
X046450Y021667D01*
X046450Y021548D02*
X047070Y021548D01*
X047070Y021430D02*
X046450Y021430D01*
X046680Y021311D02*
X047070Y021311D01*
X047070Y021193D02*
X046735Y021193D01*
X046729Y021074D02*
X047070Y021074D01*
X047070Y020956D02*
X046661Y020956D01*
X046527Y020837D02*
X047070Y020837D01*
X047070Y020719D02*
X046538Y020719D01*
X046538Y020600D02*
X047070Y020600D01*
X047070Y020482D02*
X046538Y020482D01*
X046538Y020541D02*
X046538Y020284D01*
X046527Y020243D01*
X046506Y020206D01*
X046476Y020177D01*
X046439Y020156D01*
X046399Y020145D01*
X046260Y020145D01*
X046260Y020541D01*
X046260Y020541D01*
X046538Y020541D01*
X046538Y020363D02*
X047070Y020363D01*
X047070Y020245D02*
X046527Y020245D01*
X046260Y020245D02*
X046260Y020245D01*
X046260Y020145D02*
X046120Y020145D01*
X046080Y020156D01*
X046043Y020177D01*
X046013Y020206D01*
X045992Y020243D01*
X045988Y020260D01*
X045988Y020259D01*
X045923Y020195D01*
X045596Y020195D01*
X045531Y020259D01*
X045531Y020823D01*
X045596Y020887D01*
X045923Y020887D01*
X045988Y020823D01*
X045988Y020821D01*
X045992Y020839D01*
X046013Y020875D01*
X046043Y020905D01*
X046080Y020926D01*
X046120Y020937D01*
X046260Y020937D01*
X046260Y020541D01*
X046260Y020541D01*
X046260Y020541D01*
X046260Y020145D01*
X046260Y020363D02*
X046260Y020363D01*
X046260Y020482D02*
X046260Y020482D01*
X046260Y020600D02*
X046260Y020600D01*
X046260Y020719D02*
X046260Y020719D01*
X046260Y020837D02*
X046260Y020837D01*
X045992Y020837D02*
X045973Y020837D01*
X045546Y020837D02*
X045473Y020837D01*
X045488Y020719D02*
X045531Y020719D01*
X045531Y020600D02*
X045488Y020600D01*
X045488Y020482D02*
X045531Y020482D01*
X045531Y020363D02*
X045488Y020363D01*
X045473Y020245D02*
X045546Y020245D01*
X045450Y020126D02*
X047070Y020126D01*
X047070Y020008D02*
X045450Y020008D01*
X045450Y019889D02*
X047070Y019889D01*
X047070Y019771D02*
X045450Y019771D01*
X045450Y019652D02*
X047070Y019652D01*
X047070Y019534D02*
X045450Y019534D01*
X045450Y019415D02*
X047070Y019415D01*
X047070Y019297D02*
X045382Y019297D01*
X045263Y019178D02*
X047070Y019178D01*
X047070Y019060D02*
X045145Y019060D01*
X045026Y018941D02*
X047070Y018941D01*
X047070Y018823D02*
X044908Y018823D01*
X044789Y018704D02*
X047070Y018704D01*
X047070Y018586D02*
X044671Y018586D01*
X044552Y018467D02*
X047070Y018467D01*
X047070Y018349D02*
X044434Y018349D01*
X044315Y018230D02*
X047070Y018230D01*
X047070Y018112D02*
X044197Y018112D01*
X044078Y017993D02*
X047070Y017993D01*
X047070Y017875D02*
X043960Y017875D01*
X043841Y017756D02*
X047070Y017756D01*
X047070Y017638D02*
X043723Y017638D01*
X043604Y017519D02*
X047070Y017519D01*
X047070Y017401D02*
X043486Y017401D01*
X043367Y017282D02*
X047152Y017282D01*
X047270Y017164D02*
X043249Y017164D01*
X043130Y017045D02*
X047389Y017045D01*
X047507Y016927D02*
X043012Y016927D01*
X042893Y016808D02*
X047626Y016808D01*
X047744Y016690D02*
X042775Y016690D01*
X040937Y016571D02*
X047863Y016571D01*
X047981Y016453D02*
X040901Y016453D01*
X040901Y016334D02*
X048100Y016334D01*
X048218Y016216D02*
X037801Y016216D01*
X037919Y016334D02*
X039180Y016334D01*
X039204Y016310D02*
X039305Y016268D01*
X039414Y016268D01*
X039515Y016310D01*
X039552Y016347D01*
X039618Y016347D01*
X039618Y016314D01*
X039682Y016250D01*
X040089Y016250D01*
X040153Y016314D01*
X040153Y016760D01*
X040089Y016824D01*
X039682Y016824D01*
X039618Y016760D01*
X039618Y016727D01*
X039565Y016727D01*
X039515Y016776D01*
X039414Y016818D01*
X039305Y016818D01*
X039204Y016776D01*
X039126Y016699D01*
X039085Y016598D01*
X039085Y016489D01*
X039126Y016388D01*
X039204Y016310D01*
X039099Y016453D02*
X038038Y016453D01*
X038156Y016571D02*
X039085Y016571D01*
X039123Y016690D02*
X038275Y016690D01*
X038393Y016808D02*
X039281Y016808D01*
X039438Y016808D02*
X039667Y016808D01*
X040104Y016808D02*
X040415Y016808D01*
X040366Y016690D02*
X040153Y016690D01*
X040153Y016571D02*
X040366Y016571D01*
X040366Y016453D02*
X040153Y016453D01*
X040153Y016334D02*
X040366Y016334D01*
X040463Y015997D02*
X040056Y015997D01*
X039992Y015933D01*
X039992Y015900D01*
X039582Y015900D01*
X039135Y015453D01*
X038864Y015453D01*
X038799Y015389D01*
X038799Y014898D01*
X038864Y014833D01*
X039325Y014833D01*
X039389Y014898D01*
X039389Y015170D01*
X039740Y015520D01*
X039992Y015520D01*
X039992Y015488D01*
X040056Y015423D01*
X040463Y015423D01*
X040527Y015488D01*
X040527Y015933D01*
X040463Y015997D01*
X040481Y015979D02*
X048455Y015979D01*
X048337Y016097D02*
X037682Y016097D01*
X037564Y015979D02*
X040038Y015979D01*
X039992Y015505D02*
X039724Y015505D01*
X039606Y015386D02*
X049048Y015386D01*
X049166Y015268D02*
X039487Y015268D01*
X039389Y015149D02*
X052030Y015149D01*
X052030Y015031D02*
X039389Y015031D01*
X039389Y014912D02*
X052030Y014912D01*
X051932Y015268D02*
X051303Y015268D01*
X051421Y015386D02*
X051813Y015386D01*
X051695Y015505D02*
X051540Y015505D01*
X051239Y015742D02*
X049230Y015742D01*
X049348Y015623D02*
X051121Y015623D01*
X051250Y015860D02*
X049111Y015860D01*
X048993Y015979D02*
X051250Y015979D01*
X051258Y016097D02*
X048874Y016097D01*
X048756Y016216D02*
X052804Y016216D01*
X052804Y016334D02*
X048637Y016334D01*
X048519Y016453D02*
X052804Y016453D01*
X052804Y016571D02*
X048400Y016571D01*
X048282Y016690D02*
X052804Y016690D01*
X052804Y016808D02*
X048163Y016808D01*
X048045Y016927D02*
X052804Y016927D01*
X052804Y017045D02*
X047926Y017045D01*
X047808Y017164D02*
X051221Y017164D01*
X051210Y017182D02*
X051231Y017145D01*
X051261Y017115D01*
X051298Y017094D01*
X051338Y017083D01*
X051645Y017083D01*
X051645Y017378D01*
X051675Y017378D01*
X051675Y017408D01*
X052120Y017408D01*
X052120Y017564D01*
X052109Y017605D01*
X052088Y017642D01*
X052058Y017671D01*
X052021Y017692D01*
X051981Y017703D01*
X051675Y017703D01*
X051675Y017408D01*
X051645Y017408D01*
X051645Y017703D01*
X051338Y017703D01*
X051298Y017692D01*
X051261Y017671D01*
X051231Y017642D01*
X051210Y017605D01*
X051200Y017564D01*
X051200Y017408D01*
X051645Y017408D01*
X051645Y017378D01*
X051200Y017378D01*
X051200Y017222D01*
X051210Y017182D01*
X051200Y017282D02*
X047689Y017282D01*
X047571Y017401D02*
X051645Y017401D01*
X051675Y017401D02*
X052804Y017401D01*
X052804Y017519D02*
X052120Y017519D01*
X052090Y017638D02*
X052804Y017638D01*
X052804Y017756D02*
X047450Y017756D01*
X047450Y017638D02*
X051229Y017638D01*
X051200Y017519D02*
X047452Y017519D01*
X047450Y017875D02*
X052804Y017875D01*
X052804Y017993D02*
X047450Y017993D01*
X047450Y018112D02*
X052804Y018112D01*
X052804Y018230D02*
X047450Y018230D01*
X047450Y018349D02*
X052804Y018349D01*
X052804Y018467D02*
X047450Y018467D01*
X047450Y018586D02*
X052804Y018586D01*
X052804Y018704D02*
X047450Y018704D01*
X047450Y018823D02*
X052804Y018823D01*
X052804Y018941D02*
X047450Y018941D01*
X047450Y019060D02*
X052804Y019060D01*
X052804Y019178D02*
X047450Y019178D01*
X047450Y019297D02*
X052804Y019297D01*
X052804Y019415D02*
X047450Y019415D01*
X047450Y019534D02*
X052804Y019534D01*
X052804Y019652D02*
X047450Y019652D01*
X047450Y019771D02*
X052804Y019771D01*
X052745Y019889D02*
X047450Y019889D01*
X047450Y020008D02*
X052626Y020008D01*
X052930Y020245D02*
X054075Y020245D01*
X054075Y020363D02*
X053048Y020363D01*
X053150Y020482D02*
X054075Y020482D01*
X054075Y020600D02*
X053242Y020600D01*
X053289Y020719D02*
X054075Y020719D01*
X054075Y020837D02*
X053289Y020837D01*
X053289Y020956D02*
X054075Y020956D01*
X054075Y021074D02*
X053289Y021074D01*
X053235Y021193D02*
X054075Y021193D01*
X054075Y021311D02*
X052176Y021311D01*
X052070Y021417D02*
X052070Y021789D01*
X052005Y021853D01*
X051314Y021853D01*
X051294Y021833D01*
X050438Y021833D01*
X048450Y023822D01*
X048450Y025702D01*
X048531Y025736D01*
X048666Y025871D01*
X048740Y026048D01*
X048740Y026239D01*
X048666Y026415D01*
X048531Y026550D01*
X048355Y026623D01*
X048164Y026623D01*
X047988Y026550D01*
X047853Y026415D01*
X047780Y026239D01*
X047780Y026048D01*
X047853Y025871D01*
X047988Y025736D01*
X048070Y025702D01*
X048070Y023665D01*
X050281Y021453D01*
X051250Y021453D01*
X051250Y021398D01*
X051314Y021333D01*
X051616Y021333D01*
X052030Y020920D01*
X052030Y020648D01*
X052094Y020583D01*
X052555Y020583D01*
X052620Y020648D01*
X052620Y021139D01*
X052555Y021203D01*
X052284Y021203D01*
X052070Y021417D01*
X052070Y021430D02*
X053250Y021430D01*
X053250Y021398D02*
X053314Y021333D01*
X054005Y021333D01*
X054070Y021398D01*
X054070Y021789D01*
X054005Y021853D01*
X053314Y021853D01*
X053250Y021789D01*
X053250Y021398D01*
X053250Y021548D02*
X052070Y021548D01*
X052070Y021667D02*
X053250Y021667D01*
X053250Y021785D02*
X052070Y021785D01*
X051638Y021311D02*
X051060Y021311D01*
X051179Y021193D02*
X051757Y021193D01*
X051875Y021074D02*
X051297Y021074D01*
X051416Y020956D02*
X051994Y020956D01*
X052030Y020837D02*
X051534Y020837D01*
X051653Y020719D02*
X052030Y020719D01*
X052077Y020600D02*
X051771Y020600D01*
X051890Y020482D02*
X052629Y020482D01*
X052572Y020600D02*
X052747Y020600D01*
X052699Y020719D02*
X052620Y020719D01*
X052620Y020837D02*
X052699Y020837D01*
X052699Y020956D02*
X052620Y020956D01*
X052620Y021074D02*
X052699Y021074D01*
X052753Y021193D02*
X052566Y021193D01*
X051250Y021430D02*
X047450Y021430D01*
X047450Y021548D02*
X050186Y021548D01*
X050067Y021667D02*
X047450Y021667D01*
X047450Y021785D02*
X049949Y021785D01*
X049830Y021904D02*
X047450Y021904D01*
X047450Y022022D02*
X049712Y022022D01*
X049593Y022141D02*
X047450Y022141D01*
X047450Y022259D02*
X049475Y022259D01*
X049356Y022378D02*
X047450Y022378D01*
X047450Y022496D02*
X049238Y022496D01*
X049119Y022615D02*
X047450Y022615D01*
X047450Y022733D02*
X049001Y022733D01*
X048882Y022852D02*
X047450Y022852D01*
X047450Y022970D02*
X048764Y022970D01*
X048645Y023089D02*
X047450Y023089D01*
X047450Y023207D02*
X048527Y023207D01*
X048408Y023326D02*
X047450Y023326D01*
X047450Y023444D02*
X048290Y023444D01*
X048171Y023563D02*
X047450Y023563D01*
X047450Y023681D02*
X048070Y023681D01*
X048070Y023800D02*
X047450Y023800D01*
X047450Y023918D02*
X048070Y023918D01*
X048070Y024037D02*
X047450Y024037D01*
X047450Y024155D02*
X048070Y024155D01*
X048070Y024274D02*
X047450Y024274D01*
X047450Y024392D02*
X048070Y024392D01*
X048070Y024511D02*
X047450Y024511D01*
X047450Y024629D02*
X048070Y024629D01*
X048070Y024748D02*
X047450Y024748D01*
X047450Y024866D02*
X048070Y024866D01*
X048070Y024985D02*
X047450Y024985D01*
X047450Y025103D02*
X048070Y025103D01*
X048070Y025222D02*
X047450Y025222D01*
X047450Y025340D02*
X048070Y025340D01*
X048070Y025459D02*
X047450Y025459D01*
X047450Y025577D02*
X048070Y025577D01*
X048070Y025696D02*
X047450Y025696D01*
X047478Y025814D02*
X047910Y025814D01*
X047827Y025933D02*
X047628Y025933D01*
X047700Y026051D02*
X047780Y026051D01*
X047780Y026170D02*
X047740Y026170D01*
X047740Y026288D02*
X047800Y026288D01*
X047849Y026407D02*
X047711Y026407D01*
X047656Y026525D02*
X047963Y026525D01*
X047538Y026644D02*
X048981Y026644D01*
X048988Y026650D02*
X048853Y026515D01*
X048780Y026339D01*
X048780Y026148D01*
X048853Y025971D01*
X048988Y025836D01*
X049164Y025763D01*
X049355Y025763D01*
X049531Y025836D01*
X049666Y025971D01*
X049740Y026148D01*
X049740Y026339D01*
X049666Y026515D01*
X049531Y026650D01*
X049355Y026723D01*
X049164Y026723D01*
X048988Y026650D01*
X048863Y026525D02*
X048556Y026525D01*
X048670Y026407D02*
X048808Y026407D01*
X048780Y026288D02*
X048719Y026288D01*
X048740Y026170D02*
X048780Y026170D01*
X048740Y026051D02*
X048819Y026051D01*
X048891Y025933D02*
X048692Y025933D01*
X048609Y025814D02*
X049041Y025814D01*
X049478Y025814D02*
X049910Y025814D01*
X049853Y025871D02*
X049988Y025736D01*
X050164Y025663D01*
X050355Y025663D01*
X050531Y025736D01*
X050666Y025871D01*
X050740Y026048D01*
X050740Y026239D01*
X050666Y026415D01*
X050531Y026550D01*
X050355Y026623D01*
X050164Y026623D01*
X049988Y026550D01*
X049853Y026415D01*
X049780Y026239D01*
X049780Y026048D01*
X049853Y025871D01*
X049827Y025933D02*
X049628Y025933D01*
X049700Y026051D02*
X049780Y026051D01*
X049780Y026170D02*
X049740Y026170D01*
X049740Y026288D02*
X049800Y026288D01*
X049849Y026407D02*
X049711Y026407D01*
X049656Y026525D02*
X049963Y026525D01*
X049538Y026644D02*
X050981Y026644D01*
X050988Y026650D02*
X050853Y026515D01*
X050780Y026339D01*
X050780Y026148D01*
X050853Y025971D01*
X050988Y025836D01*
X051164Y025763D01*
X051355Y025763D01*
X051531Y025836D01*
X051666Y025971D01*
X051740Y026148D01*
X051740Y026339D01*
X051666Y026515D01*
X051531Y026650D01*
X051355Y026723D01*
X051164Y026723D01*
X050988Y026650D01*
X050863Y026525D02*
X050556Y026525D01*
X050670Y026407D02*
X050808Y026407D01*
X050780Y026288D02*
X050719Y026288D01*
X050740Y026170D02*
X050780Y026170D01*
X050740Y026051D02*
X050819Y026051D01*
X050891Y025933D02*
X050692Y025933D01*
X050609Y025814D02*
X051041Y025814D01*
X051478Y025814D02*
X051910Y025814D01*
X051853Y025871D02*
X051988Y025736D01*
X052164Y025663D01*
X052355Y025663D01*
X052531Y025736D01*
X052666Y025871D01*
X052740Y026048D01*
X052740Y026239D01*
X052666Y026415D01*
X052531Y026550D01*
X052355Y026623D01*
X052164Y026623D01*
X051988Y026550D01*
X051853Y026415D01*
X051780Y026239D01*
X051780Y026048D01*
X051853Y025871D01*
X051827Y025933D02*
X051628Y025933D01*
X051700Y026051D02*
X051780Y026051D01*
X051780Y026170D02*
X051740Y026170D01*
X051740Y026288D02*
X051800Y026288D01*
X051849Y026407D02*
X051711Y026407D01*
X051656Y026525D02*
X051963Y026525D01*
X051538Y026644D02*
X053458Y026644D01*
X053316Y026755D02*
X053641Y026500D01*
X053889Y026170D01*
X052740Y026170D01*
X052740Y026051D02*
X053936Y026051D01*
X053984Y025933D02*
X052692Y025933D01*
X052609Y025814D02*
X054031Y025814D01*
X054043Y025786D02*
X054092Y025376D01*
X054081Y025226D01*
X054075Y025220D01*
X054075Y025156D01*
X054066Y025094D01*
X054075Y025082D01*
X054075Y007643D01*
X054063Y007472D01*
X053974Y007140D01*
X053803Y006843D01*
X053560Y006600D01*
X053263Y006428D01*
X052931Y006340D01*
X052760Y006328D01*
X029754Y006328D01*
X029757Y006338D01*
X029757Y006699D01*
X029357Y006699D01*
X029357Y006819D01*
X029757Y006819D01*
X029757Y007181D01*
X029746Y007221D01*
X029725Y007258D01*
X029695Y007287D01*
X029658Y007309D01*
X029618Y007319D01*
X029357Y007319D01*
X029357Y006819D01*
X029237Y006819D01*
X029237Y006699D01*
X028837Y006699D01*
X028837Y006338D01*
X028839Y006328D01*
X027736Y006328D01*
X027769Y006362D01*
X027820Y006485D01*
X027820Y006619D01*
X027769Y006742D01*
X027675Y006836D01*
X027552Y006887D01*
X027419Y006887D01*
X027296Y006836D01*
X027201Y006742D01*
X027150Y006619D01*
X027150Y006485D01*
X027201Y006362D01*
X027235Y006328D01*
X024586Y006328D01*
X024620Y006362D01*
X024671Y006485D01*
X024671Y006619D01*
X024620Y006742D01*
X024526Y006836D01*
X024403Y006887D01*
X024269Y006887D01*
X024146Y006836D01*
X024052Y006742D01*
X024001Y006619D01*
X024001Y006485D01*
X024052Y006362D01*
X024086Y006328D01*
X023691Y006328D01*
X023694Y006338D01*
X023694Y006699D01*
X023294Y006699D01*
X023294Y006819D01*
X023694Y006819D01*
X023694Y007181D01*
X023683Y007221D01*
X023662Y007258D01*
X023632Y007287D01*
X023595Y007309D01*
X023555Y007319D01*
X023294Y007319D01*
X023294Y006819D01*
X023174Y006819D01*
X023174Y006699D01*
X022774Y006699D01*
X022774Y006338D01*
X022776Y006328D01*
X017760Y006328D01*
X017588Y006340D01*
X017256Y006428D01*
X016959Y006600D01*
X016716Y006843D01*
X016545Y007140D01*
X016456Y007472D01*
X016445Y007643D01*
X016445Y022832D01*
X016461Y022815D01*
X016498Y022794D01*
X016538Y022783D01*
X016845Y022783D01*
X016845Y023078D01*
X016875Y023078D01*
X016875Y023108D01*
X017320Y023108D01*
X017320Y023264D01*
X017309Y023305D01*
X017288Y023342D01*
X017258Y023371D01*
X017221Y023392D01*
X017181Y023403D01*
X016875Y023403D01*
X016875Y023108D01*
X016845Y023108D01*
X016845Y023403D01*
X016538Y023403D01*
X016498Y023392D01*
X016461Y023371D01*
X016445Y023355D01*
X016445Y025082D01*
X016453Y025094D01*
X016445Y025156D01*
X016445Y025220D01*
X016438Y025226D01*
X016427Y025376D01*
X016476Y025786D01*
X016630Y026170D01*
X022560Y026170D01*
X022560Y026288D02*
X016719Y026288D01*
X016630Y026170D02*
X016878Y026500D01*
X017203Y026755D01*
X017583Y026918D01*
X017777Y026958D01*
X022560Y026958D01*
X022560Y020943D01*
X031960Y020943D01*
X031960Y026958D01*
X052742Y026958D01*
X052936Y026918D01*
X053316Y026755D01*
X053299Y026762D02*
X031960Y026762D01*
X031960Y026644D02*
X036481Y026644D01*
X036488Y026650D02*
X036353Y026515D01*
X036280Y026339D01*
X036280Y026148D01*
X036353Y025971D01*
X036488Y025836D01*
X036664Y025763D01*
X036855Y025763D01*
X037031Y025836D01*
X037166Y025971D01*
X037240Y026148D01*
X037240Y026183D01*
X037720Y026183D01*
X037720Y026673D01*
X037718Y026673D01*
X037635Y026660D01*
X037556Y026634D01*
X037482Y026597D01*
X037414Y026548D01*
X037355Y026489D01*
X037306Y026421D01*
X037268Y026347D01*
X037243Y026267D01*
X037240Y026248D01*
X037240Y026339D01*
X037166Y026515D01*
X037031Y026650D01*
X036855Y026723D01*
X036664Y026723D01*
X036488Y026650D01*
X036363Y026525D02*
X036056Y026525D01*
X036031Y026550D02*
X036166Y026415D01*
X036240Y026239D01*
X036240Y026048D01*
X036166Y025871D01*
X036031Y025736D01*
X035855Y025663D01*
X035664Y025663D01*
X035488Y025736D01*
X035353Y025871D01*
X035280Y026048D01*
X035280Y026239D01*
X035353Y026415D01*
X035488Y026550D01*
X035664Y026623D01*
X035855Y026623D01*
X036031Y026550D01*
X036170Y026407D02*
X036308Y026407D01*
X036280Y026288D02*
X036219Y026288D01*
X036240Y026170D02*
X036280Y026170D01*
X036240Y026051D02*
X036319Y026051D01*
X036391Y025933D02*
X036192Y025933D01*
X036109Y025814D02*
X036541Y025814D01*
X036978Y025814D02*
X037343Y025814D01*
X037355Y025798D02*
X037414Y025739D01*
X037482Y025690D01*
X037556Y025652D01*
X037635Y025626D01*
X037718Y025613D01*
X037720Y025613D01*
X037720Y026103D01*
X037800Y026103D01*
X037800Y026183D01*
X038280Y026183D01*
X038280Y026148D01*
X038353Y025971D01*
X038488Y025836D01*
X038664Y025763D01*
X038855Y025763D01*
X039031Y025836D01*
X039166Y025971D01*
X039240Y026148D01*
X039240Y026339D01*
X039166Y026515D01*
X039031Y026650D01*
X038855Y026723D01*
X038664Y026723D01*
X038488Y026650D01*
X038353Y026515D01*
X038280Y026339D01*
X038280Y026248D01*
X038276Y026267D01*
X038251Y026347D01*
X038213Y026421D01*
X038164Y026489D01*
X038105Y026548D01*
X038037Y026597D01*
X037963Y026634D01*
X037884Y026660D01*
X037801Y026673D01*
X037800Y026673D01*
X037800Y026183D01*
X037720Y026183D01*
X037720Y026103D01*
X037230Y026103D01*
X037230Y026102D01*
X037243Y026019D01*
X037268Y025940D01*
X037306Y025866D01*
X037355Y025798D01*
X037474Y025696D02*
X035934Y025696D01*
X035585Y025696D02*
X034934Y025696D01*
X034855Y025663D02*
X035031Y025736D01*
X035166Y025871D01*
X035240Y026048D01*
X035240Y026239D01*
X035166Y026415D01*
X035031Y026550D01*
X034855Y026623D01*
X034664Y026623D01*
X034488Y026550D01*
X034353Y026415D01*
X034280Y026239D01*
X034280Y026048D01*
X034353Y025871D01*
X034488Y025736D01*
X034664Y025663D01*
X034855Y025663D01*
X034585Y025696D02*
X031960Y025696D01*
X031960Y025814D02*
X034410Y025814D01*
X034327Y025933D02*
X031960Y025933D01*
X031960Y026051D02*
X034280Y026051D01*
X034280Y026170D02*
X031960Y026170D01*
X031960Y026288D02*
X034300Y026288D01*
X034349Y026407D02*
X031960Y026407D01*
X031960Y026525D02*
X034463Y026525D01*
X035056Y026525D02*
X035463Y026525D01*
X035349Y026407D02*
X035170Y026407D01*
X035219Y026288D02*
X035300Y026288D01*
X035280Y026170D02*
X035240Y026170D01*
X035240Y026051D02*
X035280Y026051D01*
X035327Y025933D02*
X035192Y025933D01*
X035109Y025814D02*
X035410Y025814D01*
X037128Y025933D02*
X037272Y025933D01*
X037237Y026051D02*
X037200Y026051D01*
X037240Y026170D02*
X037720Y026170D01*
X037800Y026170D02*
X038280Y026170D01*
X038290Y026103D02*
X037800Y026103D01*
X037800Y025613D01*
X037801Y025613D01*
X037884Y025626D01*
X037963Y025652D01*
X038037Y025690D01*
X038105Y025739D01*
X038164Y025798D01*
X038213Y025866D01*
X038251Y025940D01*
X038276Y026019D01*
X038290Y026102D01*
X038290Y026103D01*
X038282Y026051D02*
X038319Y026051D01*
X038247Y025933D02*
X038391Y025933D01*
X038541Y025814D02*
X038176Y025814D01*
X038045Y025696D02*
X039570Y025696D01*
X039570Y025702D02*
X039570Y023066D01*
X039531Y023027D01*
X039531Y022464D01*
X039596Y022399D01*
X039923Y022399D01*
X039988Y022464D01*
X039988Y023027D01*
X039950Y023066D01*
X039950Y025702D01*
X040031Y025736D01*
X040166Y025871D01*
X040240Y026048D01*
X040240Y026239D01*
X040166Y026415D01*
X040031Y026550D01*
X039855Y026623D01*
X039664Y026623D01*
X039488Y026550D01*
X039353Y026415D01*
X039280Y026239D01*
X039280Y026048D01*
X039353Y025871D01*
X039488Y025736D01*
X039570Y025702D01*
X039570Y025577D02*
X031960Y025577D01*
X031960Y025459D02*
X039570Y025459D01*
X039570Y025340D02*
X031960Y025340D01*
X031960Y025222D02*
X039570Y025222D01*
X039570Y025103D02*
X031960Y025103D01*
X031960Y024985D02*
X039570Y024985D01*
X039570Y024866D02*
X031960Y024866D01*
X031960Y024748D02*
X039570Y024748D01*
X039570Y024629D02*
X031960Y024629D01*
X031960Y024511D02*
X039570Y024511D01*
X039570Y024392D02*
X031960Y024392D01*
X031960Y024274D02*
X039570Y024274D01*
X039570Y024155D02*
X031960Y024155D01*
X031960Y024037D02*
X039570Y024037D01*
X039570Y023918D02*
X031960Y023918D01*
X031960Y023800D02*
X039570Y023800D01*
X039570Y023681D02*
X031960Y023681D01*
X031960Y023563D02*
X039570Y023563D01*
X039570Y023444D02*
X031960Y023444D01*
X031960Y023326D02*
X039570Y023326D01*
X039570Y023207D02*
X031960Y023207D01*
X031960Y023089D02*
X039093Y023089D01*
X039031Y022970D02*
X031960Y022970D01*
X031960Y022852D02*
X039031Y022852D01*
X039031Y022733D02*
X031960Y022733D01*
X031960Y022615D02*
X039031Y022615D01*
X039031Y022496D02*
X031960Y022496D01*
X031960Y022378D02*
X039070Y022378D01*
X039070Y022259D02*
X031960Y022259D01*
X031960Y022141D02*
X039093Y022141D01*
X039212Y022022D02*
X031960Y022022D01*
X031960Y021904D02*
X039330Y021904D01*
X039631Y022141D02*
X042068Y022141D01*
X042096Y022399D02*
X042423Y022399D01*
X042488Y022464D01*
X042488Y022803D01*
X042653Y022968D01*
X042714Y022968D01*
X042815Y023010D01*
X042893Y023088D01*
X042935Y023189D01*
X042935Y023298D01*
X042893Y023399D01*
X042815Y023476D01*
X042714Y023518D01*
X042605Y023518D01*
X042504Y023476D01*
X042426Y023399D01*
X042385Y023298D01*
X042385Y023237D01*
X042239Y023092D01*
X042096Y023092D01*
X042031Y023027D01*
X042031Y022464D01*
X042096Y022399D01*
X042031Y022496D02*
X041988Y022496D01*
X041988Y022464D02*
X041923Y022399D01*
X041596Y022399D01*
X041531Y022464D01*
X041531Y023027D01*
X041596Y023092D01*
X041923Y023092D01*
X041988Y023027D01*
X041988Y022464D01*
X041988Y022615D02*
X042031Y022615D01*
X042031Y022733D02*
X041988Y022733D01*
X041988Y022852D02*
X042031Y022852D01*
X042031Y022970D02*
X041988Y022970D01*
X041926Y023089D02*
X042093Y023089D01*
X042355Y023207D02*
X041450Y023207D01*
X041450Y023089D02*
X041593Y023089D01*
X041488Y023027D02*
X041450Y023066D01*
X041450Y025565D01*
X041582Y025697D01*
X041664Y025663D01*
X041855Y025663D01*
X042031Y025736D01*
X042166Y025871D01*
X042240Y026048D01*
X042240Y026239D01*
X042166Y026415D01*
X042031Y026550D01*
X041855Y026623D01*
X041664Y026623D01*
X041488Y026550D01*
X041353Y026415D01*
X041280Y026239D01*
X041280Y026048D01*
X041313Y025966D01*
X041070Y025722D01*
X041070Y023066D01*
X041031Y023027D01*
X041031Y022464D01*
X041096Y022399D01*
X041423Y022399D01*
X041488Y022464D01*
X041488Y023027D01*
X041488Y022970D02*
X041531Y022970D01*
X041531Y022852D02*
X041488Y022852D01*
X041488Y022733D02*
X041531Y022733D01*
X041531Y022615D02*
X041488Y022615D01*
X041488Y022496D02*
X041531Y022496D01*
X041031Y022496D02*
X040988Y022496D01*
X040988Y022464D02*
X040923Y022399D01*
X040596Y022399D01*
X040531Y022464D01*
X040531Y023027D01*
X040570Y023066D01*
X040570Y025802D01*
X040488Y025836D01*
X040353Y025971D01*
X040280Y026148D01*
X040280Y026339D01*
X040353Y026515D01*
X040488Y026650D01*
X040664Y026723D01*
X040855Y026723D01*
X041031Y026650D01*
X041166Y026515D01*
X041240Y026339D01*
X041240Y026148D01*
X041166Y025971D01*
X041031Y025836D01*
X040950Y025802D01*
X040950Y023066D01*
X040988Y023027D01*
X040988Y022464D01*
X040988Y022615D02*
X041031Y022615D01*
X041031Y022733D02*
X040988Y022733D01*
X040988Y022852D02*
X041031Y022852D01*
X041031Y022970D02*
X040988Y022970D01*
X040950Y023089D02*
X041070Y023089D01*
X041070Y023207D02*
X040950Y023207D01*
X040950Y023326D02*
X041070Y023326D01*
X041070Y023444D02*
X040950Y023444D01*
X040950Y023563D02*
X041070Y023563D01*
X041070Y023681D02*
X040950Y023681D01*
X040950Y023800D02*
X041070Y023800D01*
X041070Y023918D02*
X040950Y023918D01*
X040950Y024037D02*
X041070Y024037D01*
X041070Y024155D02*
X040950Y024155D01*
X040950Y024274D02*
X041070Y024274D01*
X041070Y024392D02*
X040950Y024392D01*
X040950Y024511D02*
X041070Y024511D01*
X041070Y024629D02*
X040950Y024629D01*
X040950Y024748D02*
X041070Y024748D01*
X041070Y024866D02*
X040950Y024866D01*
X040950Y024985D02*
X041070Y024985D01*
X041070Y025103D02*
X040950Y025103D01*
X040950Y025222D02*
X041070Y025222D01*
X041070Y025340D02*
X040950Y025340D01*
X040950Y025459D02*
X041070Y025459D01*
X041070Y025577D02*
X040950Y025577D01*
X040950Y025696D02*
X041070Y025696D01*
X040978Y025814D02*
X041162Y025814D01*
X041128Y025933D02*
X041280Y025933D01*
X041280Y026051D02*
X041200Y026051D01*
X041240Y026170D02*
X041280Y026170D01*
X041300Y026288D02*
X041240Y026288D01*
X041211Y026407D02*
X041349Y026407D01*
X041463Y026525D02*
X041156Y026525D01*
X041038Y026644D02*
X042481Y026644D01*
X042488Y026650D02*
X042353Y026515D01*
X042280Y026339D01*
X042280Y026148D01*
X042353Y025971D01*
X042488Y025836D01*
X042664Y025763D01*
X042855Y025763D01*
X042937Y025797D01*
X043570Y025165D01*
X043570Y023066D01*
X043531Y023027D01*
X043531Y022464D01*
X043596Y022399D01*
X043923Y022399D01*
X043988Y022464D01*
X043988Y023027D01*
X043950Y023066D01*
X043950Y025322D01*
X043569Y025703D01*
X043664Y025663D01*
X043855Y025663D01*
X043937Y025697D01*
X044070Y025565D01*
X044070Y023066D01*
X044031Y023027D01*
X044031Y022464D01*
X044096Y022399D01*
X044423Y022399D01*
X044488Y022464D01*
X044488Y023027D01*
X044450Y023066D01*
X044450Y025722D01*
X044206Y025966D01*
X044240Y026048D01*
X044240Y026239D01*
X044166Y026415D01*
X044031Y026550D01*
X043855Y026623D01*
X043664Y026623D01*
X043488Y026550D01*
X043353Y026415D01*
X043280Y026239D01*
X043280Y026048D01*
X043319Y025953D01*
X043206Y026066D01*
X043240Y026148D01*
X043240Y026339D01*
X043166Y026515D01*
X043031Y026650D01*
X042855Y026723D01*
X042664Y026723D01*
X042488Y026650D01*
X042363Y026525D02*
X042056Y026525D01*
X042170Y026407D02*
X042308Y026407D01*
X042280Y026288D02*
X042219Y026288D01*
X042240Y026170D02*
X042280Y026170D01*
X042240Y026051D02*
X042319Y026051D01*
X042391Y025933D02*
X042192Y025933D01*
X042109Y025814D02*
X042541Y025814D01*
X043038Y025696D02*
X041934Y025696D01*
X041585Y025696D02*
X041581Y025696D01*
X041462Y025577D02*
X043157Y025577D01*
X043275Y025459D02*
X041450Y025459D01*
X041450Y025340D02*
X043394Y025340D01*
X043512Y025222D02*
X041450Y025222D01*
X041450Y025103D02*
X043570Y025103D01*
X043570Y024985D02*
X041450Y024985D01*
X041450Y024866D02*
X043570Y024866D01*
X043570Y024748D02*
X041450Y024748D01*
X041450Y024629D02*
X043570Y024629D01*
X043570Y024511D02*
X041450Y024511D01*
X041450Y024392D02*
X043570Y024392D01*
X043570Y024274D02*
X041450Y024274D01*
X041450Y024155D02*
X043570Y024155D01*
X043570Y024037D02*
X041450Y024037D01*
X041450Y023918D02*
X043570Y023918D01*
X043570Y023800D02*
X041450Y023800D01*
X041450Y023681D02*
X043570Y023681D01*
X043570Y023563D02*
X041450Y023563D01*
X041450Y023444D02*
X042472Y023444D01*
X042396Y023326D02*
X041450Y023326D01*
X042537Y022852D02*
X043031Y022852D01*
X043031Y022970D02*
X042719Y022970D01*
X042893Y023089D02*
X043093Y023089D01*
X042935Y023207D02*
X043570Y023207D01*
X043570Y023089D02*
X043426Y023089D01*
X043488Y022970D02*
X043531Y022970D01*
X043531Y022852D02*
X043488Y022852D01*
X043488Y022733D02*
X043531Y022733D01*
X043531Y022615D02*
X043488Y022615D01*
X043488Y022496D02*
X043531Y022496D01*
X043988Y022496D02*
X044031Y022496D01*
X044031Y022615D02*
X043988Y022615D01*
X043988Y022733D02*
X044031Y022733D01*
X044031Y022852D02*
X043988Y022852D01*
X043988Y022970D02*
X044031Y022970D01*
X044070Y023089D02*
X043950Y023089D01*
X043950Y023207D02*
X044070Y023207D01*
X044070Y023326D02*
X043950Y023326D01*
X043950Y023444D02*
X044070Y023444D01*
X044070Y023563D02*
X043950Y023563D01*
X043950Y023681D02*
X044070Y023681D01*
X044070Y023800D02*
X043950Y023800D01*
X043950Y023918D02*
X044070Y023918D01*
X044070Y024037D02*
X043950Y024037D01*
X043950Y024155D02*
X044070Y024155D01*
X044070Y024274D02*
X043950Y024274D01*
X043950Y024392D02*
X044070Y024392D01*
X044070Y024511D02*
X043950Y024511D01*
X043950Y024629D02*
X044070Y024629D01*
X044070Y024748D02*
X043950Y024748D01*
X043950Y024866D02*
X044070Y024866D01*
X044070Y024985D02*
X043950Y024985D01*
X043950Y025103D02*
X044070Y025103D01*
X044070Y025222D02*
X043950Y025222D01*
X043931Y025340D02*
X044070Y025340D01*
X044070Y025459D02*
X043813Y025459D01*
X043694Y025577D02*
X044057Y025577D01*
X043938Y025696D02*
X043934Y025696D01*
X043585Y025696D02*
X043576Y025696D01*
X043280Y026051D02*
X043220Y026051D01*
X043240Y026170D02*
X043280Y026170D01*
X043300Y026288D02*
X043240Y026288D01*
X043211Y026407D02*
X043349Y026407D01*
X043463Y026525D02*
X043156Y026525D01*
X043038Y026644D02*
X044981Y026644D01*
X044863Y026525D02*
X044056Y026525D01*
X044170Y026407D02*
X044808Y026407D01*
X044780Y026288D02*
X044219Y026288D01*
X044240Y026170D02*
X044780Y026170D01*
X044799Y026051D02*
X044240Y026051D01*
X044239Y025933D02*
X044680Y025933D01*
X044570Y025814D02*
X044357Y025814D01*
X044450Y025696D02*
X044570Y025696D01*
X044570Y025577D02*
X044450Y025577D01*
X044450Y025459D02*
X044570Y025459D01*
X044570Y025340D02*
X044450Y025340D01*
X044450Y025222D02*
X044570Y025222D01*
X044570Y025103D02*
X044450Y025103D01*
X044450Y024985D02*
X044570Y024985D01*
X044570Y024866D02*
X044450Y024866D01*
X044450Y024748D02*
X044570Y024748D01*
X044570Y024629D02*
X044450Y024629D01*
X044450Y024511D02*
X044570Y024511D01*
X044570Y024392D02*
X044450Y024392D01*
X044450Y024274D02*
X044570Y024274D01*
X044570Y024155D02*
X044450Y024155D01*
X044450Y024037D02*
X044570Y024037D01*
X044570Y023918D02*
X044450Y023918D01*
X044450Y023800D02*
X044570Y023800D01*
X044570Y023681D02*
X044450Y023681D01*
X044450Y023563D02*
X044570Y023563D01*
X044570Y023444D02*
X044450Y023444D01*
X044450Y023326D02*
X044570Y023326D01*
X044570Y023207D02*
X044450Y023207D01*
X044450Y023089D02*
X044570Y023089D01*
X044531Y022970D02*
X044488Y022970D01*
X044488Y022852D02*
X044531Y022852D01*
X044531Y022733D02*
X044488Y022733D01*
X044488Y022615D02*
X044531Y022615D01*
X044531Y022496D02*
X044488Y022496D01*
X046070Y021548D02*
X031960Y021548D01*
X031960Y021430D02*
X046070Y021430D01*
X045046Y020837D02*
X044973Y020837D01*
X044988Y020719D02*
X045031Y020719D01*
X045031Y020600D02*
X044988Y020600D01*
X044988Y020482D02*
X045031Y020482D01*
X045031Y020363D02*
X044988Y020363D01*
X044973Y020245D02*
X045046Y020245D01*
X045070Y020126D02*
X044950Y020126D01*
X044950Y020008D02*
X045070Y020008D01*
X045070Y019889D02*
X044950Y019889D01*
X044950Y019771D02*
X045070Y019771D01*
X045070Y019652D02*
X044950Y019652D01*
X044950Y019534D02*
X045070Y019534D01*
X044963Y019415D02*
X044950Y019415D01*
X044563Y019415D02*
X044450Y019415D01*
X044450Y019534D02*
X044570Y019534D01*
X044570Y019652D02*
X044450Y019652D01*
X044450Y019771D02*
X044570Y019771D01*
X044570Y019889D02*
X044450Y019889D01*
X044450Y020008D02*
X044570Y020008D01*
X044570Y020126D02*
X044450Y020126D01*
X044473Y020245D02*
X044546Y020245D01*
X044531Y020363D02*
X044488Y020363D01*
X044488Y020482D02*
X044531Y020482D01*
X044531Y020600D02*
X044488Y020600D01*
X044488Y020719D02*
X044531Y020719D01*
X044546Y020837D02*
X044473Y020837D01*
X044046Y020837D02*
X043973Y020837D01*
X043988Y020719D02*
X044031Y020719D01*
X044031Y020600D02*
X043988Y020600D01*
X043988Y020482D02*
X044031Y020482D01*
X044031Y020363D02*
X043988Y020363D01*
X043973Y020245D02*
X044046Y020245D01*
X044070Y020126D02*
X043950Y020126D01*
X043950Y020008D02*
X044070Y020008D01*
X044070Y019889D02*
X043950Y019889D01*
X043950Y019771D02*
X044070Y019771D01*
X044070Y019652D02*
X043950Y019652D01*
X043950Y019534D02*
X044070Y019534D01*
X044070Y019415D02*
X043950Y019415D01*
X043950Y019297D02*
X044044Y019297D01*
X043570Y019297D02*
X041450Y019297D01*
X041450Y019415D02*
X043570Y019415D01*
X043570Y019534D02*
X041450Y019534D01*
X041450Y019652D02*
X043570Y019652D01*
X043570Y019771D02*
X041450Y019771D01*
X041450Y019889D02*
X043570Y019889D01*
X043570Y020008D02*
X041450Y020008D01*
X041450Y020126D02*
X043570Y020126D01*
X043546Y020245D02*
X043473Y020245D01*
X043488Y020363D02*
X043531Y020363D01*
X043531Y020482D02*
X043488Y020482D01*
X043488Y020600D02*
X043531Y020600D01*
X043531Y020719D02*
X043488Y020719D01*
X043473Y020837D02*
X043546Y020837D01*
X043046Y020837D02*
X042527Y020837D01*
X042527Y020839D02*
X042506Y020875D01*
X042476Y020905D01*
X042439Y020926D01*
X042399Y020937D01*
X042260Y020937D01*
X042260Y020541D01*
X042538Y020541D01*
X042538Y020798D01*
X042527Y020839D01*
X042538Y020719D02*
X043031Y020719D01*
X043031Y020600D02*
X042538Y020600D01*
X042538Y020541D02*
X042260Y020541D01*
X042260Y020541D01*
X042260Y020541D01*
X042260Y020145D01*
X042399Y020145D01*
X042439Y020156D01*
X042476Y020177D01*
X042506Y020206D01*
X042527Y020243D01*
X042538Y020284D01*
X042538Y020541D01*
X042538Y020482D02*
X043031Y020482D01*
X043031Y020363D02*
X042538Y020363D01*
X042527Y020245D02*
X043046Y020245D01*
X042260Y020245D02*
X042260Y020245D01*
X042260Y020145D02*
X042260Y020541D01*
X042260Y020541D01*
X042260Y020937D01*
X042120Y020937D01*
X042080Y020926D01*
X042043Y020905D01*
X042013Y020875D01*
X041992Y020839D01*
X041988Y020821D01*
X041988Y020823D01*
X041923Y020887D01*
X041596Y020887D01*
X041531Y020823D01*
X041531Y020259D01*
X041596Y020195D01*
X041923Y020195D01*
X041988Y020259D01*
X041988Y020260D01*
X041992Y020243D01*
X042013Y020206D01*
X042043Y020177D01*
X042080Y020156D01*
X042120Y020145D01*
X042260Y020145D01*
X042260Y020363D02*
X042260Y020363D01*
X042260Y020482D02*
X042260Y020482D01*
X042260Y020600D02*
X042260Y020600D01*
X042260Y020719D02*
X042260Y020719D01*
X042260Y020837D02*
X042260Y020837D01*
X041992Y020837D02*
X041973Y020837D01*
X041546Y020837D02*
X041473Y020837D01*
X041488Y020719D02*
X041531Y020719D01*
X041531Y020600D02*
X041488Y020600D01*
X041488Y020482D02*
X041531Y020482D01*
X041531Y020363D02*
X041488Y020363D01*
X041473Y020245D02*
X041546Y020245D01*
X041973Y020245D02*
X041992Y020245D01*
X041070Y020126D02*
X040950Y020126D01*
X040950Y020008D02*
X041070Y020008D01*
X041070Y019889D02*
X040950Y019889D01*
X040950Y019771D02*
X041070Y019771D01*
X041070Y019652D02*
X040950Y019652D01*
X040950Y019534D02*
X041070Y019534D01*
X041070Y019415D02*
X040950Y019415D01*
X040950Y019297D02*
X041070Y019297D01*
X041070Y019178D02*
X040950Y019178D01*
X040950Y019060D02*
X041070Y019060D01*
X041070Y018941D02*
X040950Y018941D01*
X040950Y018823D02*
X041070Y018823D01*
X041070Y018704D02*
X040950Y018704D01*
X040950Y018586D02*
X041070Y018586D01*
X041070Y018467D02*
X040852Y018467D01*
X040734Y018349D02*
X041070Y018349D01*
X040998Y018230D02*
X040615Y018230D01*
X040535Y018112D02*
X040985Y018112D01*
X041024Y017993D02*
X040495Y017993D01*
X040450Y018704D02*
X040552Y018704D01*
X040570Y018823D02*
X040450Y018823D01*
X040450Y018941D02*
X040570Y018941D01*
X040570Y019060D02*
X040450Y019060D01*
X040450Y019178D02*
X040570Y019178D01*
X040570Y019297D02*
X040450Y019297D01*
X040450Y019415D02*
X040570Y019415D01*
X040570Y019534D02*
X040450Y019534D01*
X040450Y019652D02*
X040570Y019652D01*
X040570Y019771D02*
X040450Y019771D01*
X040450Y019889D02*
X040570Y019889D01*
X040570Y020008D02*
X040450Y020008D01*
X040450Y020126D02*
X040570Y020126D01*
X040546Y020245D02*
X040473Y020245D01*
X040488Y020363D02*
X040531Y020363D01*
X040531Y020482D02*
X040488Y020482D01*
X040488Y020600D02*
X040531Y020600D01*
X040531Y020719D02*
X040488Y020719D01*
X040473Y020837D02*
X040546Y020837D01*
X040973Y020837D02*
X041046Y020837D01*
X041031Y020719D02*
X040988Y020719D01*
X040988Y020600D02*
X041031Y020600D01*
X041031Y020482D02*
X040988Y020482D01*
X040988Y020363D02*
X041031Y020363D01*
X041046Y020245D02*
X040973Y020245D01*
X040070Y020126D02*
X039950Y020126D01*
X039950Y020008D02*
X040070Y020008D01*
X040070Y019889D02*
X039950Y019889D01*
X039950Y019771D02*
X040070Y019771D01*
X040070Y019652D02*
X039950Y019652D01*
X039950Y019534D02*
X040070Y019534D01*
X040070Y019415D02*
X039950Y019415D01*
X039994Y019297D02*
X040070Y019297D01*
X040070Y019178D02*
X040035Y019178D01*
X040023Y019060D02*
X040070Y019060D01*
X040070Y018941D02*
X039946Y018941D01*
X039869Y018823D02*
X040070Y018823D01*
X040052Y018704D02*
X039932Y018704D01*
X041450Y018704D02*
X043052Y018704D01*
X042933Y018586D02*
X041450Y018586D01*
X041450Y018467D02*
X042815Y018467D01*
X042696Y018349D02*
X041450Y018349D01*
X041521Y018230D02*
X042578Y018230D01*
X042459Y018112D02*
X041535Y018112D01*
X041495Y017993D02*
X042341Y017993D01*
X043170Y018823D02*
X041450Y018823D01*
X041450Y018941D02*
X043289Y018941D01*
X043407Y019060D02*
X041450Y019060D01*
X041450Y019178D02*
X043526Y019178D01*
X045973Y020245D02*
X045992Y020245D01*
X047450Y020245D02*
X051589Y020245D01*
X051471Y020363D02*
X047450Y020363D01*
X047450Y020482D02*
X051352Y020482D01*
X051234Y020600D02*
X047450Y020600D01*
X047450Y020719D02*
X051115Y020719D01*
X050997Y020837D02*
X047450Y020837D01*
X047450Y020956D02*
X047458Y020956D01*
X047450Y020126D02*
X051708Y020126D01*
X053045Y020126D02*
X054075Y020126D01*
X054075Y020008D02*
X053164Y020008D01*
X053184Y019889D02*
X054075Y019889D01*
X054075Y019771D02*
X053184Y019771D01*
X053184Y019652D02*
X054075Y019652D01*
X054075Y019534D02*
X053184Y019534D01*
X053184Y019415D02*
X054075Y019415D01*
X054075Y019297D02*
X053184Y019297D01*
X053184Y019178D02*
X054075Y019178D01*
X054075Y019060D02*
X053184Y019060D01*
X053184Y018941D02*
X054075Y018941D01*
X054075Y018823D02*
X053184Y018823D01*
X053184Y018704D02*
X054075Y018704D01*
X054075Y018586D02*
X053184Y018586D01*
X053184Y018467D02*
X054075Y018467D01*
X054075Y018349D02*
X053184Y018349D01*
X053184Y018230D02*
X054075Y018230D01*
X054075Y018112D02*
X053184Y018112D01*
X053184Y017993D02*
X054075Y017993D01*
X054075Y017875D02*
X053184Y017875D01*
X053184Y017756D02*
X054075Y017756D01*
X054075Y017638D02*
X054021Y017638D01*
X054005Y017653D02*
X054070Y017589D01*
X054070Y017198D01*
X054005Y017133D01*
X053314Y017133D01*
X053250Y017198D01*
X053250Y017589D01*
X053314Y017653D01*
X054005Y017653D01*
X054070Y017519D02*
X054075Y017519D01*
X054070Y017401D02*
X054075Y017401D01*
X054070Y017282D02*
X054075Y017282D01*
X054075Y017164D02*
X054036Y017164D01*
X054075Y017045D02*
X053184Y017045D01*
X053184Y016927D02*
X054075Y016927D01*
X054075Y016808D02*
X053184Y016808D01*
X053184Y016690D02*
X054075Y016690D01*
X054075Y016571D02*
X053184Y016571D01*
X053184Y016453D02*
X054075Y016453D01*
X054075Y016334D02*
X053184Y016334D01*
X053184Y016216D02*
X054075Y016216D01*
X054005Y016153D02*
X054070Y016089D01*
X054070Y015698D01*
X054005Y015633D01*
X053314Y015633D01*
X053250Y015698D01*
X053250Y016089D01*
X053314Y016153D01*
X054005Y016153D01*
X054061Y016097D02*
X054075Y016097D01*
X054070Y015979D02*
X054075Y015979D01*
X054070Y015860D02*
X054075Y015860D01*
X054070Y015742D02*
X054075Y015742D01*
X054075Y015623D02*
X053184Y015623D01*
X053184Y015505D02*
X054075Y015505D01*
X054075Y015386D02*
X053289Y015386D01*
X053289Y015268D02*
X054075Y015268D01*
X054075Y015149D02*
X053289Y015149D01*
X053289Y015031D02*
X054075Y015031D01*
X054075Y014912D02*
X053289Y014912D01*
X053184Y014794D02*
X054075Y014794D01*
X054075Y014675D02*
X053184Y014675D01*
X053184Y014557D02*
X054075Y014557D01*
X054075Y014438D02*
X053184Y014438D01*
X053184Y014320D02*
X054075Y014320D01*
X054075Y014201D02*
X053184Y014201D01*
X053184Y014083D02*
X054075Y014083D01*
X054075Y013964D02*
X053184Y013964D01*
X053184Y013846D02*
X054075Y013846D01*
X054075Y013727D02*
X053184Y013727D01*
X053184Y013609D02*
X054075Y013609D01*
X054075Y013490D02*
X053184Y013490D01*
X053184Y013372D02*
X054075Y013372D01*
X054075Y013253D02*
X053184Y013253D01*
X053184Y013135D02*
X054075Y013135D01*
X054075Y013016D02*
X053184Y013016D01*
X053184Y012898D02*
X054075Y012898D01*
X054075Y012779D02*
X053184Y012779D01*
X053267Y012661D02*
X054075Y012661D01*
X054075Y012542D02*
X053289Y012542D01*
X053289Y012424D02*
X054075Y012424D01*
X054075Y012305D02*
X053289Y012305D01*
X053289Y012187D02*
X054075Y012187D01*
X054075Y012068D02*
X052515Y012068D01*
X052515Y012083D02*
X052555Y012083D01*
X052620Y012148D01*
X052620Y012639D01*
X052555Y012703D01*
X052094Y012703D01*
X052030Y012639D01*
X052030Y012148D01*
X052094Y012083D01*
X052135Y012083D01*
X052135Y010937D01*
X051651Y010453D01*
X051314Y010453D01*
X051250Y010389D01*
X051250Y010052D01*
X050181Y008983D01*
X050070Y008872D01*
X050070Y007584D01*
X049988Y007550D01*
X049853Y007415D01*
X049780Y007239D01*
X049780Y007048D01*
X049853Y006871D01*
X049988Y006736D01*
X050164Y006663D01*
X050355Y006663D01*
X050531Y006736D01*
X050666Y006871D01*
X050740Y007048D01*
X050740Y007239D01*
X050666Y007415D01*
X050531Y007550D01*
X050450Y007584D01*
X050450Y008715D01*
X051668Y009933D01*
X052005Y009933D01*
X052070Y009998D01*
X052070Y010335D01*
X052515Y010780D01*
X052515Y012083D01*
X052515Y011950D02*
X053310Y011950D01*
X053314Y011953D02*
X053250Y011889D01*
X053250Y011498D01*
X053314Y011433D01*
X054005Y011433D01*
X054070Y011498D01*
X054070Y011889D01*
X054005Y011953D01*
X053314Y011953D01*
X053250Y011831D02*
X052515Y011831D01*
X052515Y011713D02*
X053250Y011713D01*
X053250Y011594D02*
X052515Y011594D01*
X052515Y011476D02*
X053271Y011476D01*
X052515Y011357D02*
X054075Y011357D01*
X054075Y011239D02*
X052515Y011239D01*
X052515Y011120D02*
X054075Y011120D01*
X054075Y011002D02*
X052515Y011002D01*
X052515Y010883D02*
X054075Y010883D01*
X054075Y010765D02*
X052500Y010765D01*
X052381Y010646D02*
X054075Y010646D01*
X054075Y010528D02*
X052263Y010528D01*
X052144Y010409D02*
X053270Y010409D01*
X053250Y010389D02*
X053250Y009998D01*
X053314Y009933D01*
X054005Y009933D01*
X054070Y009998D01*
X054070Y010389D01*
X054005Y010453D01*
X053314Y010453D01*
X053250Y010389D01*
X053250Y010291D02*
X052070Y010291D01*
X052070Y010172D02*
X053250Y010172D01*
X053250Y010054D02*
X052070Y010054D01*
X052007Y009935D02*
X053312Y009935D01*
X054007Y009935D02*
X054075Y009935D01*
X054075Y009817D02*
X051552Y009817D01*
X051433Y009698D02*
X054075Y009698D01*
X054075Y009580D02*
X051315Y009580D01*
X051196Y009461D02*
X054075Y009461D01*
X054075Y009343D02*
X051078Y009343D01*
X050959Y009224D02*
X054075Y009224D01*
X054075Y009106D02*
X050841Y009106D01*
X050722Y008987D02*
X054075Y008987D01*
X054075Y008869D02*
X050604Y008869D01*
X050485Y008750D02*
X054075Y008750D01*
X054075Y008632D02*
X050450Y008632D01*
X050450Y008513D02*
X054075Y008513D01*
X054075Y008395D02*
X050450Y008395D01*
X050450Y008276D02*
X054075Y008276D01*
X054075Y008158D02*
X050450Y008158D01*
X050450Y008039D02*
X054075Y008039D01*
X054075Y007921D02*
X050450Y007921D01*
X050450Y007802D02*
X054075Y007802D01*
X054075Y007684D02*
X050450Y007684D01*
X050495Y007565D02*
X052024Y007565D01*
X051988Y007550D02*
X051853Y007415D01*
X051780Y007239D01*
X051780Y007048D01*
X051853Y006871D01*
X051988Y006736D01*
X052164Y006663D01*
X052355Y006663D01*
X052531Y006736D01*
X052666Y006871D01*
X052740Y007048D01*
X052740Y007239D01*
X052666Y007415D01*
X052531Y007550D01*
X052355Y007623D01*
X052164Y007623D01*
X051988Y007550D01*
X051884Y007447D02*
X051535Y007447D01*
X051531Y007450D02*
X051355Y007523D01*
X051164Y007523D01*
X050988Y007450D01*
X050853Y007315D01*
X050780Y007139D01*
X050780Y006948D01*
X050853Y006771D01*
X050988Y006636D01*
X051164Y006563D01*
X051355Y006563D01*
X051531Y006636D01*
X051666Y006771D01*
X051740Y006948D01*
X051740Y007139D01*
X051666Y007315D01*
X051531Y007450D01*
X051653Y007328D02*
X051817Y007328D01*
X051780Y007210D02*
X051710Y007210D01*
X051740Y007091D02*
X051780Y007091D01*
X051811Y006973D02*
X051740Y006973D01*
X051701Y006854D02*
X051870Y006854D01*
X051989Y006736D02*
X051631Y006736D01*
X051485Y006617D02*
X053577Y006617D01*
X053696Y006736D02*
X052530Y006736D01*
X052649Y006854D02*
X053809Y006854D01*
X053878Y006973D02*
X052708Y006973D01*
X052740Y007091D02*
X053946Y007091D01*
X053993Y007210D02*
X052740Y007210D01*
X052702Y007328D02*
X054025Y007328D01*
X054057Y007447D02*
X052635Y007447D01*
X052495Y007565D02*
X054069Y007565D01*
X054063Y007472D02*
X054063Y007472D01*
X053385Y006499D02*
X029757Y006499D01*
X029757Y006617D02*
X038034Y006617D01*
X037988Y006636D02*
X038164Y006563D01*
X038355Y006563D01*
X038531Y006636D01*
X038666Y006771D01*
X038740Y006948D01*
X038740Y007139D01*
X038666Y007315D01*
X038531Y007450D01*
X038355Y007523D01*
X038164Y007523D01*
X037988Y007450D01*
X037853Y007315D01*
X037780Y007139D01*
X037780Y006948D01*
X037853Y006771D01*
X037988Y006636D01*
X037888Y006736D02*
X029357Y006736D01*
X029357Y006854D02*
X029237Y006854D01*
X029237Y006819D02*
X029237Y007319D01*
X028975Y007319D01*
X028935Y007309D01*
X028898Y007287D01*
X028868Y007258D01*
X028847Y007221D01*
X028837Y007181D01*
X028837Y006819D01*
X029237Y006819D01*
X029237Y006736D02*
X027772Y006736D01*
X027820Y006617D02*
X028837Y006617D01*
X028837Y006499D02*
X027820Y006499D01*
X027777Y006380D02*
X028837Y006380D01*
X028837Y006854D02*
X027631Y006854D01*
X027340Y006854D02*
X024481Y006854D01*
X024622Y006736D02*
X027199Y006736D01*
X027150Y006617D02*
X024671Y006617D01*
X024671Y006499D02*
X027150Y006499D01*
X027194Y006380D02*
X024627Y006380D01*
X024044Y006380D02*
X023694Y006380D01*
X023694Y006499D02*
X024001Y006499D01*
X024001Y006617D02*
X023694Y006617D01*
X023694Y006854D02*
X024190Y006854D01*
X024049Y006736D02*
X023294Y006736D01*
X023294Y006854D02*
X023174Y006854D01*
X023174Y006819D02*
X023174Y007319D01*
X022912Y007319D01*
X022872Y007309D01*
X022835Y007287D01*
X022805Y007258D01*
X022784Y007221D01*
X022774Y007181D01*
X022774Y006819D01*
X023174Y006819D01*
X023174Y006736D02*
X016823Y006736D01*
X016710Y006854D02*
X022774Y006854D01*
X022774Y006973D02*
X016641Y006973D01*
X016573Y007091D02*
X022774Y007091D01*
X022781Y007210D02*
X016526Y007210D01*
X016494Y007328D02*
X037866Y007328D01*
X037809Y007210D02*
X029749Y007210D01*
X029757Y007091D02*
X037780Y007091D01*
X037780Y006973D02*
X029757Y006973D01*
X029757Y006854D02*
X037818Y006854D01*
X038485Y006617D02*
X040034Y006617D01*
X039988Y006636D02*
X040164Y006563D01*
X040355Y006563D01*
X040531Y006636D01*
X040666Y006771D01*
X040740Y006948D01*
X040740Y007139D01*
X040666Y007315D01*
X040531Y007450D01*
X040355Y007523D01*
X040164Y007523D01*
X039988Y007450D01*
X039853Y007315D01*
X039780Y007139D01*
X039780Y006948D01*
X039853Y006771D01*
X039988Y006636D01*
X039888Y006736D02*
X039530Y006736D01*
X039531Y006736D02*
X039666Y006871D01*
X039740Y007048D01*
X039740Y007239D01*
X039666Y007415D01*
X039531Y007550D01*
X039355Y007623D01*
X039164Y007623D01*
X038988Y007550D01*
X038853Y007415D01*
X038780Y007239D01*
X038780Y007048D01*
X038853Y006871D01*
X038988Y006736D01*
X039164Y006663D01*
X039355Y006663D01*
X039531Y006736D01*
X039649Y006854D02*
X039818Y006854D01*
X039780Y006973D02*
X039708Y006973D01*
X039740Y007091D02*
X039780Y007091D01*
X039809Y007210D02*
X039740Y007210D01*
X039702Y007328D02*
X039866Y007328D01*
X039984Y007447D02*
X039635Y007447D01*
X039495Y007565D02*
X041024Y007565D01*
X040988Y007550D02*
X040853Y007415D01*
X040780Y007239D01*
X040780Y007048D01*
X040853Y006871D01*
X040988Y006736D01*
X041164Y006663D01*
X041355Y006663D01*
X041531Y006736D01*
X041666Y006871D01*
X041740Y007048D01*
X041740Y007239D01*
X041666Y007415D01*
X041531Y007550D01*
X041355Y007623D01*
X041164Y007623D01*
X040988Y007550D01*
X040884Y007447D02*
X040535Y007447D01*
X040653Y007328D02*
X040817Y007328D01*
X040780Y007210D02*
X040710Y007210D01*
X040740Y007091D02*
X040780Y007091D01*
X040811Y006973D02*
X040740Y006973D01*
X040701Y006854D02*
X040870Y006854D01*
X040989Y006736D02*
X040631Y006736D01*
X040485Y006617D02*
X042034Y006617D01*
X041988Y006636D02*
X042164Y006563D01*
X042355Y006563D01*
X042531Y006636D01*
X042666Y006771D01*
X042740Y006948D01*
X042740Y007038D01*
X042743Y007019D01*
X042768Y006940D01*
X042806Y006866D01*
X042855Y006798D01*
X042914Y006739D01*
X042982Y006690D01*
X043056Y006652D01*
X043135Y006626D01*
X043218Y006613D01*
X043220Y006613D01*
X043220Y007103D01*
X043300Y007103D01*
X043300Y006613D01*
X043301Y006613D01*
X043384Y006626D01*
X043463Y006652D01*
X043537Y006690D01*
X043605Y006739D01*
X043664Y006798D01*
X043713Y006866D01*
X043742Y006923D01*
X043743Y006919D01*
X043768Y006840D01*
X043806Y006766D01*
X043855Y006698D01*
X043914Y006639D01*
X043982Y006590D01*
X044056Y006552D01*
X044135Y006526D01*
X044218Y006513D01*
X044220Y006513D01*
X044220Y007003D01*
X044300Y007003D01*
X044300Y007083D01*
X044780Y007083D01*
X044780Y007048D01*
X044853Y006871D01*
X044988Y006736D01*
X045164Y006663D01*
X045355Y006663D01*
X045531Y006736D01*
X045666Y006871D01*
X045740Y007048D01*
X045740Y007239D01*
X045666Y007415D01*
X045531Y007550D01*
X045355Y007623D01*
X045164Y007623D01*
X044988Y007550D01*
X044853Y007415D01*
X044780Y007239D01*
X044780Y007148D01*
X044776Y007167D01*
X044751Y007247D01*
X044713Y007321D01*
X044664Y007389D01*
X044605Y007448D01*
X044537Y007497D01*
X044463Y007534D01*
X044384Y007560D01*
X044301Y007573D01*
X044300Y007573D01*
X044300Y007083D01*
X044220Y007083D01*
X044220Y007573D01*
X044218Y007573D01*
X044135Y007560D01*
X044056Y007534D01*
X043982Y007497D01*
X043914Y007448D01*
X043855Y007389D01*
X043806Y007321D01*
X043777Y007264D01*
X043776Y007267D01*
X043751Y007347D01*
X043713Y007421D01*
X043664Y007489D01*
X043605Y007548D01*
X043537Y007597D01*
X043463Y007634D01*
X043384Y007660D01*
X043301Y007673D01*
X043300Y007673D01*
X043300Y007183D01*
X043220Y007183D01*
X043220Y007673D01*
X043218Y007673D01*
X043135Y007660D01*
X043056Y007634D01*
X042982Y007597D01*
X042914Y007548D01*
X042855Y007489D01*
X042806Y007421D01*
X042768Y007347D01*
X042743Y007267D01*
X042730Y007185D01*
X042730Y007183D01*
X043220Y007183D01*
X043220Y007103D01*
X042740Y007103D01*
X042740Y007139D01*
X042666Y007315D01*
X042531Y007450D01*
X042355Y007523D01*
X042164Y007523D01*
X041988Y007450D01*
X041853Y007315D01*
X041780Y007139D01*
X041780Y006948D01*
X041853Y006771D01*
X041988Y006636D01*
X041888Y006736D02*
X041530Y006736D01*
X041649Y006854D02*
X041818Y006854D01*
X041780Y006973D02*
X041708Y006973D01*
X041740Y007091D02*
X041780Y007091D01*
X041809Y007210D02*
X041740Y007210D01*
X041702Y007328D02*
X041866Y007328D01*
X041984Y007447D02*
X041635Y007447D01*
X041495Y007565D02*
X042939Y007565D01*
X042825Y007447D02*
X042535Y007447D01*
X042653Y007328D02*
X042762Y007328D01*
X042733Y007210D02*
X042710Y007210D01*
X042740Y006973D02*
X042758Y006973D01*
X042701Y006854D02*
X042814Y006854D01*
X042919Y006736D02*
X042631Y006736D01*
X042485Y006617D02*
X043193Y006617D01*
X043220Y006617D02*
X043300Y006617D01*
X043326Y006617D02*
X043944Y006617D01*
X043828Y006736D02*
X043600Y006736D01*
X043705Y006854D02*
X043764Y006854D01*
X044220Y006854D02*
X044300Y006854D01*
X044300Y006736D02*
X044220Y006736D01*
X044220Y006617D02*
X044300Y006617D01*
X044300Y006513D02*
X044301Y006513D01*
X044384Y006526D01*
X044463Y006552D01*
X044537Y006590D01*
X044605Y006639D01*
X044664Y006698D01*
X044713Y006766D01*
X044751Y006840D01*
X044776Y006919D01*
X044790Y007002D01*
X044790Y007003D01*
X044300Y007003D01*
X044300Y006513D01*
X044575Y006617D02*
X047034Y006617D01*
X046888Y006736D02*
X045530Y006736D01*
X045649Y006854D02*
X046818Y006854D01*
X046780Y006973D02*
X045708Y006973D01*
X045740Y007091D02*
X046780Y007091D01*
X046809Y007210D02*
X045740Y007210D01*
X045702Y007328D02*
X046866Y007328D01*
X046984Y007447D02*
X045635Y007447D01*
X045495Y007565D02*
X047069Y007565D01*
X046950Y007684D02*
X016445Y007684D01*
X016445Y007802D02*
X046832Y007802D01*
X046713Y007921D02*
X016445Y007921D01*
X016445Y008039D02*
X046595Y008039D01*
X046895Y008276D02*
X047358Y008276D01*
X047476Y008158D02*
X047014Y008158D01*
X047132Y008039D02*
X047595Y008039D01*
X047713Y007921D02*
X047251Y007921D01*
X047369Y007802D02*
X047832Y007802D01*
X047950Y007684D02*
X047450Y007684D01*
X047450Y007565D02*
X048024Y007565D01*
X047884Y007447D02*
X047535Y007447D01*
X047653Y007328D02*
X047817Y007328D01*
X047780Y007210D02*
X047710Y007210D01*
X047740Y007091D02*
X047780Y007091D01*
X047811Y006973D02*
X047740Y006973D01*
X047701Y006854D02*
X047870Y006854D01*
X047989Y006736D02*
X047631Y006736D01*
X047485Y006617D02*
X049034Y006617D01*
X048888Y006736D02*
X048530Y006736D01*
X048649Y006854D02*
X048818Y006854D01*
X048780Y006973D02*
X048708Y006973D01*
X048740Y007091D02*
X048780Y007091D01*
X048809Y007210D02*
X048740Y007210D01*
X048702Y007328D02*
X048866Y007328D01*
X048984Y007447D02*
X048635Y007447D01*
X048495Y007565D02*
X049069Y007565D01*
X048950Y007684D02*
X048450Y007684D01*
X048369Y007802D02*
X048832Y007802D01*
X048713Y007921D02*
X048251Y007921D01*
X048132Y008039D02*
X048595Y008039D01*
X048476Y008158D02*
X048014Y008158D01*
X047895Y008276D02*
X048358Y008276D01*
X048239Y008395D02*
X047777Y008395D01*
X047658Y008513D02*
X048121Y008513D01*
X048002Y008632D02*
X047540Y008632D01*
X047421Y008750D02*
X047884Y008750D01*
X047765Y008869D02*
X047303Y008869D01*
X047184Y008987D02*
X047647Y008987D01*
X047528Y009106D02*
X047066Y009106D01*
X046947Y009224D02*
X047410Y009224D01*
X047710Y009461D02*
X048523Y009461D01*
X048485Y009372D02*
X048570Y009575D01*
X048725Y009731D01*
X048929Y009815D01*
X049149Y009815D01*
X049353Y009731D01*
X049508Y009575D01*
X049593Y009372D01*
X049593Y009151D01*
X049508Y008948D01*
X049353Y008792D01*
X049149Y008708D01*
X048929Y008708D01*
X048725Y008792D01*
X048570Y008948D01*
X048485Y009151D01*
X048485Y009372D01*
X048485Y009343D02*
X047829Y009343D01*
X047947Y009224D02*
X048485Y009224D01*
X048504Y009106D02*
X048066Y009106D01*
X048184Y008987D02*
X048553Y008987D01*
X048649Y008869D02*
X048303Y008869D01*
X048421Y008750D02*
X048826Y008750D01*
X048658Y008513D02*
X050070Y008513D01*
X050070Y008395D02*
X048777Y008395D01*
X048895Y008276D02*
X050070Y008276D01*
X050070Y008158D02*
X049014Y008158D01*
X049132Y008039D02*
X050070Y008039D01*
X050070Y007921D02*
X049251Y007921D01*
X049369Y007802D02*
X050070Y007802D01*
X050070Y007684D02*
X049450Y007684D01*
X049450Y007565D02*
X050024Y007565D01*
X049884Y007447D02*
X049535Y007447D01*
X049653Y007328D02*
X049817Y007328D01*
X049780Y007210D02*
X049710Y007210D01*
X049740Y007091D02*
X049780Y007091D01*
X049811Y006973D02*
X049740Y006973D01*
X049701Y006854D02*
X049870Y006854D01*
X049989Y006736D02*
X049631Y006736D01*
X049485Y006617D02*
X051034Y006617D01*
X050888Y006736D02*
X050530Y006736D01*
X050649Y006854D02*
X050818Y006854D01*
X050780Y006973D02*
X050708Y006973D01*
X050740Y007091D02*
X050780Y007091D01*
X050809Y007210D02*
X050740Y007210D01*
X050702Y007328D02*
X050866Y007328D01*
X050984Y007447D02*
X050635Y007447D01*
X050070Y008632D02*
X048540Y008632D01*
X049252Y008750D02*
X050070Y008750D01*
X050070Y008869D02*
X049429Y008869D01*
X049525Y008987D02*
X050185Y008987D01*
X050303Y009106D02*
X049574Y009106D01*
X049593Y009224D02*
X050422Y009224D01*
X050540Y009343D02*
X049593Y009343D01*
X049556Y009461D02*
X050659Y009461D01*
X050777Y009580D02*
X049504Y009580D01*
X049385Y009698D02*
X050896Y009698D01*
X051014Y009817D02*
X033902Y009817D01*
X034020Y009935D02*
X051133Y009935D01*
X051250Y010054D02*
X034139Y010054D01*
X034257Y010172D02*
X051250Y010172D01*
X051250Y010291D02*
X034376Y010291D01*
X034494Y010409D02*
X051270Y010409D01*
X051725Y010528D02*
X034613Y010528D01*
X034731Y010646D02*
X051844Y010646D01*
X051962Y010765D02*
X034850Y010765D01*
X034968Y010883D02*
X052081Y010883D01*
X052135Y011002D02*
X035087Y011002D01*
X035205Y011120D02*
X052135Y011120D01*
X052135Y011239D02*
X035324Y011239D01*
X035442Y011357D02*
X052135Y011357D01*
X052058Y011415D02*
X052088Y011445D01*
X052109Y011482D01*
X052120Y011522D01*
X052120Y011678D01*
X051675Y011678D01*
X051675Y011708D01*
X052120Y011708D01*
X052120Y011864D01*
X052109Y011905D01*
X052088Y011942D01*
X052058Y011971D01*
X052021Y011992D01*
X051981Y012003D01*
X051675Y012003D01*
X051675Y011708D01*
X051645Y011708D01*
X051645Y012003D01*
X051338Y012003D01*
X051298Y011992D01*
X051261Y011971D01*
X051231Y011942D01*
X051210Y011905D01*
X051200Y011864D01*
X051200Y011708D01*
X051645Y011708D01*
X051645Y011678D01*
X051675Y011678D01*
X051675Y011383D01*
X051981Y011383D01*
X052021Y011394D01*
X052058Y011415D01*
X052105Y011476D02*
X052135Y011476D01*
X052120Y011594D02*
X052135Y011594D01*
X052120Y011713D02*
X052135Y011713D01*
X052120Y011831D02*
X052135Y011831D01*
X052135Y011950D02*
X052079Y011950D01*
X052135Y012068D02*
X035646Y012068D01*
X035646Y011950D02*
X051240Y011950D01*
X051200Y011831D02*
X035646Y011831D01*
X035646Y011713D02*
X051200Y011713D01*
X051200Y011678D02*
X051200Y011522D01*
X051210Y011482D01*
X051231Y011445D01*
X051261Y011415D01*
X051298Y011394D01*
X051338Y011383D01*
X051645Y011383D01*
X051645Y011678D01*
X051200Y011678D01*
X051200Y011594D02*
X035646Y011594D01*
X035561Y011476D02*
X051214Y011476D01*
X051645Y011476D02*
X051675Y011476D01*
X051675Y011594D02*
X051645Y011594D01*
X051645Y011713D02*
X051675Y011713D01*
X051675Y011831D02*
X051645Y011831D01*
X051645Y011950D02*
X051675Y011950D01*
X052030Y012187D02*
X035646Y012187D01*
X035646Y012305D02*
X052030Y012305D01*
X052030Y012424D02*
X035646Y012424D01*
X035646Y012542D02*
X052030Y012542D01*
X052052Y012661D02*
X035646Y012661D01*
X035646Y012779D02*
X052804Y012779D01*
X052804Y012898D02*
X035646Y012898D01*
X035646Y013016D02*
X052804Y013016D01*
X052804Y013135D02*
X035646Y013135D01*
X035646Y013253D02*
X052804Y013253D01*
X052804Y013372D02*
X039031Y013372D01*
X039031Y013352D02*
X038966Y013287D01*
X038009Y013287D01*
X037945Y013352D01*
X037945Y014309D01*
X038009Y014373D01*
X038966Y014373D01*
X039031Y014309D01*
X039031Y013352D01*
X039031Y013490D02*
X052804Y013490D01*
X052804Y013609D02*
X039031Y013609D01*
X039031Y013727D02*
X052804Y013727D01*
X052804Y013846D02*
X039031Y013846D01*
X039031Y013964D02*
X052804Y013964D01*
X052804Y014083D02*
X039031Y014083D01*
X039031Y014201D02*
X052804Y014201D01*
X052804Y014320D02*
X039020Y014320D01*
X038655Y014833D02*
X038194Y014833D01*
X038130Y014898D01*
X038130Y014953D01*
X037912Y014953D01*
X037633Y014675D01*
X037633Y014394D01*
X037569Y014330D01*
X037281Y014330D01*
X037262Y014349D01*
X037258Y014341D01*
X037228Y014312D01*
X037191Y014290D01*
X037151Y014280D01*
X037031Y014280D01*
X037031Y014735D01*
X037031Y014735D01*
X037031Y015190D01*
X037151Y015190D01*
X037191Y015179D01*
X037228Y015158D01*
X037258Y015128D01*
X037262Y015121D01*
X037281Y015140D01*
X037561Y015140D01*
X037755Y015333D01*
X038130Y015333D01*
X038130Y015389D01*
X038194Y015453D01*
X038655Y015453D01*
X038720Y015389D01*
X038720Y014898D01*
X038655Y014833D01*
X038720Y014912D02*
X038799Y014912D01*
X038799Y015031D02*
X038720Y015031D01*
X038720Y015149D02*
X038799Y015149D01*
X038799Y015268D02*
X038720Y015268D01*
X038720Y015386D02*
X038799Y015386D01*
X039187Y015505D02*
X037090Y015505D01*
X037208Y015623D02*
X039305Y015623D01*
X039424Y015742D02*
X037327Y015742D01*
X037445Y015860D02*
X039542Y015860D01*
X039539Y016334D02*
X039618Y016334D01*
X040527Y015860D02*
X048574Y015860D01*
X048692Y015742D02*
X040527Y015742D01*
X040527Y015623D02*
X048811Y015623D01*
X048929Y015505D02*
X040527Y015505D01*
X040755Y016927D02*
X038512Y016927D01*
X037159Y018112D02*
X019260Y018112D01*
X019378Y017993D02*
X037041Y017993D01*
X036922Y017875D02*
X019497Y017875D01*
X019615Y017756D02*
X036804Y017756D01*
X036685Y017638D02*
X019650Y017638D01*
X019650Y017519D02*
X036567Y017519D01*
X036448Y017401D02*
X019650Y017401D01*
X019650Y017282D02*
X036330Y017282D01*
X036211Y017164D02*
X019650Y017164D01*
X019650Y017045D02*
X036093Y017045D01*
X035974Y016927D02*
X019650Y016927D01*
X019650Y016808D02*
X034561Y016808D01*
X034465Y016690D02*
X033346Y016690D01*
X033356Y016687D02*
X033315Y016698D01*
X033127Y016698D01*
X033127Y016385D01*
X033062Y016385D01*
X033062Y016320D01*
X032734Y016320D01*
X032734Y016147D01*
X032745Y016106D01*
X032734Y016216D02*
X019650Y016216D01*
X019650Y016334D02*
X033062Y016334D01*
X033062Y016385D02*
X032734Y016385D01*
X032734Y016559D01*
X032745Y016600D01*
X032766Y016636D01*
X032796Y016666D01*
X032832Y016687D01*
X032873Y016698D01*
X033062Y016698D01*
X033062Y016385D01*
X033062Y016453D02*
X033127Y016453D01*
X033127Y016571D02*
X033062Y016571D01*
X033062Y016690D02*
X033127Y016690D01*
X033356Y016687D02*
X033392Y016666D01*
X033422Y016636D01*
X033443Y016600D01*
X033454Y016559D01*
X033454Y016407D01*
X033572Y016524D01*
X033572Y016584D01*
X033636Y016648D01*
X034127Y016648D01*
X034192Y016584D01*
X034192Y016122D01*
X034192Y016216D02*
X034570Y016216D01*
X034504Y016334D02*
X034192Y016334D01*
X034192Y016453D02*
X034442Y016453D01*
X034431Y016571D02*
X034192Y016571D01*
X033572Y016571D02*
X033451Y016571D01*
X033454Y016453D02*
X033500Y016453D01*
X033127Y016216D02*
X033062Y016216D01*
X033062Y016097D02*
X033127Y016097D01*
X032784Y015860D02*
X019650Y015860D01*
X019650Y015742D02*
X032784Y015742D01*
X032784Y015623D02*
X019650Y015623D01*
X019650Y015505D02*
X032784Y015505D01*
X032904Y015386D02*
X019650Y015386D01*
X019650Y015268D02*
X032904Y015268D01*
X032904Y015149D02*
X019650Y015149D01*
X019650Y015031D02*
X032886Y015031D01*
X032886Y014912D02*
X019650Y014912D01*
X019650Y014794D02*
X032886Y014794D01*
X032886Y014675D02*
X019650Y014675D01*
X019650Y014557D02*
X032886Y014557D01*
X032886Y014438D02*
X019650Y014438D01*
X019652Y014320D02*
X031499Y014320D01*
X031488Y014201D02*
X019770Y014201D01*
X019889Y014083D02*
X031488Y014083D01*
X031488Y013964D02*
X020007Y013964D01*
X020126Y013846D02*
X031488Y013846D01*
X031488Y013727D02*
X020244Y013727D01*
X020363Y013609D02*
X031488Y013609D01*
X031488Y013490D02*
X020481Y013490D01*
X019270Y014302D02*
X018150Y015422D01*
X018150Y016415D01*
X018868Y017133D01*
X019205Y017133D01*
X019270Y017198D01*
X019270Y017565D01*
X019270Y017565D01*
X019270Y016160D01*
X019258Y016171D01*
X019221Y016192D01*
X019181Y016203D01*
X018875Y016203D01*
X018875Y015908D01*
X018845Y015908D01*
X018845Y016203D01*
X018538Y016203D01*
X018498Y016192D01*
X018461Y016171D01*
X018431Y016142D01*
X018410Y016105D01*
X018400Y016064D01*
X018400Y015908D01*
X018845Y015908D01*
X018845Y015878D01*
X018875Y015878D01*
X018875Y015583D01*
X019181Y015583D01*
X019221Y015594D01*
X019258Y015615D01*
X019270Y015627D01*
X019270Y014302D01*
X019270Y014320D02*
X019252Y014320D01*
X019270Y014438D02*
X019133Y014438D01*
X019015Y014557D02*
X019270Y014557D01*
X019270Y014675D02*
X018896Y014675D01*
X018778Y014794D02*
X019270Y014794D01*
X019270Y014912D02*
X018659Y014912D01*
X018541Y015031D02*
X019270Y015031D01*
X019270Y015149D02*
X018422Y015149D01*
X018304Y015268D02*
X019270Y015268D01*
X019270Y015386D02*
X018185Y015386D01*
X018150Y015505D02*
X019270Y015505D01*
X019266Y015623D02*
X019270Y015623D01*
X018875Y015623D02*
X018845Y015623D01*
X018845Y015583D02*
X018845Y015878D01*
X018400Y015878D01*
X018400Y015722D01*
X018410Y015682D01*
X018431Y015645D01*
X018461Y015615D01*
X018498Y015594D01*
X018538Y015583D01*
X018845Y015583D01*
X018845Y015742D02*
X018875Y015742D01*
X018875Y015860D02*
X018845Y015860D01*
X018845Y015979D02*
X018875Y015979D01*
X018875Y016097D02*
X018845Y016097D01*
X018408Y016097D02*
X018150Y016097D01*
X018150Y015979D02*
X018400Y015979D01*
X018400Y015860D02*
X018150Y015860D01*
X018150Y015742D02*
X018400Y015742D01*
X018453Y015623D02*
X018150Y015623D01*
X017335Y015623D02*
X016445Y015623D01*
X016514Y015633D02*
X016450Y015698D01*
X016450Y016089D01*
X016514Y016153D01*
X017205Y016153D01*
X017270Y016089D01*
X017270Y015698D01*
X017205Y015633D01*
X016514Y015633D01*
X016450Y015742D02*
X016445Y015742D01*
X016445Y015860D02*
X016450Y015860D01*
X016445Y015979D02*
X016450Y015979D01*
X016445Y016097D02*
X016458Y016097D01*
X016445Y016216D02*
X017335Y016216D01*
X017335Y016334D02*
X016445Y016334D01*
X016445Y016453D02*
X017335Y016453D01*
X017335Y016571D02*
X016445Y016571D01*
X016445Y016690D02*
X017335Y016690D01*
X017335Y016808D02*
X016445Y016808D01*
X016445Y016927D02*
X017335Y016927D01*
X017335Y017045D02*
X016445Y017045D01*
X016514Y017133D02*
X016450Y017198D01*
X016450Y017589D01*
X016514Y017653D01*
X017205Y017653D01*
X017270Y017589D01*
X017270Y017198D01*
X017205Y017133D01*
X016514Y017133D01*
X016483Y017164D02*
X016445Y017164D01*
X016445Y017282D02*
X016450Y017282D01*
X016445Y017401D02*
X016450Y017401D01*
X016445Y017519D02*
X016450Y017519D01*
X016445Y017638D02*
X016498Y017638D01*
X016445Y017756D02*
X017335Y017756D01*
X017335Y017638D02*
X017221Y017638D01*
X017270Y017519D02*
X017335Y017519D01*
X017335Y017401D02*
X017270Y017401D01*
X017270Y017282D02*
X017335Y017282D01*
X017335Y017164D02*
X017236Y017164D01*
X017253Y017875D02*
X016445Y017875D01*
X016445Y017993D02*
X017230Y017993D01*
X017230Y018112D02*
X016445Y018112D01*
X016445Y018230D02*
X017230Y018230D01*
X017230Y018349D02*
X016445Y018349D01*
X016445Y018467D02*
X017335Y018467D01*
X017335Y018586D02*
X016445Y018586D01*
X016445Y018704D02*
X017335Y018704D01*
X017335Y018823D02*
X016445Y018823D01*
X016445Y018941D02*
X017335Y018941D01*
X017335Y019060D02*
X016445Y019060D01*
X016445Y019178D02*
X017335Y019178D01*
X017335Y019297D02*
X016445Y019297D01*
X016445Y019415D02*
X017335Y019415D01*
X017335Y019534D02*
X016445Y019534D01*
X016445Y019652D02*
X017335Y019652D01*
X017335Y019771D02*
X016445Y019771D01*
X016445Y019889D02*
X017335Y019889D01*
X017335Y020008D02*
X016445Y020008D01*
X016445Y020126D02*
X017335Y020126D01*
X017335Y020245D02*
X016445Y020245D01*
X016445Y020363D02*
X017335Y020363D01*
X017335Y020482D02*
X016445Y020482D01*
X016445Y020600D02*
X017230Y020600D01*
X017230Y020719D02*
X016445Y020719D01*
X016445Y020837D02*
X017230Y020837D01*
X017230Y020956D02*
X016445Y020956D01*
X016445Y021074D02*
X017230Y021074D01*
X016450Y021430D02*
X016445Y021430D01*
X016445Y021548D02*
X016450Y021548D01*
X016445Y021667D02*
X016450Y021667D01*
X016445Y021785D02*
X016450Y021785D01*
X016445Y021904D02*
X022560Y021904D01*
X022560Y022022D02*
X016445Y022022D01*
X016445Y022141D02*
X022560Y022141D01*
X022560Y022259D02*
X016445Y022259D01*
X016445Y022378D02*
X022560Y022378D01*
X022560Y022496D02*
X016445Y022496D01*
X016445Y022615D02*
X022560Y022615D01*
X022560Y022733D02*
X016445Y022733D01*
X016845Y022852D02*
X016875Y022852D01*
X016875Y022783D02*
X016875Y023078D01*
X017320Y023078D01*
X017320Y022922D01*
X017309Y022882D01*
X017288Y022845D01*
X017258Y022815D01*
X017221Y022794D01*
X017181Y022783D01*
X016875Y022783D01*
X016875Y022970D02*
X016845Y022970D01*
X016875Y023089D02*
X018450Y023089D01*
X018450Y023207D02*
X017320Y023207D01*
X017297Y023326D02*
X018486Y023326D01*
X018514Y023353D02*
X018450Y023289D01*
X018450Y022898D01*
X018514Y022833D01*
X019205Y022833D01*
X019270Y022898D01*
X019270Y023289D01*
X019205Y023353D01*
X018514Y023353D01*
X018450Y022970D02*
X017320Y022970D01*
X017291Y022852D02*
X018495Y022852D01*
X019224Y022852D02*
X022560Y022852D01*
X022560Y022970D02*
X019270Y022970D01*
X019270Y023089D02*
X022560Y023089D01*
X022560Y023207D02*
X019270Y023207D01*
X019233Y023326D02*
X022560Y023326D01*
X022560Y023444D02*
X016445Y023444D01*
X016445Y023563D02*
X021159Y023563D01*
X021166Y023556D02*
X021370Y023471D01*
X021590Y023471D01*
X021794Y023556D01*
X021949Y023712D01*
X022034Y023915D01*
X022034Y024135D01*
X021949Y024339D01*
X021794Y024495D01*
X021590Y024579D01*
X021370Y024579D01*
X021166Y024495D01*
X021011Y024339D01*
X020926Y024135D01*
X020926Y023915D01*
X021011Y023712D01*
X021166Y023556D01*
X021041Y023681D02*
X016445Y023681D01*
X016445Y023800D02*
X020974Y023800D01*
X020926Y023918D02*
X016445Y023918D01*
X016445Y024037D02*
X020926Y024037D01*
X020935Y024155D02*
X016445Y024155D01*
X016445Y024274D02*
X020984Y024274D01*
X021064Y024392D02*
X016445Y024392D01*
X016445Y024511D02*
X021206Y024511D01*
X021754Y024511D02*
X022560Y024511D01*
X022560Y024629D02*
X016445Y024629D01*
X016445Y024748D02*
X022560Y024748D01*
X022560Y024866D02*
X016445Y024866D01*
X016445Y024985D02*
X022560Y024985D01*
X022560Y025103D02*
X016452Y025103D01*
X016443Y025222D02*
X022560Y025222D01*
X022560Y025340D02*
X016430Y025340D01*
X016437Y025459D02*
X022560Y025459D01*
X022560Y025577D02*
X016451Y025577D01*
X016465Y025696D02*
X022560Y025696D01*
X022560Y025814D02*
X016488Y025814D01*
X016535Y025933D02*
X022560Y025933D01*
X022560Y026051D02*
X016583Y026051D01*
X016808Y026407D02*
X022560Y026407D01*
X022560Y026525D02*
X016910Y026525D01*
X017061Y026644D02*
X022560Y026644D01*
X022560Y026762D02*
X017220Y026762D01*
X017497Y026881D02*
X022560Y026881D01*
X022960Y026881D02*
X031560Y026881D01*
X031560Y026958D02*
X031560Y024219D01*
X031505Y024273D01*
X031070Y024273D01*
X030930Y024414D01*
X030843Y024500D01*
X030966Y024500D01*
X031031Y024565D01*
X031031Y025522D01*
X030966Y025586D01*
X030009Y025586D01*
X029945Y025522D01*
X029945Y024565D01*
X029996Y024513D01*
X029600Y024513D01*
X029569Y024544D01*
X029281Y024544D01*
X029228Y024491D01*
X029175Y024544D01*
X028887Y024544D01*
X028834Y024491D01*
X028781Y024544D01*
X028493Y024544D01*
X028441Y024491D01*
X028388Y024544D01*
X028100Y024544D01*
X028050Y024494D01*
X028050Y024922D01*
X027938Y025033D01*
X025015Y025033D01*
X024904Y024922D01*
X024904Y024498D01*
X024886Y024480D01*
X024886Y023798D01*
X024950Y023734D01*
X025238Y023734D01*
X025291Y023786D01*
X025298Y023780D01*
X025298Y023650D01*
X025281Y023633D01*
X024738Y023633D01*
X024238Y024133D01*
X024070Y024133D01*
X024070Y024209D01*
X024005Y024273D01*
X023514Y024273D01*
X023450Y024209D01*
X023450Y023747D01*
X023514Y023683D01*
X024005Y023683D01*
X024070Y023747D01*
X024070Y023753D01*
X024081Y023753D01*
X024470Y023365D01*
X024581Y023253D01*
X025438Y023253D01*
X025567Y023382D01*
X025678Y023493D01*
X025678Y023780D01*
X025685Y023786D01*
X025692Y023780D01*
X025692Y023344D01*
X024937Y022589D01*
X024855Y022623D01*
X024664Y022623D01*
X024488Y022550D01*
X024353Y022415D01*
X024280Y022239D01*
X024280Y022048D01*
X024353Y021871D01*
X024488Y021736D01*
X024664Y021663D01*
X024855Y021663D01*
X025031Y021736D01*
X025166Y021871D01*
X025240Y022048D01*
X025240Y022239D01*
X025206Y022321D01*
X025960Y023075D01*
X026072Y023187D01*
X026072Y023780D01*
X026078Y023786D01*
X026085Y023780D01*
X026085Y022738D01*
X025937Y022589D01*
X025855Y022623D01*
X025664Y022623D01*
X025488Y022550D01*
X025353Y022415D01*
X025280Y022239D01*
X025280Y022048D01*
X025353Y021871D01*
X025488Y021736D01*
X025664Y021663D01*
X025855Y021663D01*
X026031Y021736D01*
X026166Y021871D01*
X026240Y022048D01*
X026240Y022239D01*
X026206Y022321D01*
X026354Y022469D01*
X026465Y022580D01*
X026465Y023780D01*
X026472Y023786D01*
X026479Y023780D01*
X026479Y022542D01*
X026353Y022415D01*
X026280Y022239D01*
X026280Y022048D01*
X026353Y021871D01*
X026488Y021736D01*
X026664Y021663D01*
X026855Y021663D01*
X027031Y021736D01*
X027166Y021871D01*
X027240Y022048D01*
X027240Y022239D01*
X027166Y022415D01*
X027031Y022550D01*
X026859Y022622D01*
X026859Y023780D01*
X026866Y023786D01*
X026873Y023780D01*
X026873Y022761D01*
X026984Y022650D01*
X027313Y022321D01*
X027280Y022239D01*
X027280Y022048D01*
X027353Y021871D01*
X027488Y021736D01*
X027664Y021663D01*
X027855Y021663D01*
X028031Y021736D01*
X028166Y021871D01*
X028240Y022048D01*
X028240Y022239D01*
X028166Y022415D01*
X028031Y022550D01*
X027855Y022623D01*
X027664Y022623D01*
X027582Y022589D01*
X027253Y022919D01*
X027253Y023780D01*
X027260Y023786D01*
X027266Y023780D01*
X027266Y023368D01*
X027378Y023256D01*
X028313Y022321D01*
X028280Y022239D01*
X028280Y022048D01*
X028353Y021871D01*
X028488Y021736D01*
X028664Y021663D01*
X028855Y021663D01*
X029031Y021736D01*
X029166Y021871D01*
X029240Y022048D01*
X029240Y022239D01*
X029166Y022415D01*
X029031Y022550D01*
X029024Y022553D01*
X029081Y022553D01*
X029313Y022321D01*
X029280Y022239D01*
X029280Y022048D01*
X029353Y021871D01*
X029488Y021736D01*
X029664Y021663D01*
X029855Y021663D01*
X030031Y021736D01*
X030166Y021871D01*
X030240Y022048D01*
X030240Y022239D01*
X030166Y022415D01*
X030031Y022550D01*
X030024Y022553D01*
X030081Y022553D01*
X030313Y022321D01*
X030280Y022239D01*
X030280Y022048D01*
X030353Y021871D01*
X030488Y021736D01*
X030664Y021663D01*
X030855Y021663D01*
X031031Y021736D01*
X031166Y021871D01*
X031240Y022048D01*
X031240Y022239D01*
X031166Y022415D01*
X031031Y022550D01*
X030855Y022623D01*
X030843Y022623D01*
X030884Y022665D01*
X031233Y023014D01*
X031505Y023014D01*
X031560Y023068D01*
X031560Y021343D01*
X022960Y021343D01*
X022960Y026958D01*
X031560Y026958D01*
X031560Y026762D02*
X022960Y026762D01*
X022960Y026644D02*
X031560Y026644D01*
X031560Y026525D02*
X022960Y026525D01*
X022960Y026407D02*
X031560Y026407D01*
X031560Y026288D02*
X022960Y026288D01*
X022960Y026170D02*
X031560Y026170D01*
X031560Y026051D02*
X022960Y026051D01*
X022960Y025933D02*
X031560Y025933D01*
X031560Y025814D02*
X022960Y025814D01*
X022960Y025696D02*
X031560Y025696D01*
X031560Y025577D02*
X030976Y025577D01*
X031031Y025459D02*
X031560Y025459D01*
X031560Y025340D02*
X031031Y025340D01*
X031031Y025222D02*
X031560Y025222D01*
X031560Y025103D02*
X031031Y025103D01*
X031031Y024985D02*
X031560Y024985D01*
X031560Y024866D02*
X031031Y024866D01*
X031031Y024748D02*
X031560Y024748D01*
X031560Y024629D02*
X031031Y024629D01*
X030977Y024511D02*
X031560Y024511D01*
X031560Y024392D02*
X030951Y024392D01*
X030930Y024414D02*
X030930Y024414D01*
X030760Y024343D02*
X031125Y023978D01*
X031260Y023978D01*
X030950Y023913D02*
X030950Y023747D01*
X031014Y023683D01*
X031505Y023683D01*
X031560Y023737D01*
X031560Y023549D01*
X031505Y023604D01*
X031014Y023604D01*
X030950Y023539D01*
X030950Y023267D01*
X030615Y022933D01*
X030081Y022933D01*
X029738Y022933D01*
X029533Y023139D01*
X029950Y023139D01*
X029950Y023078D01*
X030014Y023014D01*
X030505Y023014D01*
X030570Y023078D01*
X030570Y023539D01*
X030505Y023604D01*
X030014Y023604D01*
X029950Y023539D01*
X029950Y023479D01*
X029635Y023479D01*
X029930Y023773D01*
X029950Y023773D01*
X029950Y023747D01*
X030014Y023683D01*
X030505Y023683D01*
X030570Y023747D01*
X030570Y024173D01*
X030689Y024173D01*
X030950Y023913D01*
X030944Y023918D02*
X030570Y023918D01*
X030570Y023800D02*
X030950Y023800D01*
X030973Y023563D02*
X030546Y023563D01*
X030570Y023444D02*
X030950Y023444D01*
X030950Y023326D02*
X030570Y023326D01*
X030570Y023207D02*
X030889Y023207D01*
X030771Y023089D02*
X030570Y023089D01*
X030652Y022970D02*
X029701Y022970D01*
X029583Y023089D02*
X029950Y023089D01*
X030260Y023309D02*
X029094Y023309D01*
X028660Y023743D01*
X028660Y024117D01*
X028637Y024139D01*
X029031Y024139D02*
X029031Y023872D01*
X029260Y023643D01*
X029560Y023643D01*
X029860Y023943D01*
X030225Y023943D01*
X030260Y023978D01*
X030570Y024037D02*
X030826Y024037D01*
X030707Y024155D02*
X030570Y024155D01*
X030760Y024343D02*
X029629Y024343D01*
X029425Y024139D01*
X029248Y024511D02*
X029208Y024511D01*
X028854Y024511D02*
X028815Y024511D01*
X028460Y024511D02*
X028421Y024511D01*
X028067Y024511D02*
X028050Y024511D01*
X028050Y024629D02*
X029945Y024629D01*
X029945Y024748D02*
X028050Y024748D01*
X028050Y024866D02*
X029945Y024866D01*
X029945Y024985D02*
X027987Y024985D01*
X029945Y025103D02*
X024574Y025103D01*
X024574Y024985D02*
X024967Y024985D01*
X024904Y024866D02*
X024574Y024866D01*
X024574Y024748D02*
X024904Y024748D01*
X024904Y024629D02*
X024574Y024629D01*
X024574Y024565D02*
X024574Y025522D01*
X024510Y025586D01*
X023553Y025586D01*
X023488Y025522D01*
X023488Y024565D01*
X023553Y024500D01*
X024510Y024500D01*
X024574Y024565D01*
X024520Y024511D02*
X024904Y024511D01*
X024886Y024392D02*
X022960Y024392D01*
X022960Y024274D02*
X024886Y024274D01*
X024886Y024155D02*
X024070Y024155D01*
X024335Y024037D02*
X024886Y024037D01*
X024886Y023918D02*
X024453Y023918D01*
X024572Y023800D02*
X024886Y023800D01*
X024690Y023681D02*
X025298Y023681D01*
X025678Y023681D02*
X025692Y023681D01*
X025678Y023563D02*
X025692Y023563D01*
X025692Y023444D02*
X025629Y023444D01*
X025673Y023326D02*
X025511Y023326D01*
X025555Y023207D02*
X024070Y023207D01*
X024070Y023089D02*
X025436Y023089D01*
X025318Y022970D02*
X023950Y022970D01*
X023950Y023014D02*
X024005Y023014D01*
X024070Y023078D01*
X024070Y023539D01*
X024005Y023604D01*
X023514Y023604D01*
X023450Y023539D01*
X023450Y023078D01*
X023514Y023014D01*
X023570Y023014D01*
X023570Y022584D01*
X023488Y022550D01*
X023353Y022415D01*
X023280Y022239D01*
X023280Y022048D01*
X023353Y021871D01*
X023488Y021736D01*
X023664Y021663D01*
X023855Y021663D01*
X024031Y021736D01*
X024166Y021871D01*
X024240Y022048D01*
X024240Y022239D01*
X024166Y022415D01*
X024031Y022550D01*
X023950Y022584D01*
X023950Y023014D01*
X023950Y022852D02*
X025199Y022852D01*
X025081Y022733D02*
X023950Y022733D01*
X023950Y022615D02*
X024644Y022615D01*
X024875Y022615D02*
X024962Y022615D01*
X025263Y022378D02*
X025337Y022378D01*
X025381Y022496D02*
X025434Y022496D01*
X025500Y022615D02*
X025644Y022615D01*
X025618Y022733D02*
X026081Y022733D01*
X026085Y022852D02*
X025737Y022852D01*
X025855Y022970D02*
X026085Y022970D01*
X026085Y023089D02*
X025974Y023089D01*
X026072Y023207D02*
X026085Y023207D01*
X026072Y023326D02*
X026085Y023326D01*
X026072Y023444D02*
X026085Y023444D01*
X026072Y023563D02*
X026085Y023563D01*
X026072Y023681D02*
X026085Y023681D01*
X026465Y023681D02*
X026479Y023681D01*
X026465Y023563D02*
X026479Y023563D01*
X026465Y023444D02*
X026479Y023444D01*
X026465Y023326D02*
X026479Y023326D01*
X026465Y023207D02*
X026479Y023207D01*
X026465Y023089D02*
X026479Y023089D01*
X026465Y022970D02*
X026479Y022970D01*
X026465Y022852D02*
X026479Y022852D01*
X026465Y022733D02*
X026479Y022733D01*
X026465Y022615D02*
X026479Y022615D01*
X026434Y022496D02*
X026381Y022496D01*
X026337Y022378D02*
X026263Y022378D01*
X026288Y022259D02*
X026231Y022259D01*
X026240Y022141D02*
X026280Y022141D01*
X026290Y022022D02*
X026229Y022022D01*
X026180Y021904D02*
X026339Y021904D01*
X026439Y021785D02*
X026080Y021785D01*
X025864Y021667D02*
X026656Y021667D01*
X026864Y021667D02*
X027656Y021667D01*
X027864Y021667D02*
X028656Y021667D01*
X028864Y021667D02*
X029656Y021667D01*
X029864Y021667D02*
X030656Y021667D01*
X030864Y021667D02*
X031560Y021667D01*
X031560Y021785D02*
X031080Y021785D01*
X031180Y021904D02*
X031560Y021904D01*
X031560Y022022D02*
X031229Y022022D01*
X031240Y022141D02*
X031560Y022141D01*
X031560Y022259D02*
X031231Y022259D01*
X031182Y022378D02*
X031560Y022378D01*
X031560Y022496D02*
X031085Y022496D01*
X030875Y022615D02*
X031560Y022615D01*
X031560Y022733D02*
X030953Y022733D01*
X031071Y022852D02*
X031560Y022852D01*
X031560Y022970D02*
X031190Y022970D01*
X031546Y023563D02*
X031560Y023563D01*
X031560Y023681D02*
X029838Y023681D01*
X029719Y023563D02*
X029973Y023563D01*
X031069Y024274D02*
X031560Y024274D01*
X029945Y025222D02*
X024574Y025222D01*
X024574Y025340D02*
X029945Y025340D01*
X029945Y025459D02*
X024574Y025459D01*
X024519Y025577D02*
X030000Y025577D01*
X031960Y026881D02*
X053022Y026881D01*
X052556Y026525D02*
X053609Y026525D01*
X053711Y026407D02*
X052670Y026407D01*
X052719Y026288D02*
X053800Y026288D01*
X053889Y026170D02*
X054043Y025786D01*
X054054Y025696D02*
X052434Y025696D01*
X052085Y025696D02*
X050434Y025696D01*
X050085Y025696D02*
X048450Y025696D01*
X048450Y025577D02*
X054068Y025577D01*
X054082Y025459D02*
X048450Y025459D01*
X048450Y025340D02*
X054089Y025340D01*
X054076Y025222D02*
X048450Y025222D01*
X048450Y025103D02*
X054067Y025103D01*
X054075Y024985D02*
X048450Y024985D01*
X048450Y024866D02*
X054075Y024866D01*
X054075Y024748D02*
X048450Y024748D01*
X048450Y024629D02*
X054075Y024629D01*
X054075Y024511D02*
X049313Y024511D01*
X049353Y024495D02*
X049149Y024579D01*
X048929Y024579D01*
X048725Y024495D01*
X048570Y024339D01*
X048485Y024135D01*
X048485Y023915D01*
X048570Y023712D01*
X048725Y023556D01*
X048929Y023471D01*
X049149Y023471D01*
X049353Y023556D01*
X049508Y023712D01*
X049593Y023915D01*
X049593Y024135D01*
X049508Y024339D01*
X049353Y024495D01*
X049455Y024392D02*
X054075Y024392D01*
X054075Y024274D02*
X049535Y024274D01*
X049584Y024155D02*
X054075Y024155D01*
X054075Y024037D02*
X049593Y024037D01*
X049593Y023918D02*
X054075Y023918D01*
X054075Y023800D02*
X049545Y023800D01*
X049478Y023681D02*
X054075Y023681D01*
X054075Y023563D02*
X049360Y023563D01*
X049064Y023207D02*
X051200Y023207D01*
X051200Y023264D02*
X051200Y023108D01*
X051645Y023108D01*
X051645Y023403D01*
X051338Y023403D01*
X051298Y023392D01*
X051261Y023371D01*
X051231Y023342D01*
X051210Y023305D01*
X051200Y023264D01*
X051222Y023326D02*
X048946Y023326D01*
X048827Y023444D02*
X054075Y023444D01*
X054005Y023353D02*
X054070Y023289D01*
X054070Y022898D01*
X054005Y022833D01*
X053314Y022833D01*
X053250Y022898D01*
X053250Y023289D01*
X053314Y023353D01*
X054005Y023353D01*
X054033Y023326D02*
X054075Y023326D01*
X054070Y023207D02*
X054075Y023207D01*
X054070Y023089D02*
X054075Y023089D01*
X054070Y022970D02*
X054075Y022970D01*
X054075Y022852D02*
X054024Y022852D01*
X054075Y022733D02*
X049538Y022733D01*
X049657Y022615D02*
X054075Y022615D01*
X054075Y022496D02*
X049775Y022496D01*
X049894Y022378D02*
X054075Y022378D01*
X054075Y022259D02*
X050012Y022259D01*
X050131Y022141D02*
X054075Y022141D01*
X054075Y022022D02*
X050249Y022022D01*
X050368Y021904D02*
X054075Y021904D01*
X054070Y021785D02*
X054075Y021785D01*
X054070Y021667D02*
X054075Y021667D01*
X054070Y021548D02*
X054075Y021548D01*
X054070Y021430D02*
X054075Y021430D01*
X052088Y022845D02*
X052058Y022815D01*
X052021Y022794D01*
X051981Y022783D01*
X051675Y022783D01*
X051675Y023078D01*
X051675Y023108D01*
X052120Y023108D01*
X052120Y023264D01*
X052109Y023305D01*
X052088Y023342D01*
X052058Y023371D01*
X052021Y023392D01*
X051981Y023403D01*
X051675Y023403D01*
X051675Y023108D01*
X051645Y023108D01*
X051645Y023078D01*
X051675Y023078D01*
X052120Y023078D01*
X052120Y022922D01*
X052109Y022882D01*
X052088Y022845D01*
X052091Y022852D02*
X053295Y022852D01*
X053250Y022970D02*
X052120Y022970D01*
X052120Y023207D02*
X053250Y023207D01*
X053250Y023089D02*
X051675Y023089D01*
X051645Y023089D02*
X049183Y023089D01*
X049301Y022970D02*
X051200Y022970D01*
X051200Y022922D02*
X051210Y022882D01*
X051231Y022845D01*
X051261Y022815D01*
X051298Y022794D01*
X051338Y022783D01*
X051645Y022783D01*
X051645Y023078D01*
X051200Y023078D01*
X051200Y022922D01*
X051228Y022852D02*
X049420Y022852D01*
X048718Y023563D02*
X048709Y023563D01*
X048600Y023681D02*
X048590Y023681D01*
X048533Y023800D02*
X048472Y023800D01*
X048485Y023918D02*
X048450Y023918D01*
X048450Y024037D02*
X048485Y024037D01*
X048494Y024155D02*
X048450Y024155D01*
X048450Y024274D02*
X048543Y024274D01*
X048623Y024392D02*
X048450Y024392D01*
X048450Y024511D02*
X048765Y024511D01*
X051645Y023326D02*
X051675Y023326D01*
X051675Y023207D02*
X051645Y023207D01*
X051645Y022970D02*
X051675Y022970D01*
X051675Y022852D02*
X051645Y022852D01*
X052097Y023326D02*
X053286Y023326D01*
X043570Y023326D02*
X042923Y023326D01*
X042847Y023444D02*
X043570Y023444D01*
X043031Y022733D02*
X042488Y022733D01*
X042488Y022615D02*
X043031Y022615D01*
X043031Y022496D02*
X042488Y022496D01*
X042451Y022141D02*
X042888Y022141D01*
X043007Y022259D02*
X039512Y022259D01*
X039450Y022378D02*
X043070Y022378D01*
X040531Y022496D02*
X040488Y022496D01*
X040488Y022464D02*
X040423Y022399D01*
X040096Y022399D01*
X040031Y022464D01*
X040031Y023027D01*
X040070Y023066D01*
X040070Y025344D01*
X040026Y025388D01*
X039985Y025489D01*
X039985Y025598D01*
X040026Y025699D01*
X040104Y025776D01*
X040205Y025818D01*
X040314Y025818D01*
X040415Y025776D01*
X040493Y025699D01*
X040535Y025598D01*
X040535Y025489D01*
X040493Y025388D01*
X040450Y025344D01*
X040450Y023066D01*
X040488Y023027D01*
X040488Y022464D01*
X040488Y022615D02*
X040531Y022615D01*
X040531Y022733D02*
X040488Y022733D01*
X040488Y022852D02*
X040531Y022852D01*
X040531Y022970D02*
X040488Y022970D01*
X040450Y023089D02*
X040570Y023089D01*
X040570Y023207D02*
X040450Y023207D01*
X040450Y023326D02*
X040570Y023326D01*
X040570Y023444D02*
X040450Y023444D01*
X040450Y023563D02*
X040570Y023563D01*
X040570Y023681D02*
X040450Y023681D01*
X040450Y023800D02*
X040570Y023800D01*
X040570Y023918D02*
X040450Y023918D01*
X040450Y024037D02*
X040570Y024037D01*
X040570Y024155D02*
X040450Y024155D01*
X040450Y024274D02*
X040570Y024274D01*
X040570Y024392D02*
X040450Y024392D01*
X040450Y024511D02*
X040570Y024511D01*
X040570Y024629D02*
X040450Y024629D01*
X040450Y024748D02*
X040570Y024748D01*
X040570Y024866D02*
X040450Y024866D01*
X040450Y024985D02*
X040570Y024985D01*
X040570Y025103D02*
X040450Y025103D01*
X040450Y025222D02*
X040570Y025222D01*
X040570Y025340D02*
X040450Y025340D01*
X040522Y025459D02*
X040570Y025459D01*
X040570Y025577D02*
X040535Y025577D01*
X040570Y025696D02*
X040494Y025696D01*
X040541Y025814D02*
X040324Y025814D01*
X040195Y025814D02*
X040109Y025814D01*
X040192Y025933D02*
X040391Y025933D01*
X040319Y026051D02*
X040240Y026051D01*
X040240Y026170D02*
X040280Y026170D01*
X040280Y026288D02*
X040219Y026288D01*
X040170Y026407D02*
X040308Y026407D01*
X040363Y026525D02*
X040056Y026525D01*
X040481Y026644D02*
X039038Y026644D01*
X039156Y026525D02*
X039463Y026525D01*
X039349Y026407D02*
X039211Y026407D01*
X039240Y026288D02*
X039300Y026288D01*
X039280Y026170D02*
X039240Y026170D01*
X039200Y026051D02*
X039280Y026051D01*
X039327Y025933D02*
X039128Y025933D01*
X038978Y025814D02*
X039410Y025814D01*
X039950Y025696D02*
X040025Y025696D01*
X039985Y025577D02*
X039950Y025577D01*
X039950Y025459D02*
X039997Y025459D01*
X039950Y025340D02*
X040070Y025340D01*
X040070Y025222D02*
X039950Y025222D01*
X039950Y025103D02*
X040070Y025103D01*
X040070Y024985D02*
X039950Y024985D01*
X039950Y024866D02*
X040070Y024866D01*
X040070Y024748D02*
X039950Y024748D01*
X039950Y024629D02*
X040070Y024629D01*
X040070Y024511D02*
X039950Y024511D01*
X039950Y024392D02*
X040070Y024392D01*
X040070Y024274D02*
X039950Y024274D01*
X039950Y024155D02*
X040070Y024155D01*
X040070Y024037D02*
X039950Y024037D01*
X039950Y023918D02*
X040070Y023918D01*
X040070Y023800D02*
X039950Y023800D01*
X039950Y023681D02*
X040070Y023681D01*
X040070Y023563D02*
X039950Y023563D01*
X039950Y023444D02*
X040070Y023444D01*
X040070Y023326D02*
X039950Y023326D01*
X039950Y023207D02*
X040070Y023207D01*
X040070Y023089D02*
X039950Y023089D01*
X039988Y022970D02*
X040031Y022970D01*
X040031Y022852D02*
X039988Y022852D01*
X039988Y022733D02*
X040031Y022733D01*
X040031Y022615D02*
X039988Y022615D01*
X039988Y022496D02*
X040031Y022496D01*
X039531Y022496D02*
X039488Y022496D01*
X039488Y022615D02*
X039531Y022615D01*
X039531Y022733D02*
X039488Y022733D01*
X039488Y022852D02*
X039531Y022852D01*
X039531Y022970D02*
X039488Y022970D01*
X039426Y023089D02*
X039570Y023089D01*
X039973Y020837D02*
X040046Y020837D01*
X040031Y020719D02*
X039988Y020719D01*
X039988Y020600D02*
X040031Y020600D01*
X040031Y020482D02*
X039988Y020482D01*
X039988Y020363D02*
X040031Y020363D01*
X040046Y020245D02*
X039973Y020245D01*
X037870Y018823D02*
X018549Y018823D01*
X018667Y018704D02*
X037752Y018704D01*
X037633Y018586D02*
X018786Y018586D01*
X018904Y018467D02*
X037515Y018467D01*
X037396Y018349D02*
X019023Y018349D01*
X019141Y018230D02*
X037278Y018230D01*
X035856Y016808D02*
X034959Y016808D01*
X032843Y016690D02*
X019650Y016690D01*
X019650Y016571D02*
X032737Y016571D01*
X032734Y016453D02*
X019650Y016453D01*
X019270Y016453D02*
X018188Y016453D01*
X018150Y016334D02*
X019270Y016334D01*
X019270Y016216D02*
X018150Y016216D01*
X018306Y016571D02*
X019270Y016571D01*
X019270Y016690D02*
X018425Y016690D01*
X018543Y016808D02*
X019270Y016808D01*
X019270Y016927D02*
X018662Y016927D01*
X018780Y017045D02*
X019270Y017045D01*
X019270Y017164D02*
X019236Y017164D01*
X019270Y017282D02*
X019270Y017282D01*
X019270Y017401D02*
X019270Y017401D01*
X019270Y017519D02*
X019270Y017519D01*
X017335Y016097D02*
X017261Y016097D01*
X017270Y015979D02*
X017335Y015979D01*
X017335Y015860D02*
X017270Y015860D01*
X017270Y015742D02*
X017335Y015742D01*
X017335Y015505D02*
X016445Y015505D01*
X016445Y015386D02*
X017335Y015386D01*
X017335Y015268D02*
X016445Y015268D01*
X016445Y015149D02*
X017335Y015149D01*
X017335Y015031D02*
X016445Y015031D01*
X016445Y014912D02*
X017335Y014912D01*
X017335Y014794D02*
X016445Y014794D01*
X016445Y014675D02*
X017335Y014675D01*
X017335Y014557D02*
X016445Y014557D01*
X016445Y014438D02*
X017335Y014438D01*
X017335Y014320D02*
X016445Y014320D01*
X016445Y014201D02*
X017335Y014201D01*
X017335Y014083D02*
X016445Y014083D01*
X016445Y013964D02*
X017335Y013964D01*
X017335Y013846D02*
X016445Y013846D01*
X016445Y013727D02*
X017335Y013727D01*
X017335Y013609D02*
X016445Y013609D01*
X016445Y013490D02*
X017335Y013490D01*
X017335Y013372D02*
X016445Y013372D01*
X016445Y013253D02*
X017335Y013253D01*
X017335Y013135D02*
X016445Y013135D01*
X016445Y013016D02*
X017335Y013016D01*
X017335Y012898D02*
X016445Y012898D01*
X016445Y012779D02*
X017335Y012779D01*
X017276Y012661D02*
X016445Y012661D01*
X016445Y012542D02*
X017250Y012542D01*
X017277Y012424D02*
X016445Y012424D01*
X016445Y012305D02*
X017335Y012305D01*
X017335Y012187D02*
X016445Y012187D01*
X016445Y012068D02*
X017335Y012068D01*
X017335Y011950D02*
X017209Y011950D01*
X017205Y011953D02*
X016514Y011953D01*
X016450Y011889D01*
X016450Y011498D01*
X016514Y011433D01*
X017205Y011433D01*
X017270Y011498D01*
X017270Y011889D01*
X017205Y011953D01*
X017270Y011831D02*
X017335Y011831D01*
X017335Y011713D02*
X017270Y011713D01*
X017270Y011594D02*
X017335Y011594D01*
X017335Y011476D02*
X017248Y011476D01*
X017335Y011357D02*
X016445Y011357D01*
X016445Y011239D02*
X017335Y011239D01*
X017335Y011120D02*
X016445Y011120D01*
X016445Y011002D02*
X017335Y011002D01*
X017335Y010883D02*
X016445Y010883D01*
X016445Y010765D02*
X017335Y010765D01*
X017335Y010646D02*
X016445Y010646D01*
X016445Y010528D02*
X017335Y010528D01*
X017335Y010409D02*
X017249Y010409D01*
X017270Y010389D02*
X017205Y010453D01*
X016514Y010453D01*
X016450Y010389D01*
X016450Y009998D01*
X016514Y009933D01*
X017205Y009933D01*
X017270Y009998D01*
X017270Y010389D01*
X017270Y010291D02*
X017335Y010291D01*
X017335Y010172D02*
X017270Y010172D01*
X017270Y010054D02*
X017335Y010054D01*
X017335Y009935D02*
X017207Y009935D01*
X017335Y009817D02*
X016445Y009817D01*
X016445Y009935D02*
X016512Y009935D01*
X016450Y010054D02*
X016445Y010054D01*
X016445Y010172D02*
X016450Y010172D01*
X016445Y010291D02*
X016450Y010291D01*
X016445Y010409D02*
X016470Y010409D01*
X016445Y009698D02*
X017335Y009698D01*
X017335Y009580D02*
X016445Y009580D01*
X016445Y009461D02*
X017335Y009461D01*
X017335Y009343D02*
X016445Y009343D01*
X016445Y009224D02*
X017335Y009224D01*
X017335Y009106D02*
X016445Y009106D01*
X016445Y008987D02*
X017335Y008987D01*
X017335Y008869D02*
X016445Y008869D01*
X016445Y008750D02*
X017335Y008750D01*
X017418Y008632D02*
X016445Y008632D01*
X016445Y008513D02*
X017536Y008513D01*
X017630Y008395D02*
X016445Y008395D01*
X016445Y008276D02*
X017630Y008276D01*
X017630Y008158D02*
X016445Y008158D01*
X016450Y007565D02*
X039024Y007565D01*
X038884Y007447D02*
X038535Y007447D01*
X038653Y007328D02*
X038817Y007328D01*
X038780Y007210D02*
X038710Y007210D01*
X038740Y007091D02*
X038780Y007091D01*
X038811Y006973D02*
X038740Y006973D01*
X038701Y006854D02*
X038870Y006854D01*
X038989Y006736D02*
X038631Y006736D01*
X037984Y007447D02*
X016462Y007447D01*
X016942Y006617D02*
X022774Y006617D01*
X022774Y006499D02*
X017134Y006499D01*
X017436Y006380D02*
X022774Y006380D01*
X023174Y006973D02*
X023294Y006973D01*
X023294Y007091D02*
X023174Y007091D01*
X023174Y007210D02*
X023294Y007210D01*
X023686Y007210D02*
X028844Y007210D01*
X028837Y007091D02*
X023694Y007091D01*
X023694Y006973D02*
X028837Y006973D01*
X029237Y006973D02*
X029357Y006973D01*
X029357Y007091D02*
X029237Y007091D01*
X029237Y007210D02*
X029357Y007210D01*
X029757Y006380D02*
X053083Y006380D01*
X048693Y009698D02*
X033783Y009698D01*
X033294Y010646D02*
X030725Y010646D01*
X030678Y010765D02*
X033412Y010765D01*
X033531Y010883D02*
X030608Y010883D01*
X030211Y010883D02*
X029434Y010883D01*
X029434Y010765D02*
X030141Y010765D01*
X030135Y010646D02*
X029034Y010646D01*
X029034Y010749D02*
X029434Y010749D01*
X029434Y011010D01*
X029423Y011051D01*
X029402Y011087D01*
X029372Y011117D01*
X029336Y011138D01*
X029295Y011149D01*
X029034Y011149D01*
X029034Y010749D01*
X029034Y010765D02*
X028914Y010765D01*
X028914Y010749D02*
X028914Y011149D01*
X028653Y011149D01*
X028612Y011138D01*
X028576Y011117D01*
X028546Y011087D01*
X028525Y011051D01*
X028514Y011010D01*
X028514Y010749D01*
X028914Y010749D01*
X028914Y010646D02*
X027470Y010646D01*
X027470Y010528D02*
X028514Y010528D01*
X028514Y010409D02*
X026762Y010409D01*
X026938Y010233D02*
X028637Y010233D01*
X028612Y010240D01*
X028576Y010261D01*
X028546Y010291D01*
X029402Y010291D02*
X029423Y010327D01*
X029434Y010368D01*
X029434Y010528D02*
X030186Y010528D01*
X029434Y011002D02*
X033649Y011002D01*
X033768Y011120D02*
X029367Y011120D01*
X029034Y011120D02*
X028914Y011120D01*
X028914Y011002D02*
X029034Y011002D01*
X029034Y010883D02*
X028914Y010883D01*
X028514Y010883D02*
X027470Y010883D01*
X027470Y010765D02*
X028514Y010765D01*
X028514Y011002D02*
X027470Y011002D01*
X027470Y011120D02*
X028582Y011120D01*
X027420Y011239D02*
X033886Y011239D01*
X034005Y011357D02*
X027142Y011357D01*
X026842Y011594D02*
X026135Y011594D01*
X026128Y011713D02*
X026960Y011713D01*
X027079Y011831D02*
X026060Y011831D01*
X026081Y011476D02*
X026723Y011476D01*
X026605Y011357D02*
X026050Y011357D01*
X026121Y011239D02*
X026134Y011239D01*
X026554Y011239D02*
X026567Y011239D01*
X025670Y011357D02*
X025042Y011357D01*
X025030Y011239D02*
X025060Y011239D01*
X025060Y011120D02*
X025030Y011120D01*
X025030Y011002D02*
X025060Y011002D01*
X025060Y010883D02*
X025030Y010883D01*
X025030Y010765D02*
X025060Y010765D01*
X025060Y010646D02*
X025030Y010646D01*
X025030Y010528D02*
X025060Y010528D01*
X025060Y010409D02*
X025030Y010409D01*
X024807Y010409D02*
X023457Y010409D01*
X023457Y010291D02*
X025343Y010291D01*
X025288Y010409D02*
X025282Y010409D01*
X025699Y009935D02*
X023036Y009935D01*
X023155Y009817D02*
X025817Y009817D01*
X025936Y009698D02*
X023273Y009698D01*
X022810Y009224D02*
X022034Y009224D01*
X022034Y009151D02*
X021949Y008948D01*
X021794Y008792D01*
X021590Y008708D01*
X021370Y008708D01*
X021166Y008792D01*
X021011Y008948D01*
X020926Y009151D01*
X020926Y009372D01*
X021011Y009575D01*
X021166Y009731D01*
X021370Y009815D01*
X021590Y009815D01*
X021794Y009731D01*
X021949Y009575D01*
X022034Y009372D01*
X022034Y009151D01*
X022015Y009106D02*
X022928Y009106D01*
X023047Y008987D02*
X021966Y008987D01*
X021870Y008869D02*
X046765Y008869D01*
X046884Y008750D02*
X021693Y008750D01*
X021267Y008750D02*
X018784Y008750D01*
X018784Y008869D02*
X021090Y008869D01*
X020994Y008987D02*
X018784Y008987D01*
X018784Y009106D02*
X020945Y009106D01*
X020926Y009224D02*
X018784Y009224D01*
X018784Y009343D02*
X020926Y009343D01*
X020963Y009461D02*
X018784Y009461D01*
X018784Y009580D02*
X021015Y009580D01*
X021134Y009698D02*
X018673Y009698D01*
X018555Y009817D02*
X022217Y009817D01*
X022099Y009935D02*
X019278Y009935D01*
X019288Y009945D02*
X019309Y009982D01*
X019320Y010022D01*
X019320Y010178D01*
X018875Y010178D01*
X018875Y009883D01*
X019181Y009883D01*
X019221Y009894D01*
X019258Y009915D01*
X019288Y009945D01*
X019320Y010054D02*
X021980Y010054D01*
X021970Y010172D02*
X019320Y010172D01*
X019320Y010291D02*
X021970Y010291D01*
X021970Y010409D02*
X019306Y010409D01*
X018875Y010409D02*
X018845Y010409D01*
X018845Y010291D02*
X018875Y010291D01*
X018875Y010172D02*
X018845Y010172D01*
X018845Y010054D02*
X018875Y010054D01*
X018875Y009935D02*
X018845Y009935D01*
X018373Y009461D02*
X017715Y009461D01*
X017715Y009343D02*
X018404Y009343D01*
X018404Y009224D02*
X017715Y009224D01*
X017715Y009106D02*
X018404Y009106D01*
X018404Y008987D02*
X017715Y008987D01*
X017718Y008869D02*
X018404Y008869D01*
X018404Y008750D02*
X017837Y008750D01*
X018220Y008632D02*
X018299Y008632D01*
X018299Y008513D02*
X018220Y008513D01*
X018220Y008395D02*
X018299Y008395D01*
X018299Y008276D02*
X018220Y008276D01*
X018220Y008158D02*
X018299Y008158D01*
X018889Y008632D02*
X047002Y008632D01*
X047121Y008513D02*
X046658Y008513D01*
X046777Y008395D02*
X047239Y008395D01*
X045024Y007565D02*
X044352Y007565D01*
X044300Y007565D02*
X044220Y007565D01*
X044167Y007565D02*
X043580Y007565D01*
X043694Y007447D02*
X043913Y007447D01*
X043811Y007328D02*
X043757Y007328D01*
X043300Y007328D02*
X043220Y007328D01*
X043220Y007210D02*
X043300Y007210D01*
X043300Y007091D02*
X043220Y007091D01*
X043220Y006973D02*
X043300Y006973D01*
X043300Y006854D02*
X043220Y006854D01*
X043220Y006736D02*
X043300Y006736D01*
X044220Y006973D02*
X044300Y006973D01*
X044300Y007091D02*
X044220Y007091D01*
X044220Y007210D02*
X044300Y007210D01*
X044300Y007328D02*
X044220Y007328D01*
X044220Y007447D02*
X044300Y007447D01*
X044606Y007447D02*
X044884Y007447D01*
X044817Y007328D02*
X044708Y007328D01*
X044763Y007210D02*
X044780Y007210D01*
X044785Y006973D02*
X044811Y006973D01*
X044755Y006854D02*
X044870Y006854D01*
X044989Y006736D02*
X044691Y006736D01*
X043300Y007447D02*
X043220Y007447D01*
X043220Y007565D02*
X043300Y007565D01*
X047592Y009580D02*
X048574Y009580D01*
X052620Y012187D02*
X052699Y012187D01*
X052699Y012305D02*
X052620Y012305D01*
X052620Y012424D02*
X052699Y012424D01*
X052699Y012542D02*
X052620Y012542D01*
X052598Y012661D02*
X052721Y012661D01*
X054009Y011950D02*
X054075Y011950D01*
X054070Y011831D02*
X054075Y011831D01*
X054070Y011713D02*
X054075Y011713D01*
X054070Y011594D02*
X054075Y011594D01*
X054075Y011476D02*
X054048Y011476D01*
X054049Y010409D02*
X054075Y010409D01*
X054070Y010291D02*
X054075Y010291D01*
X054070Y010172D02*
X054075Y010172D01*
X054070Y010054D02*
X054075Y010054D01*
X052804Y014438D02*
X037633Y014438D01*
X037633Y014557D02*
X052804Y014557D01*
X052804Y014675D02*
X037634Y014675D01*
X037753Y014794D02*
X052804Y014794D01*
X052699Y014912D02*
X052620Y014912D01*
X052620Y015031D02*
X052699Y015031D01*
X052699Y015149D02*
X052620Y015149D01*
X052620Y015268D02*
X052699Y015268D01*
X052699Y015386D02*
X052620Y015386D01*
X052804Y015505D02*
X052232Y015505D01*
X052114Y015623D02*
X052804Y015623D01*
X052804Y015742D02*
X052070Y015742D01*
X052070Y015860D02*
X052804Y015860D01*
X052804Y015979D02*
X052070Y015979D01*
X052061Y016097D02*
X052804Y016097D01*
X053184Y016097D02*
X053258Y016097D01*
X053250Y015979D02*
X053184Y015979D01*
X053184Y015860D02*
X053250Y015860D01*
X053250Y015742D02*
X053184Y015742D01*
X052058Y017115D02*
X052088Y017145D01*
X052109Y017182D01*
X052120Y017222D01*
X052120Y017378D01*
X051675Y017378D01*
X051675Y017083D01*
X051981Y017083D01*
X052021Y017094D01*
X052058Y017115D01*
X052098Y017164D02*
X052804Y017164D01*
X052804Y017282D02*
X052120Y017282D01*
X051675Y017282D02*
X051645Y017282D01*
X051645Y017164D02*
X051675Y017164D01*
X051675Y017519D02*
X051645Y017519D01*
X051645Y017638D02*
X051675Y017638D01*
X053184Y017638D02*
X053298Y017638D01*
X053250Y017519D02*
X053184Y017519D01*
X053184Y017401D02*
X053250Y017401D01*
X053250Y017282D02*
X053184Y017282D01*
X053184Y017164D02*
X053283Y017164D01*
X038130Y015386D02*
X036971Y015386D01*
X036853Y015268D02*
X037689Y015268D01*
X037571Y015149D02*
X037237Y015149D01*
X037031Y015149D02*
X037031Y015149D01*
X037031Y015031D02*
X037031Y015031D01*
X037031Y014912D02*
X037031Y014912D01*
X037031Y014794D02*
X037031Y014794D01*
X037031Y014735D02*
X037031Y014735D01*
X037031Y014675D02*
X037031Y014675D01*
X037031Y014557D02*
X037031Y014557D01*
X037031Y014438D02*
X037031Y014438D01*
X037031Y014320D02*
X037031Y014320D01*
X036826Y014320D02*
X035646Y014320D01*
X035646Y014201D02*
X037945Y014201D01*
X037945Y014083D02*
X035646Y014083D01*
X035646Y013964D02*
X037945Y013964D01*
X037945Y013846D02*
X035646Y013846D01*
X035646Y013727D02*
X037945Y013727D01*
X037945Y013609D02*
X035646Y013609D01*
X035646Y013490D02*
X037945Y013490D01*
X037945Y013372D02*
X035646Y013372D01*
X034470Y012779D02*
X025108Y012779D01*
X025208Y012661D02*
X034470Y012661D01*
X034470Y012542D02*
X025235Y012542D01*
X025208Y012424D02*
X025571Y012424D01*
X025635Y011950D02*
X034470Y011950D01*
X034470Y012068D02*
X034173Y012068D01*
X034234Y012187D02*
X034470Y012187D01*
X034470Y012305D02*
X034231Y012305D01*
X034168Y012424D02*
X034470Y012424D01*
X034470Y011831D02*
X033760Y011831D01*
X033828Y011713D02*
X034360Y011713D01*
X034242Y011594D02*
X033835Y011594D01*
X033781Y011476D02*
X034123Y011476D01*
X037236Y014320D02*
X037956Y014320D01*
X037871Y014912D02*
X038130Y014912D01*
X031560Y021430D02*
X022960Y021430D01*
X022960Y021548D02*
X031560Y021548D01*
X030439Y021785D02*
X030080Y021785D01*
X030180Y021904D02*
X030339Y021904D01*
X030290Y022022D02*
X030229Y022022D01*
X030240Y022141D02*
X030280Y022141D01*
X030288Y022259D02*
X030231Y022259D01*
X030256Y022378D02*
X030182Y022378D01*
X030138Y022496D02*
X030085Y022496D01*
X029288Y022259D02*
X029231Y022259D01*
X029240Y022141D02*
X029280Y022141D01*
X029290Y022022D02*
X029229Y022022D01*
X029180Y021904D02*
X029339Y021904D01*
X029439Y021785D02*
X029080Y021785D01*
X028439Y021785D02*
X028080Y021785D01*
X028180Y021904D02*
X028339Y021904D01*
X028290Y022022D02*
X028229Y022022D01*
X028240Y022141D02*
X028280Y022141D01*
X028288Y022259D02*
X028231Y022259D01*
X028256Y022378D02*
X028182Y022378D01*
X028138Y022496D02*
X028085Y022496D01*
X028019Y022615D02*
X027875Y022615D01*
X027901Y022733D02*
X027438Y022733D01*
X027557Y022615D02*
X027644Y022615D01*
X027782Y022852D02*
X027320Y022852D01*
X027253Y022970D02*
X027664Y022970D01*
X027545Y023089D02*
X027253Y023089D01*
X027253Y023207D02*
X027427Y023207D01*
X027308Y023326D02*
X027253Y023326D01*
X027253Y023444D02*
X027266Y023444D01*
X027253Y023563D02*
X027266Y023563D01*
X027253Y023681D02*
X027266Y023681D01*
X026873Y023681D02*
X026859Y023681D01*
X026859Y023563D02*
X026873Y023563D01*
X026859Y023444D02*
X026873Y023444D01*
X026859Y023326D02*
X026873Y023326D01*
X026859Y023207D02*
X026873Y023207D01*
X026859Y023089D02*
X026873Y023089D01*
X026859Y022970D02*
X026873Y022970D01*
X026859Y022852D02*
X026873Y022852D01*
X026859Y022733D02*
X026901Y022733D01*
X026875Y022615D02*
X027019Y022615D01*
X027085Y022496D02*
X027138Y022496D01*
X027182Y022378D02*
X027256Y022378D01*
X027231Y022259D02*
X027288Y022259D01*
X027280Y022141D02*
X027240Y022141D01*
X027229Y022022D02*
X027290Y022022D01*
X027339Y021904D02*
X027180Y021904D01*
X027080Y021785D02*
X027439Y021785D01*
X025962Y022615D02*
X025875Y022615D01*
X025288Y022259D02*
X025231Y022259D01*
X025240Y022141D02*
X025280Y022141D01*
X025290Y022022D02*
X025229Y022022D01*
X025180Y021904D02*
X025339Y021904D01*
X025439Y021785D02*
X025080Y021785D01*
X024864Y021667D02*
X025656Y021667D01*
X024656Y021667D02*
X023864Y021667D01*
X023656Y021667D02*
X022960Y021667D01*
X022960Y021785D02*
X023439Y021785D01*
X023339Y021904D02*
X022960Y021904D01*
X022960Y022022D02*
X023290Y022022D01*
X023280Y022141D02*
X022960Y022141D01*
X022960Y022259D02*
X023288Y022259D01*
X023337Y022378D02*
X022960Y022378D01*
X022960Y022496D02*
X023434Y022496D01*
X023570Y022615D02*
X022960Y022615D01*
X022960Y022733D02*
X023570Y022733D01*
X023570Y022852D02*
X022960Y022852D01*
X022960Y022970D02*
X023570Y022970D01*
X023450Y023089D02*
X022960Y023089D01*
X022960Y023207D02*
X023450Y023207D01*
X023450Y023326D02*
X022960Y023326D01*
X022960Y023444D02*
X023450Y023444D01*
X023473Y023563D02*
X022960Y023563D01*
X022960Y023681D02*
X024153Y023681D01*
X024046Y023563D02*
X024271Y023563D01*
X024390Y023444D02*
X024070Y023444D01*
X024070Y023326D02*
X024508Y023326D01*
X023450Y023800D02*
X022960Y023800D01*
X022960Y023918D02*
X023450Y023918D01*
X023450Y024037D02*
X022960Y024037D01*
X022960Y024155D02*
X023450Y024155D01*
X023542Y024511D02*
X022960Y024511D01*
X022960Y024629D02*
X023488Y024629D01*
X023488Y024748D02*
X022960Y024748D01*
X022960Y024866D02*
X023488Y024866D01*
X023488Y024985D02*
X022960Y024985D01*
X022960Y025103D02*
X023488Y025103D01*
X023488Y025222D02*
X022960Y025222D01*
X022960Y025340D02*
X023488Y025340D01*
X023488Y025459D02*
X022960Y025459D01*
X022960Y025577D02*
X023544Y025577D01*
X022560Y024392D02*
X021896Y024392D01*
X021976Y024274D02*
X022560Y024274D01*
X022560Y024155D02*
X022025Y024155D01*
X022034Y024037D02*
X022560Y024037D01*
X022560Y023918D02*
X022034Y023918D01*
X021986Y023800D02*
X022560Y023800D01*
X022560Y023681D02*
X021919Y023681D01*
X021801Y023563D02*
X022560Y023563D01*
X024085Y022496D02*
X024434Y022496D01*
X024337Y022378D02*
X024182Y022378D01*
X024231Y022259D02*
X024288Y022259D01*
X024280Y022141D02*
X024240Y022141D01*
X024229Y022022D02*
X024290Y022022D01*
X024339Y021904D02*
X024180Y021904D01*
X024080Y021785D02*
X024439Y021785D01*
X022560Y021785D02*
X019270Y021785D01*
X019270Y021789D02*
X019205Y021853D01*
X018514Y021853D01*
X018450Y021789D01*
X018450Y021398D01*
X018514Y021333D01*
X019205Y021333D01*
X019270Y021398D01*
X019270Y021789D01*
X019270Y021667D02*
X022560Y021667D01*
X022560Y021548D02*
X019270Y021548D01*
X019270Y021430D02*
X022560Y021430D01*
X018450Y021667D02*
X018005Y021667D01*
X018450Y021785D02*
X017270Y021785D01*
X016875Y023207D02*
X016845Y023207D01*
X016845Y023326D02*
X016875Y023326D01*
X029085Y022496D02*
X029138Y022496D01*
X029182Y022378D02*
X029256Y022378D01*
X037038Y026644D02*
X037585Y026644D01*
X037720Y026644D02*
X037800Y026644D01*
X037800Y026525D02*
X037720Y026525D01*
X037720Y026407D02*
X037800Y026407D01*
X037800Y026288D02*
X037720Y026288D01*
X037720Y026051D02*
X037800Y026051D01*
X037800Y025933D02*
X037720Y025933D01*
X037720Y025814D02*
X037800Y025814D01*
X037800Y025696D02*
X037720Y025696D01*
X037249Y026288D02*
X037240Y026288D01*
X037211Y026407D02*
X037299Y026407D01*
X037392Y026525D02*
X037156Y026525D01*
X037934Y026644D02*
X038481Y026644D01*
X038363Y026525D02*
X038127Y026525D01*
X038220Y026407D02*
X038308Y026407D01*
X038280Y026288D02*
X038270Y026288D01*
X024811Y012779D02*
X024270Y012779D01*
X025516Y011831D02*
X025659Y011831D01*
X025591Y011713D02*
X025398Y011713D01*
X025279Y011594D02*
X025585Y011594D01*
X025638Y011476D02*
X025161Y011476D01*
X023485Y010528D02*
X023457Y010528D01*
X022454Y009580D02*
X021945Y009580D01*
X021997Y009461D02*
X022573Y009461D01*
X022691Y009343D02*
X022034Y009343D01*
X021826Y009698D02*
X022336Y009698D01*
X018254Y009580D02*
X017715Y009580D01*
X017715Y009698D02*
X018136Y009698D01*
X018070Y009817D02*
X017715Y009817D01*
X017715Y009935D02*
X018070Y009935D01*
X018070Y010054D02*
X017715Y010054D01*
X017715Y010172D02*
X018070Y010172D01*
X018070Y010291D02*
X017715Y010291D01*
X017715Y010409D02*
X018070Y010409D01*
X018070Y010528D02*
X017715Y010528D01*
X017715Y010646D02*
X018070Y010646D01*
X018070Y010765D02*
X017715Y010765D01*
X017715Y010883D02*
X018070Y010883D01*
X018070Y011002D02*
X017715Y011002D01*
X017715Y011120D02*
X018070Y011120D01*
X018136Y011239D02*
X017715Y011239D01*
X017715Y011357D02*
X018255Y011357D01*
X018373Y011476D02*
X017715Y011476D01*
X017715Y011594D02*
X018450Y011594D01*
X018450Y011713D02*
X017715Y011713D01*
X017715Y011831D02*
X018450Y011831D01*
X016510Y011950D02*
X016445Y011950D01*
X016445Y011831D02*
X016450Y011831D01*
X016445Y011713D02*
X016450Y011713D01*
X016445Y011594D02*
X016450Y011594D01*
X016445Y011476D02*
X016471Y011476D01*
M02*
