%
M48
M72
T01C0.0130
T02C0.0236
T03C0.0350
T04C0.0400
T05C0.0787
%
T01
X17860Y23843
X23160Y24443
X24460Y22943
X24260Y21543
X27560Y22843
X30760Y23643
X28960Y25343
X31260Y25943
X25760Y25543
X16860Y19543
X19260Y19343
X18060Y17343
X18960Y16643
X18760Y15143
X16860Y13943
X18760Y13143
X17525Y12543
X20260Y11643
X22760Y11643
X24960Y12543
X25860Y11643
X28060Y11143
X30410Y10693
X32060Y11043
X33560Y11643
X33960Y12243
X33660Y13543
X36560Y13743
X37560Y15543
X38660Y15943
X39360Y16543
X41560Y16143
X43760Y17043
X41260Y18143
X40260Y18143
X39660Y18643
X39760Y19143
X38260Y19843
X41760Y19243
X42960Y19543
X44460Y21143
X45260Y21843
X46460Y21143
X47660Y21143
X48760Y21943
X47660Y24743
X46160Y24743
X42560Y23743
X42660Y23243
X42260Y21943
X38460Y24443
X40260Y25543
X42360Y24843
X51360Y24443
X53660Y20043
X52260Y19543
X48160Y17543
X51560Y13843
X53760Y13843
X49860Y11143
X46860Y10243
X47560Y8843
X46160Y7543
X44160Y8743
X43260Y10243
X41660Y11143
X39860Y9943
X39760Y8743
X41760Y8743
X36060Y9843
X36160Y11043
X33160Y8743
X24160Y8743
X19760Y9643
X18760Y7143
X21560Y13143
X52760Y8743
T02
X34760Y16543
T03
X24336Y6552
X27485Y6552
T04
X51260Y7043
X52260Y7143
X23760Y22143
X24760Y22143
X25760Y22143
X26760Y22143
X27760Y22143
X28760Y22143
X29760Y22143
X30760Y22143
X34760Y26143
X35760Y26143
X36760Y26243
X37760Y26143
X38760Y26243
X39760Y26143
X40760Y26243
X41760Y26143
X42760Y26243
X43760Y26143
X45260Y26243
X46260Y26143
X47260Y26243
X48260Y26143
X49260Y26243
X50260Y26143
X51260Y26243
X52260Y26143
X48260Y7143
X49260Y7043
X50260Y7143
X47260Y7043
X45260Y7143
X44260Y7043
X43260Y7143
X42260Y7043
X41260Y7143
X40260Y7043
X39260Y7143
X38260Y7043
T05
X21480Y24025
X21480Y9261
X49039Y9261
X49039Y24025
M30
