G75*
%MOIN*%
%OFA0B0*%
%FSLAX24Y24*%
%IPPOS*%
%LPD*%
%AMOC8*
5,1,8,0,0,1.08239X$1,22.5*
%
%ADD10C,0.0050*%
%ADD11C,0.0000*%
D10*
X016260Y007643D02*
X016260Y025143D01*
X016250Y025224D01*
X016244Y025306D01*
X016242Y025387D01*
X016244Y025469D01*
X016249Y025550D01*
X016258Y025631D01*
X016271Y025712D01*
X016288Y025792D01*
X016308Y025871D01*
X016332Y025949D01*
X016359Y026026D01*
X016390Y026102D01*
X016425Y026176D01*
X016463Y026248D01*
X016504Y026319D01*
X016548Y026387D01*
X016596Y026454D01*
X016646Y026518D01*
X016700Y026580D01*
X016756Y026639D01*
X016815Y026696D01*
X016876Y026749D01*
X016940Y026800D01*
X017006Y026848D01*
X017074Y026893D01*
X017145Y026935D01*
X017217Y026973D01*
X017291Y027008D01*
X017366Y027039D01*
X017443Y027067D01*
X017521Y027092D01*
X017600Y027113D01*
X017679Y027130D01*
X017760Y027143D01*
X052760Y027143D01*
X052841Y027130D01*
X052920Y027113D01*
X052999Y027092D01*
X053077Y027067D01*
X053154Y027039D01*
X053229Y027008D01*
X053303Y026973D01*
X053375Y026935D01*
X053446Y026893D01*
X053514Y026848D01*
X053580Y026800D01*
X053644Y026749D01*
X053705Y026696D01*
X053764Y026639D01*
X053820Y026580D01*
X053874Y026518D01*
X053924Y026454D01*
X053972Y026387D01*
X054016Y026319D01*
X054057Y026248D01*
X054095Y026176D01*
X054130Y026102D01*
X054161Y026026D01*
X054188Y025949D01*
X054212Y025871D01*
X054232Y025792D01*
X054249Y025712D01*
X054262Y025631D01*
X054271Y025550D01*
X054276Y025469D01*
X054278Y025387D01*
X054276Y025306D01*
X054270Y025224D01*
X054260Y025143D01*
X054260Y007643D01*
X054258Y007567D01*
X054252Y007491D01*
X054243Y007416D01*
X054229Y007341D01*
X054212Y007267D01*
X054191Y007194D01*
X054167Y007122D01*
X054138Y007051D01*
X054107Y006982D01*
X054072Y006915D01*
X054033Y006850D01*
X053991Y006786D01*
X053946Y006725D01*
X053898Y006666D01*
X053847Y006610D01*
X053793Y006556D01*
X053737Y006505D01*
X053678Y006457D01*
X053617Y006412D01*
X053553Y006370D01*
X053488Y006331D01*
X053421Y006296D01*
X053352Y006265D01*
X053281Y006236D01*
X053209Y006212D01*
X053136Y006191D01*
X053062Y006174D01*
X052987Y006160D01*
X052912Y006151D01*
X052836Y006145D01*
X052760Y006143D01*
X017760Y006143D01*
X017684Y006145D01*
X017608Y006151D01*
X017533Y006160D01*
X017458Y006174D01*
X017384Y006191D01*
X017311Y006212D01*
X017239Y006236D01*
X017168Y006265D01*
X017099Y006296D01*
X017032Y006331D01*
X016967Y006370D01*
X016903Y006412D01*
X016842Y006457D01*
X016783Y006505D01*
X016727Y006556D01*
X016673Y006610D01*
X016622Y006666D01*
X016574Y006725D01*
X016529Y006786D01*
X016487Y006850D01*
X016448Y006915D01*
X016413Y006982D01*
X016382Y007051D01*
X016353Y007122D01*
X016329Y007194D01*
X016308Y007267D01*
X016291Y007341D01*
X016277Y007416D01*
X016268Y007491D01*
X016262Y007567D01*
X016260Y007643D01*
D11*
X021086Y009261D02*
X021088Y009300D01*
X021094Y009339D01*
X021104Y009377D01*
X021117Y009414D01*
X021134Y009449D01*
X021154Y009483D01*
X021178Y009514D01*
X021205Y009543D01*
X021234Y009569D01*
X021266Y009592D01*
X021300Y009612D01*
X021336Y009628D01*
X021373Y009640D01*
X021412Y009649D01*
X021451Y009654D01*
X021490Y009655D01*
X021529Y009652D01*
X021568Y009645D01*
X021605Y009634D01*
X021642Y009620D01*
X021677Y009602D01*
X021710Y009581D01*
X021741Y009556D01*
X021769Y009529D01*
X021794Y009499D01*
X021816Y009466D01*
X021835Y009432D01*
X021850Y009396D01*
X021862Y009358D01*
X021870Y009320D01*
X021874Y009281D01*
X021874Y009241D01*
X021870Y009202D01*
X021862Y009164D01*
X021850Y009126D01*
X021835Y009090D01*
X021816Y009056D01*
X021794Y009023D01*
X021769Y008993D01*
X021741Y008966D01*
X021710Y008941D01*
X021677Y008920D01*
X021642Y008902D01*
X021605Y008888D01*
X021568Y008877D01*
X021529Y008870D01*
X021490Y008867D01*
X021451Y008868D01*
X021412Y008873D01*
X021373Y008882D01*
X021336Y008894D01*
X021300Y008910D01*
X021266Y008930D01*
X021234Y008953D01*
X021205Y008979D01*
X021178Y009008D01*
X021154Y009039D01*
X021134Y009073D01*
X021117Y009108D01*
X021104Y009145D01*
X021094Y009183D01*
X021088Y009222D01*
X021086Y009261D01*
X024161Y006552D02*
X024163Y006578D01*
X024169Y006604D01*
X024178Y006628D01*
X024191Y006651D01*
X024208Y006671D01*
X024227Y006689D01*
X024249Y006704D01*
X024272Y006715D01*
X024297Y006723D01*
X024323Y006727D01*
X024349Y006727D01*
X024375Y006723D01*
X024400Y006715D01*
X024424Y006704D01*
X024445Y006689D01*
X024464Y006671D01*
X024481Y006651D01*
X024494Y006628D01*
X024503Y006604D01*
X024509Y006578D01*
X024511Y006552D01*
X024509Y006526D01*
X024503Y006500D01*
X024494Y006476D01*
X024481Y006453D01*
X024464Y006433D01*
X024445Y006415D01*
X024423Y006400D01*
X024400Y006389D01*
X024375Y006381D01*
X024349Y006377D01*
X024323Y006377D01*
X024297Y006381D01*
X024272Y006389D01*
X024248Y006400D01*
X024227Y006415D01*
X024208Y006433D01*
X024191Y006453D01*
X024178Y006476D01*
X024169Y006500D01*
X024163Y006526D01*
X024161Y006552D01*
X027310Y006552D02*
X027312Y006578D01*
X027318Y006604D01*
X027327Y006628D01*
X027340Y006651D01*
X027357Y006671D01*
X027376Y006689D01*
X027398Y006704D01*
X027421Y006715D01*
X027446Y006723D01*
X027472Y006727D01*
X027498Y006727D01*
X027524Y006723D01*
X027549Y006715D01*
X027573Y006704D01*
X027594Y006689D01*
X027613Y006671D01*
X027630Y006651D01*
X027643Y006628D01*
X027652Y006604D01*
X027658Y006578D01*
X027660Y006552D01*
X027658Y006526D01*
X027652Y006500D01*
X027643Y006476D01*
X027630Y006453D01*
X027613Y006433D01*
X027594Y006415D01*
X027572Y006400D01*
X027549Y006389D01*
X027524Y006381D01*
X027498Y006377D01*
X027472Y006377D01*
X027446Y006381D01*
X027421Y006389D01*
X027397Y006400D01*
X027376Y006415D01*
X027357Y006433D01*
X027340Y006453D01*
X027327Y006476D01*
X027318Y006500D01*
X027312Y006526D01*
X027310Y006552D01*
X048645Y009261D02*
X048647Y009300D01*
X048653Y009339D01*
X048663Y009377D01*
X048676Y009414D01*
X048693Y009449D01*
X048713Y009483D01*
X048737Y009514D01*
X048764Y009543D01*
X048793Y009569D01*
X048825Y009592D01*
X048859Y009612D01*
X048895Y009628D01*
X048932Y009640D01*
X048971Y009649D01*
X049010Y009654D01*
X049049Y009655D01*
X049088Y009652D01*
X049127Y009645D01*
X049164Y009634D01*
X049201Y009620D01*
X049236Y009602D01*
X049269Y009581D01*
X049300Y009556D01*
X049328Y009529D01*
X049353Y009499D01*
X049375Y009466D01*
X049394Y009432D01*
X049409Y009396D01*
X049421Y009358D01*
X049429Y009320D01*
X049433Y009281D01*
X049433Y009241D01*
X049429Y009202D01*
X049421Y009164D01*
X049409Y009126D01*
X049394Y009090D01*
X049375Y009056D01*
X049353Y009023D01*
X049328Y008993D01*
X049300Y008966D01*
X049269Y008941D01*
X049236Y008920D01*
X049201Y008902D01*
X049164Y008888D01*
X049127Y008877D01*
X049088Y008870D01*
X049049Y008867D01*
X049010Y008868D01*
X048971Y008873D01*
X048932Y008882D01*
X048895Y008894D01*
X048859Y008910D01*
X048825Y008930D01*
X048793Y008953D01*
X048764Y008979D01*
X048737Y009008D01*
X048713Y009039D01*
X048693Y009073D01*
X048676Y009108D01*
X048663Y009145D01*
X048653Y009183D01*
X048647Y009222D01*
X048645Y009261D01*
X048645Y024025D02*
X048647Y024064D01*
X048653Y024103D01*
X048663Y024141D01*
X048676Y024178D01*
X048693Y024213D01*
X048713Y024247D01*
X048737Y024278D01*
X048764Y024307D01*
X048793Y024333D01*
X048825Y024356D01*
X048859Y024376D01*
X048895Y024392D01*
X048932Y024404D01*
X048971Y024413D01*
X049010Y024418D01*
X049049Y024419D01*
X049088Y024416D01*
X049127Y024409D01*
X049164Y024398D01*
X049201Y024384D01*
X049236Y024366D01*
X049269Y024345D01*
X049300Y024320D01*
X049328Y024293D01*
X049353Y024263D01*
X049375Y024230D01*
X049394Y024196D01*
X049409Y024160D01*
X049421Y024122D01*
X049429Y024084D01*
X049433Y024045D01*
X049433Y024005D01*
X049429Y023966D01*
X049421Y023928D01*
X049409Y023890D01*
X049394Y023854D01*
X049375Y023820D01*
X049353Y023787D01*
X049328Y023757D01*
X049300Y023730D01*
X049269Y023705D01*
X049236Y023684D01*
X049201Y023666D01*
X049164Y023652D01*
X049127Y023641D01*
X049088Y023634D01*
X049049Y023631D01*
X049010Y023632D01*
X048971Y023637D01*
X048932Y023646D01*
X048895Y023658D01*
X048859Y023674D01*
X048825Y023694D01*
X048793Y023717D01*
X048764Y023743D01*
X048737Y023772D01*
X048713Y023803D01*
X048693Y023837D01*
X048676Y023872D01*
X048663Y023909D01*
X048653Y023947D01*
X048647Y023986D01*
X048645Y024025D01*
X021086Y024025D02*
X021088Y024064D01*
X021094Y024103D01*
X021104Y024141D01*
X021117Y024178D01*
X021134Y024213D01*
X021154Y024247D01*
X021178Y024278D01*
X021205Y024307D01*
X021234Y024333D01*
X021266Y024356D01*
X021300Y024376D01*
X021336Y024392D01*
X021373Y024404D01*
X021412Y024413D01*
X021451Y024418D01*
X021490Y024419D01*
X021529Y024416D01*
X021568Y024409D01*
X021605Y024398D01*
X021642Y024384D01*
X021677Y024366D01*
X021710Y024345D01*
X021741Y024320D01*
X021769Y024293D01*
X021794Y024263D01*
X021816Y024230D01*
X021835Y024196D01*
X021850Y024160D01*
X021862Y024122D01*
X021870Y024084D01*
X021874Y024045D01*
X021874Y024005D01*
X021870Y023966D01*
X021862Y023928D01*
X021850Y023890D01*
X021835Y023854D01*
X021816Y023820D01*
X021794Y023787D01*
X021769Y023757D01*
X021741Y023730D01*
X021710Y023705D01*
X021677Y023684D01*
X021642Y023666D01*
X021605Y023652D01*
X021568Y023641D01*
X021529Y023634D01*
X021490Y023631D01*
X021451Y023632D01*
X021412Y023637D01*
X021373Y023646D01*
X021336Y023658D01*
X021300Y023674D01*
X021266Y023694D01*
X021234Y023717D01*
X021205Y023743D01*
X021178Y023772D01*
X021154Y023803D01*
X021134Y023837D01*
X021117Y023872D01*
X021104Y023909D01*
X021094Y023947D01*
X021088Y023986D01*
X021086Y024025D01*
M02*
